<?xml version="1.0" encoding="utf-8"?>
<svg xmlns="http://www.w3.org/2000/svg" xmlns:xlink="http://www.w3.org/1999/xlink" width="600" height="400" viewBox="0 0 2400 1600">
<defs>
  <clipPath id="clip220">
    <rect x="0" y="0" width="2400" height="1600"/>
  </clipPath>
</defs>
<path clip-path="url(#clip220)" d="M0 1600 L2400 1600 L2400 0 L0 0  Z" fill="#ffffff" fill-rule="evenodd" fill-opacity="1"/>
<defs>
  <clipPath id="clip221">
    <rect x="480" y="0" width="1681" height="1600"/>
  </clipPath>
</defs>
<path clip-path="url(#clip220)" d="M205.121 1423.18 L2352.76 1423.18 L2352.76 123.472 L205.121 123.472  Z" fill="#ffffff" fill-rule="evenodd" fill-opacity="1"/>
<defs>
  <clipPath id="clip222">
    <rect x="205" y="123" width="2149" height="1301"/>
  </clipPath>
</defs>
<polyline clip-path="url(#clip222)" style="stroke:#000000; stroke-linecap:round; stroke-linejoin:round; stroke-width:2; stroke-opacity:0.1; fill:none" points="205.121,1423.18 205.121,123.472 "/>
<polyline clip-path="url(#clip222)" style="stroke:#000000; stroke-linecap:round; stroke-linejoin:round; stroke-width:2; stroke-opacity:0.1; fill:none" points="634.648,1423.18 634.648,123.472 "/>
<polyline clip-path="url(#clip222)" style="stroke:#000000; stroke-linecap:round; stroke-linejoin:round; stroke-width:2; stroke-opacity:0.1; fill:none" points="1064.17,1423.18 1064.17,123.472 "/>
<polyline clip-path="url(#clip222)" style="stroke:#000000; stroke-linecap:round; stroke-linejoin:round; stroke-width:2; stroke-opacity:0.1; fill:none" points="1493.7,1423.18 1493.7,123.472 "/>
<polyline clip-path="url(#clip222)" style="stroke:#000000; stroke-linecap:round; stroke-linejoin:round; stroke-width:2; stroke-opacity:0.1; fill:none" points="1923.23,1423.18 1923.23,123.472 "/>
<polyline clip-path="url(#clip222)" style="stroke:#000000; stroke-linecap:round; stroke-linejoin:round; stroke-width:2; stroke-opacity:0.1; fill:none" points="2352.76,1423.18 2352.76,123.472 "/>
<polyline clip-path="url(#clip222)" style="stroke:#000000; stroke-linecap:round; stroke-linejoin:round; stroke-width:2; stroke-opacity:0.1; fill:none" points="205.121,1407.11 2352.76,1407.11 "/>
<polyline clip-path="url(#clip222)" style="stroke:#000000; stroke-linecap:round; stroke-linejoin:round; stroke-width:2; stroke-opacity:0.1; fill:none" points="205.121,1199.92 2352.76,1199.92 "/>
<polyline clip-path="url(#clip222)" style="stroke:#000000; stroke-linecap:round; stroke-linejoin:round; stroke-width:2; stroke-opacity:0.1; fill:none" points="205.121,992.735 2352.76,992.735 "/>
<polyline clip-path="url(#clip222)" style="stroke:#000000; stroke-linecap:round; stroke-linejoin:round; stroke-width:2; stroke-opacity:0.1; fill:none" points="205.121,785.545 2352.76,785.545 "/>
<polyline clip-path="url(#clip222)" style="stroke:#000000; stroke-linecap:round; stroke-linejoin:round; stroke-width:2; stroke-opacity:0.1; fill:none" points="205.121,578.355 2352.76,578.355 "/>
<polyline clip-path="url(#clip222)" style="stroke:#000000; stroke-linecap:round; stroke-linejoin:round; stroke-width:2; stroke-opacity:0.1; fill:none" points="205.121,371.165 2352.76,371.165 "/>
<polyline clip-path="url(#clip222)" style="stroke:#000000; stroke-linecap:round; stroke-linejoin:round; stroke-width:2; stroke-opacity:0.1; fill:none" points="205.121,163.975 2352.76,163.975 "/>
<polyline clip-path="url(#clip220)" style="stroke:#000000; stroke-linecap:round; stroke-linejoin:round; stroke-width:4; stroke-opacity:1; fill:none" points="205.121,1423.18 2352.76,1423.18 "/>
<polyline clip-path="url(#clip220)" style="stroke:#000000; stroke-linecap:round; stroke-linejoin:round; stroke-width:4; stroke-opacity:1; fill:none" points="205.121,1423.18 205.121,1404.28 "/>
<polyline clip-path="url(#clip220)" style="stroke:#000000; stroke-linecap:round; stroke-linejoin:round; stroke-width:4; stroke-opacity:1; fill:none" points="634.648,1423.18 634.648,1404.28 "/>
<polyline clip-path="url(#clip220)" style="stroke:#000000; stroke-linecap:round; stroke-linejoin:round; stroke-width:4; stroke-opacity:1; fill:none" points="1064.17,1423.18 1064.17,1404.28 "/>
<polyline clip-path="url(#clip220)" style="stroke:#000000; stroke-linecap:round; stroke-linejoin:round; stroke-width:4; stroke-opacity:1; fill:none" points="1493.7,1423.18 1493.7,1404.28 "/>
<polyline clip-path="url(#clip220)" style="stroke:#000000; stroke-linecap:round; stroke-linejoin:round; stroke-width:4; stroke-opacity:1; fill:none" points="1923.23,1423.18 1923.23,1404.28 "/>
<polyline clip-path="url(#clip220)" style="stroke:#000000; stroke-linecap:round; stroke-linejoin:round; stroke-width:4; stroke-opacity:1; fill:none" points="2352.76,1423.18 2352.76,1404.28 "/>
<path clip-path="url(#clip220)" d="M205.121 1454.1 Q201.51 1454.1 199.681 1457.66 Q197.876 1461.2 197.876 1468.33 Q197.876 1475.44 199.681 1479.01 Q201.51 1482.55 205.121 1482.55 Q208.755 1482.55 210.561 1479.01 Q212.389 1475.44 212.389 1468.33 Q212.389 1461.2 210.561 1457.66 Q208.755 1454.1 205.121 1454.1 M205.121 1450.39 Q210.931 1450.39 213.987 1455 Q217.065 1459.58 217.065 1468.33 Q217.065 1477.06 213.987 1481.67 Q210.931 1486.25 205.121 1486.25 Q199.311 1486.25 196.232 1481.67 Q193.177 1477.06 193.177 1468.33 Q193.177 1459.58 196.232 1455 Q199.311 1450.39 205.121 1450.39 Z" fill="#000000" fill-rule="nonzero" fill-opacity="1" /><path clip-path="url(#clip220)" d="M629.301 1481.64 L645.62 1481.64 L645.62 1485.58 L623.676 1485.58 L623.676 1481.64 Q626.338 1478.89 630.921 1474.26 Q635.528 1469.61 636.708 1468.27 Q638.953 1465.74 639.833 1464.01 Q640.736 1462.25 640.736 1460.56 Q640.736 1457.8 638.791 1456.07 Q636.87 1454.33 633.768 1454.33 Q631.569 1454.33 629.116 1455.09 Q626.685 1455.86 623.907 1457.41 L623.907 1452.69 Q626.731 1451.55 629.185 1450.97 Q631.639 1450.39 633.676 1450.39 Q639.046 1450.39 642.241 1453.08 Q645.435 1455.77 645.435 1460.26 Q645.435 1462.39 644.625 1464.31 Q643.838 1466.2 641.731 1468.8 Q641.153 1469.47 638.051 1472.69 Q634.949 1475.88 629.301 1481.64 Z" fill="#000000" fill-rule="nonzero" fill-opacity="1" /><path clip-path="url(#clip220)" d="M1067.18 1455.09 L1055.38 1473.54 L1067.18 1473.54 L1067.18 1455.09 M1065.96 1451.02 L1071.84 1451.02 L1071.84 1473.54 L1076.77 1473.54 L1076.77 1477.43 L1071.84 1477.43 L1071.84 1485.58 L1067.18 1485.58 L1067.18 1477.43 L1051.58 1477.43 L1051.58 1472.92 L1065.96 1451.02 Z" fill="#000000" fill-rule="nonzero" fill-opacity="1" /><path clip-path="url(#clip220)" d="M1494.11 1466.44 Q1490.96 1466.44 1489.11 1468.59 Q1487.28 1470.74 1487.28 1474.49 Q1487.28 1478.22 1489.11 1480.39 Q1490.96 1482.55 1494.11 1482.55 Q1497.26 1482.55 1499.08 1480.39 Q1500.94 1478.22 1500.94 1474.49 Q1500.94 1470.74 1499.08 1468.59 Q1497.26 1466.44 1494.11 1466.44 M1503.39 1451.78 L1503.39 1456.04 Q1501.63 1455.21 1499.82 1454.77 Q1498.04 1454.33 1496.28 1454.33 Q1491.65 1454.33 1489.2 1457.45 Q1486.77 1460.58 1486.42 1466.9 Q1487.79 1464.89 1489.85 1463.82 Q1491.91 1462.73 1494.38 1462.73 Q1499.59 1462.73 1502.6 1465.9 Q1505.63 1469.05 1505.63 1474.49 Q1505.63 1479.82 1502.49 1483.03 Q1499.34 1486.25 1494.11 1486.25 Q1488.11 1486.25 1484.94 1481.67 Q1481.77 1477.06 1481.77 1468.33 Q1481.77 1460.14 1485.66 1455.28 Q1489.55 1450.39 1496.1 1450.39 Q1497.86 1450.39 1499.64 1450.74 Q1501.44 1451.09 1503.39 1451.78 Z" fill="#000000" fill-rule="nonzero" fill-opacity="1" /><path clip-path="url(#clip220)" d="M1923.23 1469.17 Q1919.9 1469.17 1917.97 1470.95 Q1916.08 1472.73 1916.08 1475.86 Q1916.08 1478.98 1917.97 1480.77 Q1919.9 1482.55 1923.23 1482.55 Q1926.56 1482.55 1928.48 1480.77 Q1930.4 1478.96 1930.4 1475.86 Q1930.4 1472.73 1928.48 1470.95 Q1926.59 1469.17 1923.23 1469.17 M1918.55 1467.18 Q1915.54 1466.44 1913.85 1464.38 Q1912.19 1462.32 1912.19 1459.35 Q1912.19 1455.21 1915.13 1452.8 Q1918.09 1450.39 1923.23 1450.39 Q1928.39 1450.39 1931.33 1452.8 Q1934.27 1455.21 1934.27 1459.35 Q1934.27 1462.32 1932.58 1464.38 Q1930.91 1466.44 1927.93 1467.18 Q1931.31 1467.96 1933.18 1470.26 Q1935.08 1472.55 1935.08 1475.86 Q1935.08 1480.88 1932 1483.57 Q1928.95 1486.25 1923.23 1486.25 Q1917.51 1486.25 1914.43 1483.57 Q1911.38 1480.88 1911.38 1475.86 Q1911.38 1472.55 1913.28 1470.26 Q1915.17 1467.96 1918.55 1467.18 M1916.84 1459.79 Q1916.84 1462.48 1918.51 1463.98 Q1920.2 1465.49 1923.23 1465.49 Q1926.24 1465.49 1927.93 1463.98 Q1929.64 1462.48 1929.64 1459.79 Q1929.64 1457.11 1927.93 1455.6 Q1926.24 1454.1 1923.23 1454.1 Q1920.2 1454.1 1918.51 1455.6 Q1916.84 1457.11 1916.84 1459.79 Z" fill="#000000" fill-rule="nonzero" fill-opacity="1" /><path clip-path="url(#clip220)" d="M2327.44 1481.64 L2335.08 1481.64 L2335.08 1455.28 L2326.77 1456.95 L2326.77 1452.69 L2335.04 1451.02 L2339.71 1451.02 L2339.71 1481.64 L2347.35 1481.64 L2347.35 1485.58 L2327.44 1485.58 L2327.44 1481.64 Z" fill="#000000" fill-rule="nonzero" fill-opacity="1" /><path clip-path="url(#clip220)" d="M2366.8 1454.1 Q2363.18 1454.1 2361.36 1457.66 Q2359.55 1461.2 2359.55 1468.33 Q2359.55 1475.44 2361.36 1479.01 Q2363.18 1482.55 2366.8 1482.55 Q2370.43 1482.55 2372.23 1479.01 Q2374.06 1475.44 2374.06 1468.33 Q2374.06 1461.2 2372.23 1457.66 Q2370.43 1454.1 2366.8 1454.1 M2366.8 1450.39 Q2372.61 1450.39 2375.66 1455 Q2378.74 1459.58 2378.74 1468.33 Q2378.74 1477.06 2375.66 1481.67 Q2372.61 1486.25 2366.8 1486.25 Q2360.99 1486.25 2357.91 1481.67 Q2354.85 1477.06 2354.85 1468.33 Q2354.85 1459.58 2357.91 1455 Q2360.99 1450.39 2366.8 1450.39 Z" fill="#000000" fill-rule="nonzero" fill-opacity="1" /><path clip-path="url(#clip220)" d="M1278 1522.27 L1278 1532.4 L1290.06 1532.4 L1290.06 1536.95 L1278 1536.95 L1278 1556.3 Q1278 1560.66 1279.18 1561.9 Q1280.39 1563.14 1284.05 1563.14 L1290.06 1563.14 L1290.06 1568.04 L1284.05 1568.04 Q1277.27 1568.04 1274.69 1565.53 Q1272.11 1562.98 1272.11 1556.3 L1272.11 1536.95 L1267.81 1536.95 L1267.81 1532.4 L1272.11 1532.4 L1272.11 1522.27 L1278 1522.27 Z" fill="#000000" fill-rule="nonzero" fill-opacity="1" /><polyline clip-path="url(#clip220)" style="stroke:#000000; stroke-linecap:round; stroke-linejoin:round; stroke-width:4; stroke-opacity:1; fill:none" points="205.121,1423.18 205.121,123.472 "/>
<polyline clip-path="url(#clip220)" style="stroke:#000000; stroke-linecap:round; stroke-linejoin:round; stroke-width:4; stroke-opacity:1; fill:none" points="205.121,1407.11 224.019,1407.11 "/>
<polyline clip-path="url(#clip220)" style="stroke:#000000; stroke-linecap:round; stroke-linejoin:round; stroke-width:4; stroke-opacity:1; fill:none" points="205.121,1199.92 224.019,1199.92 "/>
<polyline clip-path="url(#clip220)" style="stroke:#000000; stroke-linecap:round; stroke-linejoin:round; stroke-width:4; stroke-opacity:1; fill:none" points="205.121,992.735 224.019,992.735 "/>
<polyline clip-path="url(#clip220)" style="stroke:#000000; stroke-linecap:round; stroke-linejoin:round; stroke-width:4; stroke-opacity:1; fill:none" points="205.121,785.545 224.019,785.545 "/>
<polyline clip-path="url(#clip220)" style="stroke:#000000; stroke-linecap:round; stroke-linejoin:round; stroke-width:4; stroke-opacity:1; fill:none" points="205.121,578.355 224.019,578.355 "/>
<polyline clip-path="url(#clip220)" style="stroke:#000000; stroke-linecap:round; stroke-linejoin:round; stroke-width:4; stroke-opacity:1; fill:none" points="205.121,371.165 224.019,371.165 "/>
<polyline clip-path="url(#clip220)" style="stroke:#000000; stroke-linecap:round; stroke-linejoin:round; stroke-width:4; stroke-opacity:1; fill:none" points="205.121,163.975 224.019,163.975 "/>
<path clip-path="url(#clip220)" d="M157.177 1392.91 Q153.566 1392.91 151.737 1396.48 Q149.931 1400.02 149.931 1407.15 Q149.931 1414.26 151.737 1417.82 Q153.566 1421.36 157.177 1421.36 Q160.811 1421.36 162.616 1417.82 Q164.445 1414.26 164.445 1407.15 Q164.445 1400.02 162.616 1396.48 Q160.811 1392.91 157.177 1392.91 M157.177 1389.21 Q162.987 1389.21 166.042 1393.82 Q169.121 1398.4 169.121 1407.15 Q169.121 1415.88 166.042 1420.48 Q162.987 1425.07 157.177 1425.07 Q151.366 1425.07 148.288 1420.48 Q145.232 1415.88 145.232 1407.15 Q145.232 1398.4 148.288 1393.82 Q151.366 1389.21 157.177 1389.21 Z" fill="#000000" fill-rule="nonzero" fill-opacity="1" /><path clip-path="url(#clip220)" d="M117.825 1213.27 L125.464 1213.27 L125.464 1186.9 L117.154 1188.57 L117.154 1184.31 L125.418 1182.64 L130.093 1182.64 L130.093 1213.27 L137.732 1213.27 L137.732 1217.2 L117.825 1217.2 L117.825 1213.27 Z" fill="#000000" fill-rule="nonzero" fill-opacity="1" /><path clip-path="url(#clip220)" d="M157.177 1185.72 Q153.566 1185.72 151.737 1189.29 Q149.931 1192.83 149.931 1199.96 Q149.931 1207.07 151.737 1210.63 Q153.566 1214.17 157.177 1214.17 Q160.811 1214.17 162.616 1210.63 Q164.445 1207.07 164.445 1199.96 Q164.445 1192.83 162.616 1189.29 Q160.811 1185.72 157.177 1185.72 M157.177 1182.02 Q162.987 1182.02 166.042 1186.63 Q169.121 1191.21 169.121 1199.96 Q169.121 1208.69 166.042 1213.29 Q162.987 1217.88 157.177 1217.88 Q151.366 1217.88 148.288 1213.29 Q145.232 1208.69 145.232 1199.96 Q145.232 1191.21 148.288 1186.63 Q151.366 1182.02 157.177 1182.02 Z" fill="#000000" fill-rule="nonzero" fill-opacity="1" /><path clip-path="url(#clip220)" d="M121.043 1006.08 L137.362 1006.08 L137.362 1010.01 L115.418 1010.01 L115.418 1006.08 Q118.08 1003.32 122.663 998.695 Q127.269 994.042 128.45 992.7 Q130.695 990.177 131.575 988.441 Q132.478 986.681 132.478 984.992 Q132.478 982.237 130.533 980.501 Q128.612 978.765 125.51 978.765 Q123.311 978.765 120.857 979.529 Q118.427 980.293 115.649 981.843 L115.649 977.121 Q118.473 975.987 120.927 975.408 Q123.38 974.83 125.418 974.83 Q130.788 974.83 133.982 977.515 Q137.177 980.2 137.177 984.691 Q137.177 986.82 136.367 988.742 Q135.579 990.64 133.473 993.232 Q132.894 993.904 129.792 997.121 Q126.691 1000.32 121.043 1006.08 Z" fill="#000000" fill-rule="nonzero" fill-opacity="1" /><path clip-path="url(#clip220)" d="M157.177 978.533 Q153.566 978.533 151.737 982.098 Q149.931 985.64 149.931 992.769 Q149.931 999.876 151.737 1003.44 Q153.566 1006.98 157.177 1006.98 Q160.811 1006.98 162.616 1003.44 Q164.445 999.876 164.445 992.769 Q164.445 985.64 162.616 982.098 Q160.811 978.533 157.177 978.533 M157.177 974.83 Q162.987 974.83 166.042 979.436 Q169.121 984.019 169.121 992.769 Q169.121 1001.5 166.042 1006.1 Q162.987 1010.69 157.177 1010.69 Q151.366 1010.69 148.288 1006.1 Q145.232 1001.5 145.232 992.769 Q145.232 984.019 148.288 979.436 Q151.366 974.83 157.177 974.83 Z" fill="#000000" fill-rule="nonzero" fill-opacity="1" /><path clip-path="url(#clip220)" d="M131.181 784.19 Q134.538 784.908 136.413 787.177 Q138.311 789.445 138.311 792.778 Q138.311 797.894 134.792 800.695 Q131.274 803.496 124.793 803.496 Q122.617 803.496 120.302 803.056 Q118.01 802.639 115.556 801.783 L115.556 797.269 Q117.501 798.403 119.816 798.982 Q122.13 799.561 124.654 799.561 Q129.052 799.561 131.343 797.825 Q133.658 796.089 133.658 792.778 Q133.658 789.723 131.505 788.01 Q129.376 786.274 125.556 786.274 L121.529 786.274 L121.529 782.431 L125.742 782.431 Q129.191 782.431 131.019 781.065 Q132.848 779.677 132.848 777.084 Q132.848 774.422 130.95 773.01 Q129.075 771.575 125.556 771.575 Q123.635 771.575 121.436 771.991 Q119.237 772.408 116.598 773.288 L116.598 769.121 Q119.26 768.38 121.575 768.01 Q123.913 767.64 125.973 767.64 Q131.297 767.64 134.399 770.07 Q137.501 772.478 137.501 776.598 Q137.501 779.468 135.857 781.459 Q134.214 783.427 131.181 784.19 Z" fill="#000000" fill-rule="nonzero" fill-opacity="1" /><path clip-path="url(#clip220)" d="M157.177 771.343 Q153.566 771.343 151.737 774.908 Q149.931 778.45 149.931 785.579 Q149.931 792.686 151.737 796.251 Q153.566 799.792 157.177 799.792 Q160.811 799.792 162.616 796.251 Q164.445 792.686 164.445 785.579 Q164.445 778.45 162.616 774.908 Q160.811 771.343 157.177 771.343 M157.177 767.64 Q162.987 767.64 166.042 772.246 Q169.121 776.829 169.121 785.579 Q169.121 794.306 166.042 798.913 Q162.987 803.496 157.177 803.496 Q151.366 803.496 148.288 798.913 Q145.232 794.306 145.232 785.579 Q145.232 776.829 148.288 772.246 Q151.366 767.64 157.177 767.64 Z" fill="#000000" fill-rule="nonzero" fill-opacity="1" /><path clip-path="url(#clip220)" d="M129.862 565.149 L118.056 583.598 L129.862 583.598 L129.862 565.149 M128.635 561.075 L134.515 561.075 L134.515 583.598 L139.445 583.598 L139.445 587.486 L134.515 587.486 L134.515 595.635 L129.862 595.635 L129.862 587.486 L114.26 587.486 L114.26 582.973 L128.635 561.075 Z" fill="#000000" fill-rule="nonzero" fill-opacity="1" /><path clip-path="url(#clip220)" d="M157.177 564.153 Q153.566 564.153 151.737 567.718 Q149.931 571.26 149.931 578.389 Q149.931 585.496 151.737 589.061 Q153.566 592.602 157.177 592.602 Q160.811 592.602 162.616 589.061 Q164.445 585.496 164.445 578.389 Q164.445 571.26 162.616 567.718 Q160.811 564.153 157.177 564.153 M157.177 560.45 Q162.987 560.45 166.042 565.056 Q169.121 569.639 169.121 578.389 Q169.121 587.116 166.042 591.723 Q162.987 596.306 157.177 596.306 Q151.366 596.306 148.288 591.723 Q145.232 587.116 145.232 578.389 Q145.232 569.639 148.288 565.056 Q151.366 560.45 157.177 560.45 Z" fill="#000000" fill-rule="nonzero" fill-opacity="1" /><path clip-path="url(#clip220)" d="M117.061 353.885 L135.417 353.885 L135.417 357.82 L121.343 357.82 L121.343 366.292 Q122.362 365.945 123.38 365.783 Q124.399 365.597 125.418 365.597 Q131.205 365.597 134.584 368.769 Q137.964 371.94 137.964 377.357 Q137.964 382.935 134.492 386.037 Q131.019 389.116 124.7 389.116 Q122.524 389.116 120.255 388.746 Q118.01 388.375 115.603 387.634 L115.603 382.935 Q117.686 384.07 119.908 384.625 Q122.13 385.181 124.607 385.181 Q128.612 385.181 130.95 383.074 Q133.288 380.968 133.288 377.357 Q133.288 373.746 130.95 371.639 Q128.612 369.533 124.607 369.533 Q122.732 369.533 120.857 369.949 Q119.006 370.366 117.061 371.246 L117.061 353.885 Z" fill="#000000" fill-rule="nonzero" fill-opacity="1" /><path clip-path="url(#clip220)" d="M157.177 356.963 Q153.566 356.963 151.737 360.528 Q149.931 364.07 149.931 371.199 Q149.931 378.306 151.737 381.871 Q153.566 385.412 157.177 385.412 Q160.811 385.412 162.616 381.871 Q164.445 378.306 164.445 371.199 Q164.445 364.07 162.616 360.528 Q160.811 356.963 157.177 356.963 M157.177 353.26 Q162.987 353.26 166.042 357.866 Q169.121 362.449 169.121 371.199 Q169.121 379.926 166.042 384.533 Q162.987 389.116 157.177 389.116 Q151.366 389.116 148.288 384.533 Q145.232 379.926 145.232 371.199 Q145.232 362.449 148.288 357.866 Q151.366 353.26 157.177 353.26 Z" fill="#000000" fill-rule="nonzero" fill-opacity="1" /><path clip-path="url(#clip220)" d="M127.593 162.111 Q124.445 162.111 122.593 164.264 Q120.765 166.417 120.765 170.167 Q120.765 173.893 122.593 176.069 Q124.445 178.222 127.593 178.222 Q130.742 178.222 132.57 176.069 Q134.422 173.893 134.422 170.167 Q134.422 166.417 132.57 164.264 Q130.742 162.111 127.593 162.111 M136.876 147.458 L136.876 151.718 Q135.117 150.884 133.311 150.445 Q131.529 150.005 129.769 150.005 Q125.14 150.005 122.686 153.13 Q120.255 156.255 119.908 162.574 Q121.274 160.56 123.334 159.495 Q125.394 158.407 127.871 158.407 Q133.08 158.407 136.089 161.579 Q139.121 164.727 139.121 170.167 Q139.121 175.491 135.973 178.708 Q132.825 181.926 127.593 181.926 Q121.598 181.926 118.427 177.343 Q115.256 172.736 115.256 164.009 Q115.256 155.815 119.144 150.954 Q123.033 146.07 129.584 146.07 Q131.343 146.07 133.126 146.417 Q134.931 146.764 136.876 147.458 Z" fill="#000000" fill-rule="nonzero" fill-opacity="1" /><path clip-path="url(#clip220)" d="M157.177 149.773 Q153.566 149.773 151.737 153.338 Q149.931 156.88 149.931 164.009 Q149.931 171.116 151.737 174.681 Q153.566 178.222 157.177 178.222 Q160.811 178.222 162.616 174.681 Q164.445 171.116 164.445 164.009 Q164.445 156.88 162.616 153.338 Q160.811 149.773 157.177 149.773 M157.177 146.07 Q162.987 146.07 166.042 150.676 Q169.121 155.259 169.121 164.009 Q169.121 172.736 166.042 177.343 Q162.987 181.926 157.177 181.926 Q151.366 181.926 148.288 177.343 Q145.232 172.736 145.232 164.009 Q145.232 155.259 148.288 150.676 Q151.366 146.07 157.177 146.07 Z" fill="#000000" fill-rule="nonzero" fill-opacity="1" /><path clip-path="url(#clip220)" d="M67.3143 771.639 Q73.68 774.122 75.6216 776.477 Q77.5631 778.832 77.5631 782.779 L77.5631 787.458 L72.6615 787.458 L72.6615 784.02 Q72.6615 781.601 71.5157 780.265 Q70.3699 778.928 66.1048 777.305 L63.4312 776.254 L28.3562 790.673 L28.3562 784.466 L56.238 773.326 L28.3562 762.186 L28.3562 755.979 L67.3143 771.639 Z" fill="#000000" fill-rule="nonzero" fill-opacity="1" /><path clip-path="url(#clip220)" d="M655.383 14.0809 L655.383 22.0612 Q650.724 19.8332 646.592 18.7395 Q642.46 17.6457 638.612 17.6457 Q631.928 17.6457 628.282 20.2383 Q624.677 22.8309 624.677 27.611 Q624.677 31.6214 627.067 33.6873 Q629.497 35.7128 636.222 36.9686 L641.164 37.9813 Q650.319 39.7232 654.654 44.1387 Q659.029 48.5136 659.029 55.8863 Q659.029 64.6767 653.114 69.2137 Q647.24 73.7508 635.857 73.7508 Q631.563 73.7508 626.702 72.7785 Q621.882 71.8063 616.697 69.9024 L616.697 61.4765 Q621.679 64.2716 626.459 65.6895 Q631.239 67.1073 635.857 67.1073 Q642.865 67.1073 646.673 64.3527 Q650.481 61.598 650.481 56.4939 Q650.481 52.0379 647.727 49.5264 Q645.012 47.0148 638.774 45.759 L633.791 44.7868 Q624.636 42.9639 620.545 39.075 Q616.454 35.1862 616.454 28.2591 Q616.454 20.2383 622.084 15.6203 Q627.756 11.0023 637.68 11.0023 Q641.934 11.0023 646.349 11.7719 Q650.765 12.5416 655.383 14.0809 Z" fill="#000000" fill-rule="nonzero" fill-opacity="1" /><path clip-path="url(#clip220)" d="M678.837 14.324 L678.837 27.2059 L694.19 27.2059 L694.19 32.9987 L678.837 32.9987 L678.837 57.6282 Q678.837 63.1779 680.336 64.7578 Q681.876 66.3376 686.534 66.3376 L694.19 66.3376 L694.19 72.576 L686.534 72.576 Q677.906 72.576 674.625 69.3758 Q671.343 66.1351 671.343 57.6282 L671.343 32.9987 L665.875 32.9987 L665.875 27.2059 L671.343 27.2059 L671.343 14.324 L678.837 14.324 Z" fill="#000000" fill-rule="nonzero" fill-opacity="1" /><path clip-path="url(#clip220)" d="M724.613 49.7694 Q715.579 49.7694 712.095 51.8354 Q708.612 53.9013 708.612 58.8839 Q708.612 62.8538 711.204 65.2034 Q713.837 67.5124 718.334 67.5124 Q724.532 67.5124 728.259 63.1374 Q732.026 58.7219 732.026 51.4303 L732.026 49.7694 L724.613 49.7694 M739.48 46.6907 L739.48 72.576 L732.026 72.576 L732.026 65.6895 Q729.474 69.8214 725.666 71.8063 Q721.858 73.7508 716.349 73.7508 Q709.381 73.7508 705.249 69.8619 Q701.158 65.9325 701.158 59.3701 Q701.158 51.7138 706.262 47.825 Q711.407 43.9361 721.575 43.9361 L732.026 43.9361 L732.026 43.2069 Q732.026 38.0623 728.623 35.2672 Q725.261 32.4315 719.144 32.4315 Q715.255 32.4315 711.569 33.3632 Q707.882 34.295 704.48 36.1584 L704.48 29.2718 Q708.571 27.692 712.419 26.9223 Q716.268 26.1121 719.914 26.1121 Q729.757 26.1121 734.618 31.2163 Q739.48 36.3204 739.48 46.6907 Z" fill="#000000" fill-rule="nonzero" fill-opacity="1" /><path clip-path="url(#clip220)" d="M762.205 14.324 L762.205 27.2059 L777.558 27.2059 L777.558 32.9987 L762.205 32.9987 L762.205 57.6282 Q762.205 63.1779 763.704 64.7578 Q765.243 66.3376 769.902 66.3376 L777.558 66.3376 L777.558 72.576 L769.902 72.576 Q761.273 72.576 757.992 69.3758 Q754.711 66.1351 754.711 57.6282 L754.711 32.9987 L749.242 32.9987 L749.242 27.2059 L754.711 27.2059 L754.711 14.324 L762.205 14.324 Z" fill="#000000" fill-rule="nonzero" fill-opacity="1" /><path clip-path="url(#clip220)" d="M826.169 48.0275 L826.169 51.6733 L791.898 51.6733 Q792.384 59.3701 796.516 63.421 Q800.689 67.4314 808.102 67.4314 Q812.396 67.4314 816.406 66.3781 Q820.457 65.3249 824.427 63.2184 L824.427 70.267 Q820.417 71.9684 816.204 72.8596 Q811.991 73.7508 807.656 73.7508 Q796.8 73.7508 790.44 67.4314 Q784.12 61.1119 784.12 50.3365 Q784.12 39.1965 790.116 32.6746 Q796.152 26.1121 806.36 26.1121 Q815.515 26.1121 820.822 32.0264 Q826.169 37.9003 826.169 48.0275 M818.715 45.84 Q818.634 39.7232 815.272 36.0774 Q811.95 32.4315 806.441 32.4315 Q800.203 32.4315 796.435 35.9558 Q792.708 39.4801 792.141 45.8805 L818.715 45.84 Z" fill="#000000" fill-rule="nonzero" fill-opacity="1" /><path clip-path="url(#clip220)" d="M834.635 46.5287 L856.47 46.5287 L856.47 53.1722 L834.635 53.1722 L834.635 46.5287 Z" fill="#000000" fill-rule="nonzero" fill-opacity="1" /><path clip-path="url(#clip220)" d="M898.194 34.0924 L898.194 9.54393 L905.648 9.54393 L905.648 72.576 L898.194 72.576 L898.194 65.7705 Q895.844 69.8214 892.239 71.8063 Q888.674 73.7508 883.651 73.7508 Q875.428 73.7508 870.243 67.1883 Q865.098 60.6258 865.098 49.9314 Q865.098 39.2371 870.243 32.6746 Q875.428 26.1121 883.651 26.1121 Q888.674 26.1121 892.239 28.0971 Q895.844 30.0415 898.194 34.0924 M872.795 49.9314 Q872.795 58.1548 876.157 62.8538 Q879.56 67.5124 885.474 67.5124 Q891.388 67.5124 894.791 62.8538 Q898.194 58.1548 898.194 49.9314 Q898.194 41.7081 894.791 37.0496 Q891.388 32.3505 885.474 32.3505 Q879.56 32.3505 876.157 37.0496 Q872.795 41.7081 872.795 49.9314 Z" fill="#000000" fill-rule="nonzero" fill-opacity="1" /><path clip-path="url(#clip220)" d="M959.808 48.0275 L959.808 51.6733 L925.538 51.6733 Q926.024 59.3701 930.156 63.421 Q934.328 67.4314 941.741 67.4314 Q946.035 67.4314 950.046 66.3781 Q954.096 65.3249 958.066 63.2184 L958.066 70.267 Q954.056 71.9684 949.843 72.8596 Q945.63 73.7508 941.296 73.7508 Q930.439 73.7508 924.079 67.4314 Q917.76 61.1119 917.76 50.3365 Q917.76 39.1965 923.755 32.6746 Q929.791 26.1121 939.999 26.1121 Q949.154 26.1121 954.461 32.0264 Q959.808 37.9003 959.808 48.0275 M952.355 45.84 Q952.274 39.7232 948.911 36.0774 Q945.59 32.4315 940.08 32.4315 Q933.842 32.4315 930.075 35.9558 Q926.348 39.4801 925.781 45.8805 L952.355 45.84 Z" fill="#000000" fill-rule="nonzero" fill-opacity="1" /><path clip-path="url(#clip220)" d="M979.253 65.7705 L979.253 89.8329 L971.758 89.8329 L971.758 27.2059 L979.253 27.2059 L979.253 34.0924 Q981.602 30.0415 985.167 28.0971 Q988.772 26.1121 993.755 26.1121 Q1002.02 26.1121 1007.16 32.6746 Q1012.35 39.2371 1012.35 49.9314 Q1012.35 60.6258 1007.16 67.1883 Q1002.02 73.7508 993.755 73.7508 Q988.772 73.7508 985.167 71.8063 Q981.602 69.8214 979.253 65.7705 M1004.61 49.9314 Q1004.61 41.7081 1001.21 37.0496 Q997.846 32.3505 991.932 32.3505 Q986.018 32.3505 982.615 37.0496 Q979.253 41.7081 979.253 49.9314 Q979.253 58.1548 982.615 62.8538 Q986.018 67.5124 991.932 67.5124 Q997.846 67.5124 1001.21 62.8538 Q1004.61 58.1548 1004.61 49.9314 Z" fill="#000000" fill-rule="nonzero" fill-opacity="1" /><path clip-path="url(#clip220)" d="M1063.51 48.0275 L1063.51 51.6733 L1029.24 51.6733 Q1029.73 59.3701 1033.86 63.421 Q1038.03 67.4314 1045.44 67.4314 Q1049.74 67.4314 1053.75 66.3781 Q1057.8 65.3249 1061.77 63.2184 L1061.77 70.267 Q1057.76 71.9684 1053.55 72.8596 Q1049.33 73.7508 1045 73.7508 Q1034.14 73.7508 1027.78 67.4314 Q1021.46 61.1119 1021.46 50.3365 Q1021.46 39.1965 1027.46 32.6746 Q1033.49 26.1121 1043.7 26.1121 Q1052.86 26.1121 1058.16 32.0264 Q1063.51 37.9003 1063.51 48.0275 M1056.06 45.84 Q1055.98 39.7232 1052.61 36.0774 Q1049.29 32.4315 1043.78 32.4315 Q1037.55 32.4315 1033.78 35.9558 Q1030.05 39.4801 1029.48 45.8805 L1056.06 45.84 Z" fill="#000000" fill-rule="nonzero" fill-opacity="1" /><path clip-path="url(#clip220)" d="M1113.46 45.1919 L1113.46 72.576 L1106.01 72.576 L1106.01 45.4349 Q1106.01 38.994 1103.49 35.7938 Q1100.98 32.5936 1095.96 32.5936 Q1089.92 32.5936 1086.44 36.4419 Q1082.96 40.2903 1082.96 46.9338 L1082.96 72.576 L1075.46 72.576 L1075.46 27.2059 L1082.96 27.2059 L1082.96 34.2544 Q1085.63 30.163 1089.23 28.1376 Q1092.88 26.1121 1097.62 26.1121 Q1105.44 26.1121 1109.45 30.9732 Q1113.46 35.7938 1113.46 45.1919 Z" fill="#000000" fill-rule="nonzero" fill-opacity="1" /><path clip-path="url(#clip220)" d="M1158.18 34.0924 L1158.18 9.54393 L1165.63 9.54393 L1165.63 72.576 L1158.18 72.576 L1158.18 65.7705 Q1155.83 69.8214 1152.23 71.8063 Q1148.66 73.7508 1143.64 73.7508 Q1135.41 73.7508 1130.23 67.1883 Q1125.09 60.6258 1125.09 49.9314 Q1125.09 39.2371 1130.23 32.6746 Q1135.41 26.1121 1143.64 26.1121 Q1148.66 26.1121 1152.23 28.0971 Q1155.83 30.0415 1158.18 34.0924 M1132.78 49.9314 Q1132.78 58.1548 1136.14 62.8538 Q1139.55 67.5124 1145.46 67.5124 Q1151.38 67.5124 1154.78 62.8538 Q1158.18 58.1548 1158.18 49.9314 Q1158.18 41.7081 1154.78 37.0496 Q1151.38 32.3505 1145.46 32.3505 Q1139.55 32.3505 1136.14 37.0496 Q1132.78 41.7081 1132.78 49.9314 Z" fill="#000000" fill-rule="nonzero" fill-opacity="1" /><path clip-path="url(#clip220)" d="M1219.8 48.0275 L1219.8 51.6733 L1185.52 51.6733 Q1186.01 59.3701 1190.14 63.421 Q1194.32 67.4314 1201.73 67.4314 Q1206.02 67.4314 1210.03 66.3781 Q1214.08 65.3249 1218.05 63.2184 L1218.05 70.267 Q1214.04 71.9684 1209.83 72.8596 Q1205.62 73.7508 1201.28 73.7508 Q1190.43 73.7508 1184.07 67.4314 Q1177.75 61.1119 1177.75 50.3365 Q1177.75 39.1965 1183.74 32.6746 Q1189.78 26.1121 1199.99 26.1121 Q1209.14 26.1121 1214.45 32.0264 Q1219.8 37.9003 1219.8 48.0275 M1212.34 45.84 Q1212.26 39.7232 1208.9 36.0774 Q1205.58 32.4315 1200.07 32.4315 Q1193.83 32.4315 1190.06 35.9558 Q1186.33 39.4801 1185.77 45.8805 L1212.34 45.84 Z" fill="#000000" fill-rule="nonzero" fill-opacity="1" /><path clip-path="url(#clip220)" d="M1269.74 45.1919 L1269.74 72.576 L1262.29 72.576 L1262.29 45.4349 Q1262.29 38.994 1259.78 35.7938 Q1257.27 32.5936 1252.24 32.5936 Q1246.21 32.5936 1242.72 36.4419 Q1239.24 40.2903 1239.24 46.9338 L1239.24 72.576 L1231.75 72.576 L1231.75 27.2059 L1239.24 27.2059 L1239.24 34.2544 Q1241.91 30.163 1245.52 28.1376 Q1249.16 26.1121 1253.9 26.1121 Q1261.72 26.1121 1265.73 30.9732 Q1269.74 35.7938 1269.74 45.1919 Z" fill="#000000" fill-rule="nonzero" fill-opacity="1" /><path clip-path="url(#clip220)" d="M1291.98 14.324 L1291.98 27.2059 L1307.34 27.2059 L1307.34 32.9987 L1291.98 32.9987 L1291.98 57.6282 Q1291.98 63.1779 1293.48 64.7578 Q1295.02 66.3376 1299.68 66.3376 L1307.34 66.3376 L1307.34 72.576 L1299.68 72.576 Q1291.05 72.576 1287.77 69.3758 Q1284.49 66.1351 1284.49 57.6282 L1284.49 32.9987 L1279.02 32.9987 L1279.02 27.2059 L1284.49 27.2059 L1284.49 14.324 L1291.98 14.324 Z" fill="#000000" fill-rule="nonzero" fill-opacity="1" /><path clip-path="url(#clip220)" d="M1373.37 34.0924 L1373.37 9.54393 L1380.82 9.54393 L1380.82 72.576 L1373.37 72.576 L1373.37 65.7705 Q1371.02 69.8214 1367.41 71.8063 Q1363.85 73.7508 1358.82 73.7508 Q1350.6 73.7508 1345.41 67.1883 Q1340.27 60.6258 1340.27 49.9314 Q1340.27 39.2371 1345.41 32.6746 Q1350.6 26.1121 1358.82 26.1121 Q1363.85 26.1121 1367.41 28.0971 Q1371.02 30.0415 1373.37 34.0924 M1347.97 49.9314 Q1347.97 58.1548 1351.33 62.8538 Q1354.73 67.5124 1360.65 67.5124 Q1366.56 67.5124 1369.96 62.8538 Q1373.37 58.1548 1373.37 49.9314 Q1373.37 41.7081 1369.96 37.0496 Q1366.56 32.3505 1360.65 32.3505 Q1354.73 32.3505 1351.33 37.0496 Q1347.97 41.7081 1347.97 49.9314 Z" fill="#000000" fill-rule="nonzero" fill-opacity="1" /><path clip-path="url(#clip220)" d="M1434.98 48.0275 L1434.98 51.6733 L1400.71 51.6733 Q1401.19 59.3701 1405.33 63.421 Q1409.5 67.4314 1416.91 67.4314 Q1421.21 67.4314 1425.22 66.3781 Q1429.27 65.3249 1433.24 63.2184 L1433.24 70.267 Q1429.23 71.9684 1425.01 72.8596 Q1420.8 73.7508 1416.47 73.7508 Q1405.61 73.7508 1399.25 67.4314 Q1392.93 61.1119 1392.93 50.3365 Q1392.93 39.1965 1398.93 32.6746 Q1404.96 26.1121 1415.17 26.1121 Q1424.33 26.1121 1429.63 32.0264 Q1434.98 37.9003 1434.98 48.0275 M1427.53 45.84 Q1427.44 39.7232 1424.08 36.0774 Q1420.76 32.4315 1415.25 32.4315 Q1409.01 32.4315 1405.25 35.9558 Q1401.52 39.4801 1400.95 45.8805 L1427.53 45.84 Z" fill="#000000" fill-rule="nonzero" fill-opacity="1" /><path clip-path="url(#clip220)" d="M1447.21 9.54393 L1454.67 9.54393 L1454.67 72.576 L1447.21 72.576 L1447.21 9.54393 Z" fill="#000000" fill-rule="nonzero" fill-opacity="1" /><path clip-path="url(#clip220)" d="M1490.88 49.7694 Q1481.85 49.7694 1478.36 51.8354 Q1474.88 53.9013 1474.88 58.8839 Q1474.88 62.8538 1477.47 65.2034 Q1480.11 67.5124 1484.6 67.5124 Q1490.8 67.5124 1494.53 63.1374 Q1498.29 58.7219 1498.29 51.4303 L1498.29 49.7694 L1490.88 49.7694 M1505.75 46.6907 L1505.75 72.576 L1498.29 72.576 L1498.29 65.6895 Q1495.74 69.8214 1491.93 71.8063 Q1488.13 73.7508 1482.62 73.7508 Q1475.65 73.7508 1471.52 69.8619 Q1467.43 65.9325 1467.43 59.3701 Q1467.43 51.7138 1472.53 47.825 Q1477.68 43.9361 1487.84 43.9361 L1498.29 43.9361 L1498.29 43.2069 Q1498.29 38.0623 1494.89 35.2672 Q1491.53 32.4315 1485.41 32.4315 Q1481.52 32.4315 1477.84 33.3632 Q1474.15 34.295 1470.75 36.1584 L1470.75 29.2718 Q1474.84 27.692 1478.69 26.9223 Q1482.54 26.1121 1486.18 26.1121 Q1496.03 26.1121 1500.89 31.2163 Q1505.75 36.3204 1505.75 46.6907 Z" fill="#000000" fill-rule="nonzero" fill-opacity="1" /><path clip-path="url(#clip220)" d="M1539.98 76.7889 Q1536.82 84.8907 1533.82 87.3618 Q1530.82 89.8329 1525.8 89.8329 L1519.85 89.8329 L1519.85 83.5945 L1524.22 83.5945 Q1527.3 83.5945 1529 82.1361 Q1530.7 80.6778 1532.77 75.2496 L1534.1 71.8468 L1515.75 27.2059 L1523.65 27.2059 L1537.83 62.6918 L1552.01 27.2059 L1559.91 27.2059 L1539.98 76.7889 Z" fill="#000000" fill-rule="nonzero" fill-opacity="1" /><path clip-path="url(#clip220)" d="M1635.38 48.0275 L1635.38 51.6733 L1601.11 51.6733 Q1601.59 59.3701 1605.72 63.421 Q1609.9 67.4314 1617.31 67.4314 Q1621.6 67.4314 1625.61 66.3781 Q1629.67 65.3249 1633.64 63.2184 L1633.64 70.267 Q1629.63 71.9684 1625.41 72.8596 Q1621.2 73.7508 1616.86 73.7508 Q1606.01 73.7508 1599.65 67.4314 Q1593.33 61.1119 1593.33 50.3365 Q1593.33 39.1965 1599.32 32.6746 Q1605.36 26.1121 1615.57 26.1121 Q1624.72 26.1121 1630.03 32.0264 Q1635.38 37.9003 1635.38 48.0275 M1627.92 45.84 Q1627.84 39.7232 1624.48 36.0774 Q1621.16 32.4315 1615.65 32.4315 Q1609.41 32.4315 1605.64 35.9558 Q1601.92 39.4801 1601.35 45.8805 L1627.92 45.84 Z" fill="#000000" fill-rule="nonzero" fill-opacity="1" /><path clip-path="url(#clip220)" d="M1683.87 27.2059 L1667.46 49.2833 L1684.72 72.576 L1675.93 72.576 L1662.72 54.752 L1649.52 72.576 L1640.72 72.576 L1658.35 48.8377 L1642.22 27.2059 L1651.01 27.2059 L1663.05 43.369 L1675.08 27.2059 L1683.87 27.2059 Z" fill="#000000" fill-rule="nonzero" fill-opacity="1" /><path clip-path="url(#clip220)" d="M1715.87 49.7694 Q1706.84 49.7694 1703.35 51.8354 Q1699.87 53.9013 1699.87 58.8839 Q1699.87 62.8538 1702.46 65.2034 Q1705.09 67.5124 1709.59 67.5124 Q1715.79 67.5124 1719.51 63.1374 Q1723.28 58.7219 1723.28 51.4303 L1723.28 49.7694 L1715.87 49.7694 M1730.74 46.6907 L1730.74 72.576 L1723.28 72.576 L1723.28 65.6895 Q1720.73 69.8214 1716.92 71.8063 Q1713.11 73.7508 1707.61 73.7508 Q1700.64 73.7508 1696.51 69.8619 Q1692.41 65.9325 1692.41 59.3701 Q1692.41 51.7138 1697.52 47.825 Q1702.66 43.9361 1712.83 43.9361 L1723.28 43.9361 L1723.28 43.2069 Q1723.28 38.0623 1719.88 35.2672 Q1716.52 32.4315 1710.4 32.4315 Q1706.51 32.4315 1702.83 33.3632 Q1699.14 34.295 1695.74 36.1584 L1695.74 29.2718 Q1699.83 27.692 1703.68 26.9223 Q1707.52 26.1121 1711.17 26.1121 Q1721.01 26.1121 1725.87 31.2163 Q1730.74 36.3204 1730.74 46.6907 Z" fill="#000000" fill-rule="nonzero" fill-opacity="1" /><path clip-path="url(#clip220)" d="M1781.41 35.9153 Q1784.21 30.8922 1788.1 28.5022 Q1791.99 26.1121 1797.25 26.1121 Q1804.34 26.1121 1808.19 31.0947 Q1812.04 36.0368 1812.04 45.1919 L1812.04 72.576 L1804.54 72.576 L1804.54 45.4349 Q1804.54 38.913 1802.23 35.7533 Q1799.93 32.5936 1795.19 32.5936 Q1789.39 32.5936 1786.03 36.4419 Q1782.67 40.2903 1782.67 46.9338 L1782.67 72.576 L1775.17 72.576 L1775.17 45.4349 Q1775.17 38.8725 1772.87 35.7533 Q1770.56 32.5936 1765.74 32.5936 Q1760.02 32.5936 1756.66 36.4824 Q1753.3 40.3308 1753.3 46.9338 L1753.3 72.576 L1745.81 72.576 L1745.81 27.2059 L1753.3 27.2059 L1753.3 34.2544 Q1755.85 30.082 1759.42 28.0971 Q1762.98 26.1121 1767.88 26.1121 Q1772.82 26.1121 1776.27 28.6237 Q1779.75 31.1352 1781.41 35.9153 Z" fill="#000000" fill-rule="nonzero" fill-opacity="1" /><path clip-path="url(#clip220)" d="M1834.11 65.7705 L1834.11 89.8329 L1826.62 89.8329 L1826.62 27.2059 L1834.11 27.2059 L1834.11 34.0924 Q1836.46 30.0415 1840.03 28.0971 Q1843.63 26.1121 1848.62 26.1121 Q1856.88 26.1121 1862.03 32.6746 Q1867.21 39.2371 1867.21 49.9314 Q1867.21 60.6258 1862.03 67.1883 Q1856.88 73.7508 1848.62 73.7508 Q1843.63 73.7508 1840.03 71.8063 Q1836.46 69.8214 1834.11 65.7705 M1859.47 49.9314 Q1859.47 41.7081 1856.07 37.0496 Q1852.71 32.3505 1846.79 32.3505 Q1840.88 32.3505 1837.48 37.0496 Q1834.11 41.7081 1834.11 49.9314 Q1834.11 58.1548 1837.48 62.8538 Q1840.88 67.5124 1846.79 67.5124 Q1852.71 67.5124 1856.07 62.8538 Q1859.47 58.1548 1859.47 49.9314 Z" fill="#000000" fill-rule="nonzero" fill-opacity="1" /><path clip-path="url(#clip220)" d="M1879.57 9.54393 L1887.02 9.54393 L1887.02 72.576 L1879.57 72.576 L1879.57 9.54393 Z" fill="#000000" fill-rule="nonzero" fill-opacity="1" /><path clip-path="url(#clip220)" d="M1941.42 48.0275 L1941.42 51.6733 L1907.15 51.6733 Q1907.64 59.3701 1911.77 63.421 Q1915.94 67.4314 1923.36 67.4314 Q1927.65 67.4314 1931.66 66.3781 Q1935.71 65.3249 1939.68 63.2184 L1939.68 70.267 Q1935.67 71.9684 1931.46 72.8596 Q1927.25 73.7508 1922.91 73.7508 Q1912.05 73.7508 1905.69 67.4314 Q1899.37 61.1119 1899.37 50.3365 Q1899.37 39.1965 1905.37 32.6746 Q1911.41 26.1121 1921.61 26.1121 Q1930.77 26.1121 1936.08 32.0264 Q1941.42 37.9003 1941.42 48.0275 M1933.97 45.84 Q1933.89 39.7232 1930.53 36.0774 Q1927.2 32.4315 1921.7 32.4315 Q1915.46 32.4315 1911.69 35.9558 Q1907.96 39.4801 1907.4 45.8805 L1933.97 45.84 Z" fill="#000000" fill-rule="nonzero" fill-opacity="1" /><polyline clip-path="url(#clip222)" style="stroke:#000000; stroke-linecap:round; stroke-linejoin:round; stroke-width:4; stroke-opacity:1; fill:none" points="205.121,1386.4 207.271,1386.19 209.421,1385.98 211.57,1385.77 213.72,1385.57 215.87,1385.36 218.02,1385.15 220.169,1384.94 222.319,1384.74 224.469,1384.53 226.619,1384.32 228.769,1384.11 230.918,1383.91 233.068,1383.7 235.218,1383.49 237.368,1383.28 239.518,1383.08 241.667,1382.87 243.817,1382.66 245.967,1382.46 248.117,1382.25 250.266,1382.04 252.416,1381.83 254.566,1381.63 256.716,1381.42 258.866,1381.21 261.015,1381 263.165,1380.8 265.315,1380.59 267.465,1380.38 269.615,1380.17 271.764,1379.97 273.914,1379.76 276.064,1379.55 278.214,1379.34 280.363,1379.14 282.513,1378.93 284.663,1378.72 286.813,1378.51 288.963,1378.31 291.112,1378.1 293.262,1377.89 295.412,1377.68 297.562,1377.48 299.712,1377.27 301.861,1377.06 304.011,1376.86 306.161,1376.65 308.311,1376.44 310.46,1376.23 312.61,1376.03 314.76,1375.82 316.91,1375.61 319.06,1375.4 321.209,1375.2 323.359,1374.99 325.509,1374.78 327.659,1374.57 329.808,1374.37 331.958,1374.16 334.108,1373.95 336.258,1373.74 338.408,1373.54 340.557,1373.33 342.707,1373.12 344.857,1372.91 347.007,1372.71 349.157,1372.5 351.306,1372.29 353.456,1372.09 355.606,1371.88 357.756,1371.67 359.905,1371.46 362.055,1371.26 364.205,1371.05 366.355,1370.84 368.505,1370.63 370.654,1370.43 372.804,1370.22 374.954,1370.01 377.104,1369.8 379.254,1369.6 381.403,1369.39 383.553,1369.18 385.703,1368.97 387.853,1368.77 390.002,1368.56 392.152,1368.35 394.302,1368.14 396.452,1367.94 398.602,1367.73 400.751,1367.52 402.901,1367.32 405.051,1367.11 407.201,1366.9 409.351,1366.69 411.5,1366.49 413.65,1366.28 415.8,1366.07 417.95,1365.86 420.099,1365.66 422.249,1365.45 424.399,1365.24 426.549,1365.03 428.699,1364.83 430.848,1364.62 432.998,1364.41 435.148,1364.2 437.298,1364 439.448,1363.79 441.597,1363.58 443.747,1363.37 445.897,1363.17 448.047,1362.96 450.196,1362.75 452.346,1362.54 454.496,1362.34 456.646,1362.13 458.796,1361.92 460.945,1361.72 463.095,1361.51 465.245,1361.3 467.395,1361.09 469.544,1360.89 471.694,1360.68 473.844,1360.47 475.994,1360.26 478.144,1360.06 480.293,1359.85 482.443,1359.64 484.593,1359.43 486.743,1359.23 488.893,1359.02 491.042,1358.81 493.192,1358.6 495.342,1358.4 497.492,1358.19 499.641,1357.98 501.791,1357.77 503.941,1357.57 506.091,1357.36 508.241,1357.15 510.39,1356.95 512.54,1356.74 514.69,1356.53 516.84,1356.32 518.99,1356.12 521.139,1355.91 523.289,1355.7 525.439,1355.49 527.589,1355.29 529.738,1355.08 531.888,1354.87 534.038,1354.66 536.188,1354.46 538.338,1354.25 540.487,1354.04 542.637,1353.83 544.787,1353.63 546.937,1353.42 549.087,1353.21 551.236,1353 553.386,1352.8 555.536,1352.59 557.686,1352.38 559.835,1352.18 561.985,1351.97 564.135,1351.76 566.285,1351.55 568.435,1351.35 570.584,1351.14 572.734,1350.93 574.884,1350.72 577.034,1350.52 579.184,1350.31 581.333,1350.1 583.483,1349.89 585.633,1349.68 587.783,1349.46 589.932,1349.25 592.082,1349.04 594.232,1348.82 596.382,1348.61 598.532,1348.39 600.681,1348.18 602.831,1347.96 604.981,1347.74 607.131,1347.52 609.281,1347.3 611.43,1347.08 613.58,1346.86 615.73,1346.64 617.88,1346.41 620.029,1346.19 622.179,1345.96 624.329,1345.74 626.479,1345.51 628.629,1345.29 630.778,1345.06 632.928,1344.83 635.078,1344.6 637.228,1344.37 639.377,1344.14 641.527,1343.9 643.677,1343.67 645.827,1343.44 647.977,1343.2 650.126,1342.97 652.276,1342.73 654.426,1342.49 656.576,1342.25 658.726,1342.01 660.875,1341.77 663.025,1341.53 665.175,1341.29 667.325,1341.05 669.474,1340.8 671.624,1340.56 673.774,1340.31 675.924,1340.07 678.074,1339.82 680.223,1339.57 682.373,1339.32 684.523,1339.07 686.673,1338.82 688.823,1338.57 690.972,1338.32 693.122,1338.06 695.272,1337.81 697.422,1337.55 699.571,1337.3 701.721,1337.04 703.871,1336.78 706.021,1336.52 708.171,1336.26 710.32,1336 712.47,1335.74 714.62,1335.47 716.77,1335.21 718.92,1334.94 721.069,1334.68 723.219,1334.41 725.369,1334.14 727.519,1333.87 729.668,1333.6 731.818,1333.33 733.968,1333.06 736.118,1332.79 738.268,1332.51 740.417,1332.24 742.567,1331.96 744.717,1331.68 746.867,1331.4 749.017,1331.13 751.166,1330.84 753.316,1330.56 755.466,1330.28 757.616,1330 759.765,1329.71 761.915,1329.43 764.065,1329.14 766.215,1328.85 768.365,1328.56 770.514,1328.27 772.664,1327.98 774.814,1327.69 776.964,1327.4 779.113,1327.1 781.263,1326.81 783.413,1326.51 785.563,1326.22 787.713,1325.92 789.862,1325.62 792.012,1325.32 794.162,1325.02 796.312,1324.71 798.462,1324.41 800.611,1324.1 802.761,1323.8 804.911,1323.49 807.061,1323.18 809.21,1322.87 811.36,1322.56 813.51,1322.25 815.66,1321.94 817.81,1321.62 819.959,1321.31 822.109,1320.99 824.259,1320.67 826.409,1320.35 828.559,1320.03 830.708,1319.71 832.858,1319.39 835.008,1319.07 837.158,1318.74 839.307,1318.41 841.457,1318.09 843.607,1317.76 845.757,1317.43 847.907,1317.1 850.056,1316.77 852.206,1316.43 854.356,1316.1 856.506,1315.76 858.656,1315.43 860.805,1315.09 862.955,1314.75 865.105,1314.41 867.255,1314.07 869.404,1313.72 871.554,1313.38 873.704,1313.03 875.854,1312.68 878.004,1312.34 880.153,1311.99 882.303,1311.64 884.453,1311.28 886.603,1310.93 888.753,1310.57 890.902,1310.22 893.052,1309.86 895.202,1309.5 897.352,1309.14 899.501,1308.78 901.651,1308.42 903.801,1308.05 905.951,1307.69 908.101,1307.32 910.25,1306.95 912.4,1306.58 914.55,1306.21 916.7,1305.84 918.85,1305.47 920.999,1305.09 923.149,1304.72 925.299,1304.34 927.449,1303.96 929.598,1303.58 931.748,1303.2 933.898,1302.81 936.048,1302.43 938.198,1302.04 940.347,1301.65 942.497,1301.26 944.647,1300.87 946.797,1300.48 948.946,1300.09 951.096,1299.69 953.246,1299.3 955.396,1298.9 957.546,1298.5 959.695,1298.1 961.845,1297.7 963.995,1297.29 966.145,1296.89 968.295,1296.48 970.444,1296.07 972.594,1295.66 974.744,1295.25 976.894,1294.84 979.043,1294.43 981.193,1294.01 983.343,1293.59 985.493,1293.17 987.643,1292.75 989.792,1292.33 991.942,1291.91 994.092,1291.48 996.242,1291.06 998.392,1290.63 1000.54,1290.2 1002.69,1289.77 1004.84,1289.34 1006.99,1288.9 1009.14,1288.46 1011.29,1288.03 1013.44,1287.59 1015.59,1287.15 1017.74,1286.7 1019.89,1286.26 1022.04,1285.81 1024.19,1285.37 1026.34,1284.92 1028.49,1284.47 1030.64,1284.01 1032.79,1283.56 1034.94,1283.1 1037.09,1282.65 1039.24,1282.19 1041.39,1281.73 1043.54,1281.26 1045.69,1280.8 1047.84,1280.33 1049.99,1279.87 1052.14,1279.4 1054.29,1278.93 1056.44,1278.45 1058.59,1277.98 1060.74,1277.5 1062.89,1277.02 1065.03,1276.54 1067.18,1276.06 1069.33,1275.58 1071.48,1275.09 1073.63,1274.61 1075.78,1274.12 1077.93,1273.63 1080.08,1273.13 1082.23,1272.64 1084.38,1272.14 1086.53,1271.65 1088.68,1271.15 1090.83,1270.64 1092.98,1270.14 1095.13,1269.64 1097.28,1269.13 1099.43,1268.62 1101.58,1268.11 1103.73,1267.59 1105.88,1267.08 1108.03,1266.56 1110.18,1266.05 1112.33,1265.52 1114.48,1265 1116.63,1264.48 1118.78,1263.95 1120.93,1263.42 1123.08,1262.89 1125.23,1262.36 1127.38,1261.83 1129.53,1261.29 1131.68,1260.75 1133.83,1260.21 1135.98,1259.67 1138.13,1259.13 1140.28,1258.58 1142.43,1258.03 1144.58,1257.48 1146.73,1256.93 1148.88,1256.38 1151.03,1255.82 1153.18,1255.26 1155.33,1254.7 1157.48,1254.14 1159.63,1253.58 1161.78,1253.01 1163.92,1252.44 1166.07,1251.87 1168.22,1251.3 1170.37,1250.72 1172.52,1250.15 1174.67,1249.57 1176.82,1248.99 1178.97,1248.4 1181.12,1247.82 1183.27,1247.23 1185.42,1246.64 1187.57,1246.05 1189.72,1245.45 1191.87,1244.86 1194.02,1244.26 1196.17,1243.66 1198.32,1243.05 1200.47,1242.45 1202.62,1241.84 1204.77,1241.23 1206.92,1240.62 1209.07,1240.01 1211.22,1239.39 1213.37,1238.77 1215.52,1238.15 1217.67,1237.53 1219.82,1236.9 1221.97,1236.27 1224.12,1235.64 1226.27,1235.01 1228.42,1234.37 1230.57,1233.74 1232.72,1233.1 1234.87,1232.46 1237.02,1231.81 1239.17,1231.16 1241.32,1230.52 1243.47,1229.86 1245.62,1229.21 1247.77,1228.55 1249.92,1227.89 1252.07,1227.23 1254.22,1226.57 1256.37,1225.9 1258.52,1225.24 1260.67,1224.56 1262.82,1223.89 1264.96,1223.21 1267.11,1222.54 1269.26,1221.86 1271.41,1221.17 1273.56,1220.49 1275.71,1219.8 1277.86,1219.11 1280.01,1218.41 1282.16,1217.72 1284.31,1217.02 1286.46,1216.32 1288.61,1215.61 1290.76,1214.91 1292.91,1214.2 1295.06,1213.49 1297.21,1212.77 1299.36,1212.05 1301.51,1211.33 1303.66,1210.61 1305.81,1209.89 1307.96,1209.16 1310.11,1208.43 1312.26,1207.7 1314.41,1206.96 1316.56,1206.22 1318.71,1205.48 1320.86,1204.74 1323.01,1203.99 1325.16,1203.24 1327.31,1202.49 1329.46,1201.73 1331.61,1200.98 1333.76,1200.22 1335.91,1199.45 1338.06,1198.69 1340.21,1197.92 1342.36,1197.15 1344.51,1196.37 1346.66,1195.59 1348.81,1194.81 1350.96,1194.03 1353.11,1193.24 1355.26,1192.45 1357.41,1191.66 1359.56,1190.87 1361.71,1190.07 1363.85,1189.27 1366,1188.47 1368.15,1187.66 1370.3,1186.85 1372.45,1186.04 1374.6,1185.22 1376.75,1184.4 1378.9,1183.58 1381.05,1182.76 1383.2,1181.93 1385.35,1181.1 1387.5,1180.26 1389.65,1179.43 1391.8,1178.59 1393.95,1177.74 1396.1,1176.9 1398.25,1176.05 1400.4,1175.2 1402.55,1174.34 1404.7,1173.48 1406.85,1172.62 1409,1171.75 1411.15,1170.89 1413.3,1170.01 1415.45,1169.14 1417.6,1168.26 1419.75,1167.38 1421.9,1166.5 1424.05,1165.61 1426.2,1164.72 1428.35,1163.82 1430.5,1162.93 1432.65,1162.02 1434.8,1161.12 1436.95,1160.21 1439.1,1159.3 1441.25,1158.39 1443.4,1157.47 1445.55,1156.55 1447.7,1155.63 1449.85,1154.7 1452,1153.77 1454.15,1152.83 1456.3,1151.89 1458.45,1150.95 1460.6,1150.01 1462.75,1149.06 1464.89,1148.11 1467.04,1147.15 1469.19,1146.19 1471.34,1145.23 1473.49,1144.26 1475.64,1143.29 1477.79,1142.32 1479.94,1141.34 1482.09,1140.36 1484.24,1139.38 1486.39,1138.39 1488.54,1137.4 1490.69,1136.4 1492.84,1135.41 1494.99,1134.4 1497.14,1133.4 1499.29,1132.39 1501.44,1131.37 1503.59,1130.36 1505.74,1129.33 1507.89,1128.31 1510.04,1127.28 1512.19,1126.25 1514.34,1125.21 1516.49,1124.17 1518.64,1123.13 1520.79,1122.08 1522.94,1121.03 1525.09,1119.97 1527.24,1118.92 1529.39,1117.85 1531.54,1116.78 1533.69,1115.71 1535.84,1114.64 1537.99,1113.56 1540.14,1112.48 1542.29,1111.39 1544.44,1110.3 1546.59,1109.2 1548.74,1108.1 1550.89,1107 1553.04,1105.89 1555.19,1104.78 1557.34,1103.67 1559.49,1102.55 1561.64,1101.42 1563.78,1100.3 1565.93,1099.16 1568.08,1098.03 1570.23,1096.89 1572.38,1095.74 1574.53,1094.59 1576.68,1093.44 1578.83,1092.28 1580.98,1091.12 1583.13,1089.96 1585.28,1088.79 1587.43,1087.61 1589.58,1086.43 1591.73,1085.25 1593.88,1084.06 1596.03,1082.87 1598.18,1081.68 1600.33,1080.47 1602.48,1079.27 1604.63,1078.06 1606.78,1076.85 1608.93,1075.63 1611.08,1074.4 1613.23,1073.18 1615.38,1071.94 1617.53,1070.71 1619.68,1069.47 1621.83,1068.22 1623.98,1066.97 1626.13,1065.71 1628.28,1064.45 1630.43,1063.19 1632.58,1061.92 1634.73,1060.64 1636.88,1059.36 1639.03,1058.08 1641.18,1056.79 1643.33,1055.5 1645.48,1054.2 1647.63,1052.9 1649.78,1051.59 1651.93,1050.28 1654.08,1048.96 1656.23,1047.64 1658.38,1046.31 1660.53,1044.97 1662.68,1043.64 1664.82,1042.29 1666.97,1040.95 1669.12,1039.59 1671.27,1038.23 1673.42,1036.87 1675.57,1035.5 1677.72,1034.13 1679.87,1032.75 1682.02,1031.37 1684.17,1029.98 1686.32,1028.58 1688.47,1027.18 1690.62,1025.78 1692.77,1024.37 1694.92,1022.95 1697.07,1021.53 1699.22,1020.1 1701.37,1018.67 1703.52,1017.23 1705.67,1015.79 1707.82,1014.34 1709.97,1012.89 1712.12,1011.43 1714.27,1009.96 1716.42,1008.49 1718.57,1007.02 1720.72,1005.54 1722.87,1004.05 1725.02,1002.55 1727.17,1001.06 1729.32,999.551 1731.47,998.041 1733.62,996.524 1735.77,995.002 1737.92,993.475 1740.07,991.941 1742.22,990.401 1744.37,988.856 1746.52,987.304 1748.67,985.747 1750.82,984.183 1752.97,982.614 1755.12,981.038 1757.27,979.456 1759.42,977.869 1761.57,976.275 1763.71,974.675 1765.86,973.069 1768.01,971.456 1770.16,969.838 1772.31,968.213 1774.46,966.581 1776.61,964.944 1778.76,963.3 1780.91,961.65 1783.06,959.993 1785.21,958.33 1787.36,956.66 1789.51,954.984 1791.66,953.302 1793.81,951.612 1795.96,949.917 1798.11,948.214 1800.26,946.505 1802.41,944.79 1804.56,943.067 1806.71,941.338 1808.86,939.602 1811.01,937.859 1813.16,936.11 1815.31,934.354 1817.46,932.59 1819.61,930.82 1821.76,929.043 1823.91,927.259 1826.06,925.468 1828.21,923.67 1830.36,921.864 1832.51,920.052 1834.66,918.233 1836.81,916.406 1838.96,914.572 1841.11,912.731 1843.26,910.882 1845.41,909.027 1847.56,907.164 1849.71,905.293 1851.86,903.416 1854.01,901.53 1856.16,899.638 1858.31,897.737 1860.46,895.829 1862.6,893.914 1864.75,891.991 1866.9,890.061 1869.05,888.122 1871.2,886.176 1873.35,884.222 1875.5,882.261 1877.65,880.291 1879.8,878.314 1881.95,876.329 1884.1,874.336 1886.25,872.335 1888.4,870.326 1890.55,868.309 1892.7,866.283 1894.85,864.25 1897,862.209 1899.15,860.159 1901.3,858.101 1903.45,856.035 1905.6,853.96 1907.75,851.877 1909.9,849.786 1912.05,847.686 1914.2,845.578 1916.35,843.462 1918.5,841.336 1920.65,839.203 1922.8,837.06 1924.95,834.909 1927.1,832.749 1929.25,830.581 1931.4,828.403 1933.55,826.217 1935.7,824.022 1937.85,821.818 1940,819.605 1942.15,817.383 1944.3,815.152 1946.45,812.912 1948.6,810.663 1950.75,808.404 1952.9,806.137 1955.05,803.86 1957.2,801.574 1959.35,799.278 1961.5,796.973 1963.64,794.659 1965.79,792.335 1967.94,790.001 1970.09,787.658 1972.24,785.306 1974.39,782.944 1976.54,780.572 1978.69,778.19 1980.84,775.798 1982.99,773.397 1985.14,770.986 1987.29,768.564 1989.44,766.133 1991.59,763.692 1993.74,761.24 1995.89,758.779 1998.04,756.307 2000.19,753.825 2002.34,751.333 2004.49,748.83 2006.64,746.317 2008.79,743.794 2010.94,741.26 2013.09,738.716 2015.24,736.16 2017.39,733.595 2019.54,731.018 2021.69,728.431 2023.84,725.833 2025.99,723.224 2028.14,720.605 2030.29,717.974 2032.44,715.332 2034.59,712.679 2036.74,710.016 2038.89,707.34 2041.04,704.654 2043.19,701.957 2045.34,699.248 2047.49,696.527 2049.64,693.795 2051.79,691.052 2053.94,688.297 2056.09,685.531 2058.24,682.752 2060.39,679.963 2062.53,677.161 2064.68,674.347 2066.83,671.522 2068.98,668.684 2071.13,665.835 2073.28,662.973 2075.43,660.099 2077.58,657.213 2079.73,654.315 2081.88,651.404 2084.03,648.481 2086.18,645.546 2088.33,642.598 2090.48,639.637 2092.63,636.664 2094.78,633.678 2096.93,630.679 2099.08,627.667 2101.23,624.643 2103.38,621.605 2105.53,618.555 2107.68,615.491 2109.83,612.415 2111.98,609.325 2114.13,606.221 2116.28,603.104 2118.43,599.974 2120.58,596.831 2122.73,593.673 2124.88,590.503 2127.03,587.318 2129.18,584.12 2131.33,580.907 2133.48,577.681 2135.63,574.441 2137.78,571.187 2139.93,567.918 2142.08,564.636 2144.23,561.339 2146.38,558.028 2148.53,554.702 2150.68,551.362 2152.83,548.007 2154.98,544.638 2157.13,541.254 2159.28,537.855 2161.43,534.441 2163.57,531.012 2165.72,527.569 2167.87,524.11 2170.02,520.636 2172.17,517.146 2174.32,513.641 2176.47,510.121 2178.62,506.586 2180.77,503.034 2182.92,499.467 2185.07,495.885 2187.22,492.286 2189.37,488.672 2191.52,485.041 2193.67,481.395 2195.82,477.732 2197.97,474.053 2200.12,470.358 2202.27,466.646 2204.42,462.918 2206.57,459.173 2208.72,455.412 2210.87,451.633 2213.02,447.838 2215.17,444.026 2217.32,440.197 2219.47,436.351 2221.62,432.487 2223.77,428.606 2225.92,424.708 2228.07,420.792 2230.22,416.859 2232.37,412.908 2234.52,408.939 2236.67,404.953 2238.82,400.948 2240.97,396.925 2243.12,392.885 2245.27,388.826 2247.42,384.748 2249.57,380.652 2251.72,376.538 2253.87,372.405 2256.02,368.253 2258.17,364.082 2260.32,359.893 2262.46,355.684 2264.61,351.456 2266.76,347.209 2268.91,342.942 2271.06,338.657 2273.21,334.351 2275.36,330.026 2277.51,325.681 2279.66,321.316 2281.81,316.931 2283.96,312.526 2286.11,308.101 2288.26,303.655 2290.41,299.189 2292.56,294.703 2294.71,290.195 2296.86,285.667 2299.01,281.119 2301.16,276.549 2303.31,271.958 2305.46,267.345 2307.61,262.712 2309.76,258.057 2311.91,253.38 2314.06,248.682 2316.21,243.961 2318.36,239.219 2320.51,234.455 2322.66,229.669 2324.81,224.86 2326.96,220.029 2329.11,215.175 2331.26,210.298 2333.41,205.399 2335.56,200.477 2337.71,195.532 2339.86,190.563 2342.01,185.571 2344.16,180.556 2346.31,175.517 2348.46,170.455 2350.61,165.368 2352.76,160.258 "/>
<polyline clip-path="url(#clip222)" style="stroke:#e26f46; stroke-linecap:round; stroke-linejoin:round; stroke-width:20; stroke-opacity:0.4; fill:none" points="205.121,1386.4 209.416,1385.98 213.712,1385.57 218.007,1385.15 222.302,1384.74 226.597,1384.32 230.893,1383.91 235.188,1383.5 239.483,1383.08 243.778,1382.67 248.074,1382.25 252.369,1381.84 256.664,1381.42 260.959,1381.01 265.255,1380.59 269.55,1380.18 273.845,1379.77 278.141,1379.35 282.436,1378.94 286.731,1378.52 291.026,1378.11 295.322,1377.69 299.617,1377.28 303.912,1376.86 308.207,1376.45 312.503,1376.04 316.798,1375.62 321.093,1375.21 325.389,1374.79 329.684,1374.38 333.979,1373.96 338.274,1373.55 342.57,1373.14 346.865,1372.72 351.16,1372.31 355.455,1371.89 359.751,1371.48 364.046,1371.06 368.341,1370.65 372.636,1370.23 376.932,1369.82 381.227,1369.41 385.522,1368.99 389.818,1368.58 394.113,1368.16 398.408,1367.75 402.703,1367.33 406.999,1366.92 411.294,1366.51 415.589,1366.09 419.884,1365.68 424.18,1365.26 428.475,1364.85 432.77,1364.43 437.066,1364.02 441.361,1363.6 445.656,1363.19 449.951,1362.78 454.247,1362.36 458.542,1361.95 462.837,1361.53 467.132,1361.12 471.428,1360.7 475.723,1360.29 480.018,1359.88 484.314,1359.46 488.609,1359.05 492.904,1358.63 497.199,1358.22 501.495,1357.8 505.79,1357.39 510.085,1356.97 514.38,1356.56 518.676,1356.15 522.971,1355.73 527.266,1355.32 531.561,1354.9 535.857,1354.49 540.152,1354.07 544.447,1353.66 548.743,1353.25 553.038,1352.83 557.333,1352.42 561.628,1352 565.924,1351.59 570.219,1351.17 574.514,1350.76 578.809,1350.34 583.105,1349.92 587.4,1349.5 591.695,1349.08 595.991,1348.65 600.286,1348.22 604.581,1347.78 608.876,1347.34 613.172,1346.9 617.467,1346.46 621.762,1346.01 626.057,1345.56 630.353,1345.1 634.648,1344.64 638.943,1344.18 643.239,1343.72 647.534,1343.25 651.829,1342.78 656.124,1342.3 660.42,1341.82 664.715,1341.34 669.01,1340.86 673.305,1340.37 677.601,1339.87 681.896,1339.38 686.191,1338.88 690.486,1338.37 694.782,1337.87 699.077,1337.36 703.372,1336.84 707.668,1336.32 711.963,1335.8 716.258,1335.27 720.553,1334.74 724.849,1334.21 729.144,1333.67 733.439,1333.13 737.734,1332.58 742.03,1332.03 746.325,1331.47 750.62,1330.92 754.916,1330.35 759.211,1329.79 763.506,1329.22 767.801,1328.64 772.097,1328.06 776.392,1327.48 780.687,1326.89 784.982,1326.3 789.278,1325.7 793.573,1325.1 797.868,1324.49 802.163,1323.88 806.459,1323.27 810.754,1322.65 815.049,1322.02 819.345,1321.4 823.64,1320.76 827.935,1320.13 832.23,1319.48 836.526,1318.84 840.821,1318.18 845.116,1317.53 849.411,1316.87 853.707,1316.2 858.002,1315.53 862.297,1314.85 866.593,1314.17 870.888,1313.48 875.183,1312.79 879.478,1312.1 883.774,1311.39 888.069,1310.69 892.364,1309.98 896.659,1309.26 900.955,1308.54 905.25,1307.81 909.545,1307.07 913.841,1306.34 918.136,1305.59 922.431,1304.84 926.726,1304.09 931.022,1303.33 935.317,1302.56 939.612,1301.79 943.907,1301.01 948.203,1300.23 952.498,1299.44 956.793,1298.64 961.088,1297.84 965.384,1297.03 969.679,1296.22 973.974,1295.4 978.27,1294.58 982.565,1293.74 986.86,1292.91 991.155,1292.06 995.451,1291.21 999.746,1290.36 1004.04,1289.5 1008.34,1288.63 1012.63,1287.75 1016.93,1286.87 1021.22,1285.98 1025.52,1285.09 1029.81,1284.19 1034.11,1283.28 1038.4,1282.37 1042.7,1281.44 1046.99,1280.52 1051.29,1279.58 1055.58,1278.64 1059.88,1277.69 1064.17,1276.74 1068.47,1275.77 1072.77,1274.8 1077.06,1273.83 1081.36,1272.84 1085.65,1271.85 1089.95,1270.85 1094.24,1269.84 1098.54,1268.83 1102.83,1267.81 1107.13,1266.78 1111.42,1265.74 1115.72,1264.7 1120.01,1263.65 1124.31,1262.59 1128.6,1261.52 1132.9,1260.45 1137.19,1259.36 1141.49,1258.27 1145.79,1257.17 1150.08,1256.07 1154.38,1254.95 1158.67,1253.83 1162.97,1252.7 1167.26,1251.55 1171.56,1250.41 1175.85,1249.25 1180.15,1248.08 1184.44,1246.91 1188.74,1245.73 1193.03,1244.53 1197.33,1243.33 1201.62,1242.12 1205.92,1240.91 1210.21,1239.68 1214.51,1238.44 1218.8,1237.2 1223.1,1235.94 1227.4,1234.68 1231.69,1233.4 1235.99,1232.12 1240.28,1230.83 1244.58,1229.53 1248.87,1228.22 1253.17,1226.89 1257.46,1225.56 1261.76,1224.22 1266.05,1222.87 1270.35,1221.51 1274.64,1220.14 1278.94,1218.76 1283.23,1217.37 1287.53,1215.97 1291.82,1214.56 1296.12,1213.13 1300.41,1211.7 1304.71,1210.26 1309.01,1208.8 1313.3,1207.34 1317.6,1205.87 1321.89,1204.38 1326.19,1202.88 1330.48,1201.37 1334.78,1199.85 1339.07,1198.32 1343.37,1196.78 1347.66,1195.23 1351.96,1193.66 1356.25,1192.09 1360.55,1190.5 1364.84,1188.9 1369.14,1187.29 1373.43,1185.67 1377.73,1184.03 1382.02,1182.38 1386.32,1180.72 1390.62,1179.05 1394.91,1177.37 1399.21,1175.67 1403.5,1173.96 1407.8,1172.24 1412.09,1170.5 1416.39,1168.76 1420.68,1167 1424.98,1165.22 1429.27,1163.44 1433.57,1161.64 1437.86,1159.83 1442.16,1158 1446.45,1156.16 1450.75,1154.31 1455.04,1152.44 1459.34,1150.56 1463.64,1148.66 1467.93,1146.76 1472.23,1144.83 1476.52,1142.9 1480.82,1140.94 1485.11,1138.98 1489.41,1137 1493.7,1135 1498,1132.99 1502.29,1130.97 1506.59,1128.93 1510.88,1126.88 1515.18,1124.81 1519.47,1122.72 1523.77,1120.62 1528.06,1118.51 1532.36,1116.38 1536.65,1114.23 1540.95,1112.07 1545.25,1109.89 1549.54,1107.69 1553.84,1105.48 1558.13,1103.25 1562.43,1101.01 1566.72,1098.75 1571.02,1096.47 1575.31,1094.18 1579.61,1091.87 1583.9,1089.54 1588.2,1087.19 1592.49,1084.83 1596.79,1082.45 1601.08,1080.05 1605.38,1077.64 1609.67,1075.2 1613.97,1072.75 1618.26,1070.28 1622.56,1067.79 1626.86,1065.29 1631.15,1062.76 1635.45,1060.22 1639.74,1057.65 1644.04,1055.07 1648.33,1052.47 1652.63,1049.85 1656.92,1047.21 1661.22,1044.54 1665.51,1041.86 1669.81,1039.16 1674.1,1036.44 1678.4,1033.7 1682.69,1030.93 1686.99,1028.15 1691.28,1025.34 1695.58,1022.52 1699.87,1019.67 1704.17,1016.8 1708.47,1013.91 1712.76,1010.99 1717.06,1008.06 1721.35,1005.1 1725.65,1002.12 1729.94,999.114 1734.24,996.087 1738.53,993.036 1742.83,989.963 1747.12,986.865 1751.42,983.744 1755.71,980.599 1760.01,977.429 1764.3,974.235 1768.6,971.016 1772.89,967.773 1777.19,964.504 1781.49,961.209 1785.78,957.89 1790.08,954.544 1794.37,951.172 1798.67,947.774 1802.96,944.349 1807.26,940.898 1811.55,937.419 1815.85,933.913 1820.14,930.38 1824.44,926.819 1828.73,923.23 1833.03,919.612 1837.32,915.966 1841.62,912.291 1845.91,908.587 1850.21,904.854 1854.5,901.092 1858.8,897.299 1863.1,893.476 1867.39,889.623 1871.69,885.739 1875.98,881.824 1880.28,877.878 1884.57,873.9 1888.87,869.89 1893.16,865.849 1897.46,861.774 1901.75,857.667 1906.05,853.527 1910.34,849.354 1914.64,845.147 1918.93,840.906 1923.23,836.63 1927.52,832.32 1931.82,827.975 1936.11,823.595 1940.41,819.179 1944.71,814.727 1949,810.238 1953.3,805.713 1957.59,801.152 1961.89,796.552 1966.18,791.915 1970.48,787.24 1974.77,782.526 1979.07,777.774 1983.36,772.983 1987.66,768.151 1991.95,763.28 1996.25,758.369 2000.54,753.417 2004.84,748.424 2009.13,743.389 2013.43,738.312 2017.72,733.193 2022.02,728.031 2026.32,722.826 2030.61,717.578 2034.91,712.285 2039.2,706.948 2043.5,701.567 2047.79,696.139 2052.09,690.667 2056.38,685.147 2060.68,679.582 2064.97,673.969 2069.27,668.308 2073.56,662.6 2077.86,656.842 2082.15,651.036 2086.45,645.18 2090.74,639.274 2095.04,633.318 2099.33,627.311 2103.63,621.252 2107.93,615.141 2112.22,608.977 2116.52,602.76 2120.81,596.49 2125.11,590.165 2129.4,583.785 2133.7,577.351 2137.99,570.86 2142.29,564.313 2146.58,557.709 2150.88,551.047 2155.17,544.327 2159.47,537.548 2163.76,530.709 2168.06,523.811 2172.35,516.852 2176.65,509.831 2180.95,502.749 2185.24,495.604 2189.54,488.396 2193.83,481.123 2198.13,473.787 2202.42,466.385 2206.72,458.917 2211.01,451.382 2215.31,443.781 2219.6,436.111 2223.9,428.372 2228.19,420.564 2232.49,412.685 2236.78,404.736 2241.08,396.715 2245.37,388.621 2249.67,380.454 2253.96,372.213 2258.26,363.897 2262.56,355.506 2266.85,347.038 2271.15,338.492 2275.44,329.869 2279.74,321.166 2284.03,312.384 2288.33,303.521 2292.62,294.576 2296.92,285.548 2301.21,276.438 2305.51,267.243 2309.8,257.962 2314.1,248.596 2318.39,239.142 2322.69,229.6 2326.98,219.969 2331.28,210.248 2335.57,200.436 2339.87,190.532 2344.17,180.535 2348.46,170.443 2352.76,160.256 "/>
<path clip-path="url(#clip220)" d="M276.709 322.316 L933.854 322.316 L933.854 166.796 L276.709 166.796  Z" fill="#ffffff" fill-rule="evenodd" fill-opacity="1"/>
<polyline clip-path="url(#clip220)" style="stroke:#000000; stroke-linecap:round; stroke-linejoin:round; stroke-width:4; stroke-opacity:1; fill:none" points="276.709,322.316 933.854,322.316 933.854,166.796 276.709,166.796 276.709,322.316 "/>
<polyline clip-path="url(#clip220)" style="stroke:#000000; stroke-linecap:round; stroke-linejoin:round; stroke-width:4; stroke-opacity:1; fill:none" points="300.571,218.636 443.747,218.636 "/>
<path clip-path="url(#clip220)" d="M495.48 204.018 L495.48 208.948 Q493.119 206.749 490.434 205.661 Q487.772 204.573 484.762 204.573 Q478.836 204.573 475.688 208.208 Q472.54 211.819 472.54 218.67 Q472.54 225.499 475.688 229.133 Q478.836 232.744 484.762 232.744 Q487.772 232.744 490.434 231.656 Q493.119 230.569 495.48 228.369 L495.48 233.254 Q493.026 234.92 490.272 235.754 Q487.54 236.587 484.485 236.587 Q476.637 236.587 472.124 231.795 Q467.61 226.981 467.61 218.67 Q467.61 210.337 472.124 205.546 Q476.637 200.731 484.485 200.731 Q487.586 200.731 490.318 201.564 Q493.073 202.374 495.48 204.018 Z" fill="#000000" fill-rule="nonzero" fill-opacity="1" /><path clip-path="url(#clip220)" d="M512.563 212.976 Q509.137 212.976 507.147 215.661 Q505.156 218.323 505.156 222.976 Q505.156 227.629 507.123 230.314 Q509.114 232.976 512.563 232.976 Q515.966 232.976 517.957 230.291 Q519.947 227.606 519.947 222.976 Q519.947 218.37 517.957 215.684 Q515.966 212.976 512.563 212.976 M512.563 209.365 Q518.119 209.365 521.29 212.976 Q524.461 216.587 524.461 222.976 Q524.461 229.342 521.29 232.976 Q518.119 236.587 512.563 236.587 Q506.984 236.587 503.813 232.976 Q500.665 229.342 500.665 222.976 Q500.665 216.587 503.813 212.976 Q506.984 209.365 512.563 209.365 Z" fill="#000000" fill-rule="nonzero" fill-opacity="1" /><path clip-path="url(#clip220)" d="M551.706 214.967 Q553.304 212.096 555.526 210.731 Q557.748 209.365 560.757 209.365 Q564.808 209.365 567.007 212.212 Q569.206 215.036 569.206 220.268 L569.206 235.916 L564.924 235.916 L564.924 220.407 Q564.924 216.68 563.605 214.874 Q562.285 213.069 559.577 213.069 Q556.267 213.069 554.345 215.268 Q552.424 217.467 552.424 221.263 L552.424 235.916 L548.142 235.916 L548.142 220.407 Q548.142 216.657 546.822 214.874 Q545.503 213.069 542.748 213.069 Q539.484 213.069 537.563 215.291 Q535.642 217.49 535.642 221.263 L535.642 235.916 L531.359 235.916 L531.359 209.99 L535.642 209.99 L535.642 214.018 Q537.1 211.633 539.137 210.499 Q541.174 209.365 543.975 209.365 Q546.799 209.365 548.767 210.8 Q550.757 212.235 551.706 214.967 Z" fill="#000000" fill-rule="nonzero" fill-opacity="1" /><path clip-path="url(#clip220)" d="M581.822 232.027 L581.822 245.777 L577.54 245.777 L577.54 209.99 L581.822 209.99 L581.822 213.925 Q583.165 211.61 585.202 210.499 Q587.262 209.365 590.109 209.365 Q594.831 209.365 597.771 213.115 Q600.734 216.865 600.734 222.976 Q600.734 229.087 597.771 232.837 Q594.831 236.587 590.109 236.587 Q587.262 236.587 585.202 235.476 Q583.165 234.342 581.822 232.027 M596.313 222.976 Q596.313 218.277 594.368 215.615 Q592.447 212.93 589.067 212.93 Q585.688 212.93 583.743 215.615 Q581.822 218.277 581.822 222.976 Q581.822 227.675 583.743 230.36 Q585.688 233.022 589.067 233.022 Q592.447 233.022 594.368 230.36 Q596.313 227.675 596.313 222.976 Z" fill="#000000" fill-rule="nonzero" fill-opacity="1" /><path clip-path="url(#clip220)" d="M607.354 225.684 L607.354 209.99 L611.614 209.99 L611.614 225.522 Q611.614 229.203 613.049 231.055 Q614.484 232.883 617.354 232.883 Q620.803 232.883 622.794 230.684 Q624.808 228.485 624.808 224.689 L624.808 209.99 L629.067 209.99 L629.067 235.916 L624.808 235.916 L624.808 231.934 Q623.257 234.295 621.197 235.453 Q619.16 236.587 616.451 236.587 Q611.984 236.587 609.669 233.809 Q607.354 231.031 607.354 225.684 M618.072 209.365 L618.072 209.365 Z" fill="#000000" fill-rule="nonzero" fill-opacity="1" /><path clip-path="url(#clip220)" d="M642.053 202.629 L642.053 209.99 L650.826 209.99 L650.826 213.3 L642.053 213.3 L642.053 227.374 Q642.053 230.545 642.91 231.448 Q643.789 232.351 646.451 232.351 L650.826 232.351 L650.826 235.916 L646.451 235.916 Q641.521 235.916 639.646 234.087 Q637.771 232.235 637.771 227.374 L637.771 213.3 L634.646 213.3 L634.646 209.99 L637.771 209.99 L637.771 202.629 L642.053 202.629 Z" fill="#000000" fill-rule="nonzero" fill-opacity="1" /><path clip-path="url(#clip220)" d="M678.604 221.888 L678.604 223.971 L659.021 223.971 Q659.298 228.369 661.66 230.684 Q664.044 232.976 668.28 232.976 Q670.734 232.976 673.025 232.374 Q675.34 231.772 677.609 230.569 L677.609 234.596 Q675.317 235.568 672.91 236.078 Q670.502 236.587 668.025 236.587 Q661.822 236.587 658.187 232.976 Q654.576 229.365 654.576 223.207 Q654.576 216.842 658.002 213.115 Q661.451 209.365 667.285 209.365 Q672.516 209.365 675.548 212.745 Q678.604 216.101 678.604 221.888 M674.345 220.638 Q674.298 217.143 672.377 215.059 Q670.479 212.976 667.331 212.976 Q663.766 212.976 661.613 214.99 Q659.484 217.004 659.16 220.661 L674.345 220.638 Z" fill="#000000" fill-rule="nonzero" fill-opacity="1" /><path clip-path="url(#clip220)" d="M702.655 213.925 L702.655 199.897 L706.914 199.897 L706.914 235.916 L702.655 235.916 L702.655 232.027 Q701.312 234.342 699.252 235.476 Q697.215 236.587 694.345 236.587 Q689.646 236.587 686.683 232.837 Q683.743 229.087 683.743 222.976 Q683.743 216.865 686.683 213.115 Q689.646 209.365 694.345 209.365 Q697.215 209.365 699.252 210.499 Q701.312 211.61 702.655 213.925 M688.141 222.976 Q688.141 227.675 690.062 230.36 Q692.007 233.022 695.386 233.022 Q698.766 233.022 700.71 230.36 Q702.655 227.675 702.655 222.976 Q702.655 218.277 700.71 215.615 Q698.766 212.93 695.386 212.93 Q692.007 212.93 690.062 215.615 Q688.141 218.277 688.141 222.976 Z" fill="#000000" fill-rule="nonzero" fill-opacity="1" /><path clip-path="url(#clip220)" d="M747.284 210.754 L747.284 214.782 Q745.479 213.856 743.534 213.393 Q741.59 212.93 739.506 212.93 Q736.335 212.93 734.738 213.902 Q733.164 214.874 733.164 216.819 Q733.164 218.3 734.298 219.157 Q735.432 219.99 738.858 220.754 L740.317 221.078 Q744.854 222.05 746.752 223.832 Q748.673 225.592 748.673 228.763 Q748.673 232.374 745.803 234.481 Q742.955 236.587 737.955 236.587 Q735.872 236.587 733.604 236.17 Q731.358 235.777 728.858 234.967 L728.858 230.569 Q731.219 231.795 733.511 232.42 Q735.803 233.022 738.048 233.022 Q741.057 233.022 742.678 232.004 Q744.298 230.962 744.298 229.087 Q744.298 227.351 743.117 226.425 Q741.96 225.499 738.002 224.643 L736.52 224.295 Q732.562 223.462 730.803 221.749 Q729.043 220.013 729.043 217.004 Q729.043 213.346 731.636 211.356 Q734.229 209.365 738.997 209.365 Q741.358 209.365 743.442 209.712 Q745.525 210.059 747.284 210.754 Z" fill="#000000" fill-rule="nonzero" fill-opacity="1" /><path clip-path="url(#clip220)" d="M765.502 212.976 Q762.076 212.976 760.085 215.661 Q758.094 218.323 758.094 222.976 Q758.094 227.629 760.062 230.314 Q762.053 232.976 765.502 232.976 Q768.904 232.976 770.895 230.291 Q772.886 227.606 772.886 222.976 Q772.886 218.37 770.895 215.684 Q768.904 212.976 765.502 212.976 M765.502 209.365 Q771.057 209.365 774.228 212.976 Q777.4 216.587 777.4 222.976 Q777.4 229.342 774.228 232.976 Q771.057 236.587 765.502 236.587 Q759.923 236.587 756.752 232.976 Q753.604 229.342 753.604 222.976 Q753.604 216.587 756.752 212.976 Q759.923 209.365 765.502 209.365 Z" fill="#000000" fill-rule="nonzero" fill-opacity="1" /><path clip-path="url(#clip220)" d="M784.46 199.897 L788.719 199.897 L788.719 235.916 L784.46 235.916 L784.46 199.897 Z" fill="#000000" fill-rule="nonzero" fill-opacity="1" /><path clip-path="url(#clip220)" d="M797.191 225.684 L797.191 209.99 L801.45 209.99 L801.45 225.522 Q801.45 229.203 802.886 231.055 Q804.321 232.883 807.191 232.883 Q810.64 232.883 812.631 230.684 Q814.645 228.485 814.645 224.689 L814.645 209.99 L818.904 209.99 L818.904 235.916 L814.645 235.916 L814.645 231.934 Q813.094 234.295 811.034 235.453 Q808.997 236.587 806.288 236.587 Q801.821 236.587 799.506 233.809 Q797.191 231.031 797.191 225.684 M807.909 209.365 L807.909 209.365 Z" fill="#000000" fill-rule="nonzero" fill-opacity="1" /><path clip-path="url(#clip220)" d="M831.89 202.629 L831.89 209.99 L840.663 209.99 L840.663 213.3 L831.89 213.3 L831.89 227.374 Q831.89 230.545 832.747 231.448 Q833.626 232.351 836.288 232.351 L840.663 232.351 L840.663 235.916 L836.288 235.916 Q831.358 235.916 829.483 234.087 Q827.608 232.235 827.608 227.374 L827.608 213.3 L824.483 213.3 L824.483 209.99 L827.608 209.99 L827.608 202.629 L831.89 202.629 Z" fill="#000000" fill-rule="nonzero" fill-opacity="1" /><path clip-path="url(#clip220)" d="M846.265 209.99 L850.524 209.99 L850.524 235.916 L846.265 235.916 L846.265 209.99 M846.265 199.897 L850.524 199.897 L850.524 205.291 L846.265 205.291 L846.265 199.897 Z" fill="#000000" fill-rule="nonzero" fill-opacity="1" /><path clip-path="url(#clip220)" d="M869.483 212.976 Q866.057 212.976 864.066 215.661 Q862.075 218.323 862.075 222.976 Q862.075 227.629 864.043 230.314 Q866.033 232.976 869.483 232.976 Q872.885 232.976 874.876 230.291 Q876.867 227.606 876.867 222.976 Q876.867 218.37 874.876 215.684 Q872.885 212.976 869.483 212.976 M869.483 209.365 Q875.038 209.365 878.209 212.976 Q881.381 216.587 881.381 222.976 Q881.381 229.342 878.209 232.976 Q875.038 236.587 869.483 236.587 Q863.904 236.587 860.733 232.976 Q857.584 229.342 857.584 222.976 Q857.584 216.587 860.733 212.976 Q863.904 209.365 869.483 209.365 Z" fill="#000000" fill-rule="nonzero" fill-opacity="1" /><path clip-path="url(#clip220)" d="M909.992 220.268 L909.992 235.916 L905.732 235.916 L905.732 220.407 Q905.732 216.726 904.297 214.897 Q902.862 213.069 899.992 213.069 Q896.543 213.069 894.552 215.268 Q892.561 217.467 892.561 221.263 L892.561 235.916 L888.279 235.916 L888.279 209.99 L892.561 209.99 L892.561 214.018 Q894.089 211.68 896.149 210.522 Q898.232 209.365 900.941 209.365 Q905.408 209.365 907.7 212.143 Q909.992 214.897 909.992 220.268 Z" fill="#000000" fill-rule="nonzero" fill-opacity="1" /><polyline clip-path="url(#clip220)" style="stroke:#e26f46; stroke-linecap:round; stroke-linejoin:round; stroke-width:20; stroke-opacity:0.4; fill:none" points="300.571,270.476 443.747,270.476 "/>
<path clip-path="url(#clip220)" d="M467.61 253.196 L489.461 253.196 L489.461 257.131 L472.286 257.131 L472.286 267.362 L488.744 267.362 L488.744 271.297 L472.286 271.297 L472.286 283.821 L489.878 283.821 L489.878 287.756 L467.61 287.756 L467.61 253.196 Z" fill="#000000" fill-rule="nonzero" fill-opacity="1" /><path clip-path="url(#clip220)" d="M518.929 261.83 L509.554 274.446 L519.415 287.756 L514.392 287.756 L506.846 277.571 L499.299 287.756 L494.276 287.756 L504.346 274.191 L495.133 261.83 L500.156 261.83 L507.031 271.066 L513.906 261.83 L518.929 261.83 Z" fill="#000000" fill-rule="nonzero" fill-opacity="1" /><path clip-path="url(#clip220)" d="M537.216 274.723 Q532.054 274.723 530.063 275.904 Q528.072 277.084 528.072 279.932 Q528.072 282.2 529.554 283.543 Q531.058 284.862 533.628 284.862 Q537.17 284.862 539.299 282.362 Q541.452 279.839 541.452 275.672 L541.452 274.723 L537.216 274.723 M545.711 272.964 L545.711 287.756 L541.452 287.756 L541.452 283.821 Q539.994 286.182 537.818 287.316 Q535.642 288.427 532.494 288.427 Q528.512 288.427 526.151 286.205 Q523.813 283.959 523.813 280.209 Q523.813 275.834 526.73 273.612 Q529.67 271.39 535.48 271.39 L541.452 271.39 L541.452 270.973 Q541.452 268.034 539.507 266.436 Q537.586 264.816 534.091 264.816 Q531.869 264.816 529.762 265.348 Q527.656 265.881 525.711 266.946 L525.711 263.01 Q528.049 262.108 530.248 261.668 Q532.447 261.205 534.531 261.205 Q540.156 261.205 542.933 264.122 Q545.711 267.038 545.711 272.964 Z" fill="#000000" fill-rule="nonzero" fill-opacity="1" /><path clip-path="url(#clip220)" d="M573.142 262.825 L573.142 266.807 Q571.336 265.811 569.507 265.325 Q567.702 264.816 565.85 264.816 Q561.706 264.816 559.415 267.455 Q557.123 270.071 557.123 274.816 Q557.123 279.561 559.415 282.2 Q561.706 284.816 565.85 284.816 Q567.702 284.816 569.507 284.33 Q571.336 283.821 573.142 282.825 L573.142 286.76 Q571.359 287.594 569.438 288.01 Q567.54 288.427 565.387 288.427 Q559.53 288.427 556.081 284.746 Q552.632 281.066 552.632 274.816 Q552.632 268.473 556.105 264.839 Q559.6 261.205 565.665 261.205 Q567.632 261.205 569.507 261.622 Q571.382 262.015 573.142 262.825 Z" fill="#000000" fill-rule="nonzero" fill-opacity="1" /><path clip-path="url(#clip220)" d="M584.762 254.469 L584.762 261.83 L593.535 261.83 L593.535 265.14 L584.762 265.14 L584.762 279.214 Q584.762 282.385 585.618 283.288 Q586.498 284.191 589.16 284.191 L593.535 284.191 L593.535 287.756 L589.16 287.756 Q584.229 287.756 582.354 285.927 Q580.479 284.075 580.479 279.214 L580.479 265.14 L577.354 265.14 L577.354 261.83 L580.479 261.83 L580.479 254.469 L584.762 254.469 Z" fill="#000000" fill-rule="nonzero" fill-opacity="1" /><path clip-path="url(#clip220)" d="M630.734 262.594 L630.734 266.622 Q628.928 265.696 626.984 265.233 Q625.039 264.77 622.956 264.77 Q619.785 264.77 618.188 265.742 Q616.614 266.714 616.614 268.659 Q616.614 270.14 617.748 270.997 Q618.882 271.83 622.308 272.594 L623.766 272.918 Q628.303 273.89 630.201 275.672 Q632.123 277.432 632.123 280.603 Q632.123 284.214 629.252 286.321 Q626.405 288.427 621.405 288.427 Q619.322 288.427 617.053 288.01 Q614.808 287.617 612.308 286.807 L612.308 282.409 Q614.669 283.635 616.961 284.26 Q619.252 284.862 621.498 284.862 Q624.507 284.862 626.127 283.844 Q627.748 282.802 627.748 280.927 Q627.748 279.191 626.567 278.265 Q625.41 277.339 621.451 276.483 L619.97 276.135 Q616.012 275.302 614.252 273.589 Q612.493 271.853 612.493 268.844 Q612.493 265.186 615.086 263.196 Q617.678 261.205 622.447 261.205 Q624.808 261.205 626.891 261.552 Q628.975 261.899 630.734 262.594 Z" fill="#000000" fill-rule="nonzero" fill-opacity="1" /><path clip-path="url(#clip220)" d="M648.951 264.816 Q645.525 264.816 643.535 267.501 Q641.544 270.163 641.544 274.816 Q641.544 279.469 643.512 282.154 Q645.502 284.816 648.951 284.816 Q652.354 284.816 654.345 282.131 Q656.336 279.446 656.336 274.816 Q656.336 270.21 654.345 267.524 Q652.354 264.816 648.951 264.816 M648.951 261.205 Q654.507 261.205 657.678 264.816 Q660.849 268.427 660.849 274.816 Q660.849 281.182 657.678 284.816 Q654.507 288.427 648.951 288.427 Q643.373 288.427 640.201 284.816 Q637.053 281.182 637.053 274.816 Q637.053 268.427 640.201 264.816 Q643.373 261.205 648.951 261.205 Z" fill="#000000" fill-rule="nonzero" fill-opacity="1" /><path clip-path="url(#clip220)" d="M667.91 251.737 L672.169 251.737 L672.169 287.756 L667.91 287.756 L667.91 251.737 Z" fill="#000000" fill-rule="nonzero" fill-opacity="1" /><path clip-path="url(#clip220)" d="M680.641 277.524 L680.641 261.83 L684.9 261.83 L684.9 277.362 Q684.9 281.043 686.335 282.895 Q687.771 284.723 690.641 284.723 Q694.09 284.723 696.081 282.524 Q698.095 280.325 698.095 276.529 L698.095 261.83 L702.354 261.83 L702.354 287.756 L698.095 287.756 L698.095 283.774 Q696.544 286.135 694.483 287.293 Q692.446 288.427 689.738 288.427 Q685.271 288.427 682.956 285.649 Q680.641 282.871 680.641 277.524 M691.358 261.205 L691.358 261.205 Z" fill="#000000" fill-rule="nonzero" fill-opacity="1" /><path clip-path="url(#clip220)" d="M715.34 254.469 L715.34 261.83 L724.113 261.83 L724.113 265.14 L715.34 265.14 L715.34 279.214 Q715.34 282.385 716.196 283.288 Q717.076 284.191 719.738 284.191 L724.113 284.191 L724.113 287.756 L719.738 287.756 Q714.807 287.756 712.932 285.927 Q711.057 284.075 711.057 279.214 L711.057 265.14 L707.932 265.14 L707.932 261.83 L711.057 261.83 L711.057 254.469 L715.34 254.469 Z" fill="#000000" fill-rule="nonzero" fill-opacity="1" /><path clip-path="url(#clip220)" d="M729.715 261.83 L733.974 261.83 L733.974 287.756 L729.715 287.756 L729.715 261.83 M729.715 251.737 L733.974 251.737 L733.974 257.131 L729.715 257.131 L729.715 251.737 Z" fill="#000000" fill-rule="nonzero" fill-opacity="1" /><path clip-path="url(#clip220)" d="M752.932 264.816 Q749.506 264.816 747.516 267.501 Q745.525 270.163 745.525 274.816 Q745.525 279.469 747.492 282.154 Q749.483 284.816 752.932 284.816 Q756.335 284.816 758.326 282.131 Q760.316 279.446 760.316 274.816 Q760.316 270.21 758.326 267.524 Q756.335 264.816 752.932 264.816 M752.932 261.205 Q758.488 261.205 761.659 264.816 Q764.83 268.427 764.83 274.816 Q764.83 281.182 761.659 284.816 Q758.488 288.427 752.932 288.427 Q747.354 288.427 744.182 284.816 Q741.034 281.182 741.034 274.816 Q741.034 268.427 744.182 264.816 Q747.354 261.205 752.932 261.205 Z" fill="#000000" fill-rule="nonzero" fill-opacity="1" /><path clip-path="url(#clip220)" d="M793.441 272.108 L793.441 287.756 L789.182 287.756 L789.182 272.247 Q789.182 268.566 787.747 266.737 Q786.312 264.909 783.441 264.909 Q779.992 264.909 778.002 267.108 Q776.011 269.307 776.011 273.103 L776.011 287.756 L771.728 287.756 L771.728 261.83 L776.011 261.83 L776.011 265.858 Q777.539 263.52 779.599 262.362 Q781.682 261.205 784.39 261.205 Q788.858 261.205 791.15 263.983 Q793.441 266.737 793.441 272.108 Z" fill="#000000" fill-rule="nonzero" fill-opacity="1" /></svg>
