<?xml version="1.0" encoding="utf-8"?>
<svg xmlns="http://www.w3.org/2000/svg" xmlns:xlink="http://www.w3.org/1999/xlink" width="600" height="400" viewBox="0 0 2400 1600">
<defs>
  <clipPath id="clip960">
    <rect x="0" y="0" width="2400" height="1600"/>
  </clipPath>
</defs>
<path clip-path="url(#clip960)" d="M0 1600 L2400 1600 L2400 0 L0 0  Z" fill="#ffffff" fill-rule="evenodd" fill-opacity="1"/>
<defs>
  <clipPath id="clip961">
    <rect x="480" y="0" width="1681" height="1600"/>
  </clipPath>
</defs>
<path clip-path="url(#clip960)" d="M205.121 1423.18 L2352.76 1423.18 L2352.76 123.472 L205.121 123.472  Z" fill="#ffffff" fill-rule="evenodd" fill-opacity="1"/>
<defs>
  <clipPath id="clip962">
    <rect x="205" y="123" width="2149" height="1301"/>
  </clipPath>
</defs>
<polyline clip-path="url(#clip962)" style="stroke:#000000; stroke-linecap:round; stroke-linejoin:round; stroke-width:2; stroke-opacity:0.1; fill:none" points="205.121,1423.18 205.121,123.472 "/>
<polyline clip-path="url(#clip962)" style="stroke:#000000; stroke-linecap:round; stroke-linejoin:round; stroke-width:2; stroke-opacity:0.1; fill:none" points="634.648,1423.18 634.648,123.472 "/>
<polyline clip-path="url(#clip962)" style="stroke:#000000; stroke-linecap:round; stroke-linejoin:round; stroke-width:2; stroke-opacity:0.1; fill:none" points="1064.17,1423.18 1064.17,123.472 "/>
<polyline clip-path="url(#clip962)" style="stroke:#000000; stroke-linecap:round; stroke-linejoin:round; stroke-width:2; stroke-opacity:0.1; fill:none" points="1493.7,1423.18 1493.7,123.472 "/>
<polyline clip-path="url(#clip962)" style="stroke:#000000; stroke-linecap:round; stroke-linejoin:round; stroke-width:2; stroke-opacity:0.1; fill:none" points="1923.23,1423.18 1923.23,123.472 "/>
<polyline clip-path="url(#clip962)" style="stroke:#000000; stroke-linecap:round; stroke-linejoin:round; stroke-width:2; stroke-opacity:0.1; fill:none" points="2352.76,1423.18 2352.76,123.472 "/>
<polyline clip-path="url(#clip962)" style="stroke:#000000; stroke-linecap:round; stroke-linejoin:round; stroke-width:2; stroke-opacity:0.1; fill:none" points="205.121,1407.11 2352.76,1407.11 "/>
<polyline clip-path="url(#clip962)" style="stroke:#000000; stroke-linecap:round; stroke-linejoin:round; stroke-width:2; stroke-opacity:0.1; fill:none" points="205.121,1199.92 2352.76,1199.92 "/>
<polyline clip-path="url(#clip962)" style="stroke:#000000; stroke-linecap:round; stroke-linejoin:round; stroke-width:2; stroke-opacity:0.1; fill:none" points="205.121,992.734 2352.76,992.734 "/>
<polyline clip-path="url(#clip962)" style="stroke:#000000; stroke-linecap:round; stroke-linejoin:round; stroke-width:2; stroke-opacity:0.1; fill:none" points="205.121,785.544 2352.76,785.544 "/>
<polyline clip-path="url(#clip962)" style="stroke:#000000; stroke-linecap:round; stroke-linejoin:round; stroke-width:2; stroke-opacity:0.1; fill:none" points="205.121,578.354 2352.76,578.354 "/>
<polyline clip-path="url(#clip962)" style="stroke:#000000; stroke-linecap:round; stroke-linejoin:round; stroke-width:2; stroke-opacity:0.1; fill:none" points="205.121,371.164 2352.76,371.164 "/>
<polyline clip-path="url(#clip962)" style="stroke:#000000; stroke-linecap:round; stroke-linejoin:round; stroke-width:2; stroke-opacity:0.1; fill:none" points="205.121,163.973 2352.76,163.973 "/>
<polyline clip-path="url(#clip960)" style="stroke:#000000; stroke-linecap:round; stroke-linejoin:round; stroke-width:4; stroke-opacity:1; fill:none" points="205.121,1423.18 2352.76,1423.18 "/>
<polyline clip-path="url(#clip960)" style="stroke:#000000; stroke-linecap:round; stroke-linejoin:round; stroke-width:4; stroke-opacity:1; fill:none" points="205.121,1423.18 205.121,1404.28 "/>
<polyline clip-path="url(#clip960)" style="stroke:#000000; stroke-linecap:round; stroke-linejoin:round; stroke-width:4; stroke-opacity:1; fill:none" points="634.648,1423.18 634.648,1404.28 "/>
<polyline clip-path="url(#clip960)" style="stroke:#000000; stroke-linecap:round; stroke-linejoin:round; stroke-width:4; stroke-opacity:1; fill:none" points="1064.17,1423.18 1064.17,1404.28 "/>
<polyline clip-path="url(#clip960)" style="stroke:#000000; stroke-linecap:round; stroke-linejoin:round; stroke-width:4; stroke-opacity:1; fill:none" points="1493.7,1423.18 1493.7,1404.28 "/>
<polyline clip-path="url(#clip960)" style="stroke:#000000; stroke-linecap:round; stroke-linejoin:round; stroke-width:4; stroke-opacity:1; fill:none" points="1923.23,1423.18 1923.23,1404.28 "/>
<polyline clip-path="url(#clip960)" style="stroke:#000000; stroke-linecap:round; stroke-linejoin:round; stroke-width:4; stroke-opacity:1; fill:none" points="2352.76,1423.18 2352.76,1404.28 "/>
<path clip-path="url(#clip960)" d="M205.121 1454.1 Q201.51 1454.1 199.681 1457.66 Q197.876 1461.2 197.876 1468.33 Q197.876 1475.44 199.681 1479.01 Q201.51 1482.55 205.121 1482.55 Q208.755 1482.55 210.561 1479.01 Q212.389 1475.44 212.389 1468.33 Q212.389 1461.2 210.561 1457.66 Q208.755 1454.1 205.121 1454.1 M205.121 1450.39 Q210.931 1450.39 213.987 1455 Q217.065 1459.58 217.065 1468.33 Q217.065 1477.06 213.987 1481.67 Q210.931 1486.25 205.121 1486.25 Q199.311 1486.25 196.232 1481.67 Q193.177 1477.06 193.177 1468.33 Q193.177 1459.58 196.232 1455 Q199.311 1450.39 205.121 1450.39 Z" fill="#000000" fill-rule="nonzero" fill-opacity="1" /><path clip-path="url(#clip960)" d="M629.301 1481.64 L645.62 1481.64 L645.62 1485.58 L623.676 1485.58 L623.676 1481.64 Q626.338 1478.89 630.921 1474.26 Q635.528 1469.61 636.708 1468.27 Q638.953 1465.74 639.833 1464.01 Q640.736 1462.25 640.736 1460.56 Q640.736 1457.8 638.791 1456.07 Q636.87 1454.33 633.768 1454.33 Q631.569 1454.33 629.116 1455.09 Q626.685 1455.86 623.907 1457.41 L623.907 1452.69 Q626.731 1451.55 629.185 1450.97 Q631.639 1450.39 633.676 1450.39 Q639.046 1450.39 642.241 1453.08 Q645.435 1455.77 645.435 1460.26 Q645.435 1462.39 644.625 1464.31 Q643.838 1466.2 641.731 1468.8 Q641.153 1469.47 638.051 1472.69 Q634.949 1475.88 629.301 1481.64 Z" fill="#000000" fill-rule="nonzero" fill-opacity="1" /><path clip-path="url(#clip960)" d="M1067.18 1455.09 L1055.38 1473.54 L1067.18 1473.54 L1067.18 1455.09 M1065.96 1451.02 L1071.84 1451.02 L1071.84 1473.54 L1076.77 1473.54 L1076.77 1477.43 L1071.84 1477.43 L1071.84 1485.58 L1067.18 1485.58 L1067.18 1477.43 L1051.58 1477.43 L1051.58 1472.92 L1065.96 1451.02 Z" fill="#000000" fill-rule="nonzero" fill-opacity="1" /><path clip-path="url(#clip960)" d="M1494.11 1466.44 Q1490.96 1466.44 1489.11 1468.59 Q1487.28 1470.74 1487.28 1474.49 Q1487.28 1478.22 1489.11 1480.39 Q1490.96 1482.55 1494.11 1482.55 Q1497.26 1482.55 1499.08 1480.39 Q1500.94 1478.22 1500.94 1474.49 Q1500.94 1470.74 1499.08 1468.59 Q1497.26 1466.44 1494.11 1466.44 M1503.39 1451.78 L1503.39 1456.04 Q1501.63 1455.21 1499.82 1454.77 Q1498.04 1454.33 1496.28 1454.33 Q1491.65 1454.33 1489.2 1457.45 Q1486.77 1460.58 1486.42 1466.9 Q1487.79 1464.89 1489.85 1463.82 Q1491.91 1462.73 1494.38 1462.73 Q1499.59 1462.73 1502.6 1465.9 Q1505.63 1469.05 1505.63 1474.49 Q1505.63 1479.82 1502.49 1483.03 Q1499.34 1486.25 1494.11 1486.25 Q1488.11 1486.25 1484.94 1481.67 Q1481.77 1477.06 1481.77 1468.33 Q1481.77 1460.14 1485.66 1455.28 Q1489.55 1450.39 1496.1 1450.39 Q1497.86 1450.39 1499.64 1450.74 Q1501.44 1451.09 1503.39 1451.78 Z" fill="#000000" fill-rule="nonzero" fill-opacity="1" /><path clip-path="url(#clip960)" d="M1923.23 1469.17 Q1919.9 1469.17 1917.97 1470.95 Q1916.08 1472.73 1916.08 1475.86 Q1916.08 1478.98 1917.97 1480.77 Q1919.9 1482.55 1923.23 1482.55 Q1926.56 1482.55 1928.48 1480.77 Q1930.4 1478.96 1930.4 1475.86 Q1930.4 1472.73 1928.48 1470.95 Q1926.59 1469.17 1923.23 1469.17 M1918.55 1467.18 Q1915.54 1466.44 1913.85 1464.38 Q1912.19 1462.32 1912.19 1459.35 Q1912.19 1455.21 1915.13 1452.8 Q1918.09 1450.39 1923.23 1450.39 Q1928.39 1450.39 1931.33 1452.8 Q1934.27 1455.21 1934.27 1459.35 Q1934.27 1462.32 1932.58 1464.38 Q1930.91 1466.44 1927.93 1467.18 Q1931.31 1467.96 1933.18 1470.26 Q1935.08 1472.55 1935.08 1475.86 Q1935.08 1480.88 1932 1483.57 Q1928.95 1486.25 1923.23 1486.25 Q1917.51 1486.25 1914.43 1483.57 Q1911.38 1480.88 1911.38 1475.86 Q1911.38 1472.55 1913.28 1470.26 Q1915.17 1467.96 1918.55 1467.18 M1916.84 1459.79 Q1916.84 1462.48 1918.51 1463.98 Q1920.2 1465.49 1923.23 1465.49 Q1926.24 1465.49 1927.93 1463.98 Q1929.64 1462.48 1929.64 1459.79 Q1929.64 1457.11 1927.93 1455.6 Q1926.24 1454.1 1923.23 1454.1 Q1920.2 1454.1 1918.51 1455.6 Q1916.84 1457.11 1916.84 1459.79 Z" fill="#000000" fill-rule="nonzero" fill-opacity="1" /><path clip-path="url(#clip960)" d="M2327.44 1481.64 L2335.08 1481.64 L2335.08 1455.28 L2326.77 1456.95 L2326.77 1452.69 L2335.04 1451.02 L2339.71 1451.02 L2339.71 1481.64 L2347.35 1481.64 L2347.35 1485.58 L2327.44 1485.58 L2327.44 1481.64 Z" fill="#000000" fill-rule="nonzero" fill-opacity="1" /><path clip-path="url(#clip960)" d="M2366.8 1454.1 Q2363.18 1454.1 2361.36 1457.66 Q2359.55 1461.2 2359.55 1468.33 Q2359.55 1475.44 2361.36 1479.01 Q2363.18 1482.55 2366.8 1482.55 Q2370.43 1482.55 2372.23 1479.01 Q2374.06 1475.44 2374.06 1468.33 Q2374.06 1461.2 2372.23 1457.66 Q2370.43 1454.1 2366.8 1454.1 M2366.8 1450.39 Q2372.61 1450.39 2375.66 1455 Q2378.74 1459.58 2378.74 1468.33 Q2378.74 1477.06 2375.66 1481.67 Q2372.61 1486.25 2366.8 1486.25 Q2360.99 1486.25 2357.91 1481.67 Q2354.85 1477.06 2354.85 1468.33 Q2354.85 1459.58 2357.91 1455 Q2360.99 1450.39 2366.8 1450.39 Z" fill="#000000" fill-rule="nonzero" fill-opacity="1" /><path clip-path="url(#clip960)" d="M1278 1522.27 L1278 1532.4 L1290.06 1532.4 L1290.06 1536.95 L1278 1536.95 L1278 1556.3 Q1278 1560.66 1279.18 1561.9 Q1280.39 1563.14 1284.05 1563.14 L1290.06 1563.14 L1290.06 1568.04 L1284.05 1568.04 Q1277.27 1568.04 1274.69 1565.53 Q1272.11 1562.98 1272.11 1556.3 L1272.11 1536.95 L1267.81 1536.95 L1267.81 1532.4 L1272.11 1532.4 L1272.11 1522.27 L1278 1522.27 Z" fill="#000000" fill-rule="nonzero" fill-opacity="1" /><polyline clip-path="url(#clip960)" style="stroke:#000000; stroke-linecap:round; stroke-linejoin:round; stroke-width:4; stroke-opacity:1; fill:none" points="205.121,1423.18 205.121,123.472 "/>
<polyline clip-path="url(#clip960)" style="stroke:#000000; stroke-linecap:round; stroke-linejoin:round; stroke-width:4; stroke-opacity:1; fill:none" points="205.121,1407.11 224.019,1407.11 "/>
<polyline clip-path="url(#clip960)" style="stroke:#000000; stroke-linecap:round; stroke-linejoin:round; stroke-width:4; stroke-opacity:1; fill:none" points="205.121,1199.92 224.019,1199.92 "/>
<polyline clip-path="url(#clip960)" style="stroke:#000000; stroke-linecap:round; stroke-linejoin:round; stroke-width:4; stroke-opacity:1; fill:none" points="205.121,992.734 224.019,992.734 "/>
<polyline clip-path="url(#clip960)" style="stroke:#000000; stroke-linecap:round; stroke-linejoin:round; stroke-width:4; stroke-opacity:1; fill:none" points="205.121,785.544 224.019,785.544 "/>
<polyline clip-path="url(#clip960)" style="stroke:#000000; stroke-linecap:round; stroke-linejoin:round; stroke-width:4; stroke-opacity:1; fill:none" points="205.121,578.354 224.019,578.354 "/>
<polyline clip-path="url(#clip960)" style="stroke:#000000; stroke-linecap:round; stroke-linejoin:round; stroke-width:4; stroke-opacity:1; fill:none" points="205.121,371.164 224.019,371.164 "/>
<polyline clip-path="url(#clip960)" style="stroke:#000000; stroke-linecap:round; stroke-linejoin:round; stroke-width:4; stroke-opacity:1; fill:none" points="205.121,163.973 224.019,163.973 "/>
<path clip-path="url(#clip960)" d="M157.177 1392.91 Q153.566 1392.91 151.737 1396.48 Q149.931 1400.02 149.931 1407.15 Q149.931 1414.26 151.737 1417.82 Q153.566 1421.36 157.177 1421.36 Q160.811 1421.36 162.616 1417.82 Q164.445 1414.26 164.445 1407.15 Q164.445 1400.02 162.616 1396.48 Q160.811 1392.91 157.177 1392.91 M157.177 1389.21 Q162.987 1389.21 166.042 1393.82 Q169.121 1398.4 169.121 1407.15 Q169.121 1415.88 166.042 1420.48 Q162.987 1425.07 157.177 1425.07 Q151.366 1425.07 148.288 1420.48 Q145.232 1415.88 145.232 1407.15 Q145.232 1398.4 148.288 1393.82 Q151.366 1389.21 157.177 1389.21 Z" fill="#000000" fill-rule="nonzero" fill-opacity="1" /><path clip-path="url(#clip960)" d="M117.825 1213.27 L125.464 1213.27 L125.464 1186.9 L117.154 1188.57 L117.154 1184.31 L125.418 1182.64 L130.093 1182.64 L130.093 1213.27 L137.732 1213.27 L137.732 1217.2 L117.825 1217.2 L117.825 1213.27 Z" fill="#000000" fill-rule="nonzero" fill-opacity="1" /><path clip-path="url(#clip960)" d="M157.177 1185.72 Q153.566 1185.72 151.737 1189.29 Q149.931 1192.83 149.931 1199.96 Q149.931 1207.07 151.737 1210.63 Q153.566 1214.17 157.177 1214.17 Q160.811 1214.17 162.616 1210.63 Q164.445 1207.07 164.445 1199.96 Q164.445 1192.83 162.616 1189.29 Q160.811 1185.72 157.177 1185.72 M157.177 1182.02 Q162.987 1182.02 166.042 1186.63 Q169.121 1191.21 169.121 1199.96 Q169.121 1208.69 166.042 1213.29 Q162.987 1217.88 157.177 1217.88 Q151.366 1217.88 148.288 1213.29 Q145.232 1208.69 145.232 1199.96 Q145.232 1191.21 148.288 1186.63 Q151.366 1182.02 157.177 1182.02 Z" fill="#000000" fill-rule="nonzero" fill-opacity="1" /><path clip-path="url(#clip960)" d="M121.043 1006.08 L137.362 1006.08 L137.362 1010.01 L115.418 1010.01 L115.418 1006.08 Q118.08 1003.32 122.663 998.695 Q127.269 994.042 128.45 992.699 Q130.695 990.176 131.575 988.44 Q132.478 986.681 132.478 984.991 Q132.478 982.237 130.533 980.5 Q128.612 978.764 125.51 978.764 Q123.311 978.764 120.857 979.528 Q118.427 980.292 115.649 981.843 L115.649 977.121 Q118.473 975.987 120.927 975.408 Q123.38 974.829 125.418 974.829 Q130.788 974.829 133.982 977.514 Q137.177 980.2 137.177 984.69 Q137.177 986.82 136.367 988.741 Q135.579 990.639 133.473 993.232 Q132.894 993.903 129.792 997.121 Q126.691 1000.32 121.043 1006.08 Z" fill="#000000" fill-rule="nonzero" fill-opacity="1" /><path clip-path="url(#clip960)" d="M157.177 978.533 Q153.566 978.533 151.737 982.098 Q149.931 985.639 149.931 992.769 Q149.931 999.875 151.737 1003.44 Q153.566 1006.98 157.177 1006.98 Q160.811 1006.98 162.616 1003.44 Q164.445 999.875 164.445 992.769 Q164.445 985.639 162.616 982.098 Q160.811 978.533 157.177 978.533 M157.177 974.829 Q162.987 974.829 166.042 979.436 Q169.121 984.019 169.121 992.769 Q169.121 1001.5 166.042 1006.1 Q162.987 1010.69 157.177 1010.69 Q151.366 1010.69 148.288 1006.1 Q145.232 1001.5 145.232 992.769 Q145.232 984.019 148.288 979.436 Q151.366 974.829 157.177 974.829 Z" fill="#000000" fill-rule="nonzero" fill-opacity="1" /><path clip-path="url(#clip960)" d="M131.181 784.19 Q134.538 784.907 136.413 787.176 Q138.311 789.444 138.311 792.778 Q138.311 797.893 134.792 800.694 Q131.274 803.495 124.793 803.495 Q122.617 803.495 120.302 803.055 Q118.01 802.639 115.556 801.782 L115.556 797.268 Q117.501 798.403 119.816 798.981 Q122.13 799.56 124.654 799.56 Q129.052 799.56 131.343 797.824 Q133.658 796.088 133.658 792.778 Q133.658 789.722 131.505 788.009 Q129.376 786.273 125.556 786.273 L121.529 786.273 L121.529 782.431 L125.742 782.431 Q129.191 782.431 131.019 781.065 Q132.848 779.676 132.848 777.083 Q132.848 774.421 130.95 773.009 Q129.075 771.574 125.556 771.574 Q123.635 771.574 121.436 771.991 Q119.237 772.407 116.598 773.287 L116.598 769.12 Q119.26 768.38 121.575 768.009 Q123.913 767.639 125.973 767.639 Q131.297 767.639 134.399 770.07 Q137.501 772.477 137.501 776.597 Q137.501 779.468 135.857 781.458 Q134.214 783.426 131.181 784.19 Z" fill="#000000" fill-rule="nonzero" fill-opacity="1" /><path clip-path="url(#clip960)" d="M157.177 771.343 Q153.566 771.343 151.737 774.907 Q149.931 778.449 149.931 785.579 Q149.931 792.685 151.737 796.25 Q153.566 799.792 157.177 799.792 Q160.811 799.792 162.616 796.25 Q164.445 792.685 164.445 785.579 Q164.445 778.449 162.616 774.907 Q160.811 771.343 157.177 771.343 M157.177 767.639 Q162.987 767.639 166.042 772.245 Q169.121 776.829 169.121 785.579 Q169.121 794.306 166.042 798.912 Q162.987 803.495 157.177 803.495 Q151.366 803.495 148.288 798.912 Q145.232 794.306 145.232 785.579 Q145.232 776.829 148.288 772.245 Q151.366 767.639 157.177 767.639 Z" fill="#000000" fill-rule="nonzero" fill-opacity="1" /><path clip-path="url(#clip960)" d="M129.862 565.148 L118.056 583.597 L129.862 583.597 L129.862 565.148 M128.635 561.074 L134.515 561.074 L134.515 583.597 L139.445 583.597 L139.445 587.486 L134.515 587.486 L134.515 595.634 L129.862 595.634 L129.862 587.486 L114.26 587.486 L114.26 582.972 L128.635 561.074 Z" fill="#000000" fill-rule="nonzero" fill-opacity="1" /><path clip-path="url(#clip960)" d="M157.177 564.152 Q153.566 564.152 151.737 567.717 Q149.931 571.259 149.931 578.388 Q149.931 585.495 151.737 589.06 Q153.566 592.601 157.177 592.601 Q160.811 592.601 162.616 589.06 Q164.445 585.495 164.445 578.388 Q164.445 571.259 162.616 567.717 Q160.811 564.152 157.177 564.152 M157.177 560.449 Q162.987 560.449 166.042 565.055 Q169.121 569.639 169.121 578.388 Q169.121 587.115 166.042 591.722 Q162.987 596.305 157.177 596.305 Q151.366 596.305 148.288 591.722 Q145.232 587.115 145.232 578.388 Q145.232 569.639 148.288 565.055 Q151.366 560.449 157.177 560.449 Z" fill="#000000" fill-rule="nonzero" fill-opacity="1" /><path clip-path="url(#clip960)" d="M117.061 353.884 L135.417 353.884 L135.417 357.819 L121.343 357.819 L121.343 366.291 Q122.362 365.944 123.38 365.782 Q124.399 365.596 125.418 365.596 Q131.205 365.596 134.584 368.768 Q137.964 371.939 137.964 377.356 Q137.964 382.934 134.492 386.036 Q131.019 389.115 124.7 389.115 Q122.524 389.115 120.255 388.744 Q118.01 388.374 115.603 387.633 L115.603 382.934 Q117.686 384.069 119.908 384.624 Q122.13 385.18 124.607 385.18 Q128.612 385.18 130.95 383.073 Q133.288 380.967 133.288 377.356 Q133.288 373.745 130.95 371.638 Q128.612 369.532 124.607 369.532 Q122.732 369.532 120.857 369.948 Q119.006 370.365 117.061 371.245 L117.061 353.884 Z" fill="#000000" fill-rule="nonzero" fill-opacity="1" /><path clip-path="url(#clip960)" d="M157.177 356.962 Q153.566 356.962 151.737 360.527 Q149.931 364.069 149.931 371.198 Q149.931 378.305 151.737 381.869 Q153.566 385.411 157.177 385.411 Q160.811 385.411 162.616 381.869 Q164.445 378.305 164.445 371.198 Q164.445 364.069 162.616 360.527 Q160.811 356.962 157.177 356.962 M157.177 353.259 Q162.987 353.259 166.042 357.865 Q169.121 362.448 169.121 371.198 Q169.121 379.925 166.042 384.531 Q162.987 389.115 157.177 389.115 Q151.366 389.115 148.288 384.531 Q145.232 379.925 145.232 371.198 Q145.232 362.448 148.288 357.865 Q151.366 353.259 157.177 353.259 Z" fill="#000000" fill-rule="nonzero" fill-opacity="1" /><path clip-path="url(#clip960)" d="M127.593 162.11 Q124.445 162.11 122.593 164.263 Q120.765 166.415 120.765 170.165 Q120.765 173.892 122.593 176.068 Q124.445 178.221 127.593 178.221 Q130.742 178.221 132.57 176.068 Q134.422 173.892 134.422 170.165 Q134.422 166.415 132.57 164.263 Q130.742 162.11 127.593 162.11 M136.876 147.457 L136.876 151.716 Q135.117 150.883 133.311 150.443 Q131.529 150.003 129.769 150.003 Q125.14 150.003 122.686 153.128 Q120.255 156.253 119.908 162.573 Q121.274 160.559 123.334 159.494 Q125.394 158.406 127.871 158.406 Q133.08 158.406 136.089 161.577 Q139.121 164.726 139.121 170.165 Q139.121 175.489 135.973 178.707 Q132.825 181.925 127.593 181.925 Q121.598 181.925 118.427 177.341 Q115.256 172.735 115.256 164.008 Q115.256 155.814 119.144 150.953 Q123.033 146.068 129.584 146.068 Q131.343 146.068 133.126 146.415 Q134.931 146.763 136.876 147.457 Z" fill="#000000" fill-rule="nonzero" fill-opacity="1" /><path clip-path="url(#clip960)" d="M157.177 149.772 Q153.566 149.772 151.737 153.337 Q149.931 156.878 149.931 164.008 Q149.931 171.114 151.737 174.679 Q153.566 178.221 157.177 178.221 Q160.811 178.221 162.616 174.679 Q164.445 171.114 164.445 164.008 Q164.445 156.878 162.616 153.337 Q160.811 149.772 157.177 149.772 M157.177 146.068 Q162.987 146.068 166.042 150.675 Q169.121 155.258 169.121 164.008 Q169.121 172.735 166.042 177.341 Q162.987 181.925 157.177 181.925 Q151.366 181.925 148.288 177.341 Q145.232 172.735 145.232 164.008 Q145.232 155.258 148.288 150.675 Q151.366 146.068 157.177 146.068 Z" fill="#000000" fill-rule="nonzero" fill-opacity="1" /><path clip-path="url(#clip960)" d="M28.3562 756.711 L45.7028 769.602 L64.0042 756.043 L64.0042 762.95 L49.9996 773.326 L64.0042 783.702 L64.0042 790.609 L45.3526 776.763 L28.3562 789.431 L28.3562 782.524 L41.0558 773.071 L28.3562 763.618 L28.3562 756.711 Z" fill="#000000" fill-rule="nonzero" fill-opacity="1" /><path clip-path="url(#clip960)" d="M655.383 14.0809 L655.383 22.0612 Q650.724 19.8332 646.592 18.7395 Q642.46 17.6457 638.612 17.6457 Q631.928 17.6457 628.282 20.2383 Q624.677 22.8309 624.677 27.611 Q624.677 31.6214 627.067 33.6873 Q629.497 35.7128 636.222 36.9686 L641.164 37.9813 Q650.319 39.7232 654.654 44.1387 Q659.029 48.5136 659.029 55.8863 Q659.029 64.6767 653.114 69.2137 Q647.24 73.7508 635.857 73.7508 Q631.563 73.7508 626.702 72.7785 Q621.882 71.8063 616.697 69.9024 L616.697 61.4765 Q621.679 64.2716 626.459 65.6895 Q631.239 67.1073 635.857 67.1073 Q642.865 67.1073 646.673 64.3527 Q650.481 61.598 650.481 56.4939 Q650.481 52.0379 647.727 49.5264 Q645.012 47.0148 638.774 45.759 L633.791 44.7868 Q624.636 42.9639 620.545 39.075 Q616.454 35.1862 616.454 28.2591 Q616.454 20.2383 622.084 15.6203 Q627.756 11.0023 637.68 11.0023 Q641.934 11.0023 646.349 11.7719 Q650.765 12.5416 655.383 14.0809 Z" fill="#000000" fill-rule="nonzero" fill-opacity="1" /><path clip-path="url(#clip960)" d="M678.837 14.324 L678.837 27.2059 L694.19 27.2059 L694.19 32.9987 L678.837 32.9987 L678.837 57.6282 Q678.837 63.1779 680.336 64.7578 Q681.876 66.3376 686.534 66.3376 L694.19 66.3376 L694.19 72.576 L686.534 72.576 Q677.906 72.576 674.625 69.3758 Q671.343 66.1351 671.343 57.6282 L671.343 32.9987 L665.875 32.9987 L665.875 27.2059 L671.343 27.2059 L671.343 14.324 L678.837 14.324 Z" fill="#000000" fill-rule="nonzero" fill-opacity="1" /><path clip-path="url(#clip960)" d="M724.613 49.7694 Q715.579 49.7694 712.095 51.8354 Q708.612 53.9013 708.612 58.8839 Q708.612 62.8538 711.204 65.2034 Q713.837 67.5124 718.334 67.5124 Q724.532 67.5124 728.259 63.1374 Q732.026 58.7219 732.026 51.4303 L732.026 49.7694 L724.613 49.7694 M739.48 46.6907 L739.48 72.576 L732.026 72.576 L732.026 65.6895 Q729.474 69.8214 725.666 71.8063 Q721.858 73.7508 716.349 73.7508 Q709.381 73.7508 705.249 69.8619 Q701.158 65.9325 701.158 59.3701 Q701.158 51.7138 706.262 47.825 Q711.407 43.9361 721.575 43.9361 L732.026 43.9361 L732.026 43.2069 Q732.026 38.0623 728.623 35.2672 Q725.261 32.4315 719.144 32.4315 Q715.255 32.4315 711.569 33.3632 Q707.882 34.295 704.48 36.1584 L704.48 29.2718 Q708.571 27.692 712.419 26.9223 Q716.268 26.1121 719.914 26.1121 Q729.757 26.1121 734.618 31.2163 Q739.48 36.3204 739.48 46.6907 Z" fill="#000000" fill-rule="nonzero" fill-opacity="1" /><path clip-path="url(#clip960)" d="M762.205 14.324 L762.205 27.2059 L777.558 27.2059 L777.558 32.9987 L762.205 32.9987 L762.205 57.6282 Q762.205 63.1779 763.704 64.7578 Q765.243 66.3376 769.902 66.3376 L777.558 66.3376 L777.558 72.576 L769.902 72.576 Q761.273 72.576 757.992 69.3758 Q754.711 66.1351 754.711 57.6282 L754.711 32.9987 L749.242 32.9987 L749.242 27.2059 L754.711 27.2059 L754.711 14.324 L762.205 14.324 Z" fill="#000000" fill-rule="nonzero" fill-opacity="1" /><path clip-path="url(#clip960)" d="M826.169 48.0275 L826.169 51.6733 L791.898 51.6733 Q792.384 59.3701 796.516 63.421 Q800.689 67.4314 808.102 67.4314 Q812.396 67.4314 816.406 66.3781 Q820.457 65.3249 824.427 63.2184 L824.427 70.267 Q820.417 71.9684 816.204 72.8596 Q811.991 73.7508 807.656 73.7508 Q796.8 73.7508 790.44 67.4314 Q784.12 61.1119 784.12 50.3365 Q784.12 39.1965 790.116 32.6746 Q796.152 26.1121 806.36 26.1121 Q815.515 26.1121 820.822 32.0264 Q826.169 37.9003 826.169 48.0275 M818.715 45.84 Q818.634 39.7232 815.272 36.0774 Q811.95 32.4315 806.441 32.4315 Q800.203 32.4315 796.435 35.9558 Q792.708 39.4801 792.141 45.8805 L818.715 45.84 Z" fill="#000000" fill-rule="nonzero" fill-opacity="1" /><path clip-path="url(#clip960)" d="M834.635 46.5287 L856.47 46.5287 L856.47 53.1722 L834.635 53.1722 L834.635 46.5287 Z" fill="#000000" fill-rule="nonzero" fill-opacity="1" /><path clip-path="url(#clip960)" d="M898.194 34.0924 L898.194 9.54393 L905.648 9.54393 L905.648 72.576 L898.194 72.576 L898.194 65.7705 Q895.844 69.8214 892.239 71.8063 Q888.674 73.7508 883.651 73.7508 Q875.428 73.7508 870.243 67.1883 Q865.098 60.6258 865.098 49.9314 Q865.098 39.2371 870.243 32.6746 Q875.428 26.1121 883.651 26.1121 Q888.674 26.1121 892.239 28.0971 Q895.844 30.0415 898.194 34.0924 M872.795 49.9314 Q872.795 58.1548 876.157 62.8538 Q879.56 67.5124 885.474 67.5124 Q891.388 67.5124 894.791 62.8538 Q898.194 58.1548 898.194 49.9314 Q898.194 41.7081 894.791 37.0496 Q891.388 32.3505 885.474 32.3505 Q879.56 32.3505 876.157 37.0496 Q872.795 41.7081 872.795 49.9314 Z" fill="#000000" fill-rule="nonzero" fill-opacity="1" /><path clip-path="url(#clip960)" d="M959.808 48.0275 L959.808 51.6733 L925.538 51.6733 Q926.024 59.3701 930.156 63.421 Q934.328 67.4314 941.741 67.4314 Q946.035 67.4314 950.046 66.3781 Q954.096 65.3249 958.066 63.2184 L958.066 70.267 Q954.056 71.9684 949.843 72.8596 Q945.63 73.7508 941.296 73.7508 Q930.439 73.7508 924.079 67.4314 Q917.76 61.1119 917.76 50.3365 Q917.76 39.1965 923.755 32.6746 Q929.791 26.1121 939.999 26.1121 Q949.154 26.1121 954.461 32.0264 Q959.808 37.9003 959.808 48.0275 M952.355 45.84 Q952.274 39.7232 948.911 36.0774 Q945.59 32.4315 940.08 32.4315 Q933.842 32.4315 930.075 35.9558 Q926.348 39.4801 925.781 45.8805 L952.355 45.84 Z" fill="#000000" fill-rule="nonzero" fill-opacity="1" /><path clip-path="url(#clip960)" d="M979.253 65.7705 L979.253 89.8329 L971.758 89.8329 L971.758 27.2059 L979.253 27.2059 L979.253 34.0924 Q981.602 30.0415 985.167 28.0971 Q988.772 26.1121 993.755 26.1121 Q1002.02 26.1121 1007.16 32.6746 Q1012.35 39.2371 1012.35 49.9314 Q1012.35 60.6258 1007.16 67.1883 Q1002.02 73.7508 993.755 73.7508 Q988.772 73.7508 985.167 71.8063 Q981.602 69.8214 979.253 65.7705 M1004.61 49.9314 Q1004.61 41.7081 1001.21 37.0496 Q997.846 32.3505 991.932 32.3505 Q986.018 32.3505 982.615 37.0496 Q979.253 41.7081 979.253 49.9314 Q979.253 58.1548 982.615 62.8538 Q986.018 67.5124 991.932 67.5124 Q997.846 67.5124 1001.21 62.8538 Q1004.61 58.1548 1004.61 49.9314 Z" fill="#000000" fill-rule="nonzero" fill-opacity="1" /><path clip-path="url(#clip960)" d="M1063.51 48.0275 L1063.51 51.6733 L1029.24 51.6733 Q1029.73 59.3701 1033.86 63.421 Q1038.03 67.4314 1045.44 67.4314 Q1049.74 67.4314 1053.75 66.3781 Q1057.8 65.3249 1061.77 63.2184 L1061.77 70.267 Q1057.76 71.9684 1053.55 72.8596 Q1049.33 73.7508 1045 73.7508 Q1034.14 73.7508 1027.78 67.4314 Q1021.46 61.1119 1021.46 50.3365 Q1021.46 39.1965 1027.46 32.6746 Q1033.49 26.1121 1043.7 26.1121 Q1052.86 26.1121 1058.16 32.0264 Q1063.51 37.9003 1063.51 48.0275 M1056.06 45.84 Q1055.98 39.7232 1052.61 36.0774 Q1049.29 32.4315 1043.78 32.4315 Q1037.55 32.4315 1033.78 35.9558 Q1030.05 39.4801 1029.48 45.8805 L1056.06 45.84 Z" fill="#000000" fill-rule="nonzero" fill-opacity="1" /><path clip-path="url(#clip960)" d="M1113.46 45.1919 L1113.46 72.576 L1106.01 72.576 L1106.01 45.4349 Q1106.01 38.994 1103.49 35.7938 Q1100.98 32.5936 1095.96 32.5936 Q1089.92 32.5936 1086.44 36.4419 Q1082.96 40.2903 1082.96 46.9338 L1082.96 72.576 L1075.46 72.576 L1075.46 27.2059 L1082.96 27.2059 L1082.96 34.2544 Q1085.63 30.163 1089.23 28.1376 Q1092.88 26.1121 1097.62 26.1121 Q1105.44 26.1121 1109.45 30.9732 Q1113.46 35.7938 1113.46 45.1919 Z" fill="#000000" fill-rule="nonzero" fill-opacity="1" /><path clip-path="url(#clip960)" d="M1158.18 34.0924 L1158.18 9.54393 L1165.63 9.54393 L1165.63 72.576 L1158.18 72.576 L1158.18 65.7705 Q1155.83 69.8214 1152.23 71.8063 Q1148.66 73.7508 1143.64 73.7508 Q1135.41 73.7508 1130.23 67.1883 Q1125.09 60.6258 1125.09 49.9314 Q1125.09 39.2371 1130.23 32.6746 Q1135.41 26.1121 1143.64 26.1121 Q1148.66 26.1121 1152.23 28.0971 Q1155.83 30.0415 1158.18 34.0924 M1132.78 49.9314 Q1132.78 58.1548 1136.14 62.8538 Q1139.55 67.5124 1145.46 67.5124 Q1151.38 67.5124 1154.78 62.8538 Q1158.18 58.1548 1158.18 49.9314 Q1158.18 41.7081 1154.78 37.0496 Q1151.38 32.3505 1145.46 32.3505 Q1139.55 32.3505 1136.14 37.0496 Q1132.78 41.7081 1132.78 49.9314 Z" fill="#000000" fill-rule="nonzero" fill-opacity="1" /><path clip-path="url(#clip960)" d="M1219.8 48.0275 L1219.8 51.6733 L1185.52 51.6733 Q1186.01 59.3701 1190.14 63.421 Q1194.32 67.4314 1201.73 67.4314 Q1206.02 67.4314 1210.03 66.3781 Q1214.08 65.3249 1218.05 63.2184 L1218.05 70.267 Q1214.04 71.9684 1209.83 72.8596 Q1205.62 73.7508 1201.28 73.7508 Q1190.43 73.7508 1184.07 67.4314 Q1177.75 61.1119 1177.75 50.3365 Q1177.75 39.1965 1183.74 32.6746 Q1189.78 26.1121 1199.99 26.1121 Q1209.14 26.1121 1214.45 32.0264 Q1219.8 37.9003 1219.8 48.0275 M1212.34 45.84 Q1212.26 39.7232 1208.9 36.0774 Q1205.58 32.4315 1200.07 32.4315 Q1193.83 32.4315 1190.06 35.9558 Q1186.33 39.4801 1185.77 45.8805 L1212.34 45.84 Z" fill="#000000" fill-rule="nonzero" fill-opacity="1" /><path clip-path="url(#clip960)" d="M1269.74 45.1919 L1269.74 72.576 L1262.29 72.576 L1262.29 45.4349 Q1262.29 38.994 1259.78 35.7938 Q1257.27 32.5936 1252.24 32.5936 Q1246.21 32.5936 1242.72 36.4419 Q1239.24 40.2903 1239.24 46.9338 L1239.24 72.576 L1231.75 72.576 L1231.75 27.2059 L1239.24 27.2059 L1239.24 34.2544 Q1241.91 30.163 1245.52 28.1376 Q1249.16 26.1121 1253.9 26.1121 Q1261.72 26.1121 1265.73 30.9732 Q1269.74 35.7938 1269.74 45.1919 Z" fill="#000000" fill-rule="nonzero" fill-opacity="1" /><path clip-path="url(#clip960)" d="M1291.98 14.324 L1291.98 27.2059 L1307.34 27.2059 L1307.34 32.9987 L1291.98 32.9987 L1291.98 57.6282 Q1291.98 63.1779 1293.48 64.7578 Q1295.02 66.3376 1299.68 66.3376 L1307.34 66.3376 L1307.34 72.576 L1299.68 72.576 Q1291.05 72.576 1287.77 69.3758 Q1284.49 66.1351 1284.49 57.6282 L1284.49 32.9987 L1279.02 32.9987 L1279.02 27.2059 L1284.49 27.2059 L1284.49 14.324 L1291.98 14.324 Z" fill="#000000" fill-rule="nonzero" fill-opacity="1" /><path clip-path="url(#clip960)" d="M1373.37 34.0924 L1373.37 9.54393 L1380.82 9.54393 L1380.82 72.576 L1373.37 72.576 L1373.37 65.7705 Q1371.02 69.8214 1367.41 71.8063 Q1363.85 73.7508 1358.82 73.7508 Q1350.6 73.7508 1345.41 67.1883 Q1340.27 60.6258 1340.27 49.9314 Q1340.27 39.2371 1345.41 32.6746 Q1350.6 26.1121 1358.82 26.1121 Q1363.85 26.1121 1367.41 28.0971 Q1371.02 30.0415 1373.37 34.0924 M1347.97 49.9314 Q1347.97 58.1548 1351.33 62.8538 Q1354.73 67.5124 1360.65 67.5124 Q1366.56 67.5124 1369.96 62.8538 Q1373.37 58.1548 1373.37 49.9314 Q1373.37 41.7081 1369.96 37.0496 Q1366.56 32.3505 1360.65 32.3505 Q1354.73 32.3505 1351.33 37.0496 Q1347.97 41.7081 1347.97 49.9314 Z" fill="#000000" fill-rule="nonzero" fill-opacity="1" /><path clip-path="url(#clip960)" d="M1434.98 48.0275 L1434.98 51.6733 L1400.71 51.6733 Q1401.19 59.3701 1405.33 63.421 Q1409.5 67.4314 1416.91 67.4314 Q1421.21 67.4314 1425.22 66.3781 Q1429.27 65.3249 1433.24 63.2184 L1433.24 70.267 Q1429.23 71.9684 1425.01 72.8596 Q1420.8 73.7508 1416.47 73.7508 Q1405.61 73.7508 1399.25 67.4314 Q1392.93 61.1119 1392.93 50.3365 Q1392.93 39.1965 1398.93 32.6746 Q1404.96 26.1121 1415.17 26.1121 Q1424.33 26.1121 1429.63 32.0264 Q1434.98 37.9003 1434.98 48.0275 M1427.53 45.84 Q1427.44 39.7232 1424.08 36.0774 Q1420.76 32.4315 1415.25 32.4315 Q1409.01 32.4315 1405.25 35.9558 Q1401.52 39.4801 1400.95 45.8805 L1427.53 45.84 Z" fill="#000000" fill-rule="nonzero" fill-opacity="1" /><path clip-path="url(#clip960)" d="M1447.21 9.54393 L1454.67 9.54393 L1454.67 72.576 L1447.21 72.576 L1447.21 9.54393 Z" fill="#000000" fill-rule="nonzero" fill-opacity="1" /><path clip-path="url(#clip960)" d="M1490.88 49.7694 Q1481.85 49.7694 1478.36 51.8354 Q1474.88 53.9013 1474.88 58.8839 Q1474.88 62.8538 1477.47 65.2034 Q1480.11 67.5124 1484.6 67.5124 Q1490.8 67.5124 1494.53 63.1374 Q1498.29 58.7219 1498.29 51.4303 L1498.29 49.7694 L1490.88 49.7694 M1505.75 46.6907 L1505.75 72.576 L1498.29 72.576 L1498.29 65.6895 Q1495.74 69.8214 1491.93 71.8063 Q1488.13 73.7508 1482.62 73.7508 Q1475.65 73.7508 1471.52 69.8619 Q1467.43 65.9325 1467.43 59.3701 Q1467.43 51.7138 1472.53 47.825 Q1477.68 43.9361 1487.84 43.9361 L1498.29 43.9361 L1498.29 43.2069 Q1498.29 38.0623 1494.89 35.2672 Q1491.53 32.4315 1485.41 32.4315 Q1481.52 32.4315 1477.84 33.3632 Q1474.15 34.295 1470.75 36.1584 L1470.75 29.2718 Q1474.84 27.692 1478.69 26.9223 Q1482.54 26.1121 1486.18 26.1121 Q1496.03 26.1121 1500.89 31.2163 Q1505.75 36.3204 1505.75 46.6907 Z" fill="#000000" fill-rule="nonzero" fill-opacity="1" /><path clip-path="url(#clip960)" d="M1539.98 76.7889 Q1536.82 84.8907 1533.82 87.3618 Q1530.82 89.8329 1525.8 89.8329 L1519.85 89.8329 L1519.85 83.5945 L1524.22 83.5945 Q1527.3 83.5945 1529 82.1361 Q1530.7 80.6778 1532.77 75.2496 L1534.1 71.8468 L1515.75 27.2059 L1523.65 27.2059 L1537.83 62.6918 L1552.01 27.2059 L1559.91 27.2059 L1539.98 76.7889 Z" fill="#000000" fill-rule="nonzero" fill-opacity="1" /><path clip-path="url(#clip960)" d="M1635.38 48.0275 L1635.38 51.6733 L1601.11 51.6733 Q1601.59 59.3701 1605.72 63.421 Q1609.9 67.4314 1617.31 67.4314 Q1621.6 67.4314 1625.61 66.3781 Q1629.67 65.3249 1633.64 63.2184 L1633.64 70.267 Q1629.63 71.9684 1625.41 72.8596 Q1621.2 73.7508 1616.86 73.7508 Q1606.01 73.7508 1599.65 67.4314 Q1593.33 61.1119 1593.33 50.3365 Q1593.33 39.1965 1599.32 32.6746 Q1605.36 26.1121 1615.57 26.1121 Q1624.72 26.1121 1630.03 32.0264 Q1635.38 37.9003 1635.38 48.0275 M1627.92 45.84 Q1627.84 39.7232 1624.48 36.0774 Q1621.16 32.4315 1615.65 32.4315 Q1609.41 32.4315 1605.64 35.9558 Q1601.92 39.4801 1601.35 45.8805 L1627.92 45.84 Z" fill="#000000" fill-rule="nonzero" fill-opacity="1" /><path clip-path="url(#clip960)" d="M1683.87 27.2059 L1667.46 49.2833 L1684.72 72.576 L1675.93 72.576 L1662.72 54.752 L1649.52 72.576 L1640.72 72.576 L1658.35 48.8377 L1642.22 27.2059 L1651.01 27.2059 L1663.05 43.369 L1675.08 27.2059 L1683.87 27.2059 Z" fill="#000000" fill-rule="nonzero" fill-opacity="1" /><path clip-path="url(#clip960)" d="M1715.87 49.7694 Q1706.84 49.7694 1703.35 51.8354 Q1699.87 53.9013 1699.87 58.8839 Q1699.87 62.8538 1702.46 65.2034 Q1705.09 67.5124 1709.59 67.5124 Q1715.79 67.5124 1719.51 63.1374 Q1723.28 58.7219 1723.28 51.4303 L1723.28 49.7694 L1715.87 49.7694 M1730.74 46.6907 L1730.74 72.576 L1723.28 72.576 L1723.28 65.6895 Q1720.73 69.8214 1716.92 71.8063 Q1713.11 73.7508 1707.61 73.7508 Q1700.64 73.7508 1696.51 69.8619 Q1692.41 65.9325 1692.41 59.3701 Q1692.41 51.7138 1697.52 47.825 Q1702.66 43.9361 1712.83 43.9361 L1723.28 43.9361 L1723.28 43.2069 Q1723.28 38.0623 1719.88 35.2672 Q1716.52 32.4315 1710.4 32.4315 Q1706.51 32.4315 1702.83 33.3632 Q1699.14 34.295 1695.74 36.1584 L1695.74 29.2718 Q1699.83 27.692 1703.68 26.9223 Q1707.52 26.1121 1711.17 26.1121 Q1721.01 26.1121 1725.87 31.2163 Q1730.74 36.3204 1730.74 46.6907 Z" fill="#000000" fill-rule="nonzero" fill-opacity="1" /><path clip-path="url(#clip960)" d="M1781.41 35.9153 Q1784.21 30.8922 1788.1 28.5022 Q1791.99 26.1121 1797.25 26.1121 Q1804.34 26.1121 1808.19 31.0947 Q1812.04 36.0368 1812.04 45.1919 L1812.04 72.576 L1804.54 72.576 L1804.54 45.4349 Q1804.54 38.913 1802.23 35.7533 Q1799.93 32.5936 1795.19 32.5936 Q1789.39 32.5936 1786.03 36.4419 Q1782.67 40.2903 1782.67 46.9338 L1782.67 72.576 L1775.17 72.576 L1775.17 45.4349 Q1775.17 38.8725 1772.87 35.7533 Q1770.56 32.5936 1765.74 32.5936 Q1760.02 32.5936 1756.66 36.4824 Q1753.3 40.3308 1753.3 46.9338 L1753.3 72.576 L1745.81 72.576 L1745.81 27.2059 L1753.3 27.2059 L1753.3 34.2544 Q1755.85 30.082 1759.42 28.0971 Q1762.98 26.1121 1767.88 26.1121 Q1772.82 26.1121 1776.27 28.6237 Q1779.75 31.1352 1781.41 35.9153 Z" fill="#000000" fill-rule="nonzero" fill-opacity="1" /><path clip-path="url(#clip960)" d="M1834.11 65.7705 L1834.11 89.8329 L1826.62 89.8329 L1826.62 27.2059 L1834.11 27.2059 L1834.11 34.0924 Q1836.46 30.0415 1840.03 28.0971 Q1843.63 26.1121 1848.62 26.1121 Q1856.88 26.1121 1862.03 32.6746 Q1867.21 39.2371 1867.21 49.9314 Q1867.21 60.6258 1862.03 67.1883 Q1856.88 73.7508 1848.62 73.7508 Q1843.63 73.7508 1840.03 71.8063 Q1836.46 69.8214 1834.11 65.7705 M1859.47 49.9314 Q1859.47 41.7081 1856.07 37.0496 Q1852.71 32.3505 1846.79 32.3505 Q1840.88 32.3505 1837.48 37.0496 Q1834.11 41.7081 1834.11 49.9314 Q1834.11 58.1548 1837.48 62.8538 Q1840.88 67.5124 1846.79 67.5124 Q1852.71 67.5124 1856.07 62.8538 Q1859.47 58.1548 1859.47 49.9314 Z" fill="#000000" fill-rule="nonzero" fill-opacity="1" /><path clip-path="url(#clip960)" d="M1879.57 9.54393 L1887.02 9.54393 L1887.02 72.576 L1879.57 72.576 L1879.57 9.54393 Z" fill="#000000" fill-rule="nonzero" fill-opacity="1" /><path clip-path="url(#clip960)" d="M1941.42 48.0275 L1941.42 51.6733 L1907.15 51.6733 Q1907.64 59.3701 1911.77 63.421 Q1915.94 67.4314 1923.36 67.4314 Q1927.65 67.4314 1931.66 66.3781 Q1935.71 65.3249 1939.68 63.2184 L1939.68 70.267 Q1935.67 71.9684 1931.46 72.8596 Q1927.25 73.7508 1922.91 73.7508 Q1912.05 73.7508 1905.69 67.4314 Q1899.37 61.1119 1899.37 50.3365 Q1899.37 39.1965 1905.37 32.6746 Q1911.41 26.1121 1921.61 26.1121 Q1930.77 26.1121 1936.08 32.0264 Q1941.42 37.9003 1941.42 48.0275 M1933.97 45.84 Q1933.89 39.7232 1930.53 36.0774 Q1927.2 32.4315 1921.7 32.4315 Q1915.46 32.4315 1911.69 35.9558 Q1907.96 39.4801 1907.4 45.8805 L1933.97 45.84 Z" fill="#000000" fill-rule="nonzero" fill-opacity="1" /><polyline clip-path="url(#clip962)" style="stroke:#009af9; stroke-linecap:round; stroke-linejoin:round; stroke-width:4; stroke-opacity:1; fill:none" points="205.121,1386.4 207.271,1386.19 209.421,1385.98 211.57,1385.77 213.72,1385.57 215.87,1385.36 218.02,1385.15 220.169,1384.94 222.319,1384.74 224.469,1384.53 226.619,1384.32 228.769,1384.11 230.918,1383.91 233.068,1383.7 235.218,1383.49 237.368,1383.28 239.518,1383.08 241.667,1382.87 243.817,1382.66 245.967,1382.46 248.117,1382.25 250.266,1382.04 252.416,1381.83 254.566,1381.63 256.716,1381.42 258.866,1381.21 261.015,1381 263.165,1380.8 265.315,1380.59 267.465,1380.38 269.615,1380.17 271.764,1379.97 273.914,1379.76 276.064,1379.55 278.214,1379.34 280.363,1379.14 282.513,1378.93 284.663,1378.72 286.813,1378.51 288.963,1378.31 291.112,1378.1 293.262,1377.89 295.412,1377.68 297.562,1377.48 299.712,1377.27 301.861,1377.06 304.011,1376.86 306.161,1376.65 308.311,1376.44 310.46,1376.23 312.61,1376.03 314.76,1375.82 316.91,1375.61 319.06,1375.4 321.209,1375.2 323.359,1374.99 325.509,1374.78 327.659,1374.57 329.808,1374.37 331.958,1374.16 334.108,1373.95 336.258,1373.74 338.408,1373.54 340.557,1373.33 342.707,1373.12 344.857,1372.91 347.007,1372.71 349.157,1372.5 351.306,1372.29 353.456,1372.09 355.606,1371.88 357.756,1371.67 359.905,1371.46 362.055,1371.26 364.205,1371.05 366.355,1370.84 368.505,1370.63 370.654,1370.43 372.804,1370.22 374.954,1370.01 377.104,1369.8 379.254,1369.6 381.403,1369.39 383.553,1369.18 385.703,1368.97 387.853,1368.77 390.002,1368.56 392.152,1368.35 394.302,1368.14 396.452,1367.94 398.602,1367.73 400.751,1367.52 402.901,1367.32 405.051,1367.11 407.201,1366.9 409.351,1366.69 411.5,1366.49 413.65,1366.28 415.8,1366.07 417.95,1365.86 420.099,1365.66 422.249,1365.45 424.399,1365.24 426.549,1365.03 428.699,1364.83 430.848,1364.62 432.998,1364.41 435.148,1364.2 437.298,1364 439.448,1363.79 441.597,1363.58 443.747,1363.37 445.897,1363.17 448.047,1362.96 450.196,1362.75 452.346,1362.54 454.496,1362.34 456.646,1362.13 458.796,1361.92 460.945,1361.72 463.095,1361.51 465.245,1361.3 467.395,1361.09 469.544,1360.89 471.694,1360.68 473.844,1360.47 475.994,1360.26 478.144,1360.06 480.293,1359.85 482.443,1359.64 484.593,1359.43 486.743,1359.23 488.893,1359.02 491.042,1358.81 493.192,1358.6 495.342,1358.4 497.492,1358.19 499.641,1357.98 501.791,1357.77 503.941,1357.57 506.091,1357.36 508.241,1357.15 510.39,1356.95 512.54,1356.74 514.69,1356.53 516.84,1356.32 518.99,1356.12 521.139,1355.91 523.289,1355.7 525.439,1355.49 527.589,1355.29 529.738,1355.08 531.888,1354.87 534.038,1354.66 536.188,1354.46 538.338,1354.25 540.487,1354.04 542.637,1353.83 544.787,1353.63 546.937,1353.42 549.087,1353.21 551.236,1353 553.386,1352.8 555.536,1352.59 557.686,1352.38 559.835,1352.18 561.985,1351.97 564.135,1351.76 566.285,1351.55 568.435,1351.35 570.584,1351.14 572.734,1350.93 574.884,1350.72 577.034,1350.52 579.184,1350.31 581.333,1350.1 583.483,1349.89 585.633,1349.68 587.783,1349.46 589.932,1349.25 592.082,1349.04 594.232,1348.82 596.382,1348.61 598.532,1348.39 600.681,1348.18 602.831,1347.96 604.981,1347.74 607.131,1347.52 609.281,1347.3 611.43,1347.08 613.58,1346.86 615.73,1346.64 617.88,1346.41 620.029,1346.19 622.179,1345.96 624.329,1345.74 626.479,1345.51 628.629,1345.29 630.778,1345.06 632.928,1344.83 635.078,1344.6 637.228,1344.37 639.377,1344.14 641.527,1343.9 643.677,1343.67 645.827,1343.44 647.977,1343.2 650.126,1342.97 652.276,1342.73 654.426,1342.49 656.576,1342.25 658.726,1342.01 660.875,1341.77 663.025,1341.53 665.175,1341.29 667.325,1341.05 669.474,1340.8 671.624,1340.56 673.774,1340.31 675.924,1340.07 678.074,1339.82 680.223,1339.57 682.373,1339.32 684.523,1339.07 686.673,1338.82 688.823,1338.57 690.972,1338.32 693.122,1338.06 695.272,1337.81 697.422,1337.55 699.571,1337.3 701.721,1337.04 703.871,1336.78 706.021,1336.52 708.171,1336.26 710.32,1336 712.47,1335.74 714.62,1335.47 716.77,1335.21 718.92,1334.94 721.069,1334.68 723.219,1334.41 725.369,1334.14 727.519,1333.87 729.668,1333.6 731.818,1333.33 733.968,1333.06 736.118,1332.79 738.268,1332.51 740.417,1332.24 742.567,1331.96 744.717,1331.68 746.867,1331.4 749.017,1331.12 751.166,1330.84 753.316,1330.56 755.466,1330.28 757.616,1330 759.765,1329.71 761.915,1329.43 764.065,1329.14 766.215,1328.85 768.365,1328.56 770.514,1328.27 772.664,1327.98 774.814,1327.69 776.964,1327.4 779.113,1327.1 781.263,1326.81 783.413,1326.51 785.563,1326.22 787.713,1325.92 789.862,1325.62 792.012,1325.32 794.162,1325.02 796.312,1324.71 798.462,1324.41 800.611,1324.1 802.761,1323.8 804.911,1323.49 807.061,1323.18 809.21,1322.87 811.36,1322.56 813.51,1322.25 815.66,1321.94 817.81,1321.62 819.959,1321.31 822.109,1320.99 824.259,1320.67 826.409,1320.35 828.559,1320.03 830.708,1319.71 832.858,1319.39 835.008,1319.07 837.158,1318.74 839.307,1318.41 841.457,1318.09 843.607,1317.76 845.757,1317.43 847.907,1317.1 850.056,1316.77 852.206,1316.43 854.356,1316.1 856.506,1315.76 858.656,1315.43 860.805,1315.09 862.955,1314.75 865.105,1314.41 867.255,1314.06 869.404,1313.72 871.554,1313.38 873.704,1313.03 875.854,1312.68 878.004,1312.34 880.153,1311.99 882.303,1311.64 884.453,1311.28 886.603,1310.93 888.753,1310.57 890.902,1310.22 893.052,1309.86 895.202,1309.5 897.352,1309.14 899.501,1308.78 901.651,1308.42 903.801,1308.05 905.951,1307.69 908.101,1307.32 910.25,1306.95 912.4,1306.58 914.55,1306.21 916.7,1305.84 918.85,1305.47 920.999,1305.09 923.149,1304.72 925.299,1304.34 927.449,1303.96 929.598,1303.58 931.748,1303.2 933.898,1302.81 936.048,1302.43 938.198,1302.04 940.347,1301.65 942.497,1301.26 944.647,1300.87 946.797,1300.48 948.946,1300.09 951.096,1299.69 953.246,1299.3 955.396,1298.9 957.546,1298.5 959.695,1298.1 961.845,1297.7 963.995,1297.29 966.145,1296.89 968.295,1296.48 970.444,1296.07 972.594,1295.66 974.744,1295.25 976.894,1294.84 979.043,1294.43 981.193,1294.01 983.343,1293.59 985.493,1293.17 987.643,1292.75 989.792,1292.33 991.942,1291.91 994.092,1291.48 996.242,1291.06 998.392,1290.63 1000.54,1290.2 1002.69,1289.77 1004.84,1289.34 1006.99,1288.9 1009.14,1288.46 1011.29,1288.03 1013.44,1287.59 1015.59,1287.15 1017.74,1286.7 1019.89,1286.26 1022.04,1285.81 1024.19,1285.37 1026.34,1284.92 1028.49,1284.47 1030.64,1284.01 1032.79,1283.56 1034.94,1283.1 1037.09,1282.65 1039.24,1282.19 1041.39,1281.73 1043.54,1281.26 1045.69,1280.8 1047.84,1280.33 1049.99,1279.87 1052.14,1279.4 1054.29,1278.93 1056.44,1278.45 1058.59,1277.98 1060.74,1277.5 1062.89,1277.02 1065.03,1276.54 1067.18,1276.06 1069.33,1275.58 1071.48,1275.09 1073.63,1274.61 1075.78,1274.12 1077.93,1273.63 1080.08,1273.13 1082.23,1272.64 1084.38,1272.14 1086.53,1271.65 1088.68,1271.15 1090.83,1270.64 1092.98,1270.14 1095.13,1269.63 1097.28,1269.13 1099.43,1268.62 1101.58,1268.11 1103.73,1267.59 1105.88,1267.08 1108.03,1266.56 1110.18,1266.04 1112.33,1265.52 1114.48,1265 1116.63,1264.48 1118.78,1263.95 1120.93,1263.42 1123.08,1262.89 1125.23,1262.36 1127.38,1261.83 1129.53,1261.29 1131.68,1260.75 1133.83,1260.21 1135.98,1259.67 1138.13,1259.13 1140.28,1258.58 1142.43,1258.03 1144.58,1257.48 1146.73,1256.93 1148.88,1256.38 1151.03,1255.82 1153.18,1255.26 1155.33,1254.7 1157.48,1254.14 1159.63,1253.58 1161.78,1253.01 1163.92,1252.44 1166.07,1251.87 1168.22,1251.3 1170.37,1250.72 1172.52,1250.15 1174.67,1249.57 1176.82,1248.99 1178.97,1248.4 1181.12,1247.82 1183.27,1247.23 1185.42,1246.64 1187.57,1246.05 1189.72,1245.45 1191.87,1244.86 1194.02,1244.26 1196.17,1243.66 1198.32,1243.05 1200.47,1242.45 1202.62,1241.84 1204.77,1241.23 1206.92,1240.62 1209.07,1240.01 1211.22,1239.39 1213.37,1238.77 1215.52,1238.15 1217.67,1237.53 1219.82,1236.9 1221.97,1236.27 1224.12,1235.64 1226.27,1235.01 1228.42,1234.37 1230.57,1233.74 1232.72,1233.1 1234.87,1232.46 1237.02,1231.81 1239.17,1231.16 1241.32,1230.52 1243.47,1229.86 1245.62,1229.21 1247.77,1228.55 1249.92,1227.89 1252.07,1227.23 1254.22,1226.57 1256.37,1225.9 1258.52,1225.24 1260.67,1224.56 1262.82,1223.89 1264.96,1223.21 1267.11,1222.54 1269.26,1221.86 1271.41,1221.17 1273.56,1220.49 1275.71,1219.8 1277.86,1219.11 1280.01,1218.41 1282.16,1217.72 1284.31,1217.02 1286.46,1216.32 1288.61,1215.61 1290.76,1214.91 1292.91,1214.2 1295.06,1213.49 1297.21,1212.77 1299.36,1212.05 1301.51,1211.33 1303.66,1210.61 1305.81,1209.89 1307.96,1209.16 1310.11,1208.43 1312.26,1207.7 1314.41,1206.96 1316.56,1206.22 1318.71,1205.48 1320.86,1204.74 1323.01,1203.99 1325.16,1203.24 1327.31,1202.49 1329.46,1201.73 1331.61,1200.98 1333.76,1200.22 1335.91,1199.45 1338.06,1198.69 1340.21,1197.92 1342.36,1197.15 1344.51,1196.37 1346.66,1195.59 1348.81,1194.81 1350.96,1194.03 1353.11,1193.24 1355.26,1192.45 1357.41,1191.66 1359.56,1190.87 1361.71,1190.07 1363.85,1189.27 1366,1188.47 1368.15,1187.66 1370.3,1186.85 1372.45,1186.04 1374.6,1185.22 1376.75,1184.4 1378.9,1183.58 1381.05,1182.76 1383.2,1181.93 1385.35,1181.1 1387.5,1180.26 1389.65,1179.43 1391.8,1178.59 1393.95,1177.74 1396.1,1176.9 1398.25,1176.05 1400.4,1175.2 1402.55,1174.34 1404.7,1173.48 1406.85,1172.62 1409,1171.75 1411.15,1170.89 1413.3,1170.01 1415.45,1169.14 1417.6,1168.26 1419.75,1167.38 1421.9,1166.5 1424.05,1165.61 1426.2,1164.72 1428.35,1163.82 1430.5,1162.93 1432.65,1162.02 1434.8,1161.12 1436.95,1160.21 1439.1,1159.3 1441.25,1158.39 1443.4,1157.47 1445.55,1156.55 1447.7,1155.62 1449.85,1154.7 1452,1153.77 1454.15,1152.83 1456.3,1151.89 1458.45,1150.95 1460.6,1150.01 1462.75,1149.06 1464.89,1148.11 1467.04,1147.15 1469.19,1146.19 1471.34,1145.23 1473.49,1144.26 1475.64,1143.29 1477.79,1142.32 1479.94,1141.34 1482.09,1140.36 1484.24,1139.38 1486.39,1138.39 1488.54,1137.4 1490.69,1136.4 1492.84,1135.4 1494.99,1134.4 1497.14,1133.4 1499.29,1132.39 1501.44,1131.37 1503.59,1130.36 1505.74,1129.33 1507.89,1128.31 1510.04,1127.28 1512.19,1126.25 1514.34,1125.21 1516.49,1124.17 1518.64,1123.13 1520.79,1122.08 1522.94,1121.03 1525.09,1119.97 1527.24,1118.91 1529.39,1117.85 1531.54,1116.78 1533.69,1115.71 1535.84,1114.64 1537.99,1113.56 1540.14,1112.48 1542.29,1111.39 1544.44,1110.3 1546.59,1109.2 1548.74,1108.1 1550.89,1107 1553.04,1105.89 1555.19,1104.78 1557.34,1103.67 1559.49,1102.55 1561.64,1101.42 1563.78,1100.3 1565.93,1099.16 1568.08,1098.03 1570.23,1096.89 1572.38,1095.74 1574.53,1094.59 1576.68,1093.44 1578.83,1092.28 1580.98,1091.12 1583.13,1089.96 1585.28,1088.79 1587.43,1087.61 1589.58,1086.43 1591.73,1085.25 1593.88,1084.06 1596.03,1082.87 1598.18,1081.67 1600.33,1080.47 1602.48,1079.27 1604.63,1078.06 1606.78,1076.85 1608.93,1075.63 1611.08,1074.4 1613.23,1073.18 1615.38,1071.94 1617.53,1070.71 1619.68,1069.46 1621.83,1068.22 1623.98,1066.97 1626.13,1065.71 1628.28,1064.45 1630.43,1063.19 1632.58,1061.92 1634.73,1060.64 1636.88,1059.36 1639.03,1058.08 1641.18,1056.79 1643.33,1055.5 1645.48,1054.2 1647.63,1052.9 1649.78,1051.59 1651.93,1050.28 1654.08,1048.96 1656.23,1047.63 1658.38,1046.31 1660.53,1044.97 1662.68,1043.64 1664.82,1042.29 1666.97,1040.95 1669.12,1039.59 1671.27,1038.23 1673.42,1036.87 1675.57,1035.5 1677.72,1034.13 1679.87,1032.75 1682.02,1031.37 1684.17,1029.98 1686.32,1028.58 1688.47,1027.18 1690.62,1025.78 1692.77,1024.37 1694.92,1022.95 1697.07,1021.53 1699.22,1020.1 1701.37,1018.67 1703.52,1017.23 1705.67,1015.79 1707.82,1014.34 1709.97,1012.89 1712.12,1011.43 1714.27,1009.96 1716.42,1008.49 1718.57,1007.02 1720.72,1005.54 1722.87,1004.05 1725.02,1002.55 1727.17,1001.06 1729.32,999.551 1731.47,998.04 1733.62,996.524 1735.77,995.002 1737.92,993.474 1740.07,991.94 1742.22,990.401 1744.37,988.855 1746.52,987.304 1748.67,985.746 1750.82,984.183 1752.97,982.613 1755.12,981.038 1757.27,979.456 1759.42,977.868 1761.57,976.274 1763.71,974.674 1765.86,973.068 1768.01,971.456 1770.16,969.837 1772.31,968.212 1774.46,966.581 1776.61,964.943 1778.76,963.3 1780.91,961.649 1783.06,959.993 1785.21,958.329 1787.36,956.66 1789.51,954.984 1791.66,953.301 1793.81,951.612 1795.96,949.916 1798.11,948.214 1800.26,946.505 1802.41,944.789 1804.56,943.067 1806.71,941.338 1808.86,939.602 1811.01,937.859 1813.16,936.109 1815.31,934.353 1817.46,932.59 1819.61,930.82 1821.76,929.043 1823.91,927.258 1826.06,925.467 1828.21,923.669 1830.36,921.864 1832.51,920.052 1834.66,918.232 1836.81,916.405 1838.96,914.571 1841.11,912.73 1843.26,910.882 1845.41,909.026 1847.56,907.163 1849.71,905.293 1851.86,903.415 1854.01,901.53 1856.16,899.637 1858.31,897.737 1860.46,895.829 1862.6,893.914 1864.75,891.991 1866.9,890.06 1869.05,888.122 1871.2,886.176 1873.35,884.222 1875.5,882.26 1877.65,880.291 1879.8,878.314 1881.95,876.328 1884.1,874.335 1886.25,872.334 1888.4,870.325 1890.55,868.308 1892.7,866.283 1894.85,864.249 1897,862.208 1899.15,860.158 1901.3,858.1 1903.45,856.034 1905.6,853.96 1907.75,851.877 1909.9,849.785 1912.05,847.686 1914.2,845.578 1916.35,843.461 1918.5,841.336 1920.65,839.202 1922.8,837.059 1924.95,834.908 1927.1,832.749 1929.25,830.58 1931.4,828.403 1933.55,826.216 1935.7,824.021 1937.85,821.817 1940,819.604 1942.15,817.382 1944.3,815.151 1946.45,812.911 1948.6,810.662 1950.75,808.404 1952.9,806.136 1955.05,803.859 1957.2,801.573 1959.35,799.277 1961.5,796.972 1963.64,794.658 1965.79,792.334 1967.94,790.001 1970.09,787.658 1972.24,785.305 1974.39,782.943 1976.54,780.571 1978.69,778.189 1980.84,775.798 1982.99,773.396 1985.14,770.985 1987.29,768.564 1989.44,766.133 1991.59,763.691 1993.74,761.24 1995.89,758.778 1998.04,756.307 2000.19,753.825 2002.34,751.332 2004.49,748.83 2006.64,746.317 2008.79,743.793 2010.94,741.259 2013.09,738.715 2015.24,736.16 2017.39,733.594 2019.54,731.018 2021.69,728.43 2023.84,725.833 2025.99,723.224 2028.14,720.604 2030.29,717.973 2032.44,715.332 2034.59,712.679 2036.74,710.015 2038.89,707.34 2041.04,704.653 2043.19,701.956 2045.34,699.247 2047.49,696.527 2049.64,693.795 2051.79,691.051 2053.94,688.296 2056.09,685.53 2058.24,682.752 2060.39,679.962 2062.53,677.16 2064.68,674.346 2066.83,671.521 2068.98,668.683 2071.13,665.834 2073.28,662.972 2075.43,660.098 2077.58,657.212 2079.73,654.314 2081.88,651.403 2084.03,648.48 2086.18,645.545 2088.33,642.597 2090.48,639.636 2092.63,636.663 2094.78,633.677 2096.93,630.678 2099.08,627.667 2101.23,624.642 2103.38,621.605 2105.53,618.554 2107.68,615.491 2109.83,612.414 2111.98,609.324 2114.13,606.22 2116.28,603.104 2118.43,599.973 2120.58,596.83 2122.73,593.673 2124.88,590.502 2127.03,587.317 2129.18,584.119 2131.33,580.906 2133.48,577.68 2135.63,574.44 2137.78,571.186 2139.93,567.918 2142.08,564.635 2144.23,561.338 2146.38,558.027 2148.53,554.701 2150.68,551.361 2152.83,548.006 2154.98,544.637 2157.13,541.253 2159.28,537.854 2161.43,534.44 2163.57,531.011 2165.72,527.568 2167.87,524.109 2170.02,520.635 2172.17,517.145 2174.32,513.64 2176.47,510.12 2178.62,506.585 2180.77,503.033 2182.92,499.466 2185.07,495.884 2187.22,492.285 2189.37,488.671 2191.52,485.04 2193.67,481.394 2195.82,477.731 2197.97,474.052 2200.12,470.357 2202.27,466.645 2204.42,462.917 2206.57,459.172 2208.72,455.411 2210.87,451.632 2213.02,447.837 2215.17,444.025 2217.32,440.196 2219.47,436.35 2221.62,432.486 2223.77,428.605 2225.92,424.707 2228.07,420.791 2230.22,416.858 2232.37,412.907 2234.52,408.938 2236.67,404.952 2238.82,400.947 2240.97,396.924 2243.12,392.884 2245.27,388.825 2247.42,384.747 2249.57,380.651 2251.72,376.537 2253.87,372.404 2256.02,368.252 2258.17,364.081 2260.32,359.892 2262.46,355.683 2264.61,351.455 2266.76,347.208 2268.91,342.941 2271.06,338.655 2273.21,334.35 2275.36,330.025 2277.51,325.68 2279.66,321.315 2281.81,316.93 2283.96,312.525 2286.11,308.1 2288.26,303.654 2290.41,299.188 2292.56,294.702 2294.71,290.194 2296.86,285.666 2299.01,281.117 2301.16,276.548 2303.31,271.956 2305.46,267.344 2307.61,262.711 2309.76,258.056 2311.91,253.379 2314.06,248.68 2316.21,243.96 2318.36,239.218 2320.51,234.454 2322.66,229.667 2324.81,224.859 2326.96,220.027 2329.11,215.174 2331.26,210.297 2333.41,205.398 2335.56,200.476 2337.71,195.53 2339.86,190.562 2342.01,185.57 2344.16,180.555 2346.31,175.516 2348.46,170.453 2350.61,165.367 2352.76,160.256 "/>
</svg>
