<?xml version="1.0" encoding="utf-8" standalone="no"?>
<!DOCTYPE svg PUBLIC "-//W3C//DTD SVG 1.1//EN"
  "http://www.w3.org/Graphics/SVG/1.1/DTD/svg11.dtd">
<svg xmlns:xlink="http://www.w3.org/1999/xlink" width="460.8pt" height="345.6pt" viewBox="0 0 460.8 345.6" xmlns="http://www.w3.org/2000/svg" version="1.1">
 <metadata>
  <rdf:RDF xmlns:dc="http://purl.org/dc/elements/1.1/" xmlns:cc="http://creativecommons.org/ns#" xmlns:rdf="http://www.w3.org/1999/02/22-rdf-syntax-ns#">
   <cc:Work>
    <dc:type rdf:resource="http://purl.org/dc/dcmitype/StillImage"/>
    <dc:date>2024-09-26T16:48:27.547450</dc:date>
    <dc:format>image/svg+xml</dc:format>
    <dc:creator>
     <cc:Agent>
      <dc:title>Matplotlib v3.9.0, https://matplotlib.org/</dc:title>
     </cc:Agent>
    </dc:creator>
   </cc:Work>
  </rdf:RDF>
 </metadata>
 <defs>
  <style type="text/css">*{stroke-linejoin: round; stroke-linecap: butt}</style>
 </defs>
 <g id="figure_1">
  <g id="patch_1">
   <path d="M 0 345.6 
L 460.8 345.6 
L 460.8 0 
L 0 0 
z
" style="fill: #ffffff"/>
  </g>
  <g id="axes_1">
   <g id="patch_2">
    <path d="M 57.6 307.584 
L 414.72 307.584 
L 414.72 41.472 
L 57.6 41.472 
z
" style="fill: #ffffff"/>
   </g>
   <g id="matplotlib.axis_1">
    <g id="xtick_1">
     <g id="line2d_1">
      <path d="M 73.832727 307.584 
L 73.832727 41.472 
" clip-path="url(#p3881649f26)" style="fill: none; stroke: #b0b0b0; stroke-opacity: 0.5; stroke-width: 0.8; stroke-linecap: square"/>
     </g>
     <g id="line2d_2">
      <defs>
       <path id="m32819d45d1" d="M 0 0 
L 0 3.5 
" style="stroke: #000000; stroke-width: 0.8"/>
      </defs>
      <g>
       <use xlink:href="#m32819d45d1" x="73.832727" y="307.584" style="stroke: #000000; stroke-width: 0.8"/>
      </g>
     </g>
     <g id="text_1">
      <!-- −10.0 -->
      <g transform="translate(58.510071 322.182437) scale(0.1 -0.1)">
       <defs>
        <path id="DejaVuSans-2212" d="M 678 2272 
L 4684 2272 
L 4684 1741 
L 678 1741 
L 678 2272 
z
" transform="scale(0.015625)"/>
        <path id="DejaVuSans-31" d="M 794 531 
L 1825 531 
L 1825 4091 
L 703 3866 
L 703 4441 
L 1819 4666 
L 2450 4666 
L 2450 531 
L 3481 531 
L 3481 0 
L 794 0 
L 794 531 
z
" transform="scale(0.015625)"/>
        <path id="DejaVuSans-30" d="M 2034 4250 
Q 1547 4250 1301 3770 
Q 1056 3291 1056 2328 
Q 1056 1369 1301 889 
Q 1547 409 2034 409 
Q 2525 409 2770 889 
Q 3016 1369 3016 2328 
Q 3016 3291 2770 3770 
Q 2525 4250 2034 4250 
z
M 2034 4750 
Q 2819 4750 3233 4129 
Q 3647 3509 3647 2328 
Q 3647 1150 3233 529 
Q 2819 -91 2034 -91 
Q 1250 -91 836 529 
Q 422 1150 422 2328 
Q 422 3509 836 4129 
Q 1250 4750 2034 4750 
z
" transform="scale(0.015625)"/>
        <path id="DejaVuSans-2e" d="M 684 794 
L 1344 794 
L 1344 0 
L 684 0 
L 684 794 
z
" transform="scale(0.015625)"/>
       </defs>
       <use xlink:href="#DejaVuSans-2212"/>
       <use xlink:href="#DejaVuSans-31" x="83.789062"/>
       <use xlink:href="#DejaVuSans-30" x="147.412109"/>
       <use xlink:href="#DejaVuSans-2e" x="211.035156"/>
       <use xlink:href="#DejaVuSans-30" x="242.822266"/>
      </g>
     </g>
    </g>
    <g id="xtick_2">
     <g id="line2d_3">
      <path d="M 114.414545 307.584 
L 114.414545 41.472 
" clip-path="url(#p3881649f26)" style="fill: none; stroke: #b0b0b0; stroke-opacity: 0.5; stroke-width: 0.8; stroke-linecap: square"/>
     </g>
     <g id="line2d_4">
      <g>
       <use xlink:href="#m32819d45d1" x="114.414545" y="307.584" style="stroke: #000000; stroke-width: 0.8"/>
      </g>
     </g>
     <g id="text_2">
      <!-- −7.5 -->
      <g transform="translate(102.273139 322.182437) scale(0.1 -0.1)">
       <defs>
        <path id="DejaVuSans-37" d="M 525 4666 
L 3525 4666 
L 3525 4397 
L 1831 0 
L 1172 0 
L 2766 4134 
L 525 4134 
L 525 4666 
z
" transform="scale(0.015625)"/>
        <path id="DejaVuSans-35" d="M 691 4666 
L 3169 4666 
L 3169 4134 
L 1269 4134 
L 1269 2991 
Q 1406 3038 1543 3061 
Q 1681 3084 1819 3084 
Q 2600 3084 3056 2656 
Q 3513 2228 3513 1497 
Q 3513 744 3044 326 
Q 2575 -91 1722 -91 
Q 1428 -91 1123 -41 
Q 819 9 494 109 
L 494 744 
Q 775 591 1075 516 
Q 1375 441 1709 441 
Q 2250 441 2565 725 
Q 2881 1009 2881 1497 
Q 2881 1984 2565 2268 
Q 2250 2553 1709 2553 
Q 1456 2553 1204 2497 
Q 953 2441 691 2322 
L 691 4666 
z
" transform="scale(0.015625)"/>
       </defs>
       <use xlink:href="#DejaVuSans-2212"/>
       <use xlink:href="#DejaVuSans-37" x="83.789062"/>
       <use xlink:href="#DejaVuSans-2e" x="147.412109"/>
       <use xlink:href="#DejaVuSans-35" x="179.199219"/>
      </g>
     </g>
    </g>
    <g id="xtick_3">
     <g id="line2d_5">
      <path d="M 154.996364 307.584 
L 154.996364 41.472 
" clip-path="url(#p3881649f26)" style="fill: none; stroke: #b0b0b0; stroke-opacity: 0.5; stroke-width: 0.8; stroke-linecap: square"/>
     </g>
     <g id="line2d_6">
      <g>
       <use xlink:href="#m32819d45d1" x="154.996364" y="307.584" style="stroke: #000000; stroke-width: 0.8"/>
      </g>
     </g>
     <g id="text_3">
      <!-- −5.0 -->
      <g transform="translate(142.854957 322.182437) scale(0.1 -0.1)">
       <use xlink:href="#DejaVuSans-2212"/>
       <use xlink:href="#DejaVuSans-35" x="83.789062"/>
       <use xlink:href="#DejaVuSans-2e" x="147.412109"/>
       <use xlink:href="#DejaVuSans-30" x="179.199219"/>
      </g>
     </g>
    </g>
    <g id="xtick_4">
     <g id="line2d_7">
      <path d="M 195.578182 307.584 
L 195.578182 41.472 
" clip-path="url(#p3881649f26)" style="fill: none; stroke: #b0b0b0; stroke-opacity: 0.5; stroke-width: 0.8; stroke-linecap: square"/>
     </g>
     <g id="line2d_8">
      <g>
       <use xlink:href="#m32819d45d1" x="195.578182" y="307.584" style="stroke: #000000; stroke-width: 0.8"/>
      </g>
     </g>
     <g id="text_4">
      <!-- −2.5 -->
      <g transform="translate(183.436776 322.182437) scale(0.1 -0.1)">
       <defs>
        <path id="DejaVuSans-32" d="M 1228 531 
L 3431 531 
L 3431 0 
L 469 0 
L 469 531 
Q 828 903 1448 1529 
Q 2069 2156 2228 2338 
Q 2531 2678 2651 2914 
Q 2772 3150 2772 3378 
Q 2772 3750 2511 3984 
Q 2250 4219 1831 4219 
Q 1534 4219 1204 4116 
Q 875 4013 500 3803 
L 500 4441 
Q 881 4594 1212 4672 
Q 1544 4750 1819 4750 
Q 2544 4750 2975 4387 
Q 3406 4025 3406 3419 
Q 3406 3131 3298 2873 
Q 3191 2616 2906 2266 
Q 2828 2175 2409 1742 
Q 1991 1309 1228 531 
z
" transform="scale(0.015625)"/>
       </defs>
       <use xlink:href="#DejaVuSans-2212"/>
       <use xlink:href="#DejaVuSans-32" x="83.789062"/>
       <use xlink:href="#DejaVuSans-2e" x="147.412109"/>
       <use xlink:href="#DejaVuSans-35" x="179.199219"/>
      </g>
     </g>
    </g>
    <g id="xtick_5">
     <g id="line2d_9">
      <path d="M 236.16 307.584 
L 236.16 41.472 
" clip-path="url(#p3881649f26)" style="fill: none; stroke: #b0b0b0; stroke-opacity: 0.5; stroke-width: 0.8; stroke-linecap: square"/>
     </g>
     <g id="line2d_10">
      <g>
       <use xlink:href="#m32819d45d1" x="236.16" y="307.584" style="stroke: #000000; stroke-width: 0.8"/>
      </g>
     </g>
     <g id="text_5">
      <!-- 0.0 -->
      <g transform="translate(228.208438 322.182437) scale(0.1 -0.1)">
       <use xlink:href="#DejaVuSans-30"/>
       <use xlink:href="#DejaVuSans-2e" x="63.623047"/>
       <use xlink:href="#DejaVuSans-30" x="95.410156"/>
      </g>
     </g>
    </g>
    <g id="xtick_6">
     <g id="line2d_11">
      <path d="M 276.741818 307.584 
L 276.741818 41.472 
" clip-path="url(#p3881649f26)" style="fill: none; stroke: #b0b0b0; stroke-opacity: 0.5; stroke-width: 0.8; stroke-linecap: square"/>
     </g>
     <g id="line2d_12">
      <g>
       <use xlink:href="#m32819d45d1" x="276.741818" y="307.584" style="stroke: #000000; stroke-width: 0.8"/>
      </g>
     </g>
     <g id="text_6">
      <!-- 2.5 -->
      <g transform="translate(268.790256 322.182437) scale(0.1 -0.1)">
       <use xlink:href="#DejaVuSans-32"/>
       <use xlink:href="#DejaVuSans-2e" x="63.623047"/>
       <use xlink:href="#DejaVuSans-35" x="95.410156"/>
      </g>
     </g>
    </g>
    <g id="xtick_7">
     <g id="line2d_13">
      <path d="M 317.323636 307.584 
L 317.323636 41.472 
" clip-path="url(#p3881649f26)" style="fill: none; stroke: #b0b0b0; stroke-opacity: 0.5; stroke-width: 0.8; stroke-linecap: square"/>
     </g>
     <g id="line2d_14">
      <g>
       <use xlink:href="#m32819d45d1" x="317.323636" y="307.584" style="stroke: #000000; stroke-width: 0.8"/>
      </g>
     </g>
     <g id="text_7">
      <!-- 5.0 -->
      <g transform="translate(309.372074 322.182437) scale(0.1 -0.1)">
       <use xlink:href="#DejaVuSans-35"/>
       <use xlink:href="#DejaVuSans-2e" x="63.623047"/>
       <use xlink:href="#DejaVuSans-30" x="95.410156"/>
      </g>
     </g>
    </g>
    <g id="xtick_8">
     <g id="line2d_15">
      <path d="M 357.905455 307.584 
L 357.905455 41.472 
" clip-path="url(#p3881649f26)" style="fill: none; stroke: #b0b0b0; stroke-opacity: 0.5; stroke-width: 0.8; stroke-linecap: square"/>
     </g>
     <g id="line2d_16">
      <g>
       <use xlink:href="#m32819d45d1" x="357.905455" y="307.584" style="stroke: #000000; stroke-width: 0.8"/>
      </g>
     </g>
     <g id="text_8">
      <!-- 7.5 -->
      <g transform="translate(349.953892 322.182437) scale(0.1 -0.1)">
       <use xlink:href="#DejaVuSans-37"/>
       <use xlink:href="#DejaVuSans-2e" x="63.623047"/>
       <use xlink:href="#DejaVuSans-35" x="95.410156"/>
      </g>
     </g>
    </g>
    <g id="xtick_9">
     <g id="line2d_17">
      <path d="M 398.487273 307.584 
L 398.487273 41.472 
" clip-path="url(#p3881649f26)" style="fill: none; stroke: #b0b0b0; stroke-opacity: 0.5; stroke-width: 0.8; stroke-linecap: square"/>
     </g>
     <g id="line2d_18">
      <g>
       <use xlink:href="#m32819d45d1" x="398.487273" y="307.584" style="stroke: #000000; stroke-width: 0.8"/>
      </g>
     </g>
     <g id="text_9">
      <!-- 10.0 -->
      <g transform="translate(387.35446 322.182437) scale(0.1 -0.1)">
       <use xlink:href="#DejaVuSans-31"/>
       <use xlink:href="#DejaVuSans-30" x="63.623047"/>
       <use xlink:href="#DejaVuSans-2e" x="127.246094"/>
       <use xlink:href="#DejaVuSans-30" x="159.033203"/>
      </g>
     </g>
    </g>
    <g id="text_10">
     <!-- x -->
     <g transform="translate(233.200625 335.860562) scale(0.1 -0.1)">
      <defs>
       <path id="DejaVuSans-78" d="M 3513 3500 
L 2247 1797 
L 3578 0 
L 2900 0 
L 1881 1375 
L 863 0 
L 184 0 
L 1544 1831 
L 300 3500 
L 978 3500 
L 1906 2253 
L 2834 3500 
L 3513 3500 
z
" transform="scale(0.015625)"/>
      </defs>
      <use xlink:href="#DejaVuSans-78"/>
     </g>
    </g>
   </g>
   <g id="matplotlib.axis_2">
    <g id="ytick_1">
     <g id="line2d_19">
      <path d="M 57.6 295.488 
L 414.72 295.488 
" clip-path="url(#p3881649f26)" style="fill: none; stroke: #b0b0b0; stroke-opacity: 0.5; stroke-width: 0.8; stroke-linecap: square"/>
     </g>
     <g id="line2d_20">
      <defs>
       <path id="m8979d0fe6a" d="M 0 0 
L -3.5 0 
" style="stroke: #000000; stroke-width: 0.8"/>
      </defs>
      <g>
       <use xlink:href="#m8979d0fe6a" x="57.6" y="295.488" style="stroke: #000000; stroke-width: 0.8"/>
      </g>
     </g>
     <g id="text_11">
      <!-- 0.0 -->
      <g transform="translate(34.696875 299.287219) scale(0.1 -0.1)">
       <use xlink:href="#DejaVuSans-30"/>
       <use xlink:href="#DejaVuSans-2e" x="63.623047"/>
       <use xlink:href="#DejaVuSans-30" x="95.410156"/>
      </g>
     </g>
    </g>
    <g id="ytick_2">
     <g id="line2d_21">
      <path d="M 57.6 247.104 
L 414.72 247.104 
" clip-path="url(#p3881649f26)" style="fill: none; stroke: #b0b0b0; stroke-opacity: 0.5; stroke-width: 0.8; stroke-linecap: square"/>
     </g>
     <g id="line2d_22">
      <g>
       <use xlink:href="#m8979d0fe6a" x="57.6" y="247.104" style="stroke: #000000; stroke-width: 0.8"/>
      </g>
     </g>
     <g id="text_12">
      <!-- 0.2 -->
      <g transform="translate(34.696875 250.903219) scale(0.1 -0.1)">
       <use xlink:href="#DejaVuSans-30"/>
       <use xlink:href="#DejaVuSans-2e" x="63.623047"/>
       <use xlink:href="#DejaVuSans-32" x="95.410156"/>
      </g>
     </g>
    </g>
    <g id="ytick_3">
     <g id="line2d_23">
      <path d="M 57.6 198.72 
L 414.72 198.72 
" clip-path="url(#p3881649f26)" style="fill: none; stroke: #b0b0b0; stroke-opacity: 0.5; stroke-width: 0.8; stroke-linecap: square"/>
     </g>
     <g id="line2d_24">
      <g>
       <use xlink:href="#m8979d0fe6a" x="57.6" y="198.72" style="stroke: #000000; stroke-width: 0.8"/>
      </g>
     </g>
     <g id="text_13">
      <!-- 0.4 -->
      <g transform="translate(34.696875 202.519219) scale(0.1 -0.1)">
       <defs>
        <path id="DejaVuSans-34" d="M 2419 4116 
L 825 1625 
L 2419 1625 
L 2419 4116 
z
M 2253 4666 
L 3047 4666 
L 3047 1625 
L 3713 1625 
L 3713 1100 
L 3047 1100 
L 3047 0 
L 2419 0 
L 2419 1100 
L 313 1100 
L 313 1709 
L 2253 4666 
z
" transform="scale(0.015625)"/>
       </defs>
       <use xlink:href="#DejaVuSans-30"/>
       <use xlink:href="#DejaVuSans-2e" x="63.623047"/>
       <use xlink:href="#DejaVuSans-34" x="95.410156"/>
      </g>
     </g>
    </g>
    <g id="ytick_4">
     <g id="line2d_25">
      <path d="M 57.6 150.336 
L 414.72 150.336 
" clip-path="url(#p3881649f26)" style="fill: none; stroke: #b0b0b0; stroke-opacity: 0.5; stroke-width: 0.8; stroke-linecap: square"/>
     </g>
     <g id="line2d_26">
      <g>
       <use xlink:href="#m8979d0fe6a" x="57.6" y="150.336" style="stroke: #000000; stroke-width: 0.8"/>
      </g>
     </g>
     <g id="text_14">
      <!-- 0.6 -->
      <g transform="translate(34.696875 154.135219) scale(0.1 -0.1)">
       <defs>
        <path id="DejaVuSans-36" d="M 2113 2584 
Q 1688 2584 1439 2293 
Q 1191 2003 1191 1497 
Q 1191 994 1439 701 
Q 1688 409 2113 409 
Q 2538 409 2786 701 
Q 3034 994 3034 1497 
Q 3034 2003 2786 2293 
Q 2538 2584 2113 2584 
z
M 3366 4563 
L 3366 3988 
Q 3128 4100 2886 4159 
Q 2644 4219 2406 4219 
Q 1781 4219 1451 3797 
Q 1122 3375 1075 2522 
Q 1259 2794 1537 2939 
Q 1816 3084 2150 3084 
Q 2853 3084 3261 2657 
Q 3669 2231 3669 1497 
Q 3669 778 3244 343 
Q 2819 -91 2113 -91 
Q 1303 -91 875 529 
Q 447 1150 447 2328 
Q 447 3434 972 4092 
Q 1497 4750 2381 4750 
Q 2619 4750 2861 4703 
Q 3103 4656 3366 4563 
z
" transform="scale(0.015625)"/>
       </defs>
       <use xlink:href="#DejaVuSans-30"/>
       <use xlink:href="#DejaVuSans-2e" x="63.623047"/>
       <use xlink:href="#DejaVuSans-36" x="95.410156"/>
      </g>
     </g>
    </g>
    <g id="ytick_5">
     <g id="line2d_27">
      <path d="M 57.6 101.952 
L 414.72 101.952 
" clip-path="url(#p3881649f26)" style="fill: none; stroke: #b0b0b0; stroke-opacity: 0.5; stroke-width: 0.8; stroke-linecap: square"/>
     </g>
     <g id="line2d_28">
      <g>
       <use xlink:href="#m8979d0fe6a" x="57.6" y="101.952" style="stroke: #000000; stroke-width: 0.8"/>
      </g>
     </g>
     <g id="text_15">
      <!-- 0.8 -->
      <g transform="translate(34.696875 105.751219) scale(0.1 -0.1)">
       <defs>
        <path id="DejaVuSans-38" d="M 2034 2216 
Q 1584 2216 1326 1975 
Q 1069 1734 1069 1313 
Q 1069 891 1326 650 
Q 1584 409 2034 409 
Q 2484 409 2743 651 
Q 3003 894 3003 1313 
Q 3003 1734 2745 1975 
Q 2488 2216 2034 2216 
z
M 1403 2484 
Q 997 2584 770 2862 
Q 544 3141 544 3541 
Q 544 4100 942 4425 
Q 1341 4750 2034 4750 
Q 2731 4750 3128 4425 
Q 3525 4100 3525 3541 
Q 3525 3141 3298 2862 
Q 3072 2584 2669 2484 
Q 3125 2378 3379 2068 
Q 3634 1759 3634 1313 
Q 3634 634 3220 271 
Q 2806 -91 2034 -91 
Q 1263 -91 848 271 
Q 434 634 434 1313 
Q 434 1759 690 2068 
Q 947 2378 1403 2484 
z
M 1172 3481 
Q 1172 3119 1398 2916 
Q 1625 2713 2034 2713 
Q 2441 2713 2670 2916 
Q 2900 3119 2900 3481 
Q 2900 3844 2670 4047 
Q 2441 4250 2034 4250 
Q 1625 4250 1398 4047 
Q 1172 3844 1172 3481 
z
" transform="scale(0.015625)"/>
       </defs>
       <use xlink:href="#DejaVuSans-30"/>
       <use xlink:href="#DejaVuSans-2e" x="63.623047"/>
       <use xlink:href="#DejaVuSans-38" x="95.410156"/>
      </g>
     </g>
    </g>
    <g id="ytick_6">
     <g id="line2d_29">
      <path d="M 57.6 53.568 
L 414.72 53.568 
" clip-path="url(#p3881649f26)" style="fill: none; stroke: #b0b0b0; stroke-opacity: 0.5; stroke-width: 0.8; stroke-linecap: square"/>
     </g>
     <g id="line2d_30">
      <g>
       <use xlink:href="#m8979d0fe6a" x="57.6" y="53.568" style="stroke: #000000; stroke-width: 0.8"/>
      </g>
     </g>
     <g id="text_16">
      <!-- 1.0 -->
      <g transform="translate(34.696875 57.367219) scale(0.1 -0.1)">
       <use xlink:href="#DejaVuSans-31"/>
       <use xlink:href="#DejaVuSans-2e" x="63.623047"/>
       <use xlink:href="#DejaVuSans-30" x="95.410156"/>
      </g>
     </g>
    </g>
   </g>
   <g id="line2d_31">
    <path d="M 73.832727 288.799511 
L 87.495544 287.761359 
L 99.85714 286.600447 
L 110.266905 285.409158 
L 119.375449 284.161042 
L 127.833383 282.785169 
L 135.640707 281.283633 
L 142.14681 279.82322 
L 148.652913 278.130718 
L 154.508406 276.367888 
L 159.713288 274.572467 
L 164.267561 272.793127 
L 168.821833 270.786221 
L 173.376105 268.513856 
L 177.279767 266.320797 
L 181.183429 263.866183 
L 185.087091 261.111228 
L 188.340142 258.553919 
L 191.593194 255.727791 
L 194.846245 252.600348 
L 198.099297 249.136001 
L 201.352348 245.296496 
L 204.6054 241.041818 
L 207.858451 236.331816 
L 211.111503 231.128792 
L 214.364555 225.401326 
L 217.617606 219.129479 
L 220.870658 212.311237 
L 224.123709 204.969561 
L 228.027371 195.547383 
L 232.581643 183.919779 
L 244.943239 151.89734 
L 248.846901 142.578341 
L 252.099953 135.338089 
L 255.353004 128.628189 
L 258.606056 122.466054 
L 261.859107 116.845526 
L 265.112159 111.743886 
L 268.36521 107.12809 
L 271.618262 102.959685 
L 274.871314 99.198374 
L 278.124365 95.804393 
L 281.377417 92.739964 
L 284.630468 89.970097 
L 287.88352 87.462935 
L 291.787182 84.760976 
L 295.690844 82.352496 
L 299.594505 80.199643 
L 304.148778 77.967783 
L 308.70305 75.995552 
L 313.907932 74.012365 
L 319.112815 72.27445 
L 324.968308 70.565981 
L 331.474411 68.923534 
L 338.631124 67.373331 
L 346.438448 65.932172 
L 354.896382 64.608901 
L 364.004926 63.406064 
L 374.414691 62.25565 
L 386.125677 61.185768 
L 398.487273 60.256489 
L 398.487273 60.256489 
" clip-path="url(#p3881649f26)" style="fill: none; stroke: #1f77b4; stroke-width: 1.5; stroke-linecap: square"/>
   </g>
   <g id="line2d_32">
    <path d="M 190.246914 295.488 
L 192.120917 290.550857 
L 193.994921 285.613714 
L 195.868924 280.676571 
L 197.742928 275.739429 
L 199.616931 270.802286 
L 201.490935 265.865143 
L 203.364938 260.928 
L 205.238942 255.990857 
L 207.112946 251.053714 
L 208.986949 246.116571 
L 210.860953 241.179429 
L 212.734956 236.242286 
L 214.60896 231.305143 
L 216.482963 226.368 
L 218.356967 221.430857 
L 220.23097 216.493714 
L 222.104974 211.556571 
L 223.978977 206.619429 
L 225.852981 201.682286 
L 227.726984 196.745143 
L 229.600988 191.808 
L 231.474991 186.870857 
L 233.348995 181.933714 
L 235.222998 176.996571 
L 237.097002 172.059429 
L 238.971005 167.122286 
L 240.845009 162.185143 
L 242.719012 157.248 
L 244.593016 152.310857 
L 246.467019 147.373714 
L 248.341023 142.436571 
L 250.215026 137.499429 
L 252.08903 132.562286 
L 253.963033 127.625143 
L 255.837037 122.688 
L 257.71104 117.750857 
L 259.585044 112.813714 
L 261.459047 107.876571 
L 263.333051 102.939429 
L 265.207054 98.002286 
L 267.081058 93.065143 
L 268.955062 88.128 
L 270.829065 83.190857 
L 272.703069 78.253714 
L 274.577072 73.316571 
L 276.451076 68.379429 
L 278.325079 63.442286 
L 280.199083 58.505143 
L 282.073086 53.568 
" clip-path="url(#p3881649f26)" style="fill: none; stroke-dasharray: 5.55,2.4; stroke-dashoffset: 0; stroke: #5080a0; stroke-opacity: 0.5; stroke-width: 1.5"/>
   </g>
   <g id="LineCollection_1">
    <path d="M 282.073086 53.568 
L 398.487273 53.568 
" clip-path="url(#p3881649f26)" style="fill: none; stroke-dasharray: 5.55,2.4; stroke-dashoffset: 0; stroke: #5080a0; stroke-opacity: 0.5; stroke-width: 1.5"/>
   </g>
   <g id="LineCollection_2">
    <path d="M 73.832727 295.488 
L 190.246914 295.488 
" clip-path="url(#p3881649f26)" style="fill: none; stroke-dasharray: 5.55,2.4; stroke-dashoffset: 0; stroke: #5080a0; stroke-opacity: 0.5; stroke-width: 1.5"/>
   </g>
   <g id="line2d_33">
    <defs>
     <path id="m5d7e8bd90a" d="M 0 1.5 
C 0.397805 1.5 0.77937 1.341951 1.06066 1.06066 
C 1.341951 0.77937 1.5 0.397805 1.5 0 
C 1.5 -0.397805 1.341951 -0.77937 1.06066 -1.06066 
C 0.77937 -1.341951 0.397805 -1.5 0 -1.5 
C -0.397805 -1.5 -0.77937 -1.341951 -1.06066 -1.06066 
C -1.341951 -0.77937 -1.5 -0.397805 -1.5 0 
C -1.5 0.397805 -1.341951 0.77937 -1.06066 1.06066 
C -0.77937 1.341951 -0.397805 1.5 0 1.5 
z
" style="stroke: #5080a0; stroke-opacity: 0.5"/>
    </defs>
    <g clip-path="url(#p3881649f26)">
     <use xlink:href="#m5d7e8bd90a" x="190.246914" y="295.488" style="fill: #5080a0; fill-opacity: 0.5; stroke: #5080a0; stroke-opacity: 0.5"/>
     <use xlink:href="#m5d7e8bd90a" x="282.073086" y="53.568" style="fill: #5080a0; fill-opacity: 0.5; stroke: #5080a0; stroke-opacity: 0.5"/>
    </g>
   </g>
   <g id="line2d_34">
    <path d="M 282.073086 174.528 
L 283.939446 165.262691 
L 285.805806 157.022557 
L 287.90546 148.797223 
L 290.005115 141.515224 
L 292.10477 135.037635 
L 294.204424 129.250198 
L 296.304079 124.058241 
L 298.637029 118.892188 
L 300.969978 114.273914 
L 303.302928 110.128625 
L 305.869172 106.040879 
L 308.435417 102.380779 
L 311.001662 99.090689 
L 313.801201 95.867015 
L 316.600741 92.974025 
L 319.633575 90.162576 
L 322.66641 87.641612 
L 325.932539 85.207363 
L 329.431964 82.877777 
L 333.164683 80.665508 
L 337.130697 78.578596 
L 341.330007 76.621186 
L 345.762611 74.794234 
L 350.661805 73.016678 
L 356.027589 71.314438 
L 361.859964 69.705804 
L 368.158928 68.202367 
L 375.157776 66.765724 
L 382.85651 65.416822 
L 391.488424 64.136488 
L 398.487273 63.2448 
L 398.487273 63.2448 
" clip-path="url(#p3881649f26)" style="fill: none; stroke-dasharray: 9.6,2.4,1.5,2.4; stroke-dashoffset: 0; stroke: #000000; stroke-opacity: 0.6; stroke-width: 1.5"/>
   </g>
   <g id="line2d_35">
    <path d="M 73.832727 285.8112 
L 83.397821 284.56145 
L 92.029734 283.213484 
L 99.728468 281.789114 
L 106.727317 280.267573 
L 113.026281 278.670526 
L 118.62536 277.03007 
L 123.757849 275.305939 
L 128.657044 273.424524 
L 133.089648 271.486011 
L 137.288957 269.40386 
L 141.254972 267.178233 
L 144.754396 264.969084 
L 148.253821 262.490887 
L 151.51995 259.895137 
L 154.552785 257.200445 
L 157.352324 254.431898 
L 160.151864 251.351836 
L 162.718108 248.21349 
L 165.284353 244.72811 
L 167.850597 240.842579 
L 170.183547 236.909692 
L 172.516497 232.536426 
L 174.849446 227.654493 
L 176.949101 222.75836 
L 179.048756 217.312349 
L 181.14841 211.230929 
L 183.248065 204.411263 
L 185.114425 197.629502 
L 186.980784 190.061071 
L 188.847144 181.579424 
L 190.246914 174.528 
L 190.246914 174.528 
" clip-path="url(#p3881649f26)" style="fill: none; stroke-dasharray: 9.6,2.4,1.5,2.4; stroke-dashoffset: 0; stroke: #000000; stroke-opacity: 0.6; stroke-width: 1.5"/>
   </g>
   <g id="line2d_36">
    <defs>
     <path id="m3956a88963" d="M 0 1.5 
C 0.397805 1.5 0.77937 1.341951 1.06066 1.06066 
C 1.341951 0.77937 1.5 0.397805 1.5 0 
C 1.5 -0.397805 1.341951 -0.77937 1.06066 -1.06066 
C 0.77937 -1.341951 0.397805 -1.5 0 -1.5 
C -0.397805 -1.5 -0.77937 -1.341951 -1.06066 -1.06066 
C -1.341951 -0.77937 -1.5 -0.397805 -1.5 0 
C -1.5 0.397805 -1.341951 0.77937 -1.06066 1.06066 
C -0.77937 1.341951 -0.397805 1.5 0 1.5 
z
" style="stroke: #000000; stroke-opacity: 0.6"/>
    </defs>
    <g clip-path="url(#p3881649f26)">
     <use xlink:href="#m3956a88963" x="282.073086" y="174.528" style="fill-opacity: 0.6; stroke: #000000; stroke-opacity: 0.6"/>
    </g>
   </g>
   <g id="line2d_37">
    <g clip-path="url(#p3881649f26)">
     <use xlink:href="#m3956a88963" x="190.246914" y="174.528" style="fill-opacity: 0.6; stroke: #000000; stroke-opacity: 0.6"/>
    </g>
   </g>
   <g id="LineCollection_3">
    <path d="M 190.246914 174.528 
L 236.16 174.528 
" clip-path="url(#p3881649f26)" style="fill: none; stroke-dasharray: 9.6,2.4,1.5,2.4; stroke-dashoffset: 0; stroke: #000000; stroke-opacity: 0.6; stroke-width: 1.5"/>
   </g>
   <g id="LineCollection_4">
    <path d="M 236.16 174.528 
L 282.073086 174.528 
" clip-path="url(#p3881649f26)" style="fill: none; stroke-dasharray: 9.6,2.4,1.5,2.4; stroke-dashoffset: 0; stroke: #000000; stroke-opacity: 0.6; stroke-width: 1.5"/>
   </g>
   <g id="patch_3">
    <path d="M 57.6 307.584 
L 57.6 41.472 
" style="fill: none; stroke: #000000; stroke-width: 0.8; stroke-linejoin: miter; stroke-linecap: square"/>
   </g>
   <g id="patch_4">
    <path d="M 414.72 307.584 
L 414.72 41.472 
" style="fill: none; stroke: #000000; stroke-width: 0.8; stroke-linejoin: miter; stroke-linecap: square"/>
   </g>
   <g id="patch_5">
    <path d="M 57.6 307.584 
L 414.72 307.584 
" style="fill: none; stroke: #000000; stroke-width: 0.8; stroke-linejoin: miter; stroke-linecap: square"/>
   </g>
   <g id="patch_6">
    <path d="M 57.6 41.472 
L 414.72 41.472 
" style="fill: none; stroke: #000000; stroke-width: 0.8; stroke-linejoin: miter; stroke-linecap: square"/>
   </g>
   <g id="patch_7">
    <path d="M 239.207425 98.002286 
Q 251.205911 98.002286 262.086363 98.002286 
" style="fill: none; stroke: #000000; stroke-linecap: round"/>
    <path d="M 258.086363 96.002286 
L 262.086363 98.002286 
L 258.086363 100.002286 
" style="fill: none; stroke: #000000; stroke-linecap: round"/>
   </g>
   <g id="text_17">
    <!-- $\frac{1}{2} + 2^{\lambda-2}x$ -->
    <g transform="translate(187.307054 100.752286) scale(0.1 -0.1)">
     <defs>
      <path id="DejaVuSans-2b" d="M 2944 4013 
L 2944 2272 
L 4684 2272 
L 4684 1741 
L 2944 1741 
L 2944 0 
L 2419 0 
L 2419 1741 
L 678 1741 
L 678 2272 
L 2419 2272 
L 2419 4013 
L 2944 4013 
z
" transform="scale(0.015625)"/>
      <path id="DejaVuSans-Oblique-3bb" d="M 2350 4316 
L 3125 0 
L 2516 0 
L 2038 2588 
L 328 0 
L -281 0 
L 1903 3356 
L 1794 3975 
Q 1725 4369 1391 4369 
L 1091 4369 
L 1184 4863 
L 1550 4856 
Q 2253 4847 2350 4316 
z
" transform="scale(0.015625)"/>
      <path id="DejaVuSans-Oblique-78" d="M 3841 3500 
L 2234 1784 
L 3219 0 
L 2559 0 
L 1819 1388 
L 531 0 
L -166 0 
L 1556 1844 
L 641 3500 
L 1300 3500 
L 1972 2234 
L 3144 3500 
L 3841 3500 
z
" transform="scale(0.015625)"/>
     </defs>
     <use xlink:href="#DejaVuSans-31" transform="translate(0 43.965625) scale(0.7)"/>
     <use xlink:href="#DejaVuSans-32" transform="translate(0 -39.2375) scale(0.7)"/>
     <use xlink:href="#DejaVuSans-2b" transform="translate(76.518555 0.16875)"/>
     <use xlink:href="#DejaVuSans-32" transform="translate(179.790039 0.16875)"/>
     <use xlink:href="#DejaVuSans-Oblique-3bb" transform="translate(244.370117 38.45) scale(0.7)"/>
     <use xlink:href="#DejaVuSans-2212" transform="translate(299.433594 38.45) scale(0.7)"/>
     <use xlink:href="#DejaVuSans-32" transform="translate(371.723633 38.45) scale(0.7)"/>
     <use xlink:href="#DejaVuSans-Oblique-78" transform="translate(418.994141 0.16875)"/>
     <path d="M 0 18.965625 
L 0 25.215625 
L 44.536133 25.215625 
L 44.536133 18.965625 
L 0 18.965625 
z
"/>
    </g>
   </g>
   <g id="text_18">
    <!-- $\left(\frac{-2^{-\lambda}}{\lambda}, \frac{1}{2}\right)$ -->
    <g transform="translate(287.073086 177.878) scale(0.1 -0.1)">
     <defs>
      <path id="STIXSizeTwoSym-Regular-28" d="M 3219 -1555 
L 3219 -1786 
Q 2144 -774 1517 730 
Q 890 2234 890 4115 
Q 890 6003 1533 7593 
Q 2176 9184 3219 10022 
L 3219 9811 
Q 2490 9062 1994 7606 
Q 1498 6150 1498 4115 
Q 1498 563 3219 -1555 
z
" transform="scale(0.015625)"/>
      <path id="DejaVuSans-2c" d="M 750 794 
L 1409 794 
L 1409 256 
L 897 -744 
L 494 -744 
L 750 256 
L 750 794 
z
" transform="scale(0.015625)"/>
      <path id="STIXSizeTwoSym-Regular-29" d="M 730 9792 
L 730 10022 
Q 1805 9011 2432 7507 
Q 3059 6003 3059 4115 
Q 3059 2234 2416 643 
Q 1773 -947 730 -1786 
L 730 -1574 
Q 1459 -826 1955 633 
Q 2451 2093 2451 4115 
Q 2451 7674 730 9792 
z
" transform="scale(0.015625)"/>
     </defs>
     <use xlink:href="#STIXSizeTwoSym-Regular-28" transform="translate(0 -18.155781) scale(0.804706)"/>
     <use xlink:href="#DejaVuSans-2212" transform="translate(47.41449 43.970781) scale(0.7)"/>
     <use xlink:href="#DejaVuSans-32" transform="translate(106.066833 43.970781) scale(0.7)"/>
     <use xlink:href="#DejaVuSans-2212" transform="translate(151.272888 70.767656) scale(0.49)"/>
     <use xlink:href="#DejaVuSans-Oblique-3bb" transform="translate(192.329529 70.767656) scale(0.49)"/>
     <use xlink:href="#DejaVuSans-Oblique-3bb" transform="translate(114.41449 -40.468281) scale(0.7)"/>
     <use xlink:href="#DejaVuSans-2c" transform="translate(235.741638 0.173906)"/>
     <use xlink:href="#DejaVuSans-31" transform="translate(287.011169 43.970781) scale(0.7)"/>
     <use xlink:href="#DejaVuSans-32" transform="translate(287.011169 -39.232344) scale(0.7)"/>
     <use xlink:href="#STIXSizeTwoSym-Regular-29" transform="translate(344.047302 -18.155781) scale(0.804706)"/>
     <path d="M 47.41449 18.970781 
L 47.41449 25.220781 
L 223.241638 25.220781 
L 223.241638 18.970781 
L 47.41449 18.970781 
z
"/>
     <path d="M 287.011169 18.970781 
L 287.011169 25.220781 
L 331.547302 25.220781 
L 331.547302 18.970781 
L 287.011169 18.970781 
z
"/>
    </g>
   </g>
   <g id="text_19">
    <!-- $\left(\frac{2^{-\lambda}}{\lambda}, \frac{1}{2}\right)$ -->
    <g transform="translate(151.746914 177.878) scale(0.1 -0.1)">
     <use xlink:href="#STIXSizeTwoSym-Regular-28" transform="translate(0 -18.155781) scale(0.804706)"/>
     <use xlink:href="#DejaVuSans-32" transform="translate(47.41449 43.970781) scale(0.7)"/>
     <use xlink:href="#DejaVuSans-2212" transform="translate(92.620544 70.767656) scale(0.49)"/>
     <use xlink:href="#DejaVuSans-Oblique-3bb" transform="translate(133.677185 70.767656) scale(0.49)"/>
     <use xlink:href="#DejaVuSans-Oblique-3bb" transform="translate(85.41449 -40.468281) scale(0.7)"/>
     <use xlink:href="#DejaVuSans-2c" transform="translate(177.089294 0.173906)"/>
     <use xlink:href="#DejaVuSans-31" transform="translate(228.358826 43.970781) scale(0.7)"/>
     <use xlink:href="#DejaVuSans-32" transform="translate(228.358826 -39.232344) scale(0.7)"/>
     <use xlink:href="#STIXSizeTwoSym-Regular-29" transform="translate(285.394958 -18.155781) scale(0.804706)"/>
     <path d="M 47.41449 18.970781 
L 47.41449 25.220781 
L 164.589294 25.220781 
L 164.589294 18.970781 
L 47.41449 18.970781 
z
"/>
     <path d="M 228.358826 18.970781 
L 228.358826 25.220781 
L 272.894958 25.220781 
L 272.894958 18.970781 
L 228.358826 18.970781 
z
"/>
    </g>
   </g>
   <g id="text_20">
    <!-- $(2^{1 - \lambda}, 1)$ -->
    <g transform="translate(229.773086 58.788312) scale(0.1 -0.1)">
     <defs>
      <path id="DejaVuSans-28" d="M 1984 4856 
Q 1566 4138 1362 3434 
Q 1159 2731 1159 2009 
Q 1159 1288 1364 580 
Q 1569 -128 1984 -844 
L 1484 -844 
Q 1016 -109 783 600 
Q 550 1309 550 2009 
Q 550 2706 781 3412 
Q 1013 4119 1484 4856 
L 1984 4856 
z
" transform="scale(0.015625)"/>
      <path id="DejaVuSans-29" d="M 513 4856 
L 1013 4856 
Q 1481 4119 1714 3412 
Q 1947 2706 1947 2009 
Q 1947 1309 1714 600 
Q 1481 -109 1013 -844 
L 513 -844 
Q 928 -128 1133 580 
Q 1338 1288 1338 2009 
Q 1338 2731 1133 3434 
Q 928 4138 513 4856 
z
" transform="scale(0.015625)"/>
     </defs>
     <use xlink:href="#DejaVuSans-28" transform="translate(0 0.529687)"/>
     <use xlink:href="#DejaVuSans-32" transform="translate(39.013672 0.529687)"/>
     <use xlink:href="#DejaVuSans-31" transform="translate(103.59375 38.810937) scale(0.7)"/>
     <use xlink:href="#DejaVuSans-2212" transform="translate(161.767578 38.810937) scale(0.7)"/>
     <use xlink:href="#DejaVuSans-Oblique-3bb" transform="translate(234.057617 38.810937) scale(0.7)"/>
     <use xlink:href="#DejaVuSans-2c" transform="translate(278.217773 0.529687)"/>
     <use xlink:href="#DejaVuSans-31" transform="translate(329.487305 0.529687)"/>
     <use xlink:href="#DejaVuSans-29" transform="translate(393.110352 0.529687)"/>
    </g>
   </g>
   <g id="text_21">
    <!-- $(-2^{1 - \lambda}, 0)$ -->
    <g transform="translate(199.246914 293.708312) scale(0.1 -0.1)">
     <use xlink:href="#DejaVuSans-28" transform="translate(0 0.529687)"/>
     <use xlink:href="#DejaVuSans-2212" transform="translate(39.013672 0.529687)"/>
     <use xlink:href="#DejaVuSans-32" transform="translate(122.802734 0.529687)"/>
     <use xlink:href="#DejaVuSans-31" transform="translate(187.382812 38.810937) scale(0.7)"/>
     <use xlink:href="#DejaVuSans-2212" transform="translate(245.556641 38.810937) scale(0.7)"/>
     <use xlink:href="#DejaVuSans-Oblique-3bb" transform="translate(317.84668 38.810937) scale(0.7)"/>
     <use xlink:href="#DejaVuSans-2c" transform="translate(362.006836 0.529687)"/>
     <use xlink:href="#DejaVuSans-30" transform="translate(413.276367 0.529687)"/>
     <use xlink:href="#DejaVuSans-29" transform="translate(476.899414 0.529687)"/>
    </g>
   </g>
   <g id="patch_8">
    <path d="M 334.665488 118.69448 
Q 320.961003 113.100813 308.291648 107.929648 
" style="fill: none; stroke: #000000; stroke-linecap: round"/>
    <path d="M 311.239245 111.292931 
L 308.291648 107.929648 
L 312.750833 107.58954 
" style="fill: none; stroke: #000000; stroke-linecap: round"/>
   </g>
   <g id="text_22">
    <!-- $1 - (-\lambda x)^{1/\lambda}$ -->
    <g transform="translate(325.402582 129.97075) scale(0.1 -0.1)">
     <defs>
      <path id="DejaVuSans-2f" d="M 1625 4666 
L 2156 4666 
L 531 -594 
L 0 -594 
L 1625 4666 
z
" transform="scale(0.015625)"/>
     </defs>
     <use xlink:href="#DejaVuSans-31" transform="translate(0 0.529687)"/>
     <use xlink:href="#DejaVuSans-2212" transform="translate(83.105469 0.529687)"/>
     <use xlink:href="#DejaVuSans-28" transform="translate(186.376953 0.529687)"/>
     <use xlink:href="#DejaVuSans-2212" transform="translate(225.390625 0.529687)"/>
     <use xlink:href="#DejaVuSans-Oblique-3bb" transform="translate(309.179688 0.529687)"/>
     <use xlink:href="#DejaVuSans-Oblique-78" transform="translate(368.359375 0.529687)"/>
     <use xlink:href="#DejaVuSans-29" transform="translate(427.539062 0.529687)"/>
     <use xlink:href="#DejaVuSans-31" transform="translate(467.509766 38.810937) scale(0.7)"/>
     <use xlink:href="#DejaVuSans-2f" transform="translate(512.045898 38.810937) scale(0.7)"/>
     <use xlink:href="#DejaVuSans-Oblique-3bb" transform="translate(535.629883 38.810937) scale(0.7)"/>
    </g>
   </g>
   <g id="patch_9">
    <path d="M 140.590759 225.019258 
Q 153.026147 232.944077 164.518685 240.268037 
" style="fill: none; stroke: #000000; stroke-linecap: round"/>
    <path d="M 162.22029 236.431714 
L 164.518685 240.268037 
L 160.070589 239.804959 
" style="fill: none; stroke: #000000; stroke-linecap: round"/>
   </g>
   <g id="text_23">
    <!-- $(-\lambda x)^{1/\lambda}$ -->
    <g transform="translate(107.750713 219.865687) scale(0.1 -0.1)">
     <use xlink:href="#DejaVuSans-28" transform="translate(0 0.529687)"/>
     <use xlink:href="#DejaVuSans-2212" transform="translate(39.013672 0.529687)"/>
     <use xlink:href="#DejaVuSans-Oblique-3bb" transform="translate(122.802734 0.529687)"/>
     <use xlink:href="#DejaVuSans-Oblique-78" transform="translate(181.982422 0.529687)"/>
     <use xlink:href="#DejaVuSans-29" transform="translate(241.162109 0.529687)"/>
     <use xlink:href="#DejaVuSans-31" transform="translate(281.132812 38.810937) scale(0.7)"/>
     <use xlink:href="#DejaVuSans-2f" transform="translate(325.668945 38.810937) scale(0.7)"/>
     <use xlink:href="#DejaVuSans-Oblique-3bb" transform="translate(349.25293 38.810937) scale(0.7)"/>
    </g>
   </g>
   <g id="text_24">
    <!-- Tukey lambda CDF bounding curves, $\lambda &lt; 0$ -->
    <g transform="translate(108.9 35.472) scale(0.12 -0.12)">
     <defs>
      <path id="DejaVuSans-54" d="M -19 4666 
L 3928 4666 
L 3928 4134 
L 2272 4134 
L 2272 0 
L 1638 0 
L 1638 4134 
L -19 4134 
L -19 4666 
z
" transform="scale(0.015625)"/>
      <path id="DejaVuSans-75" d="M 544 1381 
L 544 3500 
L 1119 3500 
L 1119 1403 
Q 1119 906 1312 657 
Q 1506 409 1894 409 
Q 2359 409 2629 706 
Q 2900 1003 2900 1516 
L 2900 3500 
L 3475 3500 
L 3475 0 
L 2900 0 
L 2900 538 
Q 2691 219 2414 64 
Q 2138 -91 1772 -91 
Q 1169 -91 856 284 
Q 544 659 544 1381 
z
M 1991 3584 
L 1991 3584 
z
" transform="scale(0.015625)"/>
      <path id="DejaVuSans-6b" d="M 581 4863 
L 1159 4863 
L 1159 1991 
L 2875 3500 
L 3609 3500 
L 1753 1863 
L 3688 0 
L 2938 0 
L 1159 1709 
L 1159 0 
L 581 0 
L 581 4863 
z
" transform="scale(0.015625)"/>
      <path id="DejaVuSans-65" d="M 3597 1894 
L 3597 1613 
L 953 1613 
Q 991 1019 1311 708 
Q 1631 397 2203 397 
Q 2534 397 2845 478 
Q 3156 559 3463 722 
L 3463 178 
Q 3153 47 2828 -22 
Q 2503 -91 2169 -91 
Q 1331 -91 842 396 
Q 353 884 353 1716 
Q 353 2575 817 3079 
Q 1281 3584 2069 3584 
Q 2775 3584 3186 3129 
Q 3597 2675 3597 1894 
z
M 3022 2063 
Q 3016 2534 2758 2815 
Q 2500 3097 2075 3097 
Q 1594 3097 1305 2825 
Q 1016 2553 972 2059 
L 3022 2063 
z
" transform="scale(0.015625)"/>
      <path id="DejaVuSans-79" d="M 2059 -325 
Q 1816 -950 1584 -1140 
Q 1353 -1331 966 -1331 
L 506 -1331 
L 506 -850 
L 844 -850 
Q 1081 -850 1212 -737 
Q 1344 -625 1503 -206 
L 1606 56 
L 191 3500 
L 800 3500 
L 1894 763 
L 2988 3500 
L 3597 3500 
L 2059 -325 
z
" transform="scale(0.015625)"/>
      <path id="DejaVuSans-20" transform="scale(0.015625)"/>
      <path id="DejaVuSans-6c" d="M 603 4863 
L 1178 4863 
L 1178 0 
L 603 0 
L 603 4863 
z
" transform="scale(0.015625)"/>
      <path id="DejaVuSans-61" d="M 2194 1759 
Q 1497 1759 1228 1600 
Q 959 1441 959 1056 
Q 959 750 1161 570 
Q 1363 391 1709 391 
Q 2188 391 2477 730 
Q 2766 1069 2766 1631 
L 2766 1759 
L 2194 1759 
z
M 3341 1997 
L 3341 0 
L 2766 0 
L 2766 531 
Q 2569 213 2275 61 
Q 1981 -91 1556 -91 
Q 1019 -91 701 211 
Q 384 513 384 1019 
Q 384 1609 779 1909 
Q 1175 2209 1959 2209 
L 2766 2209 
L 2766 2266 
Q 2766 2663 2505 2880 
Q 2244 3097 1772 3097 
Q 1472 3097 1187 3025 
Q 903 2953 641 2809 
L 641 3341 
Q 956 3463 1253 3523 
Q 1550 3584 1831 3584 
Q 2591 3584 2966 3190 
Q 3341 2797 3341 1997 
z
" transform="scale(0.015625)"/>
      <path id="DejaVuSans-6d" d="M 3328 2828 
Q 3544 3216 3844 3400 
Q 4144 3584 4550 3584 
Q 5097 3584 5394 3201 
Q 5691 2819 5691 2113 
L 5691 0 
L 5113 0 
L 5113 2094 
Q 5113 2597 4934 2840 
Q 4756 3084 4391 3084 
Q 3944 3084 3684 2787 
Q 3425 2491 3425 1978 
L 3425 0 
L 2847 0 
L 2847 2094 
Q 2847 2600 2669 2842 
Q 2491 3084 2119 3084 
Q 1678 3084 1418 2786 
Q 1159 2488 1159 1978 
L 1159 0 
L 581 0 
L 581 3500 
L 1159 3500 
L 1159 2956 
Q 1356 3278 1631 3431 
Q 1906 3584 2284 3584 
Q 2666 3584 2933 3390 
Q 3200 3197 3328 2828 
z
" transform="scale(0.015625)"/>
      <path id="DejaVuSans-62" d="M 3116 1747 
Q 3116 2381 2855 2742 
Q 2594 3103 2138 3103 
Q 1681 3103 1420 2742 
Q 1159 2381 1159 1747 
Q 1159 1113 1420 752 
Q 1681 391 2138 391 
Q 2594 391 2855 752 
Q 3116 1113 3116 1747 
z
M 1159 2969 
Q 1341 3281 1617 3432 
Q 1894 3584 2278 3584 
Q 2916 3584 3314 3078 
Q 3713 2572 3713 1747 
Q 3713 922 3314 415 
Q 2916 -91 2278 -91 
Q 1894 -91 1617 61 
Q 1341 213 1159 525 
L 1159 0 
L 581 0 
L 581 4863 
L 1159 4863 
L 1159 2969 
z
" transform="scale(0.015625)"/>
      <path id="DejaVuSans-64" d="M 2906 2969 
L 2906 4863 
L 3481 4863 
L 3481 0 
L 2906 0 
L 2906 525 
Q 2725 213 2448 61 
Q 2172 -91 1784 -91 
Q 1150 -91 751 415 
Q 353 922 353 1747 
Q 353 2572 751 3078 
Q 1150 3584 1784 3584 
Q 2172 3584 2448 3432 
Q 2725 3281 2906 2969 
z
M 947 1747 
Q 947 1113 1208 752 
Q 1469 391 1925 391 
Q 2381 391 2643 752 
Q 2906 1113 2906 1747 
Q 2906 2381 2643 2742 
Q 2381 3103 1925 3103 
Q 1469 3103 1208 2742 
Q 947 2381 947 1747 
z
" transform="scale(0.015625)"/>
      <path id="DejaVuSans-43" d="M 4122 4306 
L 4122 3641 
Q 3803 3938 3442 4084 
Q 3081 4231 2675 4231 
Q 1875 4231 1450 3742 
Q 1025 3253 1025 2328 
Q 1025 1406 1450 917 
Q 1875 428 2675 428 
Q 3081 428 3442 575 
Q 3803 722 4122 1019 
L 4122 359 
Q 3791 134 3420 21 
Q 3050 -91 2638 -91 
Q 1578 -91 968 557 
Q 359 1206 359 2328 
Q 359 3453 968 4101 
Q 1578 4750 2638 4750 
Q 3056 4750 3426 4639 
Q 3797 4528 4122 4306 
z
" transform="scale(0.015625)"/>
      <path id="DejaVuSans-44" d="M 1259 4147 
L 1259 519 
L 2022 519 
Q 2988 519 3436 956 
Q 3884 1394 3884 2338 
Q 3884 3275 3436 3711 
Q 2988 4147 2022 4147 
L 1259 4147 
z
M 628 4666 
L 1925 4666 
Q 3281 4666 3915 4102 
Q 4550 3538 4550 2338 
Q 4550 1131 3912 565 
Q 3275 0 1925 0 
L 628 0 
L 628 4666 
z
" transform="scale(0.015625)"/>
      <path id="DejaVuSans-46" d="M 628 4666 
L 3309 4666 
L 3309 4134 
L 1259 4134 
L 1259 2759 
L 3109 2759 
L 3109 2228 
L 1259 2228 
L 1259 0 
L 628 0 
L 628 4666 
z
" transform="scale(0.015625)"/>
      <path id="DejaVuSans-6f" d="M 1959 3097 
Q 1497 3097 1228 2736 
Q 959 2375 959 1747 
Q 959 1119 1226 758 
Q 1494 397 1959 397 
Q 2419 397 2687 759 
Q 2956 1122 2956 1747 
Q 2956 2369 2687 2733 
Q 2419 3097 1959 3097 
z
M 1959 3584 
Q 2709 3584 3137 3096 
Q 3566 2609 3566 1747 
Q 3566 888 3137 398 
Q 2709 -91 1959 -91 
Q 1206 -91 779 398 
Q 353 888 353 1747 
Q 353 2609 779 3096 
Q 1206 3584 1959 3584 
z
" transform="scale(0.015625)"/>
      <path id="DejaVuSans-6e" d="M 3513 2113 
L 3513 0 
L 2938 0 
L 2938 2094 
Q 2938 2591 2744 2837 
Q 2550 3084 2163 3084 
Q 1697 3084 1428 2787 
Q 1159 2491 1159 1978 
L 1159 0 
L 581 0 
L 581 3500 
L 1159 3500 
L 1159 2956 
Q 1366 3272 1645 3428 
Q 1925 3584 2291 3584 
Q 2894 3584 3203 3211 
Q 3513 2838 3513 2113 
z
" transform="scale(0.015625)"/>
      <path id="DejaVuSans-69" d="M 603 3500 
L 1178 3500 
L 1178 0 
L 603 0 
L 603 3500 
z
M 603 4863 
L 1178 4863 
L 1178 4134 
L 603 4134 
L 603 4863 
z
" transform="scale(0.015625)"/>
      <path id="DejaVuSans-67" d="M 2906 1791 
Q 2906 2416 2648 2759 
Q 2391 3103 1925 3103 
Q 1463 3103 1205 2759 
Q 947 2416 947 1791 
Q 947 1169 1205 825 
Q 1463 481 1925 481 
Q 2391 481 2648 825 
Q 2906 1169 2906 1791 
z
M 3481 434 
Q 3481 -459 3084 -895 
Q 2688 -1331 1869 -1331 
Q 1566 -1331 1297 -1286 
Q 1028 -1241 775 -1147 
L 775 -588 
Q 1028 -725 1275 -790 
Q 1522 -856 1778 -856 
Q 2344 -856 2625 -561 
Q 2906 -266 2906 331 
L 2906 616 
Q 2728 306 2450 153 
Q 2172 0 1784 0 
Q 1141 0 747 490 
Q 353 981 353 1791 
Q 353 2603 747 3093 
Q 1141 3584 1784 3584 
Q 2172 3584 2450 3431 
Q 2728 3278 2906 2969 
L 2906 3500 
L 3481 3500 
L 3481 434 
z
" transform="scale(0.015625)"/>
      <path id="DejaVuSans-63" d="M 3122 3366 
L 3122 2828 
Q 2878 2963 2633 3030 
Q 2388 3097 2138 3097 
Q 1578 3097 1268 2742 
Q 959 2388 959 1747 
Q 959 1106 1268 751 
Q 1578 397 2138 397 
Q 2388 397 2633 464 
Q 2878 531 3122 666 
L 3122 134 
Q 2881 22 2623 -34 
Q 2366 -91 2075 -91 
Q 1284 -91 818 406 
Q 353 903 353 1747 
Q 353 2603 823 3093 
Q 1294 3584 2113 3584 
Q 2378 3584 2631 3529 
Q 2884 3475 3122 3366 
z
" transform="scale(0.015625)"/>
      <path id="DejaVuSans-72" d="M 2631 2963 
Q 2534 3019 2420 3045 
Q 2306 3072 2169 3072 
Q 1681 3072 1420 2755 
Q 1159 2438 1159 1844 
L 1159 0 
L 581 0 
L 581 3500 
L 1159 3500 
L 1159 2956 
Q 1341 3275 1631 3429 
Q 1922 3584 2338 3584 
Q 2397 3584 2469 3576 
Q 2541 3569 2628 3553 
L 2631 2963 
z
" transform="scale(0.015625)"/>
      <path id="DejaVuSans-76" d="M 191 3500 
L 800 3500 
L 1894 563 
L 2988 3500 
L 3597 3500 
L 2284 0 
L 1503 0 
L 191 3500 
z
" transform="scale(0.015625)"/>
      <path id="DejaVuSans-73" d="M 2834 3397 
L 2834 2853 
Q 2591 2978 2328 3040 
Q 2066 3103 1784 3103 
Q 1356 3103 1142 2972 
Q 928 2841 928 2578 
Q 928 2378 1081 2264 
Q 1234 2150 1697 2047 
L 1894 2003 
Q 2506 1872 2764 1633 
Q 3022 1394 3022 966 
Q 3022 478 2636 193 
Q 2250 -91 1575 -91 
Q 1294 -91 989 -36 
Q 684 19 347 128 
L 347 722 
Q 666 556 975 473 
Q 1284 391 1588 391 
Q 1994 391 2212 530 
Q 2431 669 2431 922 
Q 2431 1156 2273 1281 
Q 2116 1406 1581 1522 
L 1381 1569 
Q 847 1681 609 1914 
Q 372 2147 372 2553 
Q 372 3047 722 3315 
Q 1072 3584 1716 3584 
Q 2034 3584 2315 3537 
Q 2597 3491 2834 3397 
z
" transform="scale(0.015625)"/>
      <path id="DejaVuSans-3c" d="M 4684 3150 
L 1459 2003 
L 4684 863 
L 4684 294 
L 678 1747 
L 678 2266 
L 4684 3719 
L 4684 3150 
z
" transform="scale(0.015625)"/>
     </defs>
     <use xlink:href="#DejaVuSans-54" transform="translate(0 0.015625)"/>
     <use xlink:href="#DejaVuSans-75" transform="translate(61.083984 0.015625)"/>
     <use xlink:href="#DejaVuSans-6b" transform="translate(124.462891 0.015625)"/>
     <use xlink:href="#DejaVuSans-65" transform="translate(182.373047 0.015625)"/>
     <use xlink:href="#DejaVuSans-79" transform="translate(243.896484 0.015625)"/>
     <use xlink:href="#DejaVuSans-20" transform="translate(303.076172 0.015625)"/>
     <use xlink:href="#DejaVuSans-6c" transform="translate(334.863281 0.015625)"/>
     <use xlink:href="#DejaVuSans-61" transform="translate(362.646484 0.015625)"/>
     <use xlink:href="#DejaVuSans-6d" transform="translate(423.925781 0.015625)"/>
     <use xlink:href="#DejaVuSans-62" transform="translate(521.337891 0.015625)"/>
     <use xlink:href="#DejaVuSans-64" transform="translate(584.814453 0.015625)"/>
     <use xlink:href="#DejaVuSans-61" transform="translate(648.291016 0.015625)"/>
     <use xlink:href="#DejaVuSans-20" transform="translate(709.570312 0.015625)"/>
     <use xlink:href="#DejaVuSans-43" transform="translate(741.357422 0.015625)"/>
     <use xlink:href="#DejaVuSans-44" transform="translate(811.181641 0.015625)"/>
     <use xlink:href="#DejaVuSans-46" transform="translate(888.183594 0.015625)"/>
     <use xlink:href="#DejaVuSans-20" transform="translate(945.703125 0.015625)"/>
     <use xlink:href="#DejaVuSans-62" transform="translate(977.490234 0.015625)"/>
     <use xlink:href="#DejaVuSans-6f" transform="translate(1040.966797 0.015625)"/>
     <use xlink:href="#DejaVuSans-75" transform="translate(1102.148438 0.015625)"/>
     <use xlink:href="#DejaVuSans-6e" transform="translate(1165.527344 0.015625)"/>
     <use xlink:href="#DejaVuSans-64" transform="translate(1228.90625 0.015625)"/>
     <use xlink:href="#DejaVuSans-69" transform="translate(1292.382812 0.015625)"/>
     <use xlink:href="#DejaVuSans-6e" transform="translate(1320.166016 0.015625)"/>
     <use xlink:href="#DejaVuSans-67" transform="translate(1383.544922 0.015625)"/>
     <use xlink:href="#DejaVuSans-20" transform="translate(1447.021484 0.015625)"/>
     <use xlink:href="#DejaVuSans-63" transform="translate(1478.808594 0.015625)"/>
     <use xlink:href="#DejaVuSans-75" transform="translate(1533.789062 0.015625)"/>
     <use xlink:href="#DejaVuSans-72" transform="translate(1597.167969 0.015625)"/>
     <use xlink:href="#DejaVuSans-76" transform="translate(1638.28125 0.015625)"/>
     <use xlink:href="#DejaVuSans-65" transform="translate(1697.460938 0.015625)"/>
     <use xlink:href="#DejaVuSans-73" transform="translate(1758.984375 0.015625)"/>
     <use xlink:href="#DejaVuSans-2c" transform="translate(1811.083984 0.015625)"/>
     <use xlink:href="#DejaVuSans-20" transform="translate(1842.871094 0.015625)"/>
     <use xlink:href="#DejaVuSans-Oblique-3bb" transform="translate(1874.658203 0.015625)"/>
     <use xlink:href="#DejaVuSans-3c" transform="translate(1953.320312 0.015625)"/>
     <use xlink:href="#DejaVuSans-30" transform="translate(2056.591797 0.015625)"/>
    </g>
   </g>
  </g>
 </g>
 <defs>
  <clipPath id="p3881649f26">
   <rect x="57.6" y="41.472" width="357.12" height="266.112"/>
  </clipPath>
 </defs>
</svg>
