<?xml version="1.0" encoding="utf-8" standalone="no"?>
<!DOCTYPE svg PUBLIC "-//W3C//DTD SVG 1.1//EN"
  "http://www.w3.org/Graphics/SVG/1.1/DTD/svg11.dtd">
<svg xmlns:xlink="http://www.w3.org/1999/xlink" width="576pt" height="432pt" viewBox="0 0 576 432" xmlns="http://www.w3.org/2000/svg" version="1.1">
 <metadata>
  <rdf:RDF xmlns:dc="http://purl.org/dc/elements/1.1/" xmlns:cc="http://creativecommons.org/ns#" xmlns:rdf="http://www.w3.org/1999/02/22-rdf-syntax-ns#">
   <cc:Work>
    <dc:type rdf:resource="http://purl.org/dc/dcmitype/StillImage"/>
    <dc:date>2022-10-23T13:02:46.085361</dc:date>
    <dc:format>image/svg+xml</dc:format>
    <dc:creator>
     <cc:Agent>
      <dc:title>Matplotlib v3.6.1, https://matplotlib.org/</dc:title>
     </cc:Agent>
    </dc:creator>
   </cc:Work>
  </rdf:RDF>
 </metadata>
 <defs>
  <style type="text/css">*{stroke-linejoin: round; stroke-linecap: butt}</style>
 </defs>
 <g id="figure_1">
  <g id="patch_1">
   <path d="M 0 432 
L 576 432 
L 576 0 
L 0 0 
z
" style="fill: #ffffff"/>
  </g>
  <g id="axes_1">
   <g id="patch_2">
    <path d="M 72 384.48 
L 518.4 384.48 
L 518.4 51.84 
L 72 51.84 
z
" style="fill: #ffffff"/>
   </g>
   <g id="matplotlib.axis_1">
    <g id="xtick_1">
     <g id="line2d_1">
      <path d="M 92.290909 384.48 
L 92.290909 51.84 
" clip-path="url(#p708138160b)" style="fill: none; stroke: #b0b0b0; stroke-opacity: 0.25; stroke-width: 0.8; stroke-linecap: square"/>
     </g>
     <g id="line2d_2">
      <defs>
       <path id="m8cac2f2b4c" d="M 0 0 
L 0 3.5 
" style="stroke: #000000; stroke-width: 0.8"/>
      </defs>
      <g>
       <use xlink:href="#m8cac2f2b4c" x="92.290909" y="384.48" style="stroke: #000000; stroke-width: 0.8"/>
      </g>
     </g>
     <g id="text_1">
      <!-- $0^{\circ}$ -->
      <g transform="translate(86.690909 399.078438) scale(0.1 -0.1)">
       <defs>
        <path id="DejaVuSans-30" d="M 2034 4250 
Q 1547 4250 1301 3770 
Q 1056 3291 1056 2328 
Q 1056 1369 1301 889 
Q 1547 409 2034 409 
Q 2525 409 2770 889 
Q 3016 1369 3016 2328 
Q 3016 3291 2770 3770 
Q 2525 4250 2034 4250 
z
M 2034 4750 
Q 2819 4750 3233 4129 
Q 3647 3509 3647 2328 
Q 3647 1150 3233 529 
Q 2819 -91 2034 -91 
Q 1250 -91 836 529 
Q 422 1150 422 2328 
Q 422 3509 836 4129 
Q 1250 4750 2034 4750 
z
" transform="scale(0.015625)"/>
        <path id="DejaVuSans-2218" d="M 2000 2619 
Q 1750 2619 1578 2445 
Q 1406 2272 1406 2022 
Q 1406 1775 1578 1605 
Q 1750 1435 2000 1435 
Q 2250 1435 2422 1605 
Q 2594 1775 2594 2022 
Q 2594 2269 2420 2444 
Q 2247 2619 2000 2619 
z
M 2000 3022 
Q 2200 3022 2384 2945 
Q 2569 2869 2703 2725 
Q 2847 2585 2919 2406 
Q 2991 2228 2991 2022 
Q 2991 1610 2702 1324 
Q 2413 1038 1994 1038 
Q 1572 1038 1290 1319 
Q 1009 1600 1009 2022 
Q 1009 2441 1296 2731 
Q 1584 3022 2000 3022 
z
" transform="scale(0.015625)"/>
       </defs>
       <use xlink:href="#DejaVuSans-30" transform="translate(0 0.78125)"/>
       <use xlink:href="#DejaVuSans-2218" transform="translate(64.580078 39.0625) scale(0.7)"/>
      </g>
     </g>
    </g>
    <g id="xtick_2">
     <g id="line2d_3">
      <path d="M 137.381818 384.48 
L 137.381818 51.84 
" clip-path="url(#p708138160b)" style="fill: none; stroke: #b0b0b0; stroke-opacity: 0.25; stroke-width: 0.8; stroke-linecap: square"/>
     </g>
     <g id="line2d_4">
      <g>
       <use xlink:href="#m8cac2f2b4c" x="137.381818" y="384.48" style="stroke: #000000; stroke-width: 0.8"/>
      </g>
     </g>
     <g id="text_2">
      <!-- $10^{\circ}$ -->
      <g transform="translate(128.631818 399.078438) scale(0.1 -0.1)">
       <defs>
        <path id="DejaVuSans-31" d="M 794 531 
L 1825 531 
L 1825 4091 
L 703 3866 
L 703 4441 
L 1819 4666 
L 2450 4666 
L 2450 531 
L 3481 531 
L 3481 0 
L 794 0 
L 794 531 
z
" transform="scale(0.015625)"/>
       </defs>
       <use xlink:href="#DejaVuSans-31" transform="translate(0 0.78125)"/>
       <use xlink:href="#DejaVuSans-30" transform="translate(63.623047 0.78125)"/>
       <use xlink:href="#DejaVuSans-2218" transform="translate(128.203125 39.0625) scale(0.7)"/>
      </g>
     </g>
    </g>
    <g id="xtick_3">
     <g id="line2d_5">
      <path d="M 182.472727 384.48 
L 182.472727 51.84 
" clip-path="url(#p708138160b)" style="fill: none; stroke: #b0b0b0; stroke-opacity: 0.25; stroke-width: 0.8; stroke-linecap: square"/>
     </g>
     <g id="line2d_6">
      <g>
       <use xlink:href="#m8cac2f2b4c" x="182.472727" y="384.48" style="stroke: #000000; stroke-width: 0.8"/>
      </g>
     </g>
     <g id="text_3">
      <!-- $20^{\circ}$ -->
      <g transform="translate(173.722727 399.078438) scale(0.1 -0.1)">
       <defs>
        <path id="DejaVuSans-32" d="M 1228 531 
L 3431 531 
L 3431 0 
L 469 0 
L 469 531 
Q 828 903 1448 1529 
Q 2069 2156 2228 2338 
Q 2531 2678 2651 2914 
Q 2772 3150 2772 3378 
Q 2772 3750 2511 3984 
Q 2250 4219 1831 4219 
Q 1534 4219 1204 4116 
Q 875 4013 500 3803 
L 500 4441 
Q 881 4594 1212 4672 
Q 1544 4750 1819 4750 
Q 2544 4750 2975 4387 
Q 3406 4025 3406 3419 
Q 3406 3131 3298 2873 
Q 3191 2616 2906 2266 
Q 2828 2175 2409 1742 
Q 1991 1309 1228 531 
z
" transform="scale(0.015625)"/>
       </defs>
       <use xlink:href="#DejaVuSans-32" transform="translate(0 0.78125)"/>
       <use xlink:href="#DejaVuSans-30" transform="translate(63.623047 0.78125)"/>
       <use xlink:href="#DejaVuSans-2218" transform="translate(128.203125 39.0625) scale(0.7)"/>
      </g>
     </g>
    </g>
    <g id="xtick_4">
     <g id="line2d_7">
      <path d="M 227.563636 384.48 
L 227.563636 51.84 
" clip-path="url(#p708138160b)" style="fill: none; stroke: #b0b0b0; stroke-opacity: 0.25; stroke-width: 0.8; stroke-linecap: square"/>
     </g>
     <g id="line2d_8">
      <g>
       <use xlink:href="#m8cac2f2b4c" x="227.563636" y="384.48" style="stroke: #000000; stroke-width: 0.8"/>
      </g>
     </g>
     <g id="text_4">
      <!-- $30^{\circ}$ -->
      <g transform="translate(218.813636 399.078438) scale(0.1 -0.1)">
       <defs>
        <path id="DejaVuSans-33" d="M 2597 2516 
Q 3050 2419 3304 2112 
Q 3559 1806 3559 1356 
Q 3559 666 3084 287 
Q 2609 -91 1734 -91 
Q 1441 -91 1130 -33 
Q 819 25 488 141 
L 488 750 
Q 750 597 1062 519 
Q 1375 441 1716 441 
Q 2309 441 2620 675 
Q 2931 909 2931 1356 
Q 2931 1769 2642 2001 
Q 2353 2234 1838 2234 
L 1294 2234 
L 1294 2753 
L 1863 2753 
Q 2328 2753 2575 2939 
Q 2822 3125 2822 3475 
Q 2822 3834 2567 4026 
Q 2313 4219 1838 4219 
Q 1578 4219 1281 4162 
Q 984 4106 628 3988 
L 628 4550 
Q 988 4650 1302 4700 
Q 1616 4750 1894 4750 
Q 2613 4750 3031 4423 
Q 3450 4097 3450 3541 
Q 3450 3153 3228 2886 
Q 3006 2619 2597 2516 
z
" transform="scale(0.015625)"/>
       </defs>
       <use xlink:href="#DejaVuSans-33" transform="translate(0 0.78125)"/>
       <use xlink:href="#DejaVuSans-30" transform="translate(63.623047 0.78125)"/>
       <use xlink:href="#DejaVuSans-2218" transform="translate(128.203125 39.0625) scale(0.7)"/>
      </g>
     </g>
    </g>
    <g id="xtick_5">
     <g id="line2d_9">
      <path d="M 272.654545 384.48 
L 272.654545 51.84 
" clip-path="url(#p708138160b)" style="fill: none; stroke: #b0b0b0; stroke-opacity: 0.25; stroke-width: 0.8; stroke-linecap: square"/>
     </g>
     <g id="line2d_10">
      <g>
       <use xlink:href="#m8cac2f2b4c" x="272.654545" y="384.48" style="stroke: #000000; stroke-width: 0.8"/>
      </g>
     </g>
     <g id="text_5">
      <!-- $40^{\circ}$ -->
      <g transform="translate(263.904545 399.078438) scale(0.1 -0.1)">
       <defs>
        <path id="DejaVuSans-34" d="M 2419 4116 
L 825 1625 
L 2419 1625 
L 2419 4116 
z
M 2253 4666 
L 3047 4666 
L 3047 1625 
L 3713 1625 
L 3713 1100 
L 3047 1100 
L 3047 0 
L 2419 0 
L 2419 1100 
L 313 1100 
L 313 1709 
L 2253 4666 
z
" transform="scale(0.015625)"/>
       </defs>
       <use xlink:href="#DejaVuSans-34" transform="translate(0 0.78125)"/>
       <use xlink:href="#DejaVuSans-30" transform="translate(63.623047 0.78125)"/>
       <use xlink:href="#DejaVuSans-2218" transform="translate(128.203125 39.0625) scale(0.7)"/>
      </g>
     </g>
    </g>
    <g id="xtick_6">
     <g id="line2d_11">
      <path d="M 317.745455 384.48 
L 317.745455 51.84 
" clip-path="url(#p708138160b)" style="fill: none; stroke: #b0b0b0; stroke-opacity: 0.25; stroke-width: 0.8; stroke-linecap: square"/>
     </g>
     <g id="line2d_12">
      <g>
       <use xlink:href="#m8cac2f2b4c" x="317.745455" y="384.48" style="stroke: #000000; stroke-width: 0.8"/>
      </g>
     </g>
     <g id="text_6">
      <!-- $50^{\circ}$ -->
      <g transform="translate(308.995455 399.078438) scale(0.1 -0.1)">
       <defs>
        <path id="DejaVuSans-35" d="M 691 4666 
L 3169 4666 
L 3169 4134 
L 1269 4134 
L 1269 2991 
Q 1406 3038 1543 3061 
Q 1681 3084 1819 3084 
Q 2600 3084 3056 2656 
Q 3513 2228 3513 1497 
Q 3513 744 3044 326 
Q 2575 -91 1722 -91 
Q 1428 -91 1123 -41 
Q 819 9 494 109 
L 494 744 
Q 775 591 1075 516 
Q 1375 441 1709 441 
Q 2250 441 2565 725 
Q 2881 1009 2881 1497 
Q 2881 1984 2565 2268 
Q 2250 2553 1709 2553 
Q 1456 2553 1204 2497 
Q 953 2441 691 2322 
L 691 4666 
z
" transform="scale(0.015625)"/>
       </defs>
       <use xlink:href="#DejaVuSans-35" transform="translate(0 0.78125)"/>
       <use xlink:href="#DejaVuSans-30" transform="translate(63.623047 0.78125)"/>
       <use xlink:href="#DejaVuSans-2218" transform="translate(128.203125 39.0625) scale(0.7)"/>
      </g>
     </g>
    </g>
    <g id="xtick_7">
     <g id="line2d_13">
      <path d="M 362.836364 384.48 
L 362.836364 51.84 
" clip-path="url(#p708138160b)" style="fill: none; stroke: #b0b0b0; stroke-opacity: 0.25; stroke-width: 0.8; stroke-linecap: square"/>
     </g>
     <g id="line2d_14">
      <g>
       <use xlink:href="#m8cac2f2b4c" x="362.836364" y="384.48" style="stroke: #000000; stroke-width: 0.8"/>
      </g>
     </g>
     <g id="text_7">
      <!-- $60^{\circ}$ -->
      <g transform="translate(354.086364 399.078438) scale(0.1 -0.1)">
       <defs>
        <path id="DejaVuSans-36" d="M 2113 2584 
Q 1688 2584 1439 2293 
Q 1191 2003 1191 1497 
Q 1191 994 1439 701 
Q 1688 409 2113 409 
Q 2538 409 2786 701 
Q 3034 994 3034 1497 
Q 3034 2003 2786 2293 
Q 2538 2584 2113 2584 
z
M 3366 4563 
L 3366 3988 
Q 3128 4100 2886 4159 
Q 2644 4219 2406 4219 
Q 1781 4219 1451 3797 
Q 1122 3375 1075 2522 
Q 1259 2794 1537 2939 
Q 1816 3084 2150 3084 
Q 2853 3084 3261 2657 
Q 3669 2231 3669 1497 
Q 3669 778 3244 343 
Q 2819 -91 2113 -91 
Q 1303 -91 875 529 
Q 447 1150 447 2328 
Q 447 3434 972 4092 
Q 1497 4750 2381 4750 
Q 2619 4750 2861 4703 
Q 3103 4656 3366 4563 
z
" transform="scale(0.015625)"/>
       </defs>
       <use xlink:href="#DejaVuSans-36" transform="translate(0 0.78125)"/>
       <use xlink:href="#DejaVuSans-30" transform="translate(63.623047 0.78125)"/>
       <use xlink:href="#DejaVuSans-2218" transform="translate(128.203125 39.0625) scale(0.7)"/>
      </g>
     </g>
    </g>
    <g id="xtick_8">
     <g id="line2d_15">
      <path d="M 407.927273 384.48 
L 407.927273 51.84 
" clip-path="url(#p708138160b)" style="fill: none; stroke: #b0b0b0; stroke-opacity: 0.25; stroke-width: 0.8; stroke-linecap: square"/>
     </g>
     <g id="line2d_16">
      <g>
       <use xlink:href="#m8cac2f2b4c" x="407.927273" y="384.48" style="stroke: #000000; stroke-width: 0.8"/>
      </g>
     </g>
     <g id="text_8">
      <!-- $70^{\circ}$ -->
      <g transform="translate(399.177273 399.078438) scale(0.1 -0.1)">
       <defs>
        <path id="DejaVuSans-37" d="M 525 4666 
L 3525 4666 
L 3525 4397 
L 1831 0 
L 1172 0 
L 2766 4134 
L 525 4134 
L 525 4666 
z
" transform="scale(0.015625)"/>
       </defs>
       <use xlink:href="#DejaVuSans-37" transform="translate(0 0.78125)"/>
       <use xlink:href="#DejaVuSans-30" transform="translate(63.623047 0.78125)"/>
       <use xlink:href="#DejaVuSans-2218" transform="translate(128.203125 39.0625) scale(0.7)"/>
      </g>
     </g>
    </g>
    <g id="xtick_9">
     <g id="line2d_17">
      <path d="M 453.018182 384.48 
L 453.018182 51.84 
" clip-path="url(#p708138160b)" style="fill: none; stroke: #b0b0b0; stroke-opacity: 0.25; stroke-width: 0.8; stroke-linecap: square"/>
     </g>
     <g id="line2d_18">
      <g>
       <use xlink:href="#m8cac2f2b4c" x="453.018182" y="384.48" style="stroke: #000000; stroke-width: 0.8"/>
      </g>
     </g>
     <g id="text_9">
      <!-- $80^{\circ}$ -->
      <g transform="translate(444.268182 399.078438) scale(0.1 -0.1)">
       <defs>
        <path id="DejaVuSans-38" d="M 2034 2216 
Q 1584 2216 1326 1975 
Q 1069 1734 1069 1313 
Q 1069 891 1326 650 
Q 1584 409 2034 409 
Q 2484 409 2743 651 
Q 3003 894 3003 1313 
Q 3003 1734 2745 1975 
Q 2488 2216 2034 2216 
z
M 1403 2484 
Q 997 2584 770 2862 
Q 544 3141 544 3541 
Q 544 4100 942 4425 
Q 1341 4750 2034 4750 
Q 2731 4750 3128 4425 
Q 3525 4100 3525 3541 
Q 3525 3141 3298 2862 
Q 3072 2584 2669 2484 
Q 3125 2378 3379 2068 
Q 3634 1759 3634 1313 
Q 3634 634 3220 271 
Q 2806 -91 2034 -91 
Q 1263 -91 848 271 
Q 434 634 434 1313 
Q 434 1759 690 2068 
Q 947 2378 1403 2484 
z
M 1172 3481 
Q 1172 3119 1398 2916 
Q 1625 2713 2034 2713 
Q 2441 2713 2670 2916 
Q 2900 3119 2900 3481 
Q 2900 3844 2670 4047 
Q 2441 4250 2034 4250 
Q 1625 4250 1398 4047 
Q 1172 3844 1172 3481 
z
" transform="scale(0.015625)"/>
       </defs>
       <use xlink:href="#DejaVuSans-38" transform="translate(0 0.78125)"/>
       <use xlink:href="#DejaVuSans-30" transform="translate(63.623047 0.78125)"/>
       <use xlink:href="#DejaVuSans-2218" transform="translate(128.203125 39.0625) scale(0.7)"/>
      </g>
     </g>
    </g>
    <g id="xtick_10">
     <g id="line2d_19">
      <path d="M 498.109091 384.48 
L 498.109091 51.84 
" clip-path="url(#p708138160b)" style="fill: none; stroke: #b0b0b0; stroke-opacity: 0.25; stroke-width: 0.8; stroke-linecap: square"/>
     </g>
     <g id="line2d_20">
      <g>
       <use xlink:href="#m8cac2f2b4c" x="498.109091" y="384.48" style="stroke: #000000; stroke-width: 0.8"/>
      </g>
     </g>
     <g id="text_10">
      <!-- $90^{\circ}$ -->
      <g transform="translate(489.359091 399.078438) scale(0.1 -0.1)">
       <defs>
        <path id="DejaVuSans-39" d="M 703 97 
L 703 672 
Q 941 559 1184 500 
Q 1428 441 1663 441 
Q 2288 441 2617 861 
Q 2947 1281 2994 2138 
Q 2813 1869 2534 1725 
Q 2256 1581 1919 1581 
Q 1219 1581 811 2004 
Q 403 2428 403 3163 
Q 403 3881 828 4315 
Q 1253 4750 1959 4750 
Q 2769 4750 3195 4129 
Q 3622 3509 3622 2328 
Q 3622 1225 3098 567 
Q 2575 -91 1691 -91 
Q 1453 -91 1209 -44 
Q 966 3 703 97 
z
M 1959 2075 
Q 2384 2075 2632 2365 
Q 2881 2656 2881 3163 
Q 2881 3666 2632 3958 
Q 2384 4250 1959 4250 
Q 1534 4250 1286 3958 
Q 1038 3666 1038 3163 
Q 1038 2656 1286 2365 
Q 1534 2075 1959 2075 
z
" transform="scale(0.015625)"/>
       </defs>
       <use xlink:href="#DejaVuSans-39" transform="translate(0 0.78125)"/>
       <use xlink:href="#DejaVuSans-30" transform="translate(63.623047 0.78125)"/>
       <use xlink:href="#DejaVuSans-2218" transform="translate(128.203125 39.0625) scale(0.7)"/>
      </g>
     </g>
    </g>
   </g>
   <g id="matplotlib.axis_2">
    <g id="ytick_1">
     <g id="line2d_21">
      <path d="M 72 368.63745 
L 518.4 368.63745 
" clip-path="url(#p708138160b)" style="fill: none; stroke: #b0b0b0; stroke-opacity: 0.25; stroke-width: 0.8; stroke-linecap: square"/>
     </g>
     <g id="line2d_22">
      <defs>
       <path id="m10696f6846" d="M 0 0 
L -3.5 0 
" style="stroke: #000000; stroke-width: 0.8"/>
      </defs>
      <g>
       <use xlink:href="#m10696f6846" x="72" y="368.63745" style="stroke: #000000; stroke-width: 0.8"/>
      </g>
     </g>
     <g id="text_11">
      <!-- −1.0 -->
      <g transform="translate(40.717187 372.436669) scale(0.1 -0.1)">
       <defs>
        <path id="DejaVuSans-2212" d="M 678 2272 
L 4684 2272 
L 4684 1741 
L 678 1741 
L 678 2272 
z
" transform="scale(0.015625)"/>
        <path id="DejaVuSans-2e" d="M 684 794 
L 1344 794 
L 1344 0 
L 684 0 
L 684 794 
z
" transform="scale(0.015625)"/>
       </defs>
       <use xlink:href="#DejaVuSans-2212"/>
       <use xlink:href="#DejaVuSans-31" x="83.789062"/>
       <use xlink:href="#DejaVuSans-2e" x="147.412109"/>
       <use xlink:href="#DejaVuSans-30" x="179.199219"/>
      </g>
     </g>
    </g>
    <g id="ytick_2">
     <g id="line2d_23">
      <path d="M 72 296.3261 
L 518.4 296.3261 
" clip-path="url(#p708138160b)" style="fill: none; stroke: #b0b0b0; stroke-opacity: 0.25; stroke-width: 0.8; stroke-linecap: square"/>
     </g>
     <g id="line2d_24">
      <g>
       <use xlink:href="#m10696f6846" x="72" y="296.3261" style="stroke: #000000; stroke-width: 0.8"/>
      </g>
     </g>
     <g id="text_12">
      <!-- −0.5 -->
      <g transform="translate(40.717187 300.125318) scale(0.1 -0.1)">
       <use xlink:href="#DejaVuSans-2212"/>
       <use xlink:href="#DejaVuSans-30" x="83.789062"/>
       <use xlink:href="#DejaVuSans-2e" x="147.412109"/>
       <use xlink:href="#DejaVuSans-35" x="179.199219"/>
      </g>
     </g>
    </g>
    <g id="ytick_3">
     <g id="line2d_25">
      <path d="M 72 224.014749 
L 518.4 224.014749 
" clip-path="url(#p708138160b)" style="fill: none; stroke: #b0b0b0; stroke-opacity: 0.25; stroke-width: 0.8; stroke-linecap: square"/>
     </g>
     <g id="line2d_26">
      <g>
       <use xlink:href="#m10696f6846" x="72" y="224.014749" style="stroke: #000000; stroke-width: 0.8"/>
      </g>
     </g>
     <g id="text_13">
      <!-- 0.0 -->
      <g transform="translate(49.096875 227.813968) scale(0.1 -0.1)">
       <use xlink:href="#DejaVuSans-30"/>
       <use xlink:href="#DejaVuSans-2e" x="63.623047"/>
       <use xlink:href="#DejaVuSans-30" x="95.410156"/>
      </g>
     </g>
    </g>
    <g id="ytick_4">
     <g id="line2d_27">
      <path d="M 72 151.703398 
L 518.4 151.703398 
" clip-path="url(#p708138160b)" style="fill: none; stroke: #b0b0b0; stroke-opacity: 0.25; stroke-width: 0.8; stroke-linecap: square"/>
     </g>
     <g id="line2d_28">
      <g>
       <use xlink:href="#m10696f6846" x="72" y="151.703398" style="stroke: #000000; stroke-width: 0.8"/>
      </g>
     </g>
     <g id="text_14">
      <!-- 0.5 -->
      <g transform="translate(49.096875 155.502617) scale(0.1 -0.1)">
       <use xlink:href="#DejaVuSans-30"/>
       <use xlink:href="#DejaVuSans-2e" x="63.623047"/>
       <use xlink:href="#DejaVuSans-35" x="95.410156"/>
      </g>
     </g>
    </g>
    <g id="ytick_5">
     <g id="line2d_29">
      <path d="M 72 79.392048 
L 518.4 79.392048 
" clip-path="url(#p708138160b)" style="fill: none; stroke: #b0b0b0; stroke-opacity: 0.25; stroke-width: 0.8; stroke-linecap: square"/>
     </g>
     <g id="line2d_30">
      <g>
       <use xlink:href="#m10696f6846" x="72" y="79.392048" style="stroke: #000000; stroke-width: 0.8"/>
      </g>
     </g>
     <g id="text_15">
      <!-- 1.0 -->
      <g transform="translate(49.096875 83.191266) scale(0.1 -0.1)">
       <use xlink:href="#DejaVuSans-31"/>
       <use xlink:href="#DejaVuSans-2e" x="63.623047"/>
       <use xlink:href="#DejaVuSans-30" x="95.410156"/>
      </g>
     </g>
    </g>
   </g>
   <g id="line2d_31">
    <path d="M 92.290909 168.359909 
L 102.852744 168.245738 
L 113.414578 167.90338 
L 123.976413 167.333313 
L 134.538247 166.536372 
L 145.100082 165.513806 
L 155.661916 164.267357 
L 166.223751 162.799361 
L 176.785586 161.112859 
L 187.753645 159.134389 
L 198.721704 156.929945 
L 210.095987 154.412445 
L 221.47027 151.668524 
L 233.250778 148.599933 
L 245.43751 145.198601 
L 258.436691 141.338107 
L 272.248321 137.004295 
L 287.684848 131.925264 
L 306.371171 125.533232 
L 367.711057 104.346932 
L 381.522686 99.931185 
L 393.709419 96.263518 
L 404.677477 93.186355 
L 415.239312 90.455342 
L 424.988698 88.16095 
L 434.331859 86.185596 
L 443.268796 84.51608 
L 452.205733 83.074671 
L 460.736446 81.921891 
L 469.267158 80.995439 
L 477.391646 80.329661 
L 485.516134 79.879636 
L 493.640622 79.648343 
L 498.109091 79.614981 
L 498.109091 79.614981 
" clip-path="url(#p708138160b)" style="fill: none; stroke: #1f77b4; stroke-width: 1.5; stroke-linecap: square"/>
   </g>
   <g id="line2d_32">
    <path d="M 92.290909 100.131165 
L 122.351515 100.020552 
L 186.534971 99.688655 
L 203.190172 99.892682 
L 217.001802 100.274083 
L 229.594758 100.842731 
L 240.969042 101.578091 
L 251.530876 102.482013 
L 261.280262 103.53131 
L 270.623423 104.752293 
L 279.56036 106.136019 
L 288.497297 107.747847 
L 297.02801 109.513934 
L 305.152498 111.414721 
L 313.276986 113.539586 
L 321.401474 115.897945 
L 329.525962 118.498049 
L 337.244226 121.198399 
L 344.96249 124.12793 
L 352.680753 127.290087 
L 360.399017 130.686934 
L 368.117281 134.319069 
L 376.241769 138.395508 
L 384.366257 142.728602 
L 392.490745 147.313347 
L 401.021458 152.390433 
L 409.55217 157.726605 
L 418.489107 163.580538 
L 427.832269 169.969926 
L 437.581654 176.905501 
L 448.143489 184.693534 
L 459.923997 193.665444 
L 473.735627 204.481796 
L 492.015725 219.105278 
L 498.109091 224.014749 
L 498.109091 224.014749 
" clip-path="url(#p708138160b)" style="fill: none; stroke-dasharray: 4.6875,1.40625; stroke-dashoffset: 0; stroke: #ff7f0e; stroke-width: 1.5"/>
   </g>
   <g id="line2d_33">
    <path d="M 92.290909 66.96 
L 98.7905 67.077864 
L 105.29009 67.431528 
L 111.789681 68.021214 
L 118.289271 68.847278 
L 124.788862 69.910196 
L 131.288452 71.210549 
L 137.788043 72.748988 
L 144.287633 74.526208 
L 150.787224 76.542908 
L 157.286814 78.799748 
L 163.786405 81.297304 
L 170.285995 84.036012 
L 176.785586 87.016114 
L 183.285176 90.237598 
L 189.784767 93.700133 
L 196.284357 97.403007 
L 203.190172 101.599337 
L 210.095987 106.063616 
L 217.001802 110.793038 
L 223.907617 115.783937 
L 231.219656 121.348273 
L 238.531695 127.19381 
L 246.249959 133.660096 
L 253.968223 140.41906 
L 262.092711 147.835035 
L 270.623423 155.934515 
L 279.56036 164.736814 
L 288.903522 174.251467 
L 299.465356 185.339179 
L 311.245864 198.040395 
L 326.276167 214.590439 
L 360.805242 252.727793 
L 371.773301 264.443788 
L 381.116462 274.11339 
L 389.647174 282.623351 
L 397.365438 290.010259 
L 404.677477 296.694369 
L 411.583292 302.69399 
L 418.082883 308.036283 
L 424.176249 312.755423 
L 429.863391 316.890811 
L 435.550532 320.751792 
L 440.83145 324.079551 
L 446.112367 327.149073 
L 451.393284 329.950992 
L 456.267977 332.292397 
L 461.14267 334.392255 
L 466.017363 336.244994 
L 470.892056 337.845669 
L 475.360524 339.087848 
L 479.828993 340.111803 
L 484.297461 340.915214 
L 488.76593 341.496253 
L 493.234398 341.8536 
L 497.702867 341.986439 
L 498.109091 341.987368 
L 498.109091 341.987368 
" clip-path="url(#p708138160b)" style="fill: none; stroke-dasharray: 9.375,1.40625,2.8125,1.40625; stroke-dashoffset: 0; stroke: #2ca02c; stroke-width: 1.5"/>
   </g>
   <g id="line2d_34">
    <path d="M 92.290909 69.668266 
L 95.946929 69.777649 
L 99.602948 70.105669 
L 103.258968 70.651933 
L 106.914988 71.415791 
L 110.571007 72.396329 
L 114.227027 73.592373 
L 117.883047 75.002488 
L 121.945291 76.818278 
L 126.007535 78.893541 
L 130.069779 81.225164 
L 134.132023 83.809637 
L 138.194267 86.643042 
L 142.662735 90.042137 
L 147.131204 93.730889 
L 151.599672 97.70239 
L 156.474365 102.348578 
L 161.349058 107.311773 
L 166.223751 112.580587 
L 171.504668 118.61915 
L 176.785586 124.985375 
L 182.472727 132.187314 
L 188.566093 140.275509 
L 195.065684 149.292597 
L 201.971499 159.269977 
L 209.283538 170.223977 
L 217.814251 183.42574 
L 227.563636 198.937104 
L 241.781491 222.024684 
L 261.280262 253.646251 
L 271.029648 269.012178 
L 279.154136 281.399317 
L 286.059951 291.538893 
L 292.559541 300.68946 
L 298.652907 308.870953 
L 304.340049 316.119103 
L 309.620966 322.481914 
L 314.495659 328.016325 
L 319.370352 333.203651 
L 323.838821 337.636527 
L 328.307289 341.74594 
L 332.369533 345.189232 
L 336.431777 348.343596 
L 340.494021 351.199668 
L 344.150041 353.507875 
L 347.806061 355.561511 
L 351.46208 357.355164 
L 355.1181 358.88391 
L 358.367895 360.016825 
L 361.61769 360.934188 
L 364.867486 361.633589 
L 368.117281 362.11297 
L 371.367076 362.370627 
L 374.616871 362.405224 
L 377.866667 362.215799 
L 381.116462 361.801767 
L 384.366257 361.162931 
L 387.616052 360.299483 
L 390.865848 359.212009 
L 394.115643 357.901493 
L 397.365438 356.369322 
L 401.021458 354.382921 
L 404.677477 352.121412 
L 408.333497 349.588592 
L 411.989517 346.788897 
L 415.645536 343.727403 
L 419.707781 340.025655 
L 423.770025 336.016481 
L 427.832269 331.709536 
L 432.300737 326.640603 
L 436.769206 321.239455 
L 441.643898 314.987865 
L 446.518591 308.383692 
L 451.799509 300.859948 
L 457.48665 292.365397 
L 463.580016 282.861941 
L 470.485831 271.659205 
L 478.204095 258.698565 
L 487.953481 241.854906 
L 498.109091 224.014749 
L 498.109091 224.014749 
" clip-path="url(#p708138160b)" style="fill: none; stroke-dasharray: 11.25,1.40625,1.40625,1.40625; stroke-dashoffset: 0; stroke: #d62728; stroke-width: 1.5"/>
   </g>
   <g id="line2d_35">
    <path d="M 92.290909 74.310706 
L 95.13448 74.437947 
L 97.978051 74.819461 
L 100.821622 75.454626 
L 103.665192 76.342407 
L 106.508763 77.481353 
L 109.352334 78.869606 
L 112.195905 80.504896 
L 115.039476 82.384549 
L 117.883047 84.50549 
L 121.132842 87.220399 
L 124.382637 90.240089 
L 127.632432 93.55808 
L 131.288452 97.638481 
L 134.944472 102.076257 
L 138.600491 106.859287 
L 142.662735 112.562734 
L 146.72498 118.656902 
L 151.193448 125.786999 
L 155.661916 133.335333 
L 160.536609 142.010066 
L 165.817527 151.877414 
L 171.504668 162.985481 
L 178.004259 176.196883 
L 185.316298 191.576157 
L 195.065684 212.637036 
L 217.001802 260.209664 
L 224.313841 275.455265 
L 230.813432 288.494367 
L 236.500573 299.403363 
L 241.781491 309.039331 
L 246.656183 317.455451 
L 251.124652 324.724411 
L 255.186896 330.931891 
L 259.24914 336.731768 
L 262.90516 341.583468 
L 266.561179 346.069399 
L 269.810975 349.737434 
L 273.06077 353.094336 
L 276.310565 356.130787 
L 279.56036 358.838212 
L 282.403931 360.931148 
L 285.247502 362.761457 
L 288.091073 364.324891 
L 290.934644 365.617696 
L 293.778215 366.636625 
L 296.215561 367.289926 
L 298.652907 367.738585 
L 301.090254 367.981479 
L 303.5276 368.017777 
L 305.964947 367.846945 
L 308.402293 367.468746 
L 310.83964 366.883247 
L 313.276986 366.090817 
L 315.714333 365.092131 
L 318.557903 363.667639 
L 321.401474 361.965845 
L 324.245045 359.989408 
L 327.088616 357.741552 
L 329.932187 355.226073 
L 333.181982 352.029154 
L 336.431777 348.495796 
L 339.681572 344.634341 
L 343.337592 339.909605 
L 346.993612 334.795957 
L 350.649631 329.309396 
L 354.711876 322.797031 
L 358.77412 315.871529 
L 363.242588 307.809414 
L 368.117281 298.528906 
L 373.398198 287.96509 
L 379.08534 276.078103 
L 385.58493 261.966624 
L 393.709419 243.761279 
L 422.551351 178.587932 
L 429.050942 164.776397 
L 434.738084 153.231712 
L 439.612776 143.818134 
L 444.081245 135.634632 
L 448.549713 127.923168 
L 452.611957 121.357725 
L 456.267977 115.836554 
L 459.923997 110.703696 
L 463.580016 105.977964 
L 466.829812 102.133159 
L 470.079607 98.634934 
L 473.329402 95.493464 
L 476.172973 93.044543 
L 479.016544 90.881244 
L 481.860115 89.008397 
L 484.703686 87.430187 
L 487.141032 86.314632 
L 489.578378 85.419981 
L 492.015725 84.747702 
L 494.453071 84.298901 
L 496.890418 84.074316 
L 498.109091 84.046234 
L 498.109091 84.046234 
" clip-path="url(#p708138160b)" style="fill: none; stroke-dasharray: 11.25,1.40625; stroke-dashoffset: 0; stroke: #9467bd; stroke-width: 1.5"/>
   </g>
   <g id="line2d_36">
    <path d="M 92.290909 76.294089 
L 94.322031 76.399172 
L 96.353153 76.714272 
L 98.384275 77.238949 
L 100.415397 77.972467 
L 102.446519 78.913798 
L 104.883866 80.31583 
L 107.321212 82.012366 
L 109.758559 83.999981 
L 112.195905 86.27466 
L 114.633251 88.831804 
L 117.476822 92.165216 
L 120.320393 95.866858 
L 123.163964 99.926531 
L 126.413759 104.99016 
L 129.663554 110.488522 
L 132.91335 116.401779 
L 136.569369 123.523474 
L 140.225389 131.11061 
L 144.287633 140.044282 
L 148.756102 150.424845 
L 153.630794 162.328902 
L 159.317936 176.854513 
L 165.817527 194.096316 
L 175.160688 219.588114 
L 189.378542 258.376174 
L 195.878133 275.457895 
L 201.565274 289.782491 
L 206.439967 301.466285 
L 210.908436 311.603801 
L 214.97068 320.280568 
L 218.626699 327.605836 
L 222.282719 334.435407 
L 225.532514 340.062679 
L 228.78231 345.249504 
L 231.62588 349.4105 
L 234.469451 353.205845 
L 237.313022 356.623861 
L 239.750369 359.245189 
L 242.187715 361.575433 
L 244.625061 363.609156 
L 247.062408 365.341542 
L 249.499754 366.768411 
L 251.530876 367.721521 
L 253.561998 368.458305 
L 255.59312 368.977391 
L 257.624242 369.277727 
L 259.655364 369.358591 
L 261.686486 369.21959 
L 263.717609 368.860662 
L 265.748731 368.282077 
L 267.779853 367.484442 
L 269.810975 366.468694 
L 271.842097 365.236107 
L 274.279443 363.473062 
L 276.71679 361.403508 
L 279.154136 359.031538 
L 281.591482 356.361923 
L 284.435053 352.878485 
L 287.278624 349.00714 
L 290.122195 344.75888 
L 293.37199 339.457858 
L 296.621785 333.700465 
L 299.871581 327.508591 
L 303.5276 320.052974 
L 307.18362 312.113881 
L 311.245864 302.773114 
L 315.714333 291.9326 
L 320.589025 279.522779 
L 326.276167 264.418559 
L 333.181982 245.425708 
L 358.367895 175.49981 
L 363.648812 161.785363 
L 368.523505 149.722821 
L 372.991974 139.268731 
L 377.054218 130.337945 
L 380.710238 122.817278 
L 384.366257 115.828367 
L 387.616052 110.092939 
L 390.865848 104.832021 
L 393.709419 100.635794 
L 396.552989 96.834094 
L 399.39656 93.439563 
L 401.833907 90.862679 
L 404.271253 88.599678 
L 406.7086 86.656198 
L 409.145946 85.037129 
L 411.177068 83.938716 
L 413.20819 83.07044 
L 415.239312 82.433897 
L 417.270434 82.030299 
L 419.301556 81.860474 
L 421.332678 81.924861 
L 423.3638 82.22351 
L 425.394922 82.756082 
L 427.426044 83.521847 
L 429.457166 84.519683 
L 431.488288 85.748082 
L 433.51941 87.205148 
L 435.956757 89.25223 
L 438.394103 91.620623 
L 440.83145 94.304883 
L 443.268796 97.298796 
L 446.112367 101.173724 
L 448.955938 105.448274 
L 451.799509 110.108782 
L 455.049304 115.888441 
L 458.299099 122.128344 
L 461.955119 129.665543 
L 465.611138 137.711577 
L 469.673382 147.195843 
L 474.141851 158.21734 
L 479.016544 170.843009 
L 484.703686 186.209601 
L 492.015725 206.664017 
L 498.109091 224.014749 
L 498.109091 224.014749 
" clip-path="url(#p708138160b)" style="fill: none; stroke-dasharray: 11.25,1.40625,1.40625,1.40625,1.40625,1.40625; stroke-dashoffset: 0; stroke: #8c564b; stroke-width: 1.5"/>
   </g>
   <g id="patch_3">
    <path d="M 72 384.48 
L 72 51.84 
" style="fill: none; stroke: #000000; stroke-width: 0.8; stroke-linejoin: miter; stroke-linecap: square"/>
   </g>
   <g id="patch_4">
    <path d="M 518.4 384.48 
L 518.4 51.84 
" style="fill: none; stroke: #000000; stroke-width: 0.8; stroke-linejoin: miter; stroke-linecap: square"/>
   </g>
   <g id="patch_5">
    <path d="M 72 384.48 
L 518.4 384.48 
" style="fill: none; stroke: #000000; stroke-width: 0.8; stroke-linejoin: miter; stroke-linecap: square"/>
   </g>
   <g id="patch_6">
    <path d="M 72 51.84 
L 518.4 51.84 
" style="fill: none; stroke: #000000; stroke-width: 0.8; stroke-linejoin: miter; stroke-linecap: square"/>
   </g>
   <g id="text_16">
    <!-- Even Periodic Mathieu Functions -->
    <g transform="translate(198.1575 32.402625) scale(0.12 -0.12)">
     <defs>
      <path id="DejaVuSans-45" d="M 628 4666 
L 3578 4666 
L 3578 4134 
L 1259 4134 
L 1259 2753 
L 3481 2753 
L 3481 2222 
L 1259 2222 
L 1259 531 
L 3634 531 
L 3634 0 
L 628 0 
L 628 4666 
z
" transform="scale(0.015625)"/>
      <path id="DejaVuSans-76" d="M 191 3500 
L 800 3500 
L 1894 563 
L 2988 3500 
L 3597 3500 
L 2284 0 
L 1503 0 
L 191 3500 
z
" transform="scale(0.015625)"/>
      <path id="DejaVuSans-65" d="M 3597 1894 
L 3597 1613 
L 953 1613 
Q 991 1019 1311 708 
Q 1631 397 2203 397 
Q 2534 397 2845 478 
Q 3156 559 3463 722 
L 3463 178 
Q 3153 47 2828 -22 
Q 2503 -91 2169 -91 
Q 1331 -91 842 396 
Q 353 884 353 1716 
Q 353 2575 817 3079 
Q 1281 3584 2069 3584 
Q 2775 3584 3186 3129 
Q 3597 2675 3597 1894 
z
M 3022 2063 
Q 3016 2534 2758 2815 
Q 2500 3097 2075 3097 
Q 1594 3097 1305 2825 
Q 1016 2553 972 2059 
L 3022 2063 
z
" transform="scale(0.015625)"/>
      <path id="DejaVuSans-6e" d="M 3513 2113 
L 3513 0 
L 2938 0 
L 2938 2094 
Q 2938 2591 2744 2837 
Q 2550 3084 2163 3084 
Q 1697 3084 1428 2787 
Q 1159 2491 1159 1978 
L 1159 0 
L 581 0 
L 581 3500 
L 1159 3500 
L 1159 2956 
Q 1366 3272 1645 3428 
Q 1925 3584 2291 3584 
Q 2894 3584 3203 3211 
Q 3513 2838 3513 2113 
z
" transform="scale(0.015625)"/>
      <path id="DejaVuSans-20" transform="scale(0.015625)"/>
      <path id="DejaVuSans-50" d="M 1259 4147 
L 1259 2394 
L 2053 2394 
Q 2494 2394 2734 2622 
Q 2975 2850 2975 3272 
Q 2975 3691 2734 3919 
Q 2494 4147 2053 4147 
L 1259 4147 
z
M 628 4666 
L 2053 4666 
Q 2838 4666 3239 4311 
Q 3641 3956 3641 3272 
Q 3641 2581 3239 2228 
Q 2838 1875 2053 1875 
L 1259 1875 
L 1259 0 
L 628 0 
L 628 4666 
z
" transform="scale(0.015625)"/>
      <path id="DejaVuSans-72" d="M 2631 2963 
Q 2534 3019 2420 3045 
Q 2306 3072 2169 3072 
Q 1681 3072 1420 2755 
Q 1159 2438 1159 1844 
L 1159 0 
L 581 0 
L 581 3500 
L 1159 3500 
L 1159 2956 
Q 1341 3275 1631 3429 
Q 1922 3584 2338 3584 
Q 2397 3584 2469 3576 
Q 2541 3569 2628 3553 
L 2631 2963 
z
" transform="scale(0.015625)"/>
      <path id="DejaVuSans-69" d="M 603 3500 
L 1178 3500 
L 1178 0 
L 603 0 
L 603 3500 
z
M 603 4863 
L 1178 4863 
L 1178 4134 
L 603 4134 
L 603 4863 
z
" transform="scale(0.015625)"/>
      <path id="DejaVuSans-6f" d="M 1959 3097 
Q 1497 3097 1228 2736 
Q 959 2375 959 1747 
Q 959 1119 1226 758 
Q 1494 397 1959 397 
Q 2419 397 2687 759 
Q 2956 1122 2956 1747 
Q 2956 2369 2687 2733 
Q 2419 3097 1959 3097 
z
M 1959 3584 
Q 2709 3584 3137 3096 
Q 3566 2609 3566 1747 
Q 3566 888 3137 398 
Q 2709 -91 1959 -91 
Q 1206 -91 779 398 
Q 353 888 353 1747 
Q 353 2609 779 3096 
Q 1206 3584 1959 3584 
z
" transform="scale(0.015625)"/>
      <path id="DejaVuSans-64" d="M 2906 2969 
L 2906 4863 
L 3481 4863 
L 3481 0 
L 2906 0 
L 2906 525 
Q 2725 213 2448 61 
Q 2172 -91 1784 -91 
Q 1150 -91 751 415 
Q 353 922 353 1747 
Q 353 2572 751 3078 
Q 1150 3584 1784 3584 
Q 2172 3584 2448 3432 
Q 2725 3281 2906 2969 
z
M 947 1747 
Q 947 1113 1208 752 
Q 1469 391 1925 391 
Q 2381 391 2643 752 
Q 2906 1113 2906 1747 
Q 2906 2381 2643 2742 
Q 2381 3103 1925 3103 
Q 1469 3103 1208 2742 
Q 947 2381 947 1747 
z
" transform="scale(0.015625)"/>
      <path id="DejaVuSans-63" d="M 3122 3366 
L 3122 2828 
Q 2878 2963 2633 3030 
Q 2388 3097 2138 3097 
Q 1578 3097 1268 2742 
Q 959 2388 959 1747 
Q 959 1106 1268 751 
Q 1578 397 2138 397 
Q 2388 397 2633 464 
Q 2878 531 3122 666 
L 3122 134 
Q 2881 22 2623 -34 
Q 2366 -91 2075 -91 
Q 1284 -91 818 406 
Q 353 903 353 1747 
Q 353 2603 823 3093 
Q 1294 3584 2113 3584 
Q 2378 3584 2631 3529 
Q 2884 3475 3122 3366 
z
" transform="scale(0.015625)"/>
      <path id="DejaVuSans-4d" d="M 628 4666 
L 1569 4666 
L 2759 1491 
L 3956 4666 
L 4897 4666 
L 4897 0 
L 4281 0 
L 4281 4097 
L 3078 897 
L 2444 897 
L 1241 4097 
L 1241 0 
L 628 0 
L 628 4666 
z
" transform="scale(0.015625)"/>
      <path id="DejaVuSans-61" d="M 2194 1759 
Q 1497 1759 1228 1600 
Q 959 1441 959 1056 
Q 959 750 1161 570 
Q 1363 391 1709 391 
Q 2188 391 2477 730 
Q 2766 1069 2766 1631 
L 2766 1759 
L 2194 1759 
z
M 3341 1997 
L 3341 0 
L 2766 0 
L 2766 531 
Q 2569 213 2275 61 
Q 1981 -91 1556 -91 
Q 1019 -91 701 211 
Q 384 513 384 1019 
Q 384 1609 779 1909 
Q 1175 2209 1959 2209 
L 2766 2209 
L 2766 2266 
Q 2766 2663 2505 2880 
Q 2244 3097 1772 3097 
Q 1472 3097 1187 3025 
Q 903 2953 641 2809 
L 641 3341 
Q 956 3463 1253 3523 
Q 1550 3584 1831 3584 
Q 2591 3584 2966 3190 
Q 3341 2797 3341 1997 
z
" transform="scale(0.015625)"/>
      <path id="DejaVuSans-74" d="M 1172 4494 
L 1172 3500 
L 2356 3500 
L 2356 3053 
L 1172 3053 
L 1172 1153 
Q 1172 725 1289 603 
Q 1406 481 1766 481 
L 2356 481 
L 2356 0 
L 1766 0 
Q 1100 0 847 248 
Q 594 497 594 1153 
L 594 3053 
L 172 3053 
L 172 3500 
L 594 3500 
L 594 4494 
L 1172 4494 
z
" transform="scale(0.015625)"/>
      <path id="DejaVuSans-68" d="M 3513 2113 
L 3513 0 
L 2938 0 
L 2938 2094 
Q 2938 2591 2744 2837 
Q 2550 3084 2163 3084 
Q 1697 3084 1428 2787 
Q 1159 2491 1159 1978 
L 1159 0 
L 581 0 
L 581 4863 
L 1159 4863 
L 1159 2956 
Q 1366 3272 1645 3428 
Q 1925 3584 2291 3584 
Q 2894 3584 3203 3211 
Q 3513 2838 3513 2113 
z
" transform="scale(0.015625)"/>
      <path id="DejaVuSans-75" d="M 544 1381 
L 544 3500 
L 1119 3500 
L 1119 1403 
Q 1119 906 1312 657 
Q 1506 409 1894 409 
Q 2359 409 2629 706 
Q 2900 1003 2900 1516 
L 2900 3500 
L 3475 3500 
L 3475 0 
L 2900 0 
L 2900 538 
Q 2691 219 2414 64 
Q 2138 -91 1772 -91 
Q 1169 -91 856 284 
Q 544 659 544 1381 
z
M 1991 3584 
L 1991 3584 
z
" transform="scale(0.015625)"/>
      <path id="DejaVuSans-46" d="M 628 4666 
L 3309 4666 
L 3309 4134 
L 1259 4134 
L 1259 2759 
L 3109 2759 
L 3109 2228 
L 1259 2228 
L 1259 0 
L 628 0 
L 628 4666 
z
" transform="scale(0.015625)"/>
      <path id="DejaVuSans-73" d="M 2834 3397 
L 2834 2853 
Q 2591 2978 2328 3040 
Q 2066 3103 1784 3103 
Q 1356 3103 1142 2972 
Q 928 2841 928 2578 
Q 928 2378 1081 2264 
Q 1234 2150 1697 2047 
L 1894 2003 
Q 2506 1872 2764 1633 
Q 3022 1394 3022 966 
Q 3022 478 2636 193 
Q 2250 -91 1575 -91 
Q 1294 -91 989 -36 
Q 684 19 347 128 
L 347 722 
Q 666 556 975 473 
Q 1284 391 1588 391 
Q 1994 391 2212 530 
Q 2431 669 2431 922 
Q 2431 1156 2273 1281 
Q 2116 1406 1581 1522 
L 1381 1569 
Q 847 1681 609 1914 
Q 372 2147 372 2553 
Q 372 3047 722 3315 
Q 1072 3584 1716 3584 
Q 2034 3584 2315 3537 
Q 2597 3491 2834 3397 
z
" transform="scale(0.015625)"/>
     </defs>
     <use xlink:href="#DejaVuSans-45"/>
     <use xlink:href="#DejaVuSans-76" x="63.183594"/>
     <use xlink:href="#DejaVuSans-65" x="122.363281"/>
     <use xlink:href="#DejaVuSans-6e" x="183.886719"/>
     <use xlink:href="#DejaVuSans-20" x="247.265625"/>
     <use xlink:href="#DejaVuSans-50" x="279.052734"/>
     <use xlink:href="#DejaVuSans-65" x="335.730469"/>
     <use xlink:href="#DejaVuSans-72" x="397.253906"/>
     <use xlink:href="#DejaVuSans-69" x="438.367188"/>
     <use xlink:href="#DejaVuSans-6f" x="466.150391"/>
     <use xlink:href="#DejaVuSans-64" x="527.332031"/>
     <use xlink:href="#DejaVuSans-69" x="590.808594"/>
     <use xlink:href="#DejaVuSans-63" x="618.591797"/>
     <use xlink:href="#DejaVuSans-20" x="673.572266"/>
     <use xlink:href="#DejaVuSans-4d" x="705.359375"/>
     <use xlink:href="#DejaVuSans-61" x="791.638672"/>
     <use xlink:href="#DejaVuSans-74" x="852.917969"/>
     <use xlink:href="#DejaVuSans-68" x="892.126953"/>
     <use xlink:href="#DejaVuSans-69" x="955.505859"/>
     <use xlink:href="#DejaVuSans-65" x="983.289062"/>
     <use xlink:href="#DejaVuSans-75" x="1044.8125"/>
     <use xlink:href="#DejaVuSans-20" x="1108.191406"/>
     <use xlink:href="#DejaVuSans-46" x="1139.978516"/>
     <use xlink:href="#DejaVuSans-75" x="1191.998047"/>
     <use xlink:href="#DejaVuSans-6e" x="1255.376953"/>
     <use xlink:href="#DejaVuSans-63" x="1318.755859"/>
     <use xlink:href="#DejaVuSans-74" x="1373.736328"/>
     <use xlink:href="#DejaVuSans-69" x="1412.945312"/>
     <use xlink:href="#DejaVuSans-6f" x="1440.728516"/>
     <use xlink:href="#DejaVuSans-6e" x="1501.910156"/>
     <use xlink:href="#DejaVuSans-73" x="1565.289062"/>
    </g>
    <!-- Orders 0 - 5, q = 1 -->
    <g transform="translate(239.22 45.84) scale(0.12 -0.12)">
     <defs>
      <path id="DejaVuSans-4f" d="M 2522 4238 
Q 1834 4238 1429 3725 
Q 1025 3213 1025 2328 
Q 1025 1447 1429 934 
Q 1834 422 2522 422 
Q 3209 422 3611 934 
Q 4013 1447 4013 2328 
Q 4013 3213 3611 3725 
Q 3209 4238 2522 4238 
z
M 2522 4750 
Q 3503 4750 4090 4092 
Q 4678 3434 4678 2328 
Q 4678 1225 4090 567 
Q 3503 -91 2522 -91 
Q 1538 -91 948 565 
Q 359 1222 359 2328 
Q 359 3434 948 4092 
Q 1538 4750 2522 4750 
z
" transform="scale(0.015625)"/>
      <path id="DejaVuSans-2d" d="M 313 2009 
L 1997 2009 
L 1997 1497 
L 313 1497 
L 313 2009 
z
" transform="scale(0.015625)"/>
      <path id="DejaVuSans-2c" d="M 750 794 
L 1409 794 
L 1409 256 
L 897 -744 
L 494 -744 
L 750 256 
L 750 794 
z
" transform="scale(0.015625)"/>
      <path id="DejaVuSans-71" d="M 947 1747 
Q 947 1113 1208 752 
Q 1469 391 1925 391 
Q 2381 391 2643 752 
Q 2906 1113 2906 1747 
Q 2906 2381 2643 2742 
Q 2381 3103 1925 3103 
Q 1469 3103 1208 2742 
Q 947 2381 947 1747 
z
M 2906 525 
Q 2725 213 2448 61 
Q 2172 -91 1784 -91 
Q 1150 -91 751 415 
Q 353 922 353 1747 
Q 353 2572 751 3078 
Q 1150 3584 1784 3584 
Q 2172 3584 2448 3432 
Q 2725 3281 2906 2969 
L 2906 3500 
L 3481 3500 
L 3481 -1331 
L 2906 -1331 
L 2906 525 
z
" transform="scale(0.015625)"/>
      <path id="DejaVuSans-3d" d="M 678 2906 
L 4684 2906 
L 4684 2381 
L 678 2381 
L 678 2906 
z
M 678 1631 
L 4684 1631 
L 4684 1100 
L 678 1100 
L 678 1631 
z
" transform="scale(0.015625)"/>
     </defs>
     <use xlink:href="#DejaVuSans-4f"/>
     <use xlink:href="#DejaVuSans-72" x="78.710938"/>
     <use xlink:href="#DejaVuSans-64" x="118.074219"/>
     <use xlink:href="#DejaVuSans-65" x="181.550781"/>
     <use xlink:href="#DejaVuSans-72" x="243.074219"/>
     <use xlink:href="#DejaVuSans-73" x="284.1875"/>
     <use xlink:href="#DejaVuSans-20" x="336.287109"/>
     <use xlink:href="#DejaVuSans-30" x="368.074219"/>
     <use xlink:href="#DejaVuSans-20" x="431.697266"/>
     <use xlink:href="#DejaVuSans-2d" x="463.484375"/>
     <use xlink:href="#DejaVuSans-20" x="499.568359"/>
     <use xlink:href="#DejaVuSans-35" x="531.355469"/>
     <use xlink:href="#DejaVuSans-2c" x="594.978516"/>
     <use xlink:href="#DejaVuSans-20" x="626.765625"/>
     <use xlink:href="#DejaVuSans-71" x="658.552734"/>
     <use xlink:href="#DejaVuSans-20" x="722.029297"/>
     <use xlink:href="#DejaVuSans-3d" x="753.816406"/>
     <use xlink:href="#DejaVuSans-20" x="837.605469"/>
     <use xlink:href="#DejaVuSans-31" x="869.392578"/>
    </g>
   </g>
   <g id="legend_1">
    <g id="patch_7">
     <path d="M 81 381.48 
L 129.5 381.48 
Q 131.5 381.48 131.5 379.48 
L 131.5 292.41125 
Q 131.5 290.41125 129.5 290.41125 
L 81 290.41125 
Q 79 290.41125 79 292.41125 
L 79 379.48 
Q 79 381.48 81 381.48 
z
" style="fill: #4c4c4c; opacity: 0.5; stroke: #4c4c4c; stroke-linejoin: miter"/>
    </g>
    <g id="patch_8">
     <path d="M 79 379.48 
L 127.5 379.48 
Q 129.5 379.48 129.5 377.48 
L 129.5 290.41125 
Q 129.5 288.41125 127.5 288.41125 
L 79 288.41125 
Q 77 288.41125 77 290.41125 
L 77 377.48 
Q 77 379.48 79 379.48 
z
" style="fill: #ffffff; stroke: #cccccc; stroke-linejoin: miter"/>
    </g>
    <g id="line2d_37">
     <path d="M 81 296.509688 
L 91 296.509688 
L 101 296.509688 
" style="fill: none; stroke: #1f77b4; stroke-width: 1.5; stroke-linecap: square"/>
    </g>
    <g id="text_17">
     <!-- ce$_0$ -->
     <g transform="translate(109 300.009688) scale(0.1 -0.1)">
      <use xlink:href="#DejaVuSans-63"/>
      <use xlink:href="#DejaVuSans-65" transform="translate(54.980469 0)"/>
      <use xlink:href="#DejaVuSans-30" transform="translate(117.460938 -16.40625) scale(0.7)"/>
     </g>
    </g>
    <g id="line2d_38">
     <path d="M 81 311.187813 
L 91 311.187813 
L 101 311.187813 
" style="fill: none; stroke-dasharray: 4.6875,1.40625; stroke-dashoffset: 0; stroke: #ff7f0e; stroke-width: 1.5"/>
    </g>
    <g id="text_18">
     <!-- ce$_1$ -->
     <g transform="translate(109 314.687813) scale(0.1 -0.1)">
      <use xlink:href="#DejaVuSans-63"/>
      <use xlink:href="#DejaVuSans-65" transform="translate(54.980469 0)"/>
      <use xlink:href="#DejaVuSans-31" transform="translate(117.460938 -16.40625) scale(0.7)"/>
     </g>
    </g>
    <g id="line2d_39">
     <path d="M 81 325.865938 
L 91 325.865938 
L 101 325.865938 
" style="fill: none; stroke-dasharray: 9.375,1.40625,2.8125,1.40625; stroke-dashoffset: 0; stroke: #2ca02c; stroke-width: 1.5"/>
    </g>
    <g id="text_19">
     <!-- ce$_2$ -->
     <g transform="translate(109 329.365938) scale(0.1 -0.1)">
      <use xlink:href="#DejaVuSans-63"/>
      <use xlink:href="#DejaVuSans-65" transform="translate(54.980469 0)"/>
      <use xlink:href="#DejaVuSans-32" transform="translate(117.460938 -16.40625) scale(0.7)"/>
     </g>
    </g>
    <g id="line2d_40">
     <path d="M 81 340.544062 
L 91 340.544062 
L 101 340.544062 
" style="fill: none; stroke-dasharray: 11.25,1.40625,1.40625,1.40625; stroke-dashoffset: 0; stroke: #d62728; stroke-width: 1.5"/>
    </g>
    <g id="text_20">
     <!-- ce$_3$ -->
     <g transform="translate(109 344.044062) scale(0.1 -0.1)">
      <use xlink:href="#DejaVuSans-63"/>
      <use xlink:href="#DejaVuSans-65" transform="translate(54.980469 0)"/>
      <use xlink:href="#DejaVuSans-33" transform="translate(117.460938 -16.40625) scale(0.7)"/>
     </g>
    </g>
    <g id="line2d_41">
     <path d="M 81 355.222188 
L 91 355.222188 
L 101 355.222188 
" style="fill: none; stroke-dasharray: 11.25,1.40625; stroke-dashoffset: 0; stroke: #9467bd; stroke-width: 1.5"/>
    </g>
    <g id="text_21">
     <!-- ce$_4$ -->
     <g transform="translate(109 358.722188) scale(0.1 -0.1)">
      <use xlink:href="#DejaVuSans-63"/>
      <use xlink:href="#DejaVuSans-65" transform="translate(54.980469 0)"/>
      <use xlink:href="#DejaVuSans-34" transform="translate(117.460938 -16.40625) scale(0.7)"/>
     </g>
    </g>
    <g id="line2d_42">
     <path d="M 81 369.900313 
L 91 369.900313 
L 101 369.900313 
" style="fill: none; stroke-dasharray: 11.25,1.40625,1.40625,1.40625,1.40625,1.40625; stroke-dashoffset: 0; stroke: #8c564b; stroke-width: 1.5"/>
    </g>
    <g id="text_22">
     <!-- ce$_5$ -->
     <g transform="translate(109 373.400313) scale(0.1 -0.1)">
      <use xlink:href="#DejaVuSans-63"/>
      <use xlink:href="#DejaVuSans-65" transform="translate(54.980469 0)"/>
      <use xlink:href="#DejaVuSans-35" transform="translate(117.460938 -16.40625) scale(0.7)"/>
     </g>
    </g>
   </g>
  </g>
 </g>
 <defs>
  <clipPath id="p708138160b">
   <rect x="72" y="51.84" width="446.4" height="332.64"/>
  </clipPath>
 </defs>
</svg>
