<?xml version="1.0" encoding="utf-8" standalone="no"?>
<!DOCTYPE svg PUBLIC "-//W3C//DTD SVG 1.1//EN"
  "http://www.w3.org/Graphics/SVG/1.1/DTD/svg11.dtd">
<svg xmlns:xlink="http://www.w3.org/1999/xlink" width="576pt" height="432pt" viewBox="0 0 576 432" xmlns="http://www.w3.org/2000/svg" version="1.1">
 <metadata>
  <rdf:RDF xmlns:dc="http://purl.org/dc/elements/1.1/" xmlns:cc="http://creativecommons.org/ns#" xmlns:rdf="http://www.w3.org/1999/02/22-rdf-syntax-ns#">
   <cc:Work>
    <dc:type rdf:resource="http://purl.org/dc/dcmitype/StillImage"/>
    <dc:date>2022-10-23T13:05:28.115017</dc:date>
    <dc:format>image/svg+xml</dc:format>
    <dc:creator>
     <cc:Agent>
      <dc:title>Matplotlib v3.6.1, https://matplotlib.org/</dc:title>
     </cc:Agent>
    </dc:creator>
   </cc:Work>
  </rdf:RDF>
 </metadata>
 <defs>
  <style type="text/css">*{stroke-linejoin: round; stroke-linecap: butt}</style>
 </defs>
 <g id="figure_1">
  <g id="patch_1">
   <path d="M 0 432 
L 576 432 
L 576 0 
L 0 0 
z
" style="fill: #ffffff"/>
  </g>
  <g id="axes_1">
   <g id="patch_2">
    <path d="M 72 384.48 
L 518.4 384.48 
L 518.4 51.84 
L 72 51.84 
z
" style="fill: #ffffff"/>
   </g>
   <g id="matplotlib.axis_1">
    <g id="xtick_1">
     <g id="line2d_1">
      <path d="M 92.290909 384.48 
L 92.290909 51.84 
" clip-path="url(#p918da519cb)" style="fill: none; stroke: #b0b0b0; stroke-opacity: 0.25; stroke-width: 0.8; stroke-linecap: square"/>
     </g>
     <g id="line2d_2">
      <defs>
       <path id="m6769a522a4" d="M 0 0 
L 0 3.5 
" style="stroke: #000000; stroke-width: 0.8"/>
      </defs>
      <g>
       <use xlink:href="#m6769a522a4" x="92.290909" y="384.48" style="stroke: #000000; stroke-width: 0.8"/>
      </g>
     </g>
     <g id="text_1">
      <!-- $0^{\circ}$ -->
      <g transform="translate(86.690909 399.078438) scale(0.1 -0.1)">
       <defs>
        <path id="DejaVuSans-30" d="M 2034 4250 
Q 1547 4250 1301 3770 
Q 1056 3291 1056 2328 
Q 1056 1369 1301 889 
Q 1547 409 2034 409 
Q 2525 409 2770 889 
Q 3016 1369 3016 2328 
Q 3016 3291 2770 3770 
Q 2525 4250 2034 4250 
z
M 2034 4750 
Q 2819 4750 3233 4129 
Q 3647 3509 3647 2328 
Q 3647 1150 3233 529 
Q 2819 -91 2034 -91 
Q 1250 -91 836 529 
Q 422 1150 422 2328 
Q 422 3509 836 4129 
Q 1250 4750 2034 4750 
z
" transform="scale(0.015625)"/>
        <path id="DejaVuSans-2218" d="M 2000 2619 
Q 1750 2619 1578 2445 
Q 1406 2272 1406 2022 
Q 1406 1775 1578 1605 
Q 1750 1435 2000 1435 
Q 2250 1435 2422 1605 
Q 2594 1775 2594 2022 
Q 2594 2269 2420 2444 
Q 2247 2619 2000 2619 
z
M 2000 3022 
Q 2200 3022 2384 2945 
Q 2569 2869 2703 2725 
Q 2847 2585 2919 2406 
Q 2991 2228 2991 2022 
Q 2991 1610 2702 1324 
Q 2413 1038 1994 1038 
Q 1572 1038 1290 1319 
Q 1009 1600 1009 2022 
Q 1009 2441 1296 2731 
Q 1584 3022 2000 3022 
z
" transform="scale(0.015625)"/>
       </defs>
       <use xlink:href="#DejaVuSans-30" transform="translate(0 0.78125)"/>
       <use xlink:href="#DejaVuSans-2218" transform="translate(64.580078 39.0625) scale(0.7)"/>
      </g>
     </g>
    </g>
    <g id="xtick_2">
     <g id="line2d_3">
      <path d="M 137.381818 384.48 
L 137.381818 51.84 
" clip-path="url(#p918da519cb)" style="fill: none; stroke: #b0b0b0; stroke-opacity: 0.25; stroke-width: 0.8; stroke-linecap: square"/>
     </g>
     <g id="line2d_4">
      <g>
       <use xlink:href="#m6769a522a4" x="137.381818" y="384.48" style="stroke: #000000; stroke-width: 0.8"/>
      </g>
     </g>
     <g id="text_2">
      <!-- $10^{\circ}$ -->
      <g transform="translate(128.631818 399.078438) scale(0.1 -0.1)">
       <defs>
        <path id="DejaVuSans-31" d="M 794 531 
L 1825 531 
L 1825 4091 
L 703 3866 
L 703 4441 
L 1819 4666 
L 2450 4666 
L 2450 531 
L 3481 531 
L 3481 0 
L 794 0 
L 794 531 
z
" transform="scale(0.015625)"/>
       </defs>
       <use xlink:href="#DejaVuSans-31" transform="translate(0 0.78125)"/>
       <use xlink:href="#DejaVuSans-30" transform="translate(63.623047 0.78125)"/>
       <use xlink:href="#DejaVuSans-2218" transform="translate(128.203125 39.0625) scale(0.7)"/>
      </g>
     </g>
    </g>
    <g id="xtick_3">
     <g id="line2d_5">
      <path d="M 182.472727 384.48 
L 182.472727 51.84 
" clip-path="url(#p918da519cb)" style="fill: none; stroke: #b0b0b0; stroke-opacity: 0.25; stroke-width: 0.8; stroke-linecap: square"/>
     </g>
     <g id="line2d_6">
      <g>
       <use xlink:href="#m6769a522a4" x="182.472727" y="384.48" style="stroke: #000000; stroke-width: 0.8"/>
      </g>
     </g>
     <g id="text_3">
      <!-- $20^{\circ}$ -->
      <g transform="translate(173.722727 399.078438) scale(0.1 -0.1)">
       <defs>
        <path id="DejaVuSans-32" d="M 1228 531 
L 3431 531 
L 3431 0 
L 469 0 
L 469 531 
Q 828 903 1448 1529 
Q 2069 2156 2228 2338 
Q 2531 2678 2651 2914 
Q 2772 3150 2772 3378 
Q 2772 3750 2511 3984 
Q 2250 4219 1831 4219 
Q 1534 4219 1204 4116 
Q 875 4013 500 3803 
L 500 4441 
Q 881 4594 1212 4672 
Q 1544 4750 1819 4750 
Q 2544 4750 2975 4387 
Q 3406 4025 3406 3419 
Q 3406 3131 3298 2873 
Q 3191 2616 2906 2266 
Q 2828 2175 2409 1742 
Q 1991 1309 1228 531 
z
" transform="scale(0.015625)"/>
       </defs>
       <use xlink:href="#DejaVuSans-32" transform="translate(0 0.78125)"/>
       <use xlink:href="#DejaVuSans-30" transform="translate(63.623047 0.78125)"/>
       <use xlink:href="#DejaVuSans-2218" transform="translate(128.203125 39.0625) scale(0.7)"/>
      </g>
     </g>
    </g>
    <g id="xtick_4">
     <g id="line2d_7">
      <path d="M 227.563636 384.48 
L 227.563636 51.84 
" clip-path="url(#p918da519cb)" style="fill: none; stroke: #b0b0b0; stroke-opacity: 0.25; stroke-width: 0.8; stroke-linecap: square"/>
     </g>
     <g id="line2d_8">
      <g>
       <use xlink:href="#m6769a522a4" x="227.563636" y="384.48" style="stroke: #000000; stroke-width: 0.8"/>
      </g>
     </g>
     <g id="text_4">
      <!-- $30^{\circ}$ -->
      <g transform="translate(218.813636 399.078438) scale(0.1 -0.1)">
       <defs>
        <path id="DejaVuSans-33" d="M 2597 2516 
Q 3050 2419 3304 2112 
Q 3559 1806 3559 1356 
Q 3559 666 3084 287 
Q 2609 -91 1734 -91 
Q 1441 -91 1130 -33 
Q 819 25 488 141 
L 488 750 
Q 750 597 1062 519 
Q 1375 441 1716 441 
Q 2309 441 2620 675 
Q 2931 909 2931 1356 
Q 2931 1769 2642 2001 
Q 2353 2234 1838 2234 
L 1294 2234 
L 1294 2753 
L 1863 2753 
Q 2328 2753 2575 2939 
Q 2822 3125 2822 3475 
Q 2822 3834 2567 4026 
Q 2313 4219 1838 4219 
Q 1578 4219 1281 4162 
Q 984 4106 628 3988 
L 628 4550 
Q 988 4650 1302 4700 
Q 1616 4750 1894 4750 
Q 2613 4750 3031 4423 
Q 3450 4097 3450 3541 
Q 3450 3153 3228 2886 
Q 3006 2619 2597 2516 
z
" transform="scale(0.015625)"/>
       </defs>
       <use xlink:href="#DejaVuSans-33" transform="translate(0 0.78125)"/>
       <use xlink:href="#DejaVuSans-30" transform="translate(63.623047 0.78125)"/>
       <use xlink:href="#DejaVuSans-2218" transform="translate(128.203125 39.0625) scale(0.7)"/>
      </g>
     </g>
    </g>
    <g id="xtick_5">
     <g id="line2d_9">
      <path d="M 272.654545 384.48 
L 272.654545 51.84 
" clip-path="url(#p918da519cb)" style="fill: none; stroke: #b0b0b0; stroke-opacity: 0.25; stroke-width: 0.8; stroke-linecap: square"/>
     </g>
     <g id="line2d_10">
      <g>
       <use xlink:href="#m6769a522a4" x="272.654545" y="384.48" style="stroke: #000000; stroke-width: 0.8"/>
      </g>
     </g>
     <g id="text_5">
      <!-- $40^{\circ}$ -->
      <g transform="translate(263.904545 399.078438) scale(0.1 -0.1)">
       <defs>
        <path id="DejaVuSans-34" d="M 2419 4116 
L 825 1625 
L 2419 1625 
L 2419 4116 
z
M 2253 4666 
L 3047 4666 
L 3047 1625 
L 3713 1625 
L 3713 1100 
L 3047 1100 
L 3047 0 
L 2419 0 
L 2419 1100 
L 313 1100 
L 313 1709 
L 2253 4666 
z
" transform="scale(0.015625)"/>
       </defs>
       <use xlink:href="#DejaVuSans-34" transform="translate(0 0.78125)"/>
       <use xlink:href="#DejaVuSans-30" transform="translate(63.623047 0.78125)"/>
       <use xlink:href="#DejaVuSans-2218" transform="translate(128.203125 39.0625) scale(0.7)"/>
      </g>
     </g>
    </g>
    <g id="xtick_6">
     <g id="line2d_11">
      <path d="M 317.745455 384.48 
L 317.745455 51.84 
" clip-path="url(#p918da519cb)" style="fill: none; stroke: #b0b0b0; stroke-opacity: 0.25; stroke-width: 0.8; stroke-linecap: square"/>
     </g>
     <g id="line2d_12">
      <g>
       <use xlink:href="#m6769a522a4" x="317.745455" y="384.48" style="stroke: #000000; stroke-width: 0.8"/>
      </g>
     </g>
     <g id="text_6">
      <!-- $50^{\circ}$ -->
      <g transform="translate(308.995455 399.078438) scale(0.1 -0.1)">
       <defs>
        <path id="DejaVuSans-35" d="M 691 4666 
L 3169 4666 
L 3169 4134 
L 1269 4134 
L 1269 2991 
Q 1406 3038 1543 3061 
Q 1681 3084 1819 3084 
Q 2600 3084 3056 2656 
Q 3513 2228 3513 1497 
Q 3513 744 3044 326 
Q 2575 -91 1722 -91 
Q 1428 -91 1123 -41 
Q 819 9 494 109 
L 494 744 
Q 775 591 1075 516 
Q 1375 441 1709 441 
Q 2250 441 2565 725 
Q 2881 1009 2881 1497 
Q 2881 1984 2565 2268 
Q 2250 2553 1709 2553 
Q 1456 2553 1204 2497 
Q 953 2441 691 2322 
L 691 4666 
z
" transform="scale(0.015625)"/>
       </defs>
       <use xlink:href="#DejaVuSans-35" transform="translate(0 0.78125)"/>
       <use xlink:href="#DejaVuSans-30" transform="translate(63.623047 0.78125)"/>
       <use xlink:href="#DejaVuSans-2218" transform="translate(128.203125 39.0625) scale(0.7)"/>
      </g>
     </g>
    </g>
    <g id="xtick_7">
     <g id="line2d_13">
      <path d="M 362.836364 384.48 
L 362.836364 51.84 
" clip-path="url(#p918da519cb)" style="fill: none; stroke: #b0b0b0; stroke-opacity: 0.25; stroke-width: 0.8; stroke-linecap: square"/>
     </g>
     <g id="line2d_14">
      <g>
       <use xlink:href="#m6769a522a4" x="362.836364" y="384.48" style="stroke: #000000; stroke-width: 0.8"/>
      </g>
     </g>
     <g id="text_7">
      <!-- $60^{\circ}$ -->
      <g transform="translate(354.086364 399.078438) scale(0.1 -0.1)">
       <defs>
        <path id="DejaVuSans-36" d="M 2113 2584 
Q 1688 2584 1439 2293 
Q 1191 2003 1191 1497 
Q 1191 994 1439 701 
Q 1688 409 2113 409 
Q 2538 409 2786 701 
Q 3034 994 3034 1497 
Q 3034 2003 2786 2293 
Q 2538 2584 2113 2584 
z
M 3366 4563 
L 3366 3988 
Q 3128 4100 2886 4159 
Q 2644 4219 2406 4219 
Q 1781 4219 1451 3797 
Q 1122 3375 1075 2522 
Q 1259 2794 1537 2939 
Q 1816 3084 2150 3084 
Q 2853 3084 3261 2657 
Q 3669 2231 3669 1497 
Q 3669 778 3244 343 
Q 2819 -91 2113 -91 
Q 1303 -91 875 529 
Q 447 1150 447 2328 
Q 447 3434 972 4092 
Q 1497 4750 2381 4750 
Q 2619 4750 2861 4703 
Q 3103 4656 3366 4563 
z
" transform="scale(0.015625)"/>
       </defs>
       <use xlink:href="#DejaVuSans-36" transform="translate(0 0.78125)"/>
       <use xlink:href="#DejaVuSans-30" transform="translate(63.623047 0.78125)"/>
       <use xlink:href="#DejaVuSans-2218" transform="translate(128.203125 39.0625) scale(0.7)"/>
      </g>
     </g>
    </g>
    <g id="xtick_8">
     <g id="line2d_15">
      <path d="M 407.927273 384.48 
L 407.927273 51.84 
" clip-path="url(#p918da519cb)" style="fill: none; stroke: #b0b0b0; stroke-opacity: 0.25; stroke-width: 0.8; stroke-linecap: square"/>
     </g>
     <g id="line2d_16">
      <g>
       <use xlink:href="#m6769a522a4" x="407.927273" y="384.48" style="stroke: #000000; stroke-width: 0.8"/>
      </g>
     </g>
     <g id="text_8">
      <!-- $70^{\circ}$ -->
      <g transform="translate(399.177273 399.078438) scale(0.1 -0.1)">
       <defs>
        <path id="DejaVuSans-37" d="M 525 4666 
L 3525 4666 
L 3525 4397 
L 1831 0 
L 1172 0 
L 2766 4134 
L 525 4134 
L 525 4666 
z
" transform="scale(0.015625)"/>
       </defs>
       <use xlink:href="#DejaVuSans-37" transform="translate(0 0.78125)"/>
       <use xlink:href="#DejaVuSans-30" transform="translate(63.623047 0.78125)"/>
       <use xlink:href="#DejaVuSans-2218" transform="translate(128.203125 39.0625) scale(0.7)"/>
      </g>
     </g>
    </g>
    <g id="xtick_9">
     <g id="line2d_17">
      <path d="M 453.018182 384.48 
L 453.018182 51.84 
" clip-path="url(#p918da519cb)" style="fill: none; stroke: #b0b0b0; stroke-opacity: 0.25; stroke-width: 0.8; stroke-linecap: square"/>
     </g>
     <g id="line2d_18">
      <g>
       <use xlink:href="#m6769a522a4" x="453.018182" y="384.48" style="stroke: #000000; stroke-width: 0.8"/>
      </g>
     </g>
     <g id="text_9">
      <!-- $80^{\circ}$ -->
      <g transform="translate(444.268182 399.078438) scale(0.1 -0.1)">
       <defs>
        <path id="DejaVuSans-38" d="M 2034 2216 
Q 1584 2216 1326 1975 
Q 1069 1734 1069 1313 
Q 1069 891 1326 650 
Q 1584 409 2034 409 
Q 2484 409 2743 651 
Q 3003 894 3003 1313 
Q 3003 1734 2745 1975 
Q 2488 2216 2034 2216 
z
M 1403 2484 
Q 997 2584 770 2862 
Q 544 3141 544 3541 
Q 544 4100 942 4425 
Q 1341 4750 2034 4750 
Q 2731 4750 3128 4425 
Q 3525 4100 3525 3541 
Q 3525 3141 3298 2862 
Q 3072 2584 2669 2484 
Q 3125 2378 3379 2068 
Q 3634 1759 3634 1313 
Q 3634 634 3220 271 
Q 2806 -91 2034 -91 
Q 1263 -91 848 271 
Q 434 634 434 1313 
Q 434 1759 690 2068 
Q 947 2378 1403 2484 
z
M 1172 3481 
Q 1172 3119 1398 2916 
Q 1625 2713 2034 2713 
Q 2441 2713 2670 2916 
Q 2900 3119 2900 3481 
Q 2900 3844 2670 4047 
Q 2441 4250 2034 4250 
Q 1625 4250 1398 4047 
Q 1172 3844 1172 3481 
z
" transform="scale(0.015625)"/>
       </defs>
       <use xlink:href="#DejaVuSans-38" transform="translate(0 0.78125)"/>
       <use xlink:href="#DejaVuSans-30" transform="translate(63.623047 0.78125)"/>
       <use xlink:href="#DejaVuSans-2218" transform="translate(128.203125 39.0625) scale(0.7)"/>
      </g>
     </g>
    </g>
    <g id="xtick_10">
     <g id="line2d_19">
      <path d="M 498.109091 384.48 
L 498.109091 51.84 
" clip-path="url(#p918da519cb)" style="fill: none; stroke: #b0b0b0; stroke-opacity: 0.25; stroke-width: 0.8; stroke-linecap: square"/>
     </g>
     <g id="line2d_20">
      <g>
       <use xlink:href="#m6769a522a4" x="498.109091" y="384.48" style="stroke: #000000; stroke-width: 0.8"/>
      </g>
     </g>
     <g id="text_10">
      <!-- $90^{\circ}$ -->
      <g transform="translate(489.359091 399.078438) scale(0.1 -0.1)">
       <defs>
        <path id="DejaVuSans-39" d="M 703 97 
L 703 672 
Q 941 559 1184 500 
Q 1428 441 1663 441 
Q 2288 441 2617 861 
Q 2947 1281 2994 2138 
Q 2813 1869 2534 1725 
Q 2256 1581 1919 1581 
Q 1219 1581 811 2004 
Q 403 2428 403 3163 
Q 403 3881 828 4315 
Q 1253 4750 1959 4750 
Q 2769 4750 3195 4129 
Q 3622 3509 3622 2328 
Q 3622 1225 3098 567 
Q 2575 -91 1691 -91 
Q 1453 -91 1209 -44 
Q 966 3 703 97 
z
M 1959 2075 
Q 2384 2075 2632 2365 
Q 2881 2656 2881 3163 
Q 2881 3666 2632 3958 
Q 2384 4250 1959 4250 
Q 1534 4250 1286 3958 
Q 1038 3666 1038 3163 
Q 1038 2656 1286 2365 
Q 1534 2075 1959 2075 
z
" transform="scale(0.015625)"/>
       </defs>
       <use xlink:href="#DejaVuSans-39" transform="translate(0 0.78125)"/>
       <use xlink:href="#DejaVuSans-30" transform="translate(63.623047 0.78125)"/>
       <use xlink:href="#DejaVuSans-2218" transform="translate(128.203125 39.0625) scale(0.7)"/>
      </g>
     </g>
    </g>
   </g>
   <g id="matplotlib.axis_2">
    <g id="ytick_1">
     <g id="line2d_21">
      <path d="M 72 370.475806 
L 518.4 370.475806 
" clip-path="url(#p918da519cb)" style="fill: none; stroke: #b0b0b0; stroke-opacity: 0.25; stroke-width: 0.8; stroke-linecap: square"/>
     </g>
     <g id="line2d_22">
      <defs>
       <path id="m2b9323c935" d="M 0 0 
L -3.5 0 
" style="stroke: #000000; stroke-width: 0.8"/>
      </defs>
      <g>
       <use xlink:href="#m2b9323c935" x="72" y="370.475806" style="stroke: #000000; stroke-width: 0.8"/>
      </g>
     </g>
     <g id="text_11">
      <!-- −1.0 -->
      <g transform="translate(40.717187 374.275025) scale(0.1 -0.1)">
       <defs>
        <path id="DejaVuSans-2212" d="M 678 2272 
L 4684 2272 
L 4684 1741 
L 678 1741 
L 678 2272 
z
" transform="scale(0.015625)"/>
        <path id="DejaVuSans-2e" d="M 684 794 
L 1344 794 
L 1344 0 
L 684 0 
L 684 794 
z
" transform="scale(0.015625)"/>
       </defs>
       <use xlink:href="#DejaVuSans-2212"/>
       <use xlink:href="#DejaVuSans-31" x="83.789062"/>
       <use xlink:href="#DejaVuSans-2e" x="147.412109"/>
       <use xlink:href="#DejaVuSans-30" x="179.199219"/>
      </g>
     </g>
    </g>
    <g id="ytick_2">
     <g id="line2d_23">
      <path d="M 72 298.484714 
L 518.4 298.484714 
" clip-path="url(#p918da519cb)" style="fill: none; stroke: #b0b0b0; stroke-opacity: 0.25; stroke-width: 0.8; stroke-linecap: square"/>
     </g>
     <g id="line2d_24">
      <g>
       <use xlink:href="#m2b9323c935" x="72" y="298.484714" style="stroke: #000000; stroke-width: 0.8"/>
      </g>
     </g>
     <g id="text_12">
      <!-- −0.5 -->
      <g transform="translate(40.717187 302.283933) scale(0.1 -0.1)">
       <use xlink:href="#DejaVuSans-2212"/>
       <use xlink:href="#DejaVuSans-30" x="83.789062"/>
       <use xlink:href="#DejaVuSans-2e" x="147.412109"/>
       <use xlink:href="#DejaVuSans-35" x="179.199219"/>
      </g>
     </g>
    </g>
    <g id="ytick_3">
     <g id="line2d_25">
      <path d="M 72 226.493622 
L 518.4 226.493622 
" clip-path="url(#p918da519cb)" style="fill: none; stroke: #b0b0b0; stroke-opacity: 0.25; stroke-width: 0.8; stroke-linecap: square"/>
     </g>
     <g id="line2d_26">
      <g>
       <use xlink:href="#m2b9323c935" x="72" y="226.493622" style="stroke: #000000; stroke-width: 0.8"/>
      </g>
     </g>
     <g id="text_13">
      <!-- 0.0 -->
      <g transform="translate(49.096875 230.292841) scale(0.1 -0.1)">
       <use xlink:href="#DejaVuSans-30"/>
       <use xlink:href="#DejaVuSans-2e" x="63.623047"/>
       <use xlink:href="#DejaVuSans-30" x="95.410156"/>
      </g>
     </g>
    </g>
    <g id="ytick_4">
     <g id="line2d_27">
      <path d="M 72 154.502531 
L 518.4 154.502531 
" clip-path="url(#p918da519cb)" style="fill: none; stroke: #b0b0b0; stroke-opacity: 0.25; stroke-width: 0.8; stroke-linecap: square"/>
     </g>
     <g id="line2d_28">
      <g>
       <use xlink:href="#m2b9323c935" x="72" y="154.502531" style="stroke: #000000; stroke-width: 0.8"/>
      </g>
     </g>
     <g id="text_14">
      <!-- 0.5 -->
      <g transform="translate(49.096875 158.301749) scale(0.1 -0.1)">
       <use xlink:href="#DejaVuSans-30"/>
       <use xlink:href="#DejaVuSans-2e" x="63.623047"/>
       <use xlink:href="#DejaVuSans-35" x="95.410156"/>
      </g>
     </g>
    </g>
    <g id="ytick_5">
     <g id="line2d_29">
      <path d="M 72 82.511439 
L 518.4 82.511439 
" clip-path="url(#p918da519cb)" style="fill: none; stroke: #b0b0b0; stroke-opacity: 0.25; stroke-width: 0.8; stroke-linecap: square"/>
     </g>
     <g id="line2d_30">
      <g>
       <use xlink:href="#m2b9323c935" x="72" y="82.511439" style="stroke: #000000; stroke-width: 0.8"/>
      </g>
     </g>
     <g id="text_15">
      <!-- 1.0 -->
      <g transform="translate(49.096875 86.310658) scale(0.1 -0.1)">
       <use xlink:href="#DejaVuSans-31"/>
       <use xlink:href="#DejaVuSans-2e" x="63.623047"/>
       <use xlink:href="#DejaVuSans-30" x="95.410156"/>
      </g>
     </g>
    </g>
   </g>
   <g id="line2d_31">
    <path d="M 92.290909 226.493622 
L 131.288452 211.456383 
L 152.412121 203.066531 
L 170.692219 195.570492 
L 187.34742 188.506557 
L 203.596396 181.373726 
L 219.439148 174.17755 
L 235.688124 166.549373 
L 252.74955 158.286673 
L 271.435872 148.98302 
L 295.809337 136.577033 
L 335.213104 116.504841 
L 351.055856 108.705842 
L 364.055037 102.542456 
L 375.835545 97.20073 
L 386.397379 92.652064 
L 396.146765 88.688155 
L 405.489926 85.128077 
L 414.426863 81.964122 
L 422.957576 79.183124 
L 431.082064 76.767282 
L 438.800328 74.695024 
L 446.518591 72.850647 
L 453.830631 71.322245 
L 461.14267 70.014192 
L 468.454709 68.932731 
L 475.766749 68.083067 
L 482.672563 67.49717 
L 489.578378 67.12426 
L 496.484193 66.965963 
L 498.109091 66.96 
L 498.109091 66.96 
" clip-path="url(#p918da519cb)" style="fill: none; stroke: #1f77b4; stroke-width: 1.5; stroke-linecap: square"/>
   </g>
   <g id="line2d_32">
    <path d="M 92.290909 226.493622 
L 124.382637 196.640304 
L 141.444062 181.082039 
L 155.255692 168.779555 
L 167.442424 158.216457 
L 178.410483 148.999834 
L 188.566093 140.757076 
L 197.909255 133.459213 
L 206.439967 127.066025 
L 214.564455 121.243851 
L 222.282719 115.977386 
L 229.594758 111.246821 
L 236.500573 107.028337 
L 243.406388 103.06929 
L 249.905979 99.595494 
L 256.405569 96.381124 
L 262.498935 93.616082 
L 268.592301 91.103538 
L 274.279443 88.996617 
L 279.966585 87.129176 
L 285.247502 85.617546 
L 290.528419 84.327397 
L 295.809337 83.265604 
L 301.090254 82.438761 
L 305.964947 81.889486 
L 310.83964 81.550412 
L 315.714333 81.425904 
L 320.589025 81.520002 
L 325.463718 81.836397 
L 330.338411 82.378398 
L 335.213104 83.148906 
L 340.087797 84.150387 
L 344.96249 85.384843 
L 349.837183 86.853793 
L 354.711876 88.558242 
L 359.586568 90.498665 
L 364.461261 92.67498 
L 369.335954 95.086537 
L 374.210647 97.732093 
L 379.491564 100.860022 
L 384.772482 104.257243 
L 390.053399 107.919737 
L 395.334316 111.842615 
L 401.021458 116.35182 
L 406.7086 121.147977 
L 412.801966 126.594325 
L 418.895332 132.346001 
L 425.394922 138.801132 
L 431.894513 145.567395 
L 438.800328 153.073525 
L 446.112367 161.346868 
L 454.236855 170.89 
L 463.173792 181.753609 
L 473.329402 194.473843 
L 485.922359 210.637512 
L 498.109091 226.493622 
L 498.109091 226.493622 
" clip-path="url(#p918da519cb)" style="fill: none; stroke-dasharray: 4.6875,1.40625; stroke-dashoffset: 0; stroke: #ff7f0e; stroke-width: 1.5"/>
   </g>
   <g id="line2d_33">
    <path d="M 92.290909 226.493622 
L 111.789681 196.431748 
L 121.945291 181.177459 
L 130.476003 168.741013 
L 138.194267 157.8733 
L 145.100082 148.519711 
L 151.599672 140.082429 
L 157.693038 132.531991 
L 163.38018 125.82839 
L 168.661097 119.923749 
L 173.942015 114.347986 
L 178.816708 109.509826 
L 183.6914 104.983142 
L 188.159869 101.119379 
L 192.628337 97.539638 
L 197.096806 94.253864 
L 201.15905 91.529846 
L 205.221294 89.063293 
L 209.283538 86.860527 
L 213.345782 84.927462 
L 217.001802 83.422841 
L 220.657821 82.144815 
L 224.313841 81.096767 
L 227.969861 80.281759 
L 231.62588 79.702522 
L 235.2819 79.361446 
L 238.93792 79.260563 
L 242.593939 79.40154 
L 246.249959 79.785667 
L 249.905979 80.413842 
L 253.561998 81.286569 
L 257.218018 82.403937 
L 260.874038 83.76562 
L 264.530057 85.370863 
L 268.186077 87.218474 
L 271.842097 89.30682 
L 275.498116 91.633816 
L 279.56036 94.496156 
L 283.622604 97.645821 
L 287.684848 101.077945 
L 291.747093 104.786947 
L 296.215561 109.179103 
L 300.684029 113.889255 
L 305.152498 118.906961 
L 310.027191 124.718064 
L 314.901884 130.86518 
L 320.182801 137.883115 
L 325.869943 145.830513 
L 331.963309 154.757291 
L 338.462899 164.700444 
L 345.368714 175.67925 
L 353.086978 188.367039 
L 362.430139 204.166204 
L 377.054218 229.403328 
L 392.490745 255.919864 
L 401.427682 270.835045 
L 408.739722 282.632209 
L 415.239312 292.722199 
L 421.332678 301.7776 
L 427.01982 309.826101 
L 432.300737 316.911978 
L 437.17543 323.091712 
L 442.050123 328.899134 
L 446.518591 333.87537 
L 450.98706 338.501863 
L 455.049304 342.390841 
L 459.111548 345.966487 
L 462.767568 348.908181 
L 466.423587 351.580918 
L 470.079607 353.978462 
L 473.735627 356.095207 
L 476.985422 357.737003 
L 480.235217 359.149965 
L 483.485012 360.331468 
L 486.734808 361.279319 
L 489.984603 361.991755 
L 493.234398 362.467451 
L 496.484193 362.70552 
L 498.109091 362.735289 
L 498.109091 362.735289 
" clip-path="url(#p918da519cb)" style="fill: none; stroke-dasharray: 9.375,1.40625; stroke-dashoffset: 0; stroke: #2ca02c; stroke-width: 1.5"/>
   </g>
   <g id="line2d_34">
    <path d="M 92.290909 226.493622 
L 107.321212 194.452799 
L 115.4457 177.670498 
L 121.945291 164.722145 
L 128.038657 153.080736 
L 133.319574 143.454102 
L 138.194267 135.001749 
L 142.662735 127.657703 
L 147.131204 120.732878 
L 151.193448 114.826845 
L 155.255692 109.31377 
L 158.911712 104.704725 
L 162.567731 100.444205 
L 166.223751 96.545124 
L 169.473546 93.392394 
L 172.723342 90.542452 
L 175.973137 88.002399 
L 178.816708 86.039142 
L 181.660278 84.32198 
L 184.503849 82.854398 
L 187.34742 81.639468 
L 190.190991 80.679839 
L 193.034562 79.97773 
L 195.878133 79.534924 
L 198.315479 79.362788 
L 200.752826 79.382735 
L 203.190172 79.595104 
L 205.627518 79.999987 
L 208.471089 80.715446 
L 211.31466 81.69204 
L 214.158231 82.92863 
L 217.001802 84.42361 
L 219.845373 86.174906 
L 222.688943 88.17998 
L 225.532514 90.435824 
L 228.78231 93.316522 
L 232.032105 96.514284 
L 235.2819 100.022404 
L 238.531695 103.833397 
L 242.187715 108.472495 
L 245.843735 113.471572 
L 249.905979 119.431151 
L 253.968223 125.79679 
L 258.436691 133.240886 
L 262.90516 141.116397 
L 267.779853 150.159016 
L 273.06077 160.432121 
L 278.747912 171.977588 
L 285.247502 185.677217 
L 293.37199 203.36163 
L 306.371171 232.29832 
L 318.557903 259.231274 
L 325.869943 274.881098 
L 331.963309 287.443086 
L 337.65045 298.662605 
L 342.525143 307.818784 
L 347.399836 316.490221 
L 351.868305 323.967105 
L 355.930549 330.338241 
L 359.992793 336.274625 
L 363.648812 341.223836 
L 367.304832 345.781555 
L 370.554627 349.490666 
L 373.804423 352.866378 
L 377.054218 355.898709 
L 379.897789 358.263163 
L 382.74136 360.35226 
L 385.58493 362.161076 
L 388.428501 363.685264 
L 390.865848 364.76231 
L 393.303194 365.625468 
L 395.740541 366.273059 
L 398.177887 366.703743 
L 400.615233 366.91652 
L 403.05258 366.910733 
L 405.489926 366.686072 
L 407.927273 366.242574 
L 410.364619 365.580626 
L 412.801966 364.700966 
L 415.239312 363.604684 
L 417.676658 362.293218 
L 420.520229 360.493612 
L 423.3638 358.407006 
L 426.207371 356.037478 
L 429.050942 353.389738 
L 432.300737 350.029954 
L 435.550532 346.322728 
L 438.800328 342.27803 
L 442.456347 337.338062 
L 446.112367 332.001985 
L 449.768387 326.288385 
L 453.830631 319.521558 
L 458.299099 311.603477 
L 462.767568 303.228877 
L 467.64226 293.624606 
L 472.923178 282.737376 
L 479.016544 269.655419 
L 486.328583 253.398574 
L 496.890418 229.294173 
L 498.109091 226.493622 
L 498.109091 226.493622 
" clip-path="url(#p918da519cb)" style="fill: none; stroke-dasharray: 11.25,1.40625,3.75,1.40625; stroke-dashoffset: 0; stroke: #d62728; stroke-width: 1.5"/>
   </g>
   <g id="line2d_35">
    <path d="M 92.290909 226.493622 
L 104.883866 192.480596 
L 111.789681 174.499392 
L 117.476822 160.320608 
L 122.351515 148.749535 
L 126.819984 138.701161 
L 130.882228 130.090502 
L 134.538247 122.810271 
L 138.194267 116.010059 
L 141.444062 110.394245 
L 144.693857 105.203834 
L 147.943653 100.458217 
L 150.787224 96.684711 
L 153.630794 93.276311 
L 156.474365 90.24292 
L 158.911712 87.948106 
L 161.349058 85.940325 
L 163.786405 84.223973 
L 166.223751 82.802856 
L 168.661097 81.680181 
L 170.692219 80.974488 
L 172.723342 80.479039 
L 174.754464 80.194716 
L 176.785586 80.122095 
L 178.816708 80.261453 
L 180.84783 80.612764 
L 182.878952 81.175696 
L 184.910074 81.949612 
L 186.941196 82.933571 
L 189.378542 84.389807 
L 191.815889 86.143968 
L 194.253235 88.192704 
L 196.690581 90.532041 
L 199.127928 93.157389 
L 201.971499 96.574816 
L 204.81507 100.365159 
L 207.65864 104.518046 
L 210.908436 109.693419 
L 214.158231 115.308622 
L 217.408026 121.343221 
L 221.064046 128.605898 
L 225.12629 137.22405 
L 229.188534 146.371357 
L 233.657002 156.981043 
L 238.531695 169.12382 
L 244.218837 183.906365 
L 251.124652 202.511635 
L 262.90516 235.032123 
L 272.654545 261.688286 
L 279.154136 278.83033 
L 284.435053 292.166805 
L 289.309746 303.875619 
L 293.778215 314.008252 
L 297.840459 322.654076 
L 301.496478 329.92763 
L 305.152498 336.681097 
L 308.402293 342.219047 
L 311.652088 347.295244 
L 314.495659 351.341419 
L 317.33923 355.004754 
L 320.182801 358.273342 
L 322.620147 360.752634 
L 325.057494 362.927958 
L 327.49484 364.793941 
L 329.932187 366.345903 
L 331.963309 367.396435 
L 333.994431 368.224199 
L 336.025553 368.827623 
L 338.056675 369.205488 
L 340.087797 369.356932 
L 342.118919 369.281454 
L 344.150041 368.978914 
L 346.181163 368.449534 
L 348.212285 367.693902 
L 350.243407 366.712969 
L 352.274529 365.508054 
L 354.711876 363.768886 
L 357.149222 361.71321 
L 359.586568 359.34536 
L 362.023915 356.67041 
L 364.461261 353.69416 
L 367.304832 349.849798 
L 370.148403 345.615801 
L 372.991974 341.005009 
L 376.241769 335.292265 
L 379.491564 329.128733 
L 383.147584 321.686984 
L 386.803604 313.744487 
L 390.865848 304.382176 
L 395.334316 293.499879 
L 400.209009 281.027758 
L 405.896151 265.836362 
L 412.801966 246.729649 
L 436.769206 179.805931 
L 442.456347 164.936223 
L 447.33104 152.820182 
L 451.799509 142.329685 
L 455.861753 133.377939 
L 459.517772 125.849224 
L 462.767568 119.611321 
L 466.017363 113.828975 
L 469.267158 108.527062 
L 472.110729 104.299992 
L 474.9543 100.472207 
L 477.797871 97.056344 
L 480.235217 94.464904 
L 482.672563 92.190702 
L 485.10991 90.239258 
L 487.141032 88.863051 
L 489.172154 87.716609 
L 491.203276 86.801868 
L 493.234398 86.120372 
L 495.26552 85.673271 
L 497.296642 85.461319 
L 498.109091 85.442474 
L 498.109091 85.442474 
" clip-path="url(#p918da519cb)" style="fill: none; stroke-dasharray: 11.25,1.40625,1.40625,1.40625; stroke-dashoffset: 0; stroke: #9467bd; stroke-width: 1.5"/>
   </g>
   <g id="patch_3">
    <path d="M 72 384.48 
L 72 51.84 
" style="fill: none; stroke: #000000; stroke-width: 0.8; stroke-linejoin: miter; stroke-linecap: square"/>
   </g>
   <g id="patch_4">
    <path d="M 518.4 384.48 
L 518.4 51.84 
" style="fill: none; stroke: #000000; stroke-width: 0.8; stroke-linejoin: miter; stroke-linecap: square"/>
   </g>
   <g id="patch_5">
    <path d="M 72 384.48 
L 518.4 384.48 
" style="fill: none; stroke: #000000; stroke-width: 0.8; stroke-linejoin: miter; stroke-linecap: square"/>
   </g>
   <g id="patch_6">
    <path d="M 72 51.84 
L 518.4 51.84 
" style="fill: none; stroke: #000000; stroke-width: 0.8; stroke-linejoin: miter; stroke-linecap: square"/>
   </g>
   <g id="text_16">
    <!-- Odd Periodic Mathieu Functions -->
    <g transform="translate(200.653125 32.402625) scale(0.12 -0.12)">
     <defs>
      <path id="DejaVuSans-4f" d="M 2522 4238 
Q 1834 4238 1429 3725 
Q 1025 3213 1025 2328 
Q 1025 1447 1429 934 
Q 1834 422 2522 422 
Q 3209 422 3611 934 
Q 4013 1447 4013 2328 
Q 4013 3213 3611 3725 
Q 3209 4238 2522 4238 
z
M 2522 4750 
Q 3503 4750 4090 4092 
Q 4678 3434 4678 2328 
Q 4678 1225 4090 567 
Q 3503 -91 2522 -91 
Q 1538 -91 948 565 
Q 359 1222 359 2328 
Q 359 3434 948 4092 
Q 1538 4750 2522 4750 
z
" transform="scale(0.015625)"/>
      <path id="DejaVuSans-64" d="M 2906 2969 
L 2906 4863 
L 3481 4863 
L 3481 0 
L 2906 0 
L 2906 525 
Q 2725 213 2448 61 
Q 2172 -91 1784 -91 
Q 1150 -91 751 415 
Q 353 922 353 1747 
Q 353 2572 751 3078 
Q 1150 3584 1784 3584 
Q 2172 3584 2448 3432 
Q 2725 3281 2906 2969 
z
M 947 1747 
Q 947 1113 1208 752 
Q 1469 391 1925 391 
Q 2381 391 2643 752 
Q 2906 1113 2906 1747 
Q 2906 2381 2643 2742 
Q 2381 3103 1925 3103 
Q 1469 3103 1208 2742 
Q 947 2381 947 1747 
z
" transform="scale(0.015625)"/>
      <path id="DejaVuSans-20" transform="scale(0.015625)"/>
      <path id="DejaVuSans-50" d="M 1259 4147 
L 1259 2394 
L 2053 2394 
Q 2494 2394 2734 2622 
Q 2975 2850 2975 3272 
Q 2975 3691 2734 3919 
Q 2494 4147 2053 4147 
L 1259 4147 
z
M 628 4666 
L 2053 4666 
Q 2838 4666 3239 4311 
Q 3641 3956 3641 3272 
Q 3641 2581 3239 2228 
Q 2838 1875 2053 1875 
L 1259 1875 
L 1259 0 
L 628 0 
L 628 4666 
z
" transform="scale(0.015625)"/>
      <path id="DejaVuSans-65" d="M 3597 1894 
L 3597 1613 
L 953 1613 
Q 991 1019 1311 708 
Q 1631 397 2203 397 
Q 2534 397 2845 478 
Q 3156 559 3463 722 
L 3463 178 
Q 3153 47 2828 -22 
Q 2503 -91 2169 -91 
Q 1331 -91 842 396 
Q 353 884 353 1716 
Q 353 2575 817 3079 
Q 1281 3584 2069 3584 
Q 2775 3584 3186 3129 
Q 3597 2675 3597 1894 
z
M 3022 2063 
Q 3016 2534 2758 2815 
Q 2500 3097 2075 3097 
Q 1594 3097 1305 2825 
Q 1016 2553 972 2059 
L 3022 2063 
z
" transform="scale(0.015625)"/>
      <path id="DejaVuSans-72" d="M 2631 2963 
Q 2534 3019 2420 3045 
Q 2306 3072 2169 3072 
Q 1681 3072 1420 2755 
Q 1159 2438 1159 1844 
L 1159 0 
L 581 0 
L 581 3500 
L 1159 3500 
L 1159 2956 
Q 1341 3275 1631 3429 
Q 1922 3584 2338 3584 
Q 2397 3584 2469 3576 
Q 2541 3569 2628 3553 
L 2631 2963 
z
" transform="scale(0.015625)"/>
      <path id="DejaVuSans-69" d="M 603 3500 
L 1178 3500 
L 1178 0 
L 603 0 
L 603 3500 
z
M 603 4863 
L 1178 4863 
L 1178 4134 
L 603 4134 
L 603 4863 
z
" transform="scale(0.015625)"/>
      <path id="DejaVuSans-6f" d="M 1959 3097 
Q 1497 3097 1228 2736 
Q 959 2375 959 1747 
Q 959 1119 1226 758 
Q 1494 397 1959 397 
Q 2419 397 2687 759 
Q 2956 1122 2956 1747 
Q 2956 2369 2687 2733 
Q 2419 3097 1959 3097 
z
M 1959 3584 
Q 2709 3584 3137 3096 
Q 3566 2609 3566 1747 
Q 3566 888 3137 398 
Q 2709 -91 1959 -91 
Q 1206 -91 779 398 
Q 353 888 353 1747 
Q 353 2609 779 3096 
Q 1206 3584 1959 3584 
z
" transform="scale(0.015625)"/>
      <path id="DejaVuSans-63" d="M 3122 3366 
L 3122 2828 
Q 2878 2963 2633 3030 
Q 2388 3097 2138 3097 
Q 1578 3097 1268 2742 
Q 959 2388 959 1747 
Q 959 1106 1268 751 
Q 1578 397 2138 397 
Q 2388 397 2633 464 
Q 2878 531 3122 666 
L 3122 134 
Q 2881 22 2623 -34 
Q 2366 -91 2075 -91 
Q 1284 -91 818 406 
Q 353 903 353 1747 
Q 353 2603 823 3093 
Q 1294 3584 2113 3584 
Q 2378 3584 2631 3529 
Q 2884 3475 3122 3366 
z
" transform="scale(0.015625)"/>
      <path id="DejaVuSans-4d" d="M 628 4666 
L 1569 4666 
L 2759 1491 
L 3956 4666 
L 4897 4666 
L 4897 0 
L 4281 0 
L 4281 4097 
L 3078 897 
L 2444 897 
L 1241 4097 
L 1241 0 
L 628 0 
L 628 4666 
z
" transform="scale(0.015625)"/>
      <path id="DejaVuSans-61" d="M 2194 1759 
Q 1497 1759 1228 1600 
Q 959 1441 959 1056 
Q 959 750 1161 570 
Q 1363 391 1709 391 
Q 2188 391 2477 730 
Q 2766 1069 2766 1631 
L 2766 1759 
L 2194 1759 
z
M 3341 1997 
L 3341 0 
L 2766 0 
L 2766 531 
Q 2569 213 2275 61 
Q 1981 -91 1556 -91 
Q 1019 -91 701 211 
Q 384 513 384 1019 
Q 384 1609 779 1909 
Q 1175 2209 1959 2209 
L 2766 2209 
L 2766 2266 
Q 2766 2663 2505 2880 
Q 2244 3097 1772 3097 
Q 1472 3097 1187 3025 
Q 903 2953 641 2809 
L 641 3341 
Q 956 3463 1253 3523 
Q 1550 3584 1831 3584 
Q 2591 3584 2966 3190 
Q 3341 2797 3341 1997 
z
" transform="scale(0.015625)"/>
      <path id="DejaVuSans-74" d="M 1172 4494 
L 1172 3500 
L 2356 3500 
L 2356 3053 
L 1172 3053 
L 1172 1153 
Q 1172 725 1289 603 
Q 1406 481 1766 481 
L 2356 481 
L 2356 0 
L 1766 0 
Q 1100 0 847 248 
Q 594 497 594 1153 
L 594 3053 
L 172 3053 
L 172 3500 
L 594 3500 
L 594 4494 
L 1172 4494 
z
" transform="scale(0.015625)"/>
      <path id="DejaVuSans-68" d="M 3513 2113 
L 3513 0 
L 2938 0 
L 2938 2094 
Q 2938 2591 2744 2837 
Q 2550 3084 2163 3084 
Q 1697 3084 1428 2787 
Q 1159 2491 1159 1978 
L 1159 0 
L 581 0 
L 581 4863 
L 1159 4863 
L 1159 2956 
Q 1366 3272 1645 3428 
Q 1925 3584 2291 3584 
Q 2894 3584 3203 3211 
Q 3513 2838 3513 2113 
z
" transform="scale(0.015625)"/>
      <path id="DejaVuSans-75" d="M 544 1381 
L 544 3500 
L 1119 3500 
L 1119 1403 
Q 1119 906 1312 657 
Q 1506 409 1894 409 
Q 2359 409 2629 706 
Q 2900 1003 2900 1516 
L 2900 3500 
L 3475 3500 
L 3475 0 
L 2900 0 
L 2900 538 
Q 2691 219 2414 64 
Q 2138 -91 1772 -91 
Q 1169 -91 856 284 
Q 544 659 544 1381 
z
M 1991 3584 
L 1991 3584 
z
" transform="scale(0.015625)"/>
      <path id="DejaVuSans-46" d="M 628 4666 
L 3309 4666 
L 3309 4134 
L 1259 4134 
L 1259 2759 
L 3109 2759 
L 3109 2228 
L 1259 2228 
L 1259 0 
L 628 0 
L 628 4666 
z
" transform="scale(0.015625)"/>
      <path id="DejaVuSans-6e" d="M 3513 2113 
L 3513 0 
L 2938 0 
L 2938 2094 
Q 2938 2591 2744 2837 
Q 2550 3084 2163 3084 
Q 1697 3084 1428 2787 
Q 1159 2491 1159 1978 
L 1159 0 
L 581 0 
L 581 3500 
L 1159 3500 
L 1159 2956 
Q 1366 3272 1645 3428 
Q 1925 3584 2291 3584 
Q 2894 3584 3203 3211 
Q 3513 2838 3513 2113 
z
" transform="scale(0.015625)"/>
      <path id="DejaVuSans-73" d="M 2834 3397 
L 2834 2853 
Q 2591 2978 2328 3040 
Q 2066 3103 1784 3103 
Q 1356 3103 1142 2972 
Q 928 2841 928 2578 
Q 928 2378 1081 2264 
Q 1234 2150 1697 2047 
L 1894 2003 
Q 2506 1872 2764 1633 
Q 3022 1394 3022 966 
Q 3022 478 2636 193 
Q 2250 -91 1575 -91 
Q 1294 -91 989 -36 
Q 684 19 347 128 
L 347 722 
Q 666 556 975 473 
Q 1284 391 1588 391 
Q 1994 391 2212 530 
Q 2431 669 2431 922 
Q 2431 1156 2273 1281 
Q 2116 1406 1581 1522 
L 1381 1569 
Q 847 1681 609 1914 
Q 372 2147 372 2553 
Q 372 3047 722 3315 
Q 1072 3584 1716 3584 
Q 2034 3584 2315 3537 
Q 2597 3491 2834 3397 
z
" transform="scale(0.015625)"/>
     </defs>
     <use xlink:href="#DejaVuSans-4f"/>
     <use xlink:href="#DejaVuSans-64" x="78.710938"/>
     <use xlink:href="#DejaVuSans-64" x="142.1875"/>
     <use xlink:href="#DejaVuSans-20" x="205.664062"/>
     <use xlink:href="#DejaVuSans-50" x="237.451172"/>
     <use xlink:href="#DejaVuSans-65" x="294.128906"/>
     <use xlink:href="#DejaVuSans-72" x="355.652344"/>
     <use xlink:href="#DejaVuSans-69" x="396.765625"/>
     <use xlink:href="#DejaVuSans-6f" x="424.548828"/>
     <use xlink:href="#DejaVuSans-64" x="485.730469"/>
     <use xlink:href="#DejaVuSans-69" x="549.207031"/>
     <use xlink:href="#DejaVuSans-63" x="576.990234"/>
     <use xlink:href="#DejaVuSans-20" x="631.970703"/>
     <use xlink:href="#DejaVuSans-4d" x="663.757812"/>
     <use xlink:href="#DejaVuSans-61" x="750.037109"/>
     <use xlink:href="#DejaVuSans-74" x="811.316406"/>
     <use xlink:href="#DejaVuSans-68" x="850.525391"/>
     <use xlink:href="#DejaVuSans-69" x="913.904297"/>
     <use xlink:href="#DejaVuSans-65" x="941.6875"/>
     <use xlink:href="#DejaVuSans-75" x="1003.210938"/>
     <use xlink:href="#DejaVuSans-20" x="1066.589844"/>
     <use xlink:href="#DejaVuSans-46" x="1098.376953"/>
     <use xlink:href="#DejaVuSans-75" x="1150.396484"/>
     <use xlink:href="#DejaVuSans-6e" x="1213.775391"/>
     <use xlink:href="#DejaVuSans-63" x="1277.154297"/>
     <use xlink:href="#DejaVuSans-74" x="1332.134766"/>
     <use xlink:href="#DejaVuSans-69" x="1371.34375"/>
     <use xlink:href="#DejaVuSans-6f" x="1399.126953"/>
     <use xlink:href="#DejaVuSans-6e" x="1460.308594"/>
     <use xlink:href="#DejaVuSans-73" x="1523.6875"/>
    </g>
    <!-- Orders 1 - 5, q = 1 -->
    <g transform="translate(239.22 45.84) scale(0.12 -0.12)">
     <defs>
      <path id="DejaVuSans-2d" d="M 313 2009 
L 1997 2009 
L 1997 1497 
L 313 1497 
L 313 2009 
z
" transform="scale(0.015625)"/>
      <path id="DejaVuSans-2c" d="M 750 794 
L 1409 794 
L 1409 256 
L 897 -744 
L 494 -744 
L 750 256 
L 750 794 
z
" transform="scale(0.015625)"/>
      <path id="DejaVuSans-71" d="M 947 1747 
Q 947 1113 1208 752 
Q 1469 391 1925 391 
Q 2381 391 2643 752 
Q 2906 1113 2906 1747 
Q 2906 2381 2643 2742 
Q 2381 3103 1925 3103 
Q 1469 3103 1208 2742 
Q 947 2381 947 1747 
z
M 2906 525 
Q 2725 213 2448 61 
Q 2172 -91 1784 -91 
Q 1150 -91 751 415 
Q 353 922 353 1747 
Q 353 2572 751 3078 
Q 1150 3584 1784 3584 
Q 2172 3584 2448 3432 
Q 2725 3281 2906 2969 
L 2906 3500 
L 3481 3500 
L 3481 -1331 
L 2906 -1331 
L 2906 525 
z
" transform="scale(0.015625)"/>
      <path id="DejaVuSans-3d" d="M 678 2906 
L 4684 2906 
L 4684 2381 
L 678 2381 
L 678 2906 
z
M 678 1631 
L 4684 1631 
L 4684 1100 
L 678 1100 
L 678 1631 
z
" transform="scale(0.015625)"/>
     </defs>
     <use xlink:href="#DejaVuSans-4f"/>
     <use xlink:href="#DejaVuSans-72" x="78.710938"/>
     <use xlink:href="#DejaVuSans-64" x="118.074219"/>
     <use xlink:href="#DejaVuSans-65" x="181.550781"/>
     <use xlink:href="#DejaVuSans-72" x="243.074219"/>
     <use xlink:href="#DejaVuSans-73" x="284.1875"/>
     <use xlink:href="#DejaVuSans-20" x="336.287109"/>
     <use xlink:href="#DejaVuSans-31" x="368.074219"/>
     <use xlink:href="#DejaVuSans-20" x="431.697266"/>
     <use xlink:href="#DejaVuSans-2d" x="463.484375"/>
     <use xlink:href="#DejaVuSans-20" x="499.568359"/>
     <use xlink:href="#DejaVuSans-35" x="531.355469"/>
     <use xlink:href="#DejaVuSans-2c" x="594.978516"/>
     <use xlink:href="#DejaVuSans-20" x="626.765625"/>
     <use xlink:href="#DejaVuSans-71" x="658.552734"/>
     <use xlink:href="#DejaVuSans-20" x="722.029297"/>
     <use xlink:href="#DejaVuSans-3d" x="753.816406"/>
     <use xlink:href="#DejaVuSans-20" x="837.605469"/>
     <use xlink:href="#DejaVuSans-31" x="869.392578"/>
    </g>
   </g>
   <g id="legend_1">
    <g id="patch_7">
     <path d="M 81 135.230625 
L 129.2 135.230625 
Q 131.2 135.230625 131.2 133.230625 
L 131.2 60.84 
Q 131.2 58.84 129.2 58.84 
L 81 58.84 
Q 79 58.84 79 60.84 
L 79 133.230625 
Q 79 135.230625 81 135.230625 
z
" style="fill: #4c4c4c; opacity: 0.5; stroke: #4c4c4c; stroke-linejoin: miter"/>
    </g>
    <g id="patch_8">
     <path d="M 79 133.230625 
L 127.2 133.230625 
Q 129.2 133.230625 129.2 131.230625 
L 129.2 58.84 
Q 129.2 56.84 127.2 56.84 
L 79 56.84 
Q 77 56.84 77 58.84 
L 77 131.230625 
Q 77 133.230625 79 133.230625 
z
" style="fill: #ffffff; stroke: #cccccc; stroke-linejoin: miter"/>
    </g>
    <g id="line2d_36">
     <path d="M 81 64.938437 
L 91 64.938437 
L 101 64.938437 
" style="fill: none; stroke: #1f77b4; stroke-width: 1.5; stroke-linecap: square"/>
    </g>
    <g id="text_17">
     <!-- se$_1$ -->
     <g transform="translate(109 68.438437) scale(0.1 -0.1)">
      <use xlink:href="#DejaVuSans-73"/>
      <use xlink:href="#DejaVuSans-65" transform="translate(52.099609 0)"/>
      <use xlink:href="#DejaVuSans-31" transform="translate(114.580078 -16.40625) scale(0.7)"/>
     </g>
    </g>
    <g id="line2d_37">
     <path d="M 81 79.616562 
L 91 79.616562 
L 101 79.616562 
" style="fill: none; stroke-dasharray: 4.6875,1.40625; stroke-dashoffset: 0; stroke: #ff7f0e; stroke-width: 1.5"/>
    </g>
    <g id="text_18">
     <!-- se$_2$ -->
     <g transform="translate(109 83.116562) scale(0.1 -0.1)">
      <use xlink:href="#DejaVuSans-73"/>
      <use xlink:href="#DejaVuSans-65" transform="translate(52.099609 0)"/>
      <use xlink:href="#DejaVuSans-32" transform="translate(114.580078 -16.40625) scale(0.7)"/>
     </g>
    </g>
    <g id="line2d_38">
     <path d="M 81 94.294687 
L 91 94.294687 
L 101 94.294687 
" style="fill: none; stroke-dasharray: 9.375,1.40625; stroke-dashoffset: 0; stroke: #2ca02c; stroke-width: 1.5"/>
    </g>
    <g id="text_19">
     <!-- se$_3$ -->
     <g transform="translate(109 97.794687) scale(0.1 -0.1)">
      <use xlink:href="#DejaVuSans-73"/>
      <use xlink:href="#DejaVuSans-65" transform="translate(52.099609 0)"/>
      <use xlink:href="#DejaVuSans-33" transform="translate(114.580078 -16.40625) scale(0.7)"/>
     </g>
    </g>
    <g id="line2d_39">
     <path d="M 81 108.972812 
L 91 108.972812 
L 101 108.972812 
" style="fill: none; stroke-dasharray: 11.25,1.40625,3.75,1.40625; stroke-dashoffset: 0; stroke: #d62728; stroke-width: 1.5"/>
    </g>
    <g id="text_20">
     <!-- se$_4$ -->
     <g transform="translate(109 112.472812) scale(0.1 -0.1)">
      <use xlink:href="#DejaVuSans-73"/>
      <use xlink:href="#DejaVuSans-65" transform="translate(52.099609 0)"/>
      <use xlink:href="#DejaVuSans-34" transform="translate(114.580078 -16.40625) scale(0.7)"/>
     </g>
    </g>
    <g id="line2d_40">
     <path d="M 81 123.650937 
L 91 123.650937 
L 101 123.650937 
" style="fill: none; stroke-dasharray: 11.25,1.40625,1.40625,1.40625; stroke-dashoffset: 0; stroke: #9467bd; stroke-width: 1.5"/>
    </g>
    <g id="text_21">
     <!-- se$_5$ -->
     <g transform="translate(109 127.150937) scale(0.1 -0.1)">
      <use xlink:href="#DejaVuSans-73"/>
      <use xlink:href="#DejaVuSans-65" transform="translate(52.099609 0)"/>
      <use xlink:href="#DejaVuSans-35" transform="translate(114.580078 -16.40625) scale(0.7)"/>
     </g>
    </g>
   </g>
  </g>
 </g>
 <defs>
  <clipPath id="p918da519cb">
   <rect x="72" y="51.84" width="446.4" height="332.64"/>
  </clipPath>
 </defs>
</svg>
