<?xml version="1.0" encoding="utf-8"?>
<svg xmlns="http://www.w3.org/2000/svg" xmlns:xlink="http://www.w3.org/1999/xlink" width="600" height="400" viewBox="0 0 2400 1600">
<defs>
  <clipPath id="clip520">
    <rect x="0" y="0" width="2400" height="1600"/>
  </clipPath>
</defs>
<path clip-path="url(#clip520)" d="M0 1600 L2400 1600 L2400 0 L0 0  Z" fill="#ffffff" fill-rule="evenodd" fill-opacity="1"/>
<defs>
  <clipPath id="clip521">
    <rect x="480" y="0" width="1681" height="1600"/>
  </clipPath>
</defs>
<path clip-path="url(#clip520)" d="M217.783 1423.18 L2352.76 1423.18 L2352.76 183.952 L217.783 183.952  Z" fill="#ffffff" fill-rule="evenodd" fill-opacity="1"/>
<defs>
  <clipPath id="clip522">
    <rect x="217" y="183" width="2136" height="1240"/>
  </clipPath>
</defs>
<polyline clip-path="url(#clip522)" style="stroke:#000000; stroke-linecap:round; stroke-linejoin:round; stroke-width:2; stroke-opacity:0.1; fill:none" points="217.783,1423.18 217.783,183.952 "/>
<polyline clip-path="url(#clip522)" style="stroke:#000000; stroke-linecap:round; stroke-linejoin:round; stroke-width:2; stroke-opacity:0.1; fill:none" points="751.526,1423.18 751.526,183.952 "/>
<polyline clip-path="url(#clip522)" style="stroke:#000000; stroke-linecap:round; stroke-linejoin:round; stroke-width:2; stroke-opacity:0.1; fill:none" points="1285.27,1423.18 1285.27,183.952 "/>
<polyline clip-path="url(#clip522)" style="stroke:#000000; stroke-linecap:round; stroke-linejoin:round; stroke-width:2; stroke-opacity:0.1; fill:none" points="1819.01,1423.18 1819.01,183.952 "/>
<polyline clip-path="url(#clip522)" style="stroke:#000000; stroke-linecap:round; stroke-linejoin:round; stroke-width:2; stroke-opacity:0.1; fill:none" points="2352.76,1423.18 2352.76,183.952 "/>
<polyline clip-path="url(#clip522)" style="stroke:#000000; stroke-linecap:round; stroke-linejoin:round; stroke-width:2; stroke-opacity:0.1; fill:none" points="217.783,1388.11 2352.76,1388.11 "/>
<polyline clip-path="url(#clip522)" style="stroke:#000000; stroke-linecap:round; stroke-linejoin:round; stroke-width:2; stroke-opacity:0.1; fill:none" points="217.783,1079.36 2352.76,1079.36 "/>
<polyline clip-path="url(#clip522)" style="stroke:#000000; stroke-linecap:round; stroke-linejoin:round; stroke-width:2; stroke-opacity:0.1; fill:none" points="217.783,770.612 2352.76,770.612 "/>
<polyline clip-path="url(#clip522)" style="stroke:#000000; stroke-linecap:round; stroke-linejoin:round; stroke-width:2; stroke-opacity:0.1; fill:none" points="217.783,461.864 2352.76,461.864 "/>
<polyline clip-path="url(#clip520)" style="stroke:#000000; stroke-linecap:round; stroke-linejoin:round; stroke-width:4; stroke-opacity:1; fill:none" points="217.783,1423.18 2352.76,1423.18 "/>
<polyline clip-path="url(#clip520)" style="stroke:#000000; stroke-linecap:round; stroke-linejoin:round; stroke-width:4; stroke-opacity:1; fill:none" points="217.783,1423.18 217.783,1404.28 "/>
<polyline clip-path="url(#clip520)" style="stroke:#000000; stroke-linecap:round; stroke-linejoin:round; stroke-width:4; stroke-opacity:1; fill:none" points="751.526,1423.18 751.526,1404.28 "/>
<polyline clip-path="url(#clip520)" style="stroke:#000000; stroke-linecap:round; stroke-linejoin:round; stroke-width:4; stroke-opacity:1; fill:none" points="1285.27,1423.18 1285.27,1404.28 "/>
<polyline clip-path="url(#clip520)" style="stroke:#000000; stroke-linecap:round; stroke-linejoin:round; stroke-width:4; stroke-opacity:1; fill:none" points="1819.01,1423.18 1819.01,1404.28 "/>
<polyline clip-path="url(#clip520)" style="stroke:#000000; stroke-linecap:round; stroke-linejoin:round; stroke-width:4; stroke-opacity:1; fill:none" points="2352.76,1423.18 2352.76,1404.28 "/>
<path clip-path="url(#clip520)" d="M195.167 1454.1 Q191.556 1454.1 189.728 1457.66 Q187.922 1461.2 187.922 1468.33 Q187.922 1475.44 189.728 1479.01 Q191.556 1482.55 195.167 1482.55 Q198.802 1482.55 200.607 1479.01 Q202.436 1475.44 202.436 1468.33 Q202.436 1461.2 200.607 1457.66 Q198.802 1454.1 195.167 1454.1 M195.167 1450.39 Q200.977 1450.39 204.033 1455 Q207.112 1459.58 207.112 1468.33 Q207.112 1477.06 204.033 1481.67 Q200.977 1486.25 195.167 1486.25 Q189.357 1486.25 186.278 1481.67 Q183.223 1477.06 183.223 1468.33 Q183.223 1459.58 186.278 1455 Q189.357 1450.39 195.167 1450.39 Z" fill="#000000" fill-rule="nonzero" fill-opacity="1" /><path clip-path="url(#clip520)" d="M215.329 1479.7 L220.213 1479.7 L220.213 1485.58 L215.329 1485.58 L215.329 1479.7 Z" fill="#000000" fill-rule="nonzero" fill-opacity="1" /><path clip-path="url(#clip520)" d="M240.399 1454.1 Q236.787 1454.1 234.959 1457.66 Q233.153 1461.2 233.153 1468.33 Q233.153 1475.44 234.959 1479.01 Q236.787 1482.55 240.399 1482.55 Q244.033 1482.55 245.838 1479.01 Q247.667 1475.44 247.667 1468.33 Q247.667 1461.2 245.838 1457.66 Q244.033 1454.1 240.399 1454.1 M240.399 1450.39 Q246.209 1450.39 249.264 1455 Q252.343 1459.58 252.343 1468.33 Q252.343 1477.06 249.264 1481.67 Q246.209 1486.25 240.399 1486.25 Q234.588 1486.25 231.51 1481.67 Q228.454 1477.06 228.454 1468.33 Q228.454 1459.58 231.51 1455 Q234.588 1450.39 240.399 1450.39 Z" fill="#000000" fill-rule="nonzero" fill-opacity="1" /><path clip-path="url(#clip520)" d="M729.408 1454.1 Q725.797 1454.1 723.968 1457.66 Q722.163 1461.2 722.163 1468.33 Q722.163 1475.44 723.968 1479.01 Q725.797 1482.55 729.408 1482.55 Q733.042 1482.55 734.848 1479.01 Q736.677 1475.44 736.677 1468.33 Q736.677 1461.2 734.848 1457.66 Q733.042 1454.1 729.408 1454.1 M729.408 1450.39 Q735.218 1450.39 738.274 1455 Q741.353 1459.58 741.353 1468.33 Q741.353 1477.06 738.274 1481.67 Q735.218 1486.25 729.408 1486.25 Q723.598 1486.25 720.519 1481.67 Q717.464 1477.06 717.464 1468.33 Q717.464 1459.58 720.519 1455 Q723.598 1450.39 729.408 1450.39 Z" fill="#000000" fill-rule="nonzero" fill-opacity="1" /><path clip-path="url(#clip520)" d="M749.57 1479.7 L754.454 1479.7 L754.454 1485.58 L749.57 1485.58 L749.57 1479.7 Z" fill="#000000" fill-rule="nonzero" fill-opacity="1" /><path clip-path="url(#clip520)" d="M764.686 1451.02 L783.042 1451.02 L783.042 1454.96 L768.968 1454.96 L768.968 1463.43 Q769.987 1463.08 771.005 1462.92 Q772.024 1462.73 773.042 1462.73 Q778.829 1462.73 782.209 1465.9 Q785.589 1469.08 785.589 1474.49 Q785.589 1480.07 782.116 1483.17 Q778.644 1486.25 772.325 1486.25 Q770.149 1486.25 767.88 1485.88 Q765.635 1485.51 763.228 1484.77 L763.228 1480.07 Q765.311 1481.2 767.533 1481.76 Q769.755 1482.32 772.232 1482.32 Q776.237 1482.32 778.575 1480.21 Q780.913 1478.1 780.913 1474.49 Q780.913 1470.88 778.575 1468.77 Q776.237 1466.67 772.232 1466.67 Q770.357 1466.67 768.482 1467.08 Q766.63 1467.5 764.686 1468.38 L764.686 1451.02 Z" fill="#000000" fill-rule="nonzero" fill-opacity="1" /><path clip-path="url(#clip520)" d="M1252.42 1481.64 L1260.06 1481.64 L1260.06 1455.28 L1251.75 1456.95 L1251.75 1452.69 L1260.01 1451.02 L1264.69 1451.02 L1264.69 1481.64 L1272.33 1481.64 L1272.33 1485.58 L1252.42 1485.58 L1252.42 1481.64 Z" fill="#000000" fill-rule="nonzero" fill-opacity="1" /><path clip-path="url(#clip520)" d="M1281.77 1479.7 L1286.66 1479.7 L1286.66 1485.58 L1281.77 1485.58 L1281.77 1479.7 Z" fill="#000000" fill-rule="nonzero" fill-opacity="1" /><path clip-path="url(#clip520)" d="M1306.84 1454.1 Q1303.23 1454.1 1301.4 1457.66 Q1299.6 1461.2 1299.6 1468.33 Q1299.6 1475.44 1301.4 1479.01 Q1303.23 1482.55 1306.84 1482.55 Q1310.48 1482.55 1312.28 1479.01 Q1314.11 1475.44 1314.11 1468.33 Q1314.11 1461.2 1312.28 1457.66 Q1310.48 1454.1 1306.84 1454.1 M1306.84 1450.39 Q1312.65 1450.39 1315.71 1455 Q1318.79 1459.58 1318.79 1468.33 Q1318.79 1477.06 1315.71 1481.67 Q1312.65 1486.25 1306.84 1486.25 Q1301.03 1486.25 1297.95 1481.67 Q1294.9 1477.06 1294.9 1468.33 Q1294.9 1459.58 1297.95 1455 Q1301.03 1450.39 1306.84 1450.39 Z" fill="#000000" fill-rule="nonzero" fill-opacity="1" /><path clip-path="url(#clip520)" d="M1786.66 1481.64 L1794.3 1481.64 L1794.3 1455.28 L1785.99 1456.95 L1785.99 1452.69 L1794.26 1451.02 L1798.93 1451.02 L1798.93 1481.64 L1806.57 1481.64 L1806.57 1485.58 L1786.66 1485.58 L1786.66 1481.64 Z" fill="#000000" fill-rule="nonzero" fill-opacity="1" /><path clip-path="url(#clip520)" d="M1816.01 1479.7 L1820.9 1479.7 L1820.9 1485.58 L1816.01 1485.58 L1816.01 1479.7 Z" fill="#000000" fill-rule="nonzero" fill-opacity="1" /><path clip-path="url(#clip520)" d="M1831.13 1451.02 L1849.49 1451.02 L1849.49 1454.96 L1835.41 1454.96 L1835.41 1463.43 Q1836.43 1463.08 1837.45 1462.92 Q1838.47 1462.73 1839.49 1462.73 Q1845.27 1462.73 1848.65 1465.9 Q1852.03 1469.08 1852.03 1474.49 Q1852.03 1480.07 1848.56 1483.17 Q1845.09 1486.25 1838.77 1486.25 Q1836.59 1486.25 1834.33 1485.88 Q1832.08 1485.51 1829.67 1484.77 L1829.67 1480.07 Q1831.76 1481.2 1833.98 1481.76 Q1836.2 1482.32 1838.68 1482.32 Q1842.68 1482.32 1845.02 1480.21 Q1847.36 1478.1 1847.36 1474.49 Q1847.36 1470.88 1845.02 1468.77 Q1842.68 1466.67 1838.68 1466.67 Q1836.8 1466.67 1834.93 1467.08 Q1833.08 1467.5 1831.13 1468.38 L1831.13 1451.02 Z" fill="#000000" fill-rule="nonzero" fill-opacity="1" /><path clip-path="url(#clip520)" d="M2323.99 1481.64 L2340.31 1481.64 L2340.31 1485.58 L2318.37 1485.58 L2318.37 1481.64 Q2321.03 1478.89 2325.61 1474.26 Q2330.22 1469.61 2331.4 1468.27 Q2333.65 1465.74 2334.53 1464.01 Q2335.43 1462.25 2335.43 1460.56 Q2335.43 1457.8 2333.49 1456.07 Q2331.56 1454.33 2328.46 1454.33 Q2326.26 1454.33 2323.81 1455.09 Q2321.38 1455.86 2318.6 1457.41 L2318.6 1452.69 Q2321.43 1451.55 2323.88 1450.97 Q2326.33 1450.39 2328.37 1450.39 Q2333.74 1450.39 2336.93 1453.08 Q2340.13 1455.77 2340.13 1460.26 Q2340.13 1462.39 2339.32 1464.31 Q2338.53 1466.2 2336.42 1468.8 Q2335.85 1469.47 2332.74 1472.69 Q2329.64 1475.88 2323.99 1481.64 Z" fill="#000000" fill-rule="nonzero" fill-opacity="1" /><path clip-path="url(#clip520)" d="M2350.13 1479.7 L2355.01 1479.7 L2355.01 1485.58 L2350.13 1485.58 L2350.13 1479.7 Z" fill="#000000" fill-rule="nonzero" fill-opacity="1" /><path clip-path="url(#clip520)" d="M2375.2 1454.1 Q2371.59 1454.1 2369.76 1457.66 Q2367.95 1461.2 2367.95 1468.33 Q2367.95 1475.44 2369.76 1479.01 Q2371.59 1482.55 2375.2 1482.55 Q2378.83 1482.55 2380.64 1479.01 Q2382.47 1475.44 2382.47 1468.33 Q2382.47 1461.2 2380.64 1457.66 Q2378.83 1454.1 2375.2 1454.1 M2375.2 1450.39 Q2381.01 1450.39 2384.06 1455 Q2387.14 1459.58 2387.14 1468.33 Q2387.14 1477.06 2384.06 1481.67 Q2381.01 1486.25 2375.2 1486.25 Q2369.39 1486.25 2366.31 1481.67 Q2363.25 1477.06 2363.25 1468.33 Q2363.25 1459.58 2366.31 1455 Q2369.39 1450.39 2375.2 1450.39 Z" fill="#000000" fill-rule="nonzero" fill-opacity="1" /><path clip-path="url(#clip520)" d="M1284.33 1522.27 L1284.33 1532.4 L1296.39 1532.4 L1296.39 1536.95 L1284.33 1536.95 L1284.33 1556.3 Q1284.33 1560.66 1285.51 1561.9 Q1286.72 1563.14 1290.38 1563.14 L1296.39 1563.14 L1296.39 1568.04 L1290.38 1568.04 Q1283.6 1568.04 1281.02 1565.53 Q1278.44 1562.98 1278.44 1556.3 L1278.44 1536.95 L1274.15 1536.95 L1274.15 1532.4 L1278.44 1532.4 L1278.44 1522.27 L1284.33 1522.27 Z" fill="#000000" fill-rule="nonzero" fill-opacity="1" /><polyline clip-path="url(#clip520)" style="stroke:#000000; stroke-linecap:round; stroke-linejoin:round; stroke-width:4; stroke-opacity:1; fill:none" points="217.783,1423.18 217.783,183.952 "/>
<polyline clip-path="url(#clip520)" style="stroke:#000000; stroke-linecap:round; stroke-linejoin:round; stroke-width:4; stroke-opacity:1; fill:none" points="217.783,1388.11 236.681,1388.11 "/>
<polyline clip-path="url(#clip520)" style="stroke:#000000; stroke-linecap:round; stroke-linejoin:round; stroke-width:4; stroke-opacity:1; fill:none" points="217.783,1079.36 236.681,1079.36 "/>
<polyline clip-path="url(#clip520)" style="stroke:#000000; stroke-linecap:round; stroke-linejoin:round; stroke-width:4; stroke-opacity:1; fill:none" points="217.783,770.612 236.681,770.612 "/>
<polyline clip-path="url(#clip520)" style="stroke:#000000; stroke-linecap:round; stroke-linejoin:round; stroke-width:4; stroke-opacity:1; fill:none" points="217.783,461.864 236.681,461.864 "/>
<path clip-path="url(#clip520)" d="M115.418 1401.45 L123.056 1401.45 L123.056 1375.09 L114.746 1376.75 L114.746 1372.49 L123.01 1370.83 L127.686 1370.83 L127.686 1401.45 L135.325 1401.45 L135.325 1405.39 L115.418 1405.39 L115.418 1401.45 Z" fill="#000000" fill-rule="nonzero" fill-opacity="1" /><path clip-path="url(#clip520)" d="M144.769 1399.51 L149.653 1399.51 L149.653 1405.39 L144.769 1405.39 L144.769 1399.51 Z" fill="#000000" fill-rule="nonzero" fill-opacity="1" /><path clip-path="url(#clip520)" d="M169.839 1373.91 Q166.227 1373.91 164.399 1377.47 Q162.593 1381.01 162.593 1388.14 Q162.593 1395.25 164.399 1398.81 Q166.227 1402.35 169.839 1402.35 Q173.473 1402.35 175.278 1398.81 Q177.107 1395.25 177.107 1388.14 Q177.107 1381.01 175.278 1377.47 Q173.473 1373.91 169.839 1373.91 M169.839 1370.2 Q175.649 1370.2 178.704 1374.81 Q181.783 1379.39 181.783 1388.14 Q181.783 1396.87 178.704 1401.48 Q175.649 1406.06 169.839 1406.06 Q164.028 1406.06 160.95 1401.48 Q157.894 1396.87 157.894 1388.14 Q157.894 1379.39 160.95 1374.81 Q164.028 1370.2 169.839 1370.2 Z" fill="#000000" fill-rule="nonzero" fill-opacity="1" /><path clip-path="url(#clip520)" d="M117.015 1092.7 L124.654 1092.7 L124.654 1066.34 L116.343 1068.01 L116.343 1063.75 L124.607 1062.08 L129.283 1062.08 L129.283 1092.7 L136.922 1092.7 L136.922 1096.64 L117.015 1096.64 L117.015 1092.7 Z" fill="#000000" fill-rule="nonzero" fill-opacity="1" /><path clip-path="url(#clip520)" d="M146.366 1090.76 L151.251 1090.76 L151.251 1096.64 L146.366 1096.64 L146.366 1090.76 Z" fill="#000000" fill-rule="nonzero" fill-opacity="1" /><path clip-path="url(#clip520)" d="M165.464 1092.7 L181.783 1092.7 L181.783 1096.64 L159.839 1096.64 L159.839 1092.7 Q162.501 1089.95 167.084 1085.32 Q171.69 1080.67 172.871 1079.32 Q175.116 1076.8 175.996 1075.07 Q176.899 1073.31 176.899 1071.62 Q176.899 1068.86 174.954 1067.13 Q173.033 1065.39 169.931 1065.39 Q167.732 1065.39 165.278 1066.15 Q162.848 1066.92 160.07 1068.47 L160.07 1063.75 Q162.894 1062.61 165.348 1062.03 Q167.802 1061.45 169.839 1061.45 Q175.209 1061.45 178.403 1064.14 Q181.598 1066.82 181.598 1071.32 Q181.598 1073.45 180.788 1075.37 Q180.001 1077.26 177.894 1079.86 Q177.315 1080.53 174.214 1083.75 Q171.112 1086.94 165.464 1092.7 Z" fill="#000000" fill-rule="nonzero" fill-opacity="1" /><path clip-path="url(#clip520)" d="M114.931 783.957 L122.57 783.957 L122.57 757.591 L114.26 759.258 L114.26 754.998 L122.524 753.332 L127.2 753.332 L127.2 783.957 L134.839 783.957 L134.839 787.892 L114.931 787.892 L114.931 783.957 Z" fill="#000000" fill-rule="nonzero" fill-opacity="1" /><path clip-path="url(#clip520)" d="M144.283 782.012 L149.167 782.012 L149.167 787.892 L144.283 787.892 L144.283 782.012 Z" fill="#000000" fill-rule="nonzero" fill-opacity="1" /><path clip-path="url(#clip520)" d="M172.2 757.406 L160.394 775.855 L172.2 775.855 L172.2 757.406 M170.973 753.332 L176.852 753.332 L176.852 775.855 L181.783 775.855 L181.783 779.744 L176.852 779.744 L176.852 787.892 L172.2 787.892 L172.2 779.744 L156.598 779.744 L156.598 775.23 L170.973 753.332 Z" fill="#000000" fill-rule="nonzero" fill-opacity="1" /><path clip-path="url(#clip520)" d="M115.256 475.209 L122.894 475.209 L122.894 448.843 L114.584 450.51 L114.584 446.251 L122.848 444.584 L127.524 444.584 L127.524 475.209 L135.163 475.209 L135.163 479.144 L115.256 479.144 L115.256 475.209 Z" fill="#000000" fill-rule="nonzero" fill-opacity="1" /><path clip-path="url(#clip520)" d="M144.607 473.264 L149.491 473.264 L149.491 479.144 L144.607 479.144 L144.607 473.264 Z" fill="#000000" fill-rule="nonzero" fill-opacity="1" /><path clip-path="url(#clip520)" d="M170.255 460.001 Q167.107 460.001 165.255 462.153 Q163.427 464.306 163.427 468.056 Q163.427 471.783 165.255 473.959 Q167.107 476.112 170.255 476.112 Q173.403 476.112 175.232 473.959 Q177.084 471.783 177.084 468.056 Q177.084 464.306 175.232 462.153 Q173.403 460.001 170.255 460.001 M179.538 445.348 L179.538 449.607 Q177.778 448.774 175.973 448.334 Q174.19 447.894 172.431 447.894 Q167.802 447.894 165.348 451.019 Q162.917 454.144 162.57 460.464 Q163.936 458.45 165.996 457.385 Q168.056 456.297 170.533 456.297 Q175.741 456.297 178.751 459.468 Q181.783 462.616 181.783 468.056 Q181.783 473.38 178.635 476.598 Q175.487 479.815 170.255 479.815 Q164.26 479.815 161.089 475.232 Q157.917 470.626 157.917 461.899 Q157.917 453.704 161.806 448.843 Q165.695 443.959 172.246 443.959 Q174.005 443.959 175.788 444.306 Q177.593 444.654 179.538 445.348 Z" fill="#000000" fill-rule="nonzero" fill-opacity="1" /><path clip-path="url(#clip520)" d="M67.3143 801.879 Q73.68 804.362 75.6216 806.717 Q77.5631 809.072 77.5631 813.019 L77.5631 817.698 L72.6615 817.698 L72.6615 814.26 Q72.6615 811.841 71.5157 810.505 Q70.3699 809.168 66.1048 807.545 L63.4312 806.494 L28.3562 820.913 L28.3562 814.706 L56.238 803.566 L28.3562 792.426 L28.3562 786.219 L67.3143 801.879 Z" fill="#000000" fill-rule="nonzero" fill-opacity="1" /><path clip-path="url(#clip520)" d="M650.857 35.2489 L650.857 43.2292 Q646.199 41.0012 642.067 39.9075 Q637.935 38.8137 634.087 38.8137 Q627.403 38.8137 623.757 41.4063 Q620.151 43.9989 620.151 48.779 Q620.151 52.7894 622.541 54.8553 Q624.972 56.8808 631.697 58.1366 L636.639 59.1493 Q645.794 60.8912 650.128 65.3067 Q654.503 69.6816 654.503 77.0543 Q654.503 85.8447 648.589 90.3817 Q642.715 94.9188 631.332 94.9188 Q627.038 94.9188 622.177 93.9465 Q617.356 92.9743 612.171 91.0704 L612.171 82.6445 Q617.154 85.4396 621.934 86.8575 Q626.714 88.2753 631.332 88.2753 Q638.34 88.2753 642.148 85.5207 Q645.956 82.766 645.956 77.6619 Q645.956 73.2059 643.201 70.6944 Q640.487 68.1828 634.249 66.927 L629.266 65.9548 Q620.111 64.1319 616.02 60.243 Q611.928 56.3542 611.928 49.4271 Q611.928 41.4063 617.559 36.7883 Q623.23 32.1703 633.155 32.1703 Q637.408 32.1703 641.824 32.9399 Q646.239 33.7096 650.857 35.2489 Z" fill="#000000" fill-rule="nonzero" fill-opacity="1" /><path clip-path="url(#clip520)" d="M674.312 35.492 L674.312 48.3739 L689.665 48.3739 L689.665 54.1667 L674.312 54.1667 L674.312 78.7962 Q674.312 84.3459 675.811 85.9258 Q677.35 87.5056 682.009 87.5056 L689.665 87.5056 L689.665 93.744 L682.009 93.744 Q673.38 93.744 670.099 90.5438 Q666.818 87.3031 666.818 78.7962 L666.818 54.1667 L661.349 54.1667 L661.349 48.3739 L666.818 48.3739 L666.818 35.492 L674.312 35.492 Z" fill="#000000" fill-rule="nonzero" fill-opacity="1" /><path clip-path="url(#clip520)" d="M720.087 70.9374 Q711.054 70.9374 707.57 73.0034 Q704.086 75.0693 704.086 80.0519 Q704.086 84.0218 706.679 86.3714 Q709.312 88.6804 713.808 88.6804 Q720.006 88.6804 723.733 84.3054 Q727.5 79.8899 727.5 72.5983 L727.5 70.9374 L720.087 70.9374 M734.954 67.8587 L734.954 93.744 L727.5 93.744 L727.5 86.8575 Q724.948 90.9894 721.141 92.9743 Q717.333 94.9188 711.823 94.9188 Q704.856 94.9188 700.724 91.0299 Q696.633 87.1005 696.633 80.5381 Q696.633 72.8818 701.737 68.993 Q706.881 65.1041 717.049 65.1041 L727.5 65.1041 L727.5 64.3749 Q727.5 59.2303 724.098 56.4352 Q720.735 53.5995 714.619 53.5995 Q710.73 53.5995 707.043 54.5312 Q703.357 55.463 699.954 57.3264 L699.954 50.4398 Q704.046 48.86 707.894 48.0903 Q711.742 47.2801 715.388 47.2801 Q725.232 47.2801 730.093 52.3843 Q734.954 57.4884 734.954 67.8587 Z" fill="#000000" fill-rule="nonzero" fill-opacity="1" /><path clip-path="url(#clip520)" d="M757.68 35.492 L757.68 48.3739 L773.033 48.3739 L773.033 54.1667 L757.68 54.1667 L757.68 78.7962 Q757.68 84.3459 759.178 85.9258 Q760.718 87.5056 765.376 87.5056 L773.033 87.5056 L773.033 93.744 L765.376 93.744 Q756.748 93.744 753.467 90.5438 Q750.185 87.3031 750.185 78.7962 L750.185 54.1667 L744.717 54.1667 L744.717 48.3739 L750.185 48.3739 L750.185 35.492 L757.68 35.492 Z" fill="#000000" fill-rule="nonzero" fill-opacity="1" /><path clip-path="url(#clip520)" d="M821.643 69.1955 L821.643 72.8413 L787.373 72.8413 Q787.859 80.5381 791.991 84.589 Q796.163 88.5994 803.576 88.5994 Q807.87 88.5994 811.881 87.5461 Q815.932 86.4929 819.902 84.3864 L819.902 91.435 Q815.891 93.1364 811.678 94.0276 Q807.465 94.9188 803.131 94.9188 Q792.274 94.9188 785.914 88.5994 Q779.595 82.2799 779.595 71.5045 Q779.595 60.3645 785.59 53.8426 Q791.626 47.2801 801.835 47.2801 Q810.99 47.2801 816.296 53.1944 Q821.643 59.0683 821.643 69.1955 M814.19 67.008 Q814.109 60.8912 810.747 57.2454 Q807.425 53.5995 801.916 53.5995 Q795.677 53.5995 791.91 57.1238 Q788.183 60.6481 787.616 67.0485 L814.19 67.008 Z" fill="#000000" fill-rule="nonzero" fill-opacity="1" /><path clip-path="url(#clip520)" d="M868.755 39.9885 L868.755 87.0195 L878.64 87.0195 Q891.157 87.0195 896.95 81.3482 Q902.783 75.677 902.783 63.4432 Q902.783 51.2905 896.95 45.6598 Q891.157 39.9885 878.64 39.9885 L868.755 39.9885 M860.573 33.264 L877.384 33.264 Q894.965 33.264 903.188 40.5961 Q911.411 47.8878 911.411 63.4432 Q911.411 79.0797 903.148 86.4119 Q894.884 93.744 877.384 93.744 L860.573 93.744 L860.573 33.264 Z" fill="#000000" fill-rule="nonzero" fill-opacity="1" /><path clip-path="url(#clip520)" d="M962.939 69.1955 L962.939 72.8413 L928.668 72.8413 Q929.154 80.5381 933.286 84.589 Q937.459 88.5994 944.872 88.5994 Q949.166 88.5994 953.176 87.5461 Q957.227 86.4929 961.197 84.3864 L961.197 91.435 Q957.187 93.1364 952.974 94.0276 Q948.761 94.9188 944.426 94.9188 Q933.57 94.9188 927.21 88.5994 Q920.891 82.2799 920.891 71.5045 Q920.891 60.3645 926.886 53.8426 Q932.922 47.2801 943.13 47.2801 Q952.285 47.2801 957.592 53.1944 Q962.939 59.0683 962.939 69.1955 M955.485 67.008 Q955.404 60.8912 952.042 57.2454 Q948.72 53.5995 943.211 53.5995 Q936.973 53.5995 933.205 57.1238 Q929.479 60.6481 928.911 67.0485 L955.485 67.008 Z" fill="#000000" fill-rule="nonzero" fill-opacity="1" /><path clip-path="url(#clip520)" d="M982.383 86.9385 L982.383 111.001 L974.889 111.001 L974.889 48.3739 L982.383 48.3739 L982.383 55.2604 Q984.733 51.2095 988.298 49.2651 Q991.903 47.2801 996.886 47.2801 Q1005.15 47.2801 1010.29 53.8426 Q1015.48 60.4051 1015.48 71.0994 Q1015.48 81.7938 1010.29 88.3563 Q1005.15 94.9188 996.886 94.9188 Q991.903 94.9188 988.298 92.9743 Q984.733 90.9894 982.383 86.9385 M1007.74 71.0994 Q1007.74 62.8761 1004.34 58.2176 Q1000.98 53.5185 995.063 53.5185 Q989.148 53.5185 985.746 58.2176 Q982.383 62.8761 982.383 71.0994 Q982.383 79.3228 985.746 84.0218 Q989.148 88.6804 995.063 88.6804 Q1000.98 88.6804 1004.34 84.0218 Q1007.74 79.3228 1007.74 71.0994 Z" fill="#000000" fill-rule="nonzero" fill-opacity="1" /><path clip-path="url(#clip520)" d="M1066.64 69.1955 L1066.64 72.8413 L1032.37 72.8413 Q1032.86 80.5381 1036.99 84.589 Q1041.16 88.5994 1048.58 88.5994 Q1052.87 88.5994 1056.88 87.5461 Q1060.93 86.4929 1064.9 84.3864 L1064.9 91.435 Q1060.89 93.1364 1056.68 94.0276 Q1052.46 94.9188 1048.13 94.9188 Q1037.27 94.9188 1030.91 88.5994 Q1024.59 82.2799 1024.59 71.5045 Q1024.59 60.3645 1030.59 53.8426 Q1036.62 47.2801 1046.83 47.2801 Q1055.99 47.2801 1061.29 53.1944 Q1066.64 59.0683 1066.64 69.1955 M1059.19 67.008 Q1059.11 60.8912 1055.75 57.2454 Q1052.42 53.5995 1046.91 53.5995 Q1040.68 53.5995 1036.91 57.1238 Q1033.18 60.6481 1032.61 67.0485 L1059.19 67.008 Z" fill="#000000" fill-rule="nonzero" fill-opacity="1" /><path clip-path="url(#clip520)" d="M1116.59 66.3599 L1116.59 93.744 L1109.14 93.744 L1109.14 66.6029 Q1109.14 60.162 1106.62 56.9618 Q1104.11 53.7616 1099.09 53.7616 Q1093.05 53.7616 1089.57 57.6099 Q1086.09 61.4583 1086.09 68.1018 L1086.09 93.744 L1078.59 93.744 L1078.59 48.3739 L1086.09 48.3739 L1086.09 55.4224 Q1088.76 51.331 1092.37 49.3056 Q1096.01 47.2801 1100.75 47.2801 Q1108.57 47.2801 1112.58 52.1412 Q1116.59 56.9618 1116.59 66.3599 Z" fill="#000000" fill-rule="nonzero" fill-opacity="1" /><path clip-path="url(#clip520)" d="M1161.31 55.2604 L1161.31 30.7119 L1168.77 30.7119 L1168.77 93.744 L1161.31 93.744 L1161.31 86.9385 Q1158.96 90.9894 1155.36 92.9743 Q1151.79 94.9188 1146.77 94.9188 Q1138.55 94.9188 1133.36 88.3563 Q1128.22 81.7938 1128.22 71.0994 Q1128.22 60.4051 1133.36 53.8426 Q1138.55 47.2801 1146.77 47.2801 Q1151.79 47.2801 1155.36 49.2651 Q1158.96 51.2095 1161.31 55.2604 M1135.91 71.0994 Q1135.91 79.3228 1139.27 84.0218 Q1142.68 88.6804 1148.59 88.6804 Q1154.51 88.6804 1157.91 84.0218 Q1161.31 79.3228 1161.31 71.0994 Q1161.31 62.8761 1157.91 58.2176 Q1154.51 53.5185 1148.59 53.5185 Q1142.68 53.5185 1139.27 58.2176 Q1135.91 62.8761 1135.91 71.0994 Z" fill="#000000" fill-rule="nonzero" fill-opacity="1" /><path clip-path="url(#clip520)" d="M1222.93 69.1955 L1222.93 72.8413 L1188.66 72.8413 Q1189.14 80.5381 1193.27 84.589 Q1197.45 88.5994 1204.86 88.5994 Q1209.15 88.5994 1213.16 87.5461 Q1217.21 86.4929 1221.18 84.3864 L1221.18 91.435 Q1217.17 93.1364 1212.96 94.0276 Q1208.75 94.9188 1204.41 94.9188 Q1193.56 94.9188 1187.2 88.5994 Q1180.88 82.2799 1180.88 71.5045 Q1180.88 60.3645 1186.87 53.8426 Q1192.91 47.2801 1203.12 47.2801 Q1212.27 47.2801 1217.58 53.1944 Q1222.93 59.0683 1222.93 69.1955 M1215.47 67.008 Q1215.39 60.8912 1212.03 57.2454 Q1208.71 53.5995 1203.2 53.5995 Q1196.96 53.5995 1193.19 57.1238 Q1189.47 60.6481 1188.9 67.0485 L1215.47 67.008 Z" fill="#000000" fill-rule="nonzero" fill-opacity="1" /><path clip-path="url(#clip520)" d="M1272.87 66.3599 L1272.87 93.744 L1265.42 93.744 L1265.42 66.6029 Q1265.42 60.162 1262.91 56.9618 Q1260.4 53.7616 1255.37 53.7616 Q1249.34 53.7616 1245.85 57.6099 Q1242.37 61.4583 1242.37 68.1018 L1242.37 93.744 L1234.88 93.744 L1234.88 48.3739 L1242.37 48.3739 L1242.37 55.4224 Q1245.04 51.331 1248.65 49.3056 Q1252.3 47.2801 1257.03 47.2801 Q1264.85 47.2801 1268.86 52.1412 Q1272.87 56.9618 1272.87 66.3599 Z" fill="#000000" fill-rule="nonzero" fill-opacity="1" /><path clip-path="url(#clip520)" d="M1295.11 35.492 L1295.11 48.3739 L1310.47 48.3739 L1310.47 54.1667 L1295.11 54.1667 L1295.11 78.7962 Q1295.11 84.3459 1296.61 85.9258 Q1298.15 87.5056 1302.81 87.5056 L1310.47 87.5056 L1310.47 93.744 L1302.81 93.744 Q1294.18 93.744 1290.9 90.5438 Q1287.62 87.3031 1287.62 78.7962 L1287.62 54.1667 L1282.15 54.1667 L1282.15 48.3739 L1287.62 48.3739 L1287.62 35.492 L1295.11 35.492 Z" fill="#000000" fill-rule="nonzero" fill-opacity="1" /><path clip-path="url(#clip520)" d="M1355.15 39.9885 L1355.15 87.0195 L1365.03 87.0195 Q1377.55 87.0195 1383.34 81.3482 Q1389.18 75.677 1389.18 63.4432 Q1389.18 51.2905 1383.34 45.6598 Q1377.55 39.9885 1365.03 39.9885 L1355.15 39.9885 M1346.96 33.264 L1363.78 33.264 Q1381.36 33.264 1389.58 40.5961 Q1397.8 47.8878 1397.8 63.4432 Q1397.8 79.0797 1389.54 86.4119 Q1381.28 93.744 1363.78 93.744 L1346.96 93.744 L1346.96 33.264 Z" fill="#000000" fill-rule="nonzero" fill-opacity="1" /><path clip-path="url(#clip520)" d="M1449.33 69.1955 L1449.33 72.8413 L1415.06 72.8413 Q1415.55 80.5381 1419.68 84.589 Q1423.85 88.5994 1431.26 88.5994 Q1435.56 88.5994 1439.57 87.5461 Q1443.62 86.4929 1447.59 84.3864 L1447.59 91.435 Q1443.58 93.1364 1439.37 94.0276 Q1435.15 94.9188 1430.82 94.9188 Q1419.96 94.9188 1413.6 88.5994 Q1407.28 82.2799 1407.28 71.5045 Q1407.28 60.3645 1413.28 53.8426 Q1419.31 47.2801 1429.52 47.2801 Q1438.68 47.2801 1443.98 53.1944 Q1449.33 59.0683 1449.33 69.1955 M1441.88 67.008 Q1441.8 60.8912 1438.43 57.2454 Q1435.11 53.5995 1429.6 53.5995 Q1423.36 53.5995 1419.6 57.1238 Q1415.87 60.6481 1415.3 67.0485 L1441.88 67.008 Z" fill="#000000" fill-rule="nonzero" fill-opacity="1" /><path clip-path="url(#clip520)" d="M1461.56 30.7119 L1469.02 30.7119 L1469.02 93.744 L1461.56 93.744 L1461.56 30.7119 Z" fill="#000000" fill-rule="nonzero" fill-opacity="1" /><path clip-path="url(#clip520)" d="M1505.23 70.9374 Q1496.2 70.9374 1492.72 73.0034 Q1489.23 75.0693 1489.23 80.0519 Q1489.23 84.0218 1491.83 86.3714 Q1494.46 88.6804 1498.95 88.6804 Q1505.15 88.6804 1508.88 84.3054 Q1512.65 79.8899 1512.65 72.5983 L1512.65 70.9374 L1505.23 70.9374 M1520.1 67.8587 L1520.1 93.744 L1512.65 93.744 L1512.65 86.8575 Q1510.09 90.9894 1506.29 92.9743 Q1502.48 94.9188 1496.97 94.9188 Q1490 94.9188 1485.87 91.0299 Q1481.78 87.1005 1481.78 80.5381 Q1481.78 72.8818 1486.88 68.993 Q1492.03 65.1041 1502.2 65.1041 L1512.65 65.1041 L1512.65 64.3749 Q1512.65 59.2303 1509.24 56.4352 Q1505.88 53.5995 1499.76 53.5995 Q1495.88 53.5995 1492.19 54.5312 Q1488.5 55.463 1485.1 57.3264 L1485.1 50.4398 Q1489.19 48.86 1493.04 48.0903 Q1496.89 47.2801 1500.53 47.2801 Q1510.38 47.2801 1515.24 52.3843 Q1520.1 57.4884 1520.1 67.8587 Z" fill="#000000" fill-rule="nonzero" fill-opacity="1" /><path clip-path="url(#clip520)" d="M1554.33 97.9569 Q1551.17 106.059 1548.17 108.53 Q1545.18 111.001 1540.15 111.001 L1534.2 111.001 L1534.2 104.762 L1538.57 104.762 Q1541.65 104.762 1543.35 103.304 Q1545.05 101.846 1547.12 96.4176 L1548.46 93.0148 L1530.11 48.3739 L1538.01 48.3739 L1552.18 83.8598 L1566.36 48.3739 L1574.26 48.3739 L1554.33 97.9569 Z" fill="#000000" fill-rule="nonzero" fill-opacity="1" /><path clip-path="url(#clip520)" d="M1611.25 33.264 L1649.49 33.264 L1649.49 40.1505 L1619.43 40.1505 L1619.43 58.0555 L1648.23 58.0555 L1648.23 64.9421 L1619.43 64.9421 L1619.43 86.8575 L1650.22 86.8575 L1650.22 93.744 L1611.25 93.744 L1611.25 33.264 Z" fill="#000000" fill-rule="nonzero" fill-opacity="1" /><path clip-path="url(#clip520)" d="M1701.05 48.3739 L1684.65 70.4513 L1701.9 93.744 L1693.11 93.744 L1679.91 75.92 L1666.7 93.744 L1657.91 93.744 L1675.53 70.0057 L1659.41 48.3739 L1668.2 48.3739 L1680.23 64.537 L1692.26 48.3739 L1701.05 48.3739 Z" fill="#000000" fill-rule="nonzero" fill-opacity="1" /><path clip-path="url(#clip520)" d="M1733.06 70.9374 Q1724.02 70.9374 1720.54 73.0034 Q1717.06 75.0693 1717.06 80.0519 Q1717.06 84.0218 1719.65 86.3714 Q1722.28 88.6804 1726.78 88.6804 Q1732.98 88.6804 1736.7 84.3054 Q1740.47 79.8899 1740.47 72.5983 L1740.47 70.9374 L1733.06 70.9374 M1747.92 67.8587 L1747.92 93.744 L1740.47 93.744 L1740.47 86.8575 Q1737.92 90.9894 1734.11 92.9743 Q1730.3 94.9188 1724.79 94.9188 Q1717.82 94.9188 1713.69 91.0299 Q1709.6 87.1005 1709.6 80.5381 Q1709.6 72.8818 1714.71 68.993 Q1719.85 65.1041 1730.02 65.1041 L1740.47 65.1041 L1740.47 64.3749 Q1740.47 59.2303 1737.07 56.4352 Q1733.7 53.5995 1727.59 53.5995 Q1723.7 53.5995 1720.01 54.5312 Q1716.33 55.463 1712.92 57.3264 L1712.92 50.4398 Q1717.01 48.86 1720.86 48.0903 Q1724.71 47.2801 1728.36 47.2801 Q1738.2 47.2801 1743.06 52.3843 Q1747.92 57.4884 1747.92 67.8587 Z" fill="#000000" fill-rule="nonzero" fill-opacity="1" /><path clip-path="url(#clip520)" d="M1798.6 57.0833 Q1801.4 52.0602 1805.28 49.6702 Q1809.17 47.2801 1814.44 47.2801 Q1821.53 47.2801 1825.38 52.2627 Q1829.22 57.2048 1829.22 66.3599 L1829.22 93.744 L1821.73 93.744 L1821.73 66.6029 Q1821.73 60.081 1819.42 56.9213 Q1817.11 53.7616 1812.37 53.7616 Q1806.58 53.7616 1803.22 57.6099 Q1799.86 61.4583 1799.86 68.1018 L1799.86 93.744 L1792.36 93.744 L1792.36 66.6029 Q1792.36 60.0405 1790.05 56.9213 Q1787.74 53.7616 1782.92 53.7616 Q1777.21 53.7616 1773.85 57.6504 Q1770.49 61.4988 1770.49 68.1018 L1770.49 93.744 L1762.99 93.744 L1762.99 48.3739 L1770.49 48.3739 L1770.49 55.4224 Q1773.04 51.25 1776.6 49.2651 Q1780.17 47.2801 1785.07 47.2801 Q1790.01 47.2801 1793.46 49.7917 Q1796.94 52.3032 1798.6 57.0833 Z" fill="#000000" fill-rule="nonzero" fill-opacity="1" /><path clip-path="url(#clip520)" d="M1851.3 86.9385 L1851.3 111.001 L1843.81 111.001 L1843.81 48.3739 L1851.3 48.3739 L1851.3 55.2604 Q1853.65 51.2095 1857.22 49.2651 Q1860.82 47.2801 1865.8 47.2801 Q1874.07 47.2801 1879.21 53.8426 Q1884.4 60.4051 1884.4 71.0994 Q1884.4 81.7938 1879.21 88.3563 Q1874.07 94.9188 1865.8 94.9188 Q1860.82 94.9188 1857.22 92.9743 Q1853.65 90.9894 1851.3 86.9385 M1876.66 71.0994 Q1876.66 62.8761 1873.26 58.2176 Q1869.9 53.5185 1863.98 53.5185 Q1858.07 53.5185 1854.66 58.2176 Q1851.3 62.8761 1851.3 71.0994 Q1851.3 79.3228 1854.66 84.0218 Q1858.07 88.6804 1863.98 88.6804 Q1869.9 88.6804 1873.26 84.0218 Q1876.66 79.3228 1876.66 71.0994 Z" fill="#000000" fill-rule="nonzero" fill-opacity="1" /><path clip-path="url(#clip520)" d="M1896.75 30.7119 L1904.21 30.7119 L1904.21 93.744 L1896.75 93.744 L1896.75 30.7119 Z" fill="#000000" fill-rule="nonzero" fill-opacity="1" /><path clip-path="url(#clip520)" d="M1958.61 69.1955 L1958.61 72.8413 L1924.34 72.8413 Q1924.83 80.5381 1928.96 84.589 Q1933.13 88.5994 1940.54 88.5994 Q1944.84 88.5994 1948.85 87.5461 Q1952.9 86.4929 1956.87 84.3864 L1956.87 91.435 Q1952.86 93.1364 1948.65 94.0276 Q1944.43 94.9188 1940.1 94.9188 Q1929.24 94.9188 1922.88 88.5994 Q1916.56 82.2799 1916.56 71.5045 Q1916.56 60.3645 1922.56 53.8426 Q1928.59 47.2801 1938.8 47.2801 Q1947.96 47.2801 1953.26 53.1944 Q1958.61 59.0683 1958.61 69.1955 M1951.16 67.008 Q1951.08 60.8912 1947.71 57.2454 Q1944.39 53.5995 1938.88 53.5995 Q1932.64 53.5995 1928.88 57.1238 Q1925.15 60.6481 1924.58 67.0485 L1951.16 67.008 Z" fill="#000000" fill-rule="nonzero" fill-opacity="1" /><path clip-path="url(#clip520)" d="M812.407 123.984 L847.164 123.984 L847.164 130.871 L820.59 130.871 L820.59 148.695 L844.572 148.695 L844.572 155.581 L820.59 155.581 L820.59 184.464 L812.407 184.464 L812.407 123.984 Z" fill="#000000" fill-rule="nonzero" fill-opacity="1" /><path clip-path="url(#clip520)" d="M894.074 159.916 L894.074 163.561 L859.803 163.561 Q860.289 171.258 864.421 175.309 Q868.593 179.319 876.007 179.319 Q880.301 179.319 884.311 178.266 Q888.362 177.213 892.332 175.106 L892.332 182.155 Q888.321 183.856 884.108 184.748 Q879.895 185.639 875.561 185.639 Q864.705 185.639 858.345 179.319 Q852.025 173 852.025 162.225 Q852.025 151.085 858.021 144.563 Q864.056 138 874.265 138 Q883.42 138 888.726 143.914 Q894.074 149.788 894.074 159.916 M886.62 157.728 Q886.539 151.611 883.177 147.965 Q879.855 144.32 874.346 144.32 Q868.107 144.32 864.34 147.844 Q860.613 151.368 860.046 157.769 L886.62 157.728 Z" fill="#000000" fill-rule="nonzero" fill-opacity="1" /><path clip-path="url(#clip520)" d="M906.307 121.432 L913.761 121.432 L913.761 184.464 L906.307 184.464 L906.307 121.432 Z" fill="#000000" fill-rule="nonzero" fill-opacity="1" /><path clip-path="url(#clip520)" d="M959.212 145.98 L959.212 121.432 L966.666 121.432 L966.666 184.464 L959.212 184.464 L959.212 177.658 Q956.863 181.709 953.257 183.694 Q949.693 185.639 944.669 185.639 Q936.446 185.639 931.261 179.076 Q926.116 172.514 926.116 161.819 Q926.116 151.125 931.261 144.563 Q936.446 138 944.669 138 Q949.693 138 953.257 139.985 Q956.863 141.93 959.212 145.98 M933.813 161.819 Q933.813 170.043 937.175 174.742 Q940.578 179.4 946.492 179.4 Q952.407 179.4 955.809 174.742 Q959.212 170.043 959.212 161.819 Q959.212 153.596 955.809 148.938 Q952.407 144.239 946.492 144.239 Q940.578 144.239 937.175 148.938 Q933.813 153.596 933.813 161.819 Z" fill="#000000" fill-rule="nonzero" fill-opacity="1" /><path clip-path="url(#clip520)" d="M1010.94 140.431 L1010.94 147.479 Q1007.78 145.859 1004.38 145.049 Q1000.98 144.239 997.331 144.239 Q991.781 144.239 988.986 145.94 Q986.232 147.641 986.232 151.044 Q986.232 153.637 988.217 155.135 Q990.202 156.594 996.197 157.931 L998.749 158.498 Q1006.69 160.199 1010.01 163.318 Q1013.37 166.397 1013.37 171.947 Q1013.37 178.266 1008.35 181.952 Q1003.37 185.639 994.617 185.639 Q990.971 185.639 987.001 184.91 Q983.072 184.221 978.697 182.803 L978.697 175.106 Q982.829 177.253 986.839 178.347 Q990.85 179.4 994.779 179.4 Q1000.05 179.4 1002.88 177.618 Q1005.72 175.795 1005.72 172.514 Q1005.72 169.476 1003.65 167.855 Q1001.63 166.235 994.698 164.736 L992.105 164.128 Q985.178 162.67 982.1 159.672 Q979.021 156.634 979.021 151.368 Q979.021 144.968 983.558 141.484 Q988.095 138 996.44 138 Q1000.57 138 1004.22 138.608 Q1007.86 139.215 1010.94 140.431 Z" fill="#000000" fill-rule="nonzero" fill-opacity="1" /><path clip-path="url(#clip520)" d="M1032.61 126.212 L1032.61 139.094 L1047.97 139.094 L1047.97 144.887 L1032.61 144.887 L1032.61 169.516 Q1032.61 175.066 1034.11 176.646 Q1035.65 178.226 1040.31 178.226 L1047.97 178.226 L1047.97 184.464 L1040.31 184.464 Q1031.68 184.464 1028.4 181.264 Q1025.12 178.023 1025.12 169.516 L1025.12 144.887 L1019.65 144.887 L1019.65 139.094 L1025.12 139.094 L1025.12 126.212 L1032.61 126.212 Z" fill="#000000" fill-rule="nonzero" fill-opacity="1" /><path clip-path="url(#clip520)" d="M1096.58 159.916 L1096.58 163.561 L1062.31 163.561 Q1062.79 171.258 1066.93 175.309 Q1071.1 179.319 1078.51 179.319 Q1082.81 179.319 1086.82 178.266 Q1090.87 177.213 1094.84 175.106 L1094.84 182.155 Q1090.83 183.856 1086.61 184.748 Q1082.4 185.639 1078.07 185.639 Q1067.21 185.639 1060.85 179.319 Q1054.53 173 1054.53 162.225 Q1054.53 151.085 1060.53 144.563 Q1066.56 138 1076.77 138 Q1085.92 138 1091.23 143.914 Q1096.58 149.788 1096.58 159.916 M1089.12 157.728 Q1089.04 151.611 1085.68 147.965 Q1082.36 144.32 1076.85 144.32 Q1070.61 144.32 1066.84 147.844 Q1063.12 151.368 1062.55 157.769 L1089.12 157.728 Z" fill="#000000" fill-rule="nonzero" fill-opacity="1" /><path clip-path="url(#clip520)" d="M1108.81 139.094 L1116.27 139.094 L1116.27 184.464 L1108.81 184.464 L1108.81 139.094 M1108.81 121.432 L1116.27 121.432 L1116.27 130.871 L1108.81 130.871 L1108.81 121.432 Z" fill="#000000" fill-rule="nonzero" fill-opacity="1" /><path clip-path="url(#clip520)" d="M1169.58 157.08 L1169.58 184.464 L1162.12 184.464 L1162.12 157.323 Q1162.12 150.882 1159.61 147.682 Q1157.1 144.482 1152.08 144.482 Q1146.04 144.482 1142.56 148.33 Q1139.07 152.178 1139.07 158.822 L1139.07 184.464 L1131.58 184.464 L1131.58 139.094 L1139.07 139.094 L1139.07 146.142 Q1141.75 142.051 1145.35 140.026 Q1149 138 1153.74 138 Q1161.55 138 1165.57 142.861 Q1169.58 147.682 1169.58 157.08 Z" fill="#000000" fill-rule="nonzero" fill-opacity="1" /><path clip-path="url(#clip520)" d="M1180.68 158.417 L1202.51 158.417 L1202.51 165.06 L1180.68 165.06 L1180.68 158.417 Z" fill="#000000" fill-rule="nonzero" fill-opacity="1" /><path clip-path="url(#clip520)" d="M1214.7 123.984 L1225.72 123.984 L1252.54 174.58 L1252.54 123.984 L1260.48 123.984 L1260.48 184.464 L1249.46 184.464 L1222.64 133.868 L1222.64 184.464 L1214.7 184.464 L1214.7 123.984 Z" fill="#000000" fill-rule="nonzero" fill-opacity="1" /><path clip-path="url(#clip520)" d="M1315.25 159.916 L1315.25 163.561 L1280.98 163.561 Q1281.46 171.258 1285.59 175.309 Q1289.77 179.319 1297.18 179.319 Q1301.47 179.319 1305.48 178.266 Q1309.53 177.213 1313.5 175.106 L1313.5 182.155 Q1309.49 183.856 1305.28 184.748 Q1301.07 185.639 1296.73 185.639 Q1285.88 185.639 1279.52 179.319 Q1273.2 173 1273.2 162.225 Q1273.2 151.085 1279.19 144.563 Q1285.23 138 1295.44 138 Q1304.59 138 1309.9 143.914 Q1315.25 149.788 1315.25 159.916 M1307.79 157.728 Q1307.71 151.611 1304.35 147.965 Q1301.03 144.32 1295.52 144.32 Q1289.28 144.32 1285.51 147.844 Q1281.79 151.368 1281.22 157.769 L1307.79 157.728 Z" fill="#000000" fill-rule="nonzero" fill-opacity="1" /><path clip-path="url(#clip520)" d="M1322.13 139.094 L1330.03 139.094 L1344.21 177.172 L1358.39 139.094 L1366.29 139.094 L1349.27 184.464 L1339.15 184.464 L1322.13 139.094 Z" fill="#000000" fill-rule="nonzero" fill-opacity="1" /><path clip-path="url(#clip520)" d="M1415.38 159.916 L1415.38 163.561 L1381.11 163.561 Q1381.6 171.258 1385.73 175.309 Q1389.9 179.319 1397.32 179.319 Q1401.61 179.319 1405.62 178.266 Q1409.67 177.213 1413.64 175.106 L1413.64 182.155 Q1409.63 183.856 1405.42 184.748 Q1401.21 185.639 1396.87 185.639 Q1386.02 185.639 1379.66 179.319 Q1373.34 173 1373.34 162.225 Q1373.34 151.085 1379.33 144.563 Q1385.37 138 1395.58 138 Q1404.73 138 1410.04 143.914 Q1415.38 149.788 1415.38 159.916 M1407.93 157.728 Q1407.85 151.611 1404.49 147.965 Q1401.17 144.32 1395.66 144.32 Q1389.42 144.32 1385.65 147.844 Q1381.92 151.368 1381.36 157.769 L1407.93 157.728 Z" fill="#000000" fill-rule="nonzero" fill-opacity="1" /><path clip-path="url(#clip520)" d="M1456.54 140.431 L1456.54 147.479 Q1453.38 145.859 1449.98 145.049 Q1446.58 144.239 1442.93 144.239 Q1437.38 144.239 1434.59 145.94 Q1431.83 147.641 1431.83 151.044 Q1431.83 153.637 1433.82 155.135 Q1435.8 156.594 1441.8 157.931 L1444.35 158.498 Q1452.29 160.199 1455.61 163.318 Q1458.97 166.397 1458.97 171.947 Q1458.97 178.266 1453.95 181.952 Q1448.97 185.639 1440.22 185.639 Q1436.57 185.639 1432.6 184.91 Q1428.67 184.221 1424.3 182.803 L1424.3 175.106 Q1428.43 177.253 1432.44 178.347 Q1436.45 179.4 1440.38 179.4 Q1445.64 179.4 1448.48 177.618 Q1451.32 175.795 1451.32 172.514 Q1451.32 169.476 1449.25 167.855 Q1447.22 166.235 1440.3 164.736 L1437.7 164.128 Q1430.78 162.67 1427.7 159.672 Q1424.62 156.634 1424.62 151.368 Q1424.62 144.968 1429.16 141.484 Q1433.69 138 1442.04 138 Q1446.17 138 1449.82 138.608 Q1453.46 139.215 1456.54 140.431 Z" fill="#000000" fill-rule="nonzero" fill-opacity="1" /><path clip-path="url(#clip520)" d="M1515.12 121.513 Q1509.69 130.83 1507.06 139.945 Q1504.42 149.059 1504.42 158.417 Q1504.42 167.774 1507.06 176.97 Q1509.73 186.125 1515.12 195.401 L1508.64 195.401 Q1502.56 185.882 1499.52 176.686 Q1496.52 167.491 1496.52 158.417 Q1496.52 149.383 1499.52 140.228 Q1502.52 131.073 1508.64 121.513 L1515.12 121.513 Z" fill="#000000" fill-rule="nonzero" fill-opacity="1" /><path clip-path="url(#clip520)" d="M1532.05 177.577 L1545.42 177.577 L1545.42 131.438 L1530.88 134.354 L1530.88 126.901 L1545.34 123.984 L1553.52 123.984 L1553.52 177.577 L1566.89 177.577 L1566.89 184.464 L1532.05 184.464 L1532.05 177.577 Z" fill="#000000" fill-rule="nonzero" fill-opacity="1" /><path clip-path="url(#clip520)" d="M1583.66 183.208 L1583.66 175.755 Q1586.74 177.213 1589.9 177.983 Q1593.06 178.752 1596.1 178.752 Q1604.2 178.752 1608.45 173.324 Q1612.74 167.855 1613.35 156.756 Q1611 160.24 1607.4 162.103 Q1603.79 163.966 1599.42 163.966 Q1590.34 163.966 1585.04 158.498 Q1579.77 152.988 1579.77 143.469 Q1579.77 134.152 1585.28 128.521 Q1590.79 122.89 1599.94 122.89 Q1610.44 122.89 1615.94 130.952 Q1621.49 138.972 1621.49 154.285 Q1621.49 168.584 1614.69 177.132 Q1607.92 185.639 1596.46 185.639 Q1593.38 185.639 1590.22 185.031 Q1587.06 184.423 1583.66 183.208 M1599.94 157.566 Q1605.45 157.566 1608.65 153.799 Q1611.89 150.031 1611.89 143.469 Q1611.89 136.947 1608.65 133.18 Q1605.45 129.372 1599.94 129.372 Q1594.43 129.372 1591.19 133.18 Q1587.99 136.947 1587.99 143.469 Q1587.99 150.031 1591.19 153.799 Q1594.43 157.566 1599.94 157.566 Z" fill="#000000" fill-rule="nonzero" fill-opacity="1" /><path clip-path="url(#clip520)" d="M1653.7 155.743 Q1647.87 155.743 1644.5 158.862 Q1641.18 161.981 1641.18 167.45 Q1641.18 172.919 1644.5 176.038 Q1647.87 179.157 1653.7 179.157 Q1659.53 179.157 1662.89 176.038 Q1666.26 172.878 1666.26 167.45 Q1666.26 161.981 1662.89 158.862 Q1659.57 155.743 1653.7 155.743 M1645.52 152.259 Q1640.25 150.963 1637.29 147.358 Q1634.38 143.752 1634.38 138.567 Q1634.38 131.316 1639.52 127.103 Q1644.71 122.89 1653.7 122.89 Q1662.73 122.89 1667.88 127.103 Q1673.02 131.316 1673.02 138.567 Q1673.02 143.752 1670.06 147.358 Q1667.15 150.963 1661.92 152.259 Q1667.84 153.637 1671.12 157.647 Q1674.44 161.657 1674.44 167.45 Q1674.44 176.241 1669.05 180.94 Q1663.7 185.639 1653.7 185.639 Q1643.69 185.639 1638.31 180.94 Q1632.96 176.241 1632.96 167.45 Q1632.96 161.657 1636.28 157.647 Q1639.6 153.637 1645.52 152.259 M1642.52 139.337 Q1642.52 144.036 1645.44 146.669 Q1648.39 149.302 1653.7 149.302 Q1658.97 149.302 1661.92 146.669 Q1664.92 144.036 1664.92 139.337 Q1664.92 134.638 1661.92 132.005 Q1658.97 129.372 1653.7 129.372 Q1648.39 129.372 1645.44 132.005 Q1642.52 134.638 1642.52 139.337 Z" fill="#000000" fill-rule="nonzero" fill-opacity="1" /><path clip-path="url(#clip520)" d="M1711.47 131.114 L1690.81 163.399 L1711.47 163.399 L1711.47 131.114 M1709.32 123.984 L1719.61 123.984 L1719.61 163.399 L1728.24 163.399 L1728.24 170.205 L1719.61 170.205 L1719.61 184.464 L1711.47 184.464 L1711.47 170.205 L1684.16 170.205 L1684.16 162.306 L1709.32 123.984 Z" fill="#000000" fill-rule="nonzero" fill-opacity="1" /><path clip-path="url(#clip520)" d="M1739.54 121.513 L1746.02 121.513 Q1752.1 131.073 1755.09 140.228 Q1758.13 149.383 1758.13 158.417 Q1758.13 167.491 1755.09 176.686 Q1752.1 185.882 1746.02 195.401 L1739.54 195.401 Q1744.93 186.125 1747.56 176.97 Q1750.23 167.774 1750.23 158.417 Q1750.23 149.059 1747.56 139.945 Q1744.93 130.83 1739.54 121.513 Z" fill="#000000" fill-rule="nonzero" fill-opacity="1" /><polyline clip-path="url(#clip522)" style="stroke:#000000; stroke-linecap:round; stroke-linejoin:round; stroke-width:4; stroke-opacity:1; fill:none" points="217.783,1388.11 219.92,1386.56 222.057,1385.02 224.194,1383.48 226.331,1381.94 228.468,1380.4 230.606,1378.86 232.743,1377.33 234.88,1375.79 237.017,1374.26 239.154,1372.73 241.291,1371.2 243.428,1369.67 245.565,1368.15 247.702,1366.62 249.84,1365.1 251.977,1363.58 254.114,1362.06 256.251,1360.54 258.388,1359.02 260.525,1357.51 262.662,1355.99 264.799,1354.48 266.936,1352.97 269.074,1351.46 271.211,1349.95 273.348,1348.44 275.485,1346.93 277.622,1345.43 279.759,1343.93 281.896,1342.42 284.033,1340.92 286.17,1339.43 288.308,1337.93 290.445,1336.43 292.582,1334.94 294.719,1333.44 296.856,1331.95 298.993,1330.46 301.13,1328.97 303.267,1327.49 305.404,1326 307.542,1324.52 309.679,1323.03 311.816,1321.55 313.953,1320.07 316.09,1318.59 318.227,1317.11 320.364,1315.63 322.501,1314.16 324.638,1312.69 326.776,1311.21 328.913,1309.74 331.05,1308.27 333.187,1306.8 335.324,1305.34 337.461,1303.87 339.598,1302.41 341.735,1300.94 343.872,1299.48 346.01,1298.02 348.147,1296.56 350.284,1295.1 352.421,1293.64 354.558,1292.19 356.695,1290.73 358.832,1289.28 360.969,1287.83 363.106,1286.38 365.244,1284.93 367.381,1283.48 369.518,1282.04 371.655,1280.59 373.792,1279.15 375.929,1277.7 378.066,1276.26 380.203,1274.82 382.34,1273.38 384.478,1271.95 386.615,1270.51 388.752,1269.07 390.889,1267.64 393.026,1266.21 395.163,1264.78 397.3,1263.35 399.437,1261.92 401.574,1260.49 403.712,1259.06 405.849,1257.64 407.986,1256.21 410.123,1254.79 412.26,1253.37 414.397,1251.95 416.534,1250.53 418.671,1249.11 420.808,1247.69 422.946,1246.28 425.083,1244.86 427.22,1243.45 429.357,1242.04 431.494,1240.62 433.631,1239.21 435.768,1237.81 437.905,1236.4 440.042,1234.99 442.18,1233.59 444.317,1232.18 446.454,1230.78 448.591,1229.38 450.728,1227.98 452.865,1226.58 455.002,1225.18 457.139,1223.78 459.276,1222.39 461.413,1220.99 463.551,1219.6 465.688,1218.2 467.825,1216.81 469.962,1215.42 472.099,1214.03 474.236,1212.64 476.373,1211.26 478.51,1209.87 480.647,1208.49 482.785,1207.1 484.922,1205.72 487.059,1204.34 489.196,1202.96 491.333,1201.58 493.47,1200.2 495.607,1198.82 497.744,1197.45 499.881,1196.07 502.019,1194.7 504.156,1193.33 506.293,1191.96 508.43,1190.59 510.567,1189.22 512.704,1187.85 514.841,1186.48 516.978,1185.11 519.115,1183.75 521.253,1182.38 523.39,1181.02 525.527,1179.66 527.664,1178.3 529.801,1176.94 531.938,1175.58 534.075,1174.22 536.212,1172.87 538.349,1171.51 540.487,1170.16 542.624,1168.8 544.761,1167.45 546.898,1166.1 549.035,1164.75 551.172,1163.4 553.309,1162.05 555.446,1160.7 557.583,1159.36 559.721,1158.01 561.858,1156.67 563.995,1155.32 566.132,1153.98 568.269,1152.64 570.406,1151.3 572.543,1149.96 574.68,1148.62 576.817,1147.28 578.955,1145.95 581.092,1144.61 583.229,1143.28 585.366,1141.94 587.503,1140.61 589.64,1139.28 591.777,1137.95 593.914,1136.62 596.051,1135.29 598.189,1133.97 600.326,1132.64 602.463,1131.31 604.6,1129.99 606.737,1128.67 608.874,1127.34 611.011,1126.02 613.148,1124.7 615.285,1123.38 617.423,1122.06 619.56,1120.75 621.697,1119.43 623.834,1118.11 625.971,1116.8 628.108,1115.49 630.245,1114.17 632.382,1112.86 634.519,1111.55 636.657,1110.24 638.794,1108.93 640.931,1107.62 643.068,1106.31 645.205,1105.01 647.342,1103.7 649.479,1102.4 651.616,1101.1 653.753,1099.79 655.891,1098.49 658.028,1097.19 660.165,1095.89 662.302,1094.59 664.439,1093.29 666.576,1092 668.713,1090.7 670.85,1089.41 672.987,1088.11 675.124,1086.82 677.262,1085.53 679.399,1084.23 681.536,1082.94 683.673,1081.65 685.81,1080.36 687.947,1079.08 690.084,1077.79 692.221,1076.5 694.358,1075.22 696.496,1073.93 698.633,1072.65 700.77,1071.37 702.907,1070.09 705.044,1068.8 707.181,1067.52 709.318,1066.25 711.455,1064.97 713.592,1063.69 715.73,1062.41 717.867,1061.14 720.004,1059.86 722.141,1058.59 724.278,1057.32 726.415,1056.04 728.552,1054.77 730.689,1053.5 732.826,1052.23 734.964,1050.96 737.101,1049.7 739.238,1048.43 741.375,1047.16 743.512,1045.9 745.649,1044.63 747.786,1043.37 749.923,1042.11 752.06,1040.84 754.198,1039.58 756.335,1038.32 758.472,1037.06 760.609,1035.81 762.746,1034.55 764.883,1033.29 767.02,1032.03 769.157,1030.78 771.294,1029.52 773.432,1028.27 775.569,1027.02 777.706,1025.77 779.843,1024.52 781.98,1023.27 784.117,1022.02 786.254,1020.77 788.391,1019.52 790.528,1018.27 792.666,1017.03 794.803,1015.78 796.94,1014.54 799.077,1013.29 801.214,1012.05 803.351,1010.81 805.488,1009.57 807.625,1008.32 809.762,1007.09 811.9,1005.85 814.037,1004.61 816.174,1003.37 818.311,1002.13 820.448,1000.9 822.585,999.663 824.722,998.429 826.859,997.196 828.996,995.963 831.134,994.731 833.271,993.5 835.408,992.27 837.545,991.04 839.682,989.811 841.819,988.583 843.956,987.356 846.093,986.13 848.23,984.904 850.368,983.679 852.505,982.455 854.642,981.232 856.779,980.009 858.916,978.787 861.053,977.566 863.19,976.346 865.327,975.127 867.464,973.908 869.602,972.69 871.739,971.473 873.876,970.256 876.013,969.04 878.15,967.825 880.287,966.611 882.424,965.398 884.561,964.185 886.698,962.973 888.836,961.762 890.973,960.551 893.11,959.341 895.247,958.132 897.384,956.924 899.521,955.717 901.658,954.51 903.795,953.304 905.932,952.098 908.069,950.894 910.207,949.69 912.344,948.487 914.481,947.284 916.618,946.083 918.755,944.882 920.892,943.682 923.029,942.482 925.166,941.283 927.303,940.085 929.441,938.888 931.578,937.691 933.715,936.495 935.852,935.3 937.989,934.106 940.126,932.912 942.263,931.719 944.4,930.527 946.537,929.335 948.675,928.144 950.812,926.954 952.949,925.764 955.086,924.576 957.223,923.388 959.36,922.2 961.497,921.014 963.634,919.828 965.771,918.642 967.909,917.458 970.046,916.274 972.183,915.091 974.32,913.908 976.457,912.726 978.594,911.545 980.731,910.365 982.868,909.185 985.005,908.006 987.143,906.828 989.28,905.65 991.417,904.473 993.554,903.297 995.691,902.121 997.828,900.946 999.965,899.772 1002.1,898.598 1004.24,897.425 1006.38,896.253 1008.51,895.081 1010.65,893.911 1012.79,892.74 1014.93,891.571 1017.06,890.402 1019.2,889.234 1021.34,888.066 1023.47,886.899 1025.61,885.733 1027.75,884.568 1029.88,883.403 1032.02,882.238 1034.16,881.075 1036.3,879.912 1038.43,878.75 1040.57,877.588 1042.71,876.427 1044.84,875.267 1046.98,874.107 1049.12,872.948 1051.26,871.79 1053.39,870.632 1055.53,869.475 1057.67,868.319 1059.8,867.163 1061.94,866.008 1064.08,864.854 1066.22,863.7 1068.35,862.547 1070.49,861.394 1072.63,860.243 1074.76,859.091 1076.9,857.941 1079.04,856.791 1081.18,855.642 1083.31,854.493 1085.45,853.345 1087.59,852.197 1089.72,851.051 1091.86,849.905 1094,848.759 1096.14,847.614 1098.27,846.47 1100.41,845.326 1102.55,844.183 1104.68,843.041 1106.82,841.899 1108.96,840.758 1111.09,839.618 1113.23,838.478 1115.37,837.339 1117.51,836.2 1119.64,835.062 1121.78,833.925 1123.92,832.788 1126.05,831.652 1128.19,830.516 1130.33,829.381 1132.47,828.247 1134.6,827.113 1136.74,825.98 1138.88,824.847 1141.01,823.716 1143.15,822.584 1145.29,821.454 1147.43,820.324 1149.56,819.194 1151.7,818.065 1153.84,816.937 1155.97,815.809 1158.11,814.682 1160.25,813.556 1162.39,812.43 1164.52,811.305 1166.66,810.18 1168.8,809.056 1170.93,807.933 1173.07,806.81 1175.21,805.687 1177.35,804.566 1179.48,803.445 1181.62,802.324 1183.76,801.204 1185.89,800.085 1188.03,798.966 1190.17,797.848 1192.31,796.73 1194.44,795.613 1196.58,794.497 1198.72,793.381 1200.85,792.266 1202.99,791.151 1205.13,790.037 1207.26,788.924 1209.4,787.811 1211.54,786.699 1213.68,785.587 1215.81,784.476 1217.95,783.365 1220.09,782.255 1222.22,781.145 1224.36,780.037 1226.5,778.928 1228.64,777.82 1230.77,776.713 1232.91,775.607 1235.05,774.501 1237.18,773.395 1239.32,772.29 1241.46,771.186 1243.6,770.082 1245.73,768.979 1247.87,767.876 1250.01,766.774 1252.14,765.673 1254.28,764.572 1256.42,763.471 1258.56,762.371 1260.69,761.272 1262.83,760.173 1264.97,759.075 1267.1,757.977 1269.24,756.88 1271.38,755.784 1273.52,754.688 1275.65,753.592 1277.79,752.498 1279.93,751.404 1282.06,750.31 1284.2,749.217 1286.34,748.124 1288.48,747.031 1290.61,745.939 1292.75,744.846 1294.89,743.754 1297.02,742.662 1299.16,741.571 1301.3,740.479 1303.43,739.388 1305.57,738.296 1307.71,737.205 1309.85,736.114 1311.98,735.024 1314.12,733.933 1316.26,732.842 1318.39,731.752 1320.53,730.662 1322.67,729.572 1324.81,728.482 1326.94,727.393 1329.08,726.303 1331.22,725.214 1333.35,724.124 1335.49,723.035 1337.63,721.946 1339.77,720.858 1341.9,719.769 1344.04,718.681 1346.18,717.592 1348.31,716.504 1350.45,715.416 1352.59,714.328 1354.73,713.241 1356.86,712.153 1359,711.066 1361.14,709.979 1363.27,708.892 1365.41,707.805 1367.55,706.718 1369.69,705.631 1371.82,704.545 1373.96,703.459 1376.1,702.372 1378.23,701.286 1380.37,700.201 1382.51,699.115 1384.65,698.029 1386.78,696.944 1388.92,695.859 1391.06,694.773 1393.19,693.689 1395.33,692.604 1397.47,691.519 1399.6,690.435 1401.74,689.35 1403.88,688.266 1406.02,687.182 1408.15,686.098 1410.29,685.014 1412.43,683.931 1414.56,682.847 1416.7,681.764 1418.84,680.681 1420.98,679.597 1423.11,678.515 1425.25,677.432 1427.39,676.349 1429.52,675.267 1431.66,674.184 1433.8,673.102 1435.94,672.02 1438.07,670.938 1440.21,669.857 1442.35,668.775 1444.48,667.694 1446.62,666.612 1448.76,665.531 1450.9,664.45 1453.03,663.369 1455.17,662.289 1457.31,661.208 1459.44,660.127 1461.58,659.047 1463.72,657.967 1465.86,656.887 1467.99,655.807 1470.13,654.727 1472.27,653.648 1474.4,652.568 1476.54,651.489 1478.68,650.41 1480.81,649.331 1482.95,648.252 1485.09,647.173 1487.23,646.095 1489.36,645.016 1491.5,643.938 1493.64,642.86 1495.77,641.782 1497.91,640.704 1500.05,639.626 1502.19,638.548 1504.32,637.471 1506.46,636.393 1508.6,635.316 1510.73,634.239 1512.87,633.162 1515.01,632.085 1517.15,631.009 1519.28,629.932 1521.42,628.856 1523.56,627.779 1525.69,626.703 1527.83,625.627 1529.97,624.551 1532.11,623.476 1534.24,622.4 1536.38,621.325 1538.52,620.249 1540.65,619.174 1542.79,618.099 1544.93,617.024 1547.07,615.95 1549.2,614.875 1551.34,613.8 1553.48,612.726 1555.61,611.652 1557.75,610.578 1559.89,609.504 1562.03,608.43 1564.16,607.356 1566.3,606.283 1568.44,605.209 1570.57,604.136 1572.71,603.063 1574.85,601.99 1576.98,600.917 1579.12,599.844 1581.26,598.772 1583.4,597.699 1585.53,596.627 1587.67,595.554 1589.81,594.482 1591.94,593.41 1594.08,592.339 1596.22,591.267 1598.36,590.195 1600.49,589.124 1602.63,588.052 1604.77,586.981 1606.9,585.91 1609.04,584.839 1611.18,583.768 1613.32,582.698 1615.45,581.627 1617.59,580.557 1619.73,579.487 1621.86,578.416 1624,577.346 1626.14,576.277 1628.28,575.207 1630.41,574.137 1632.55,573.068 1634.69,571.998 1636.82,570.929 1638.96,569.86 1641.1,568.791 1643.24,567.722 1645.37,566.653 1647.51,565.585 1649.65,564.516 1651.78,563.448 1653.92,562.379 1656.06,561.311 1658.2,560.243 1660.33,559.175 1662.47,558.108 1664.61,557.04 1666.74,555.973 1668.88,554.905 1671.02,553.838 1673.15,552.771 1675.29,551.704 1677.43,550.637 1679.57,549.57 1681.7,548.504 1683.84,547.437 1685.98,546.371 1688.11,545.305 1690.25,544.238 1692.39,543.172 1694.53,542.107 1696.66,541.041 1698.8,539.975 1700.94,538.91 1703.07,537.844 1705.21,536.779 1707.35,535.714 1709.49,534.649 1711.62,533.584 1713.76,532.519 1715.9,531.455 1718.03,530.39 1720.17,529.326 1722.31,528.261 1724.45,527.197 1726.58,526.133 1728.72,525.069 1730.86,524.005 1732.99,522.942 1735.13,521.878 1737.27,520.815 1739.41,519.751 1741.54,518.688 1743.68,517.625 1745.82,516.562 1747.95,515.499 1750.09,514.437 1752.23,513.374 1754.37,512.312 1756.5,511.249 1758.64,510.187 1760.78,509.125 1762.91,508.063 1765.05,507.001 1767.19,505.939 1769.32,504.877 1771.46,503.816 1773.6,502.755 1775.74,501.693 1777.87,500.632 1780.01,499.571 1782.15,498.51 1784.28,497.449 1786.42,496.388 1788.56,495.328 1790.7,494.267 1792.83,493.207 1794.97,492.147 1797.11,491.087 1799.24,490.027 1801.38,488.967 1803.52,487.907 1805.66,486.847 1807.79,485.788 1809.93,484.728 1812.07,483.669 1814.2,482.61 1816.34,481.551 1818.48,480.492 1820.62,479.433 1822.75,478.374 1824.89,477.315 1827.03,476.257 1829.16,475.198 1831.3,474.14 1833.44,473.082 1835.58,472.024 1837.71,470.966 1839.85,469.908 1841.99,468.85 1844.12,467.793 1846.26,466.735 1848.4,465.678 1850.54,464.621 1852.67,463.563 1854.81,462.506 1856.95,461.449 1859.08,460.393 1861.22,459.336 1863.36,458.279 1865.49,457.223 1867.63,456.166 1869.77,455.11 1871.91,454.054 1874.04,452.998 1876.18,451.942 1878.32,450.886 1880.45,449.831 1882.59,448.775 1884.73,447.719 1886.87,446.664 1889,445.609 1891.14,444.554 1893.28,443.499 1895.41,442.444 1897.55,441.389 1899.69,440.334 1901.83,439.28 1903.96,438.225 1906.1,437.171 1908.24,436.116 1910.37,435.062 1912.51,434.008 1914.65,432.954 1916.79,431.9 1918.92,430.847 1921.06,429.793 1923.2,428.739 1925.33,427.686 1927.47,426.633 1929.61,425.58 1931.75,424.526 1933.88,423.473 1936.02,422.421 1938.16,421.368 1940.29,420.315 1942.43,419.263 1944.57,418.21 1946.7,417.158 1948.84,416.106 1950.98,415.054 1953.12,414.002 1955.25,412.95 1957.39,411.898 1959.53,410.846 1961.66,409.795 1963.8,408.743 1965.94,407.692 1968.08,406.64 1970.21,405.589 1972.35,404.538 1974.49,403.487 1976.62,402.436 1978.76,401.386 1980.9,400.335 1983.04,399.284 1985.17,398.234 1987.31,397.184 1989.45,396.133 1991.58,395.083 1993.72,394.033 1995.86,392.983 1998,391.934 2000.13,390.884 2002.27,389.834 2004.41,388.785 2006.54,387.735 2008.68,386.686 2010.82,385.637 2012.96,384.588 2015.09,383.539 2017.23,382.49 2019.37,381.441 2021.5,380.393 2023.64,379.344 2025.78,378.296 2027.92,377.247 2030.05,376.199 2032.19,375.151 2034.33,374.103 2036.46,373.055 2038.6,372.007 2040.74,370.959 2042.87,369.912 2045.01,368.864 2047.15,367.817 2049.29,366.769 2051.42,365.722 2053.56,364.675 2055.7,363.628 2057.83,362.581 2059.97,361.534 2062.11,360.487 2064.25,359.441 2066.38,358.394 2068.52,357.348 2070.66,356.301 2072.79,355.255 2074.93,354.209 2077.07,353.163 2079.21,352.117 2081.34,351.071 2083.48,350.025 2085.62,348.98 2087.75,347.934 2089.89,346.889 2092.03,345.844 2094.17,344.798 2096.3,343.753 2098.44,342.708 2100.58,341.663 2102.71,340.618 2104.85,339.574 2106.99,338.529 2109.13,337.484 2111.26,336.44 2113.4,335.396 2115.54,334.351 2117.67,333.307 2119.81,332.263 2121.95,331.219 2124.09,330.175 2126.22,329.132 2128.36,328.088 2130.5,327.044 2132.63,326.001 2134.77,324.957 2136.91,323.914 2139.04,322.871 2141.18,321.828 2143.32,320.785 2145.46,319.742 2147.59,318.699 2149.73,317.657 2151.87,316.614 2154,315.571 2156.14,314.529 2158.28,313.487 2160.42,312.444 2162.55,311.402 2164.69,310.36 2166.83,309.318 2168.96,308.277 2171.1,307.235 2173.24,306.193 2175.38,305.152 2177.51,304.11 2179.65,303.069 2181.79,302.028 2183.92,300.986 2186.06,299.945 2188.2,298.904 2190.34,297.863 2192.47,296.823 2194.61,295.782 2196.75,294.741 2198.88,293.701 2201.02,292.66 2203.16,291.62 2205.3,290.58 2207.43,289.54 2209.57,288.5 2211.71,287.46 2213.84,286.42 2215.98,285.38 2218.12,284.34 2220.26,283.301 2222.39,282.261 2224.53,281.222 2226.67,280.183 2228.8,279.143 2230.94,278.104 2233.08,277.065 2235.21,276.026 2237.35,274.988 2239.49,273.949 2241.63,272.91 2243.76,271.872 2245.9,270.833 2248.04,269.795 2250.17,268.756 2252.31,267.718 2254.45,266.68 2256.59,265.642 2258.72,264.604 2260.86,263.566 2263,262.529 2265.13,261.491 2267.27,260.453 2269.41,259.416 2271.55,258.379 2273.68,257.341 2275.82,256.304 2277.96,255.267 2280.09,254.23 2282.23,253.193 2284.37,252.156 2286.51,251.119 2288.64,250.083 2290.78,249.046 2292.92,248.01 2295.05,246.973 2297.19,245.937 2299.33,244.901 2301.47,243.865 2303.6,242.829 2305.74,241.793 2307.88,240.757 2310.01,239.721 2312.15,238.686 2314.29,237.65 2316.43,236.614 2318.56,235.579 2320.7,234.544 2322.84,233.509 2324.97,232.473 2327.11,231.438 2329.25,230.403 2331.38,229.369 2333.52,228.334 2335.66,227.299 2337.8,226.264 2339.93,225.23 2342.07,224.195 2344.21,223.161 2346.34,222.127 2348.48,221.093 2350.62,220.059 2352.76,219.025 "/>
<polyline clip-path="url(#clip522)" style="stroke:#e26f46; stroke-linecap:round; stroke-linejoin:round; stroke-width:20; stroke-opacity:0.4; fill:none" points="217.783,1388.11 228.458,1380.41 239.133,1372.75 249.808,1365.12 260.482,1357.54 271.157,1349.98 281.832,1342.47 292.507,1334.99 303.182,1327.55 313.857,1320.14 324.532,1312.76 335.206,1305.42 345.881,1298.11 356.556,1290.83 367.231,1283.58 377.906,1276.37 388.581,1269.19 399.256,1262.04 409.931,1254.92 420.605,1247.83 431.28,1240.77 441.955,1233.73 452.63,1226.73 463.305,1219.76 473.98,1212.81 484.655,1205.89 495.329,1199 506.004,1192.14 516.679,1185.31 527.354,1178.5 538.029,1171.71 548.704,1164.96 559.379,1158.23 570.053,1151.52 580.728,1144.84 591.403,1138.18 602.078,1131.55 612.753,1124.95 623.428,1118.36 634.103,1111.8 644.778,1105.27 655.452,1098.76 666.127,1092.27 676.802,1085.8 687.477,1079.36 698.152,1072.94 708.827,1066.54 719.502,1060.16 730.176,1053.81 740.851,1047.47 751.526,1041.16 762.201,1034.87 772.876,1028.6 783.551,1022.35 794.226,1016.12 804.901,1009.91 815.575,1003.72 826.25,997.547 836.925,991.397 847.6,985.266 858.275,979.154 868.95,973.061 879.625,966.987 890.299,960.932 900.974,954.896 911.649,948.878 922.324,942.878 932.999,936.896 943.674,930.932 954.349,924.986 965.023,919.057 975.698,913.146 986.373,907.252 997.048,901.375 1007.72,895.515 1018.4,889.672 1029.07,883.845 1039.75,878.035 1050.42,872.242 1061.1,866.464 1071.77,860.703 1082.45,854.958 1093.12,849.229 1103.8,843.515 1114.47,837.817 1125.15,832.134 1135.82,826.467 1146.5,820.815 1157.17,815.178 1167.85,809.556 1178.52,803.949 1189.2,798.357 1199.87,792.779 1210.55,787.216 1221.22,781.667 1231.9,776.132 1242.57,770.612 1253.24,765.105 1263.92,759.613 1274.59,754.135 1285.27,748.67 1295.94,743.214 1306.62,737.762 1317.29,732.314 1327.97,726.87 1338.64,721.429 1349.32,715.993 1359.99,710.56 1370.67,705.132 1381.34,699.707 1392.02,694.285 1402.69,688.868 1413.37,683.454 1424.04,678.044 1434.72,672.637 1445.39,667.234 1456.07,661.835 1466.74,656.439 1477.42,651.047 1488.09,645.658 1498.77,640.273 1509.44,634.891 1520.12,629.512 1530.79,624.138 1541.47,618.766 1552.14,613.398 1562.82,608.033 1573.49,602.671 1584.17,597.313 1594.84,591.958 1605.52,586.607 1616.19,581.258 1626.87,575.913 1637.54,570.571 1648.21,565.232 1658.89,559.896 1669.56,554.564 1680.24,549.234 1690.91,543.908 1701.59,538.585 1712.26,533.265 1722.94,527.948 1733.61,522.633 1744.29,517.322 1754.96,512.014 1765.64,506.709 1776.31,501.407 1786.99,496.108 1797.66,490.811 1808.34,485.518 1819.01,480.227 1829.69,474.939 1840.36,469.654 1851.04,464.372 1861.71,459.093 1872.39,453.817 1883.06,448.543 1893.74,443.272 1904.41,438.004 1915.09,432.738 1925.76,427.476 1936.44,422.215 1947.11,416.958 1957.79,411.703 1968.46,406.451 1979.14,401.202 1989.81,395.955 2000.49,390.711 2011.16,385.469 2021.84,380.23 2032.51,374.994 2043.18,369.76 2053.86,364.528 2064.53,359.3 2075.21,354.073 2085.88,348.849 2096.56,343.628 2107.23,338.409 2117.91,333.193 2128.58,327.979 2139.26,322.767 2149.93,317.558 2160.61,312.351 2171.28,307.146 2181.96,301.944 2192.63,296.745 2203.31,291.547 2213.98,286.352 2224.66,281.16 2235.33,275.969 2246.01,270.781 2256.68,265.596 2267.36,260.412 2278.03,255.231 2288.71,250.052 2299.38,244.875 2310.06,239.701 2320.73,234.528 2331.41,229.358 2342.08,224.19 2352.76,219.025 "/>
<path clip-path="url(#clip520)" d="M288.949 380.78 L944.828 380.78 L944.828 225.26 L288.949 225.26  Z" fill="#ffffff" fill-rule="evenodd" fill-opacity="1"/>
<polyline clip-path="url(#clip520)" style="stroke:#000000; stroke-linecap:round; stroke-linejoin:round; stroke-width:4; stroke-opacity:1; fill:none" points="288.949,380.78 944.828,380.78 944.828,225.26 288.949,225.26 288.949,380.78 "/>
<polyline clip-path="url(#clip520)" style="stroke:#000000; stroke-linecap:round; stroke-linejoin:round; stroke-width:4; stroke-opacity:1; fill:none" points="312.671,277.1 455.002,277.1 "/>
<path clip-path="url(#clip520)" d="M506.594 262.482 L506.594 267.412 Q504.233 265.213 501.548 264.125 Q498.886 263.037 495.877 263.037 Q489.951 263.037 486.803 266.672 Q483.655 270.283 483.655 277.134 Q483.655 283.963 486.803 287.597 Q489.951 291.208 495.877 291.208 Q498.886 291.208 501.548 290.12 Q504.233 289.033 506.594 286.833 L506.594 291.718 Q504.141 293.384 501.386 294.218 Q498.655 295.051 495.599 295.051 Q487.752 295.051 483.238 290.259 Q478.724 285.445 478.724 277.134 Q478.724 268.801 483.238 264.01 Q487.752 259.195 495.599 259.195 Q498.701 259.195 501.432 260.028 Q504.187 260.838 506.594 262.482 Z" fill="#000000" fill-rule="nonzero" fill-opacity="1" /><path clip-path="url(#clip520)" d="M523.678 271.44 Q520.252 271.44 518.261 274.125 Q516.27 276.787 516.27 281.44 Q516.27 286.093 518.238 288.778 Q520.228 291.44 523.678 291.44 Q527.08 291.44 529.071 288.755 Q531.062 286.07 531.062 281.44 Q531.062 276.834 529.071 274.148 Q527.08 271.44 523.678 271.44 M523.678 267.829 Q529.233 267.829 532.404 271.44 Q535.576 275.051 535.576 281.44 Q535.576 287.806 532.404 291.44 Q529.233 295.051 523.678 295.051 Q518.099 295.051 514.928 291.44 Q511.779 287.806 511.779 281.44 Q511.779 275.051 514.928 271.44 Q518.099 267.829 523.678 267.829 Z" fill="#000000" fill-rule="nonzero" fill-opacity="1" /><path clip-path="url(#clip520)" d="M562.821 273.431 Q564.418 270.56 566.64 269.195 Q568.862 267.829 571.872 267.829 Q575.923 267.829 578.122 270.676 Q580.321 273.5 580.321 278.732 L580.321 294.38 L576.038 294.38 L576.038 278.871 Q576.038 275.144 574.719 273.338 Q573.4 271.533 570.691 271.533 Q567.381 271.533 565.46 273.732 Q563.538 275.931 563.538 279.727 L563.538 294.38 L559.256 294.38 L559.256 278.871 Q559.256 275.121 557.937 273.338 Q556.617 271.533 553.863 271.533 Q550.599 271.533 548.677 273.755 Q546.756 275.954 546.756 279.727 L546.756 294.38 L542.474 294.38 L542.474 268.454 L546.756 268.454 L546.756 272.482 Q548.214 270.097 550.251 268.963 Q552.289 267.829 555.089 267.829 Q557.913 267.829 559.881 269.264 Q561.872 270.699 562.821 273.431 Z" fill="#000000" fill-rule="nonzero" fill-opacity="1" /><path clip-path="url(#clip520)" d="M592.936 290.491 L592.936 304.241 L588.654 304.241 L588.654 268.454 L592.936 268.454 L592.936 272.389 Q594.279 270.074 596.316 268.963 Q598.376 267.829 601.223 267.829 Q605.946 267.829 608.885 271.579 Q611.848 275.329 611.848 281.44 Q611.848 287.551 608.885 291.301 Q605.946 295.051 601.223 295.051 Q598.376 295.051 596.316 293.94 Q594.279 292.806 592.936 290.491 M607.427 281.44 Q607.427 276.741 605.483 274.079 Q603.561 271.394 600.182 271.394 Q596.802 271.394 594.858 274.079 Q592.936 276.741 592.936 281.44 Q592.936 286.139 594.858 288.824 Q596.802 291.486 600.182 291.486 Q603.561 291.486 605.483 288.824 Q607.427 286.139 607.427 281.44 Z" fill="#000000" fill-rule="nonzero" fill-opacity="1" /><path clip-path="url(#clip520)" d="M618.469 284.148 L618.469 268.454 L622.728 268.454 L622.728 283.986 Q622.728 287.667 624.163 289.519 Q625.598 291.347 628.469 291.347 Q631.918 291.347 633.908 289.148 Q635.922 286.949 635.922 283.153 L635.922 268.454 L640.182 268.454 L640.182 294.38 L635.922 294.38 L635.922 290.398 Q634.371 292.759 632.311 293.917 Q630.274 295.051 627.566 295.051 Q623.098 295.051 620.784 292.273 Q618.469 289.495 618.469 284.148 M629.186 267.829 L629.186 267.829 Z" fill="#000000" fill-rule="nonzero" fill-opacity="1" /><path clip-path="url(#clip520)" d="M653.168 261.093 L653.168 268.454 L661.941 268.454 L661.941 271.764 L653.168 271.764 L653.168 285.838 Q653.168 289.009 654.024 289.912 Q654.904 290.815 657.566 290.815 L661.941 290.815 L661.941 294.38 L657.566 294.38 Q652.635 294.38 650.76 292.551 Q648.885 290.699 648.885 285.838 L648.885 271.764 L645.76 271.764 L645.76 268.454 L648.885 268.454 L648.885 261.093 L653.168 261.093 Z" fill="#000000" fill-rule="nonzero" fill-opacity="1" /><path clip-path="url(#clip520)" d="M689.718 280.352 L689.718 282.435 L670.135 282.435 Q670.413 286.833 672.774 289.148 Q675.158 291.44 679.394 291.44 Q681.848 291.44 684.14 290.838 Q686.454 290.236 688.723 289.033 L688.723 293.06 Q686.431 294.032 684.024 294.542 Q681.617 295.051 679.14 295.051 Q672.936 295.051 669.302 291.44 Q665.691 287.829 665.691 281.671 Q665.691 275.306 669.117 271.579 Q672.566 267.829 678.399 267.829 Q683.63 267.829 686.663 271.209 Q689.718 274.565 689.718 280.352 M685.459 279.102 Q685.413 275.607 683.492 273.523 Q681.593 271.44 678.445 271.44 Q674.88 271.44 672.728 273.454 Q670.598 275.468 670.274 279.125 L685.459 279.102 Z" fill="#000000" fill-rule="nonzero" fill-opacity="1" /><path clip-path="url(#clip520)" d="M713.769 272.389 L713.769 258.361 L718.028 258.361 L718.028 294.38 L713.769 294.38 L713.769 290.491 Q712.427 292.806 710.366 293.94 Q708.329 295.051 705.459 295.051 Q700.76 295.051 697.797 291.301 Q694.857 287.551 694.857 281.44 Q694.857 275.329 697.797 271.579 Q700.76 267.829 705.459 267.829 Q708.329 267.829 710.366 268.963 Q712.427 270.074 713.769 272.389 M699.255 281.44 Q699.255 286.139 701.177 288.824 Q703.121 291.486 706.501 291.486 Q709.88 291.486 711.825 288.824 Q713.769 286.139 713.769 281.44 Q713.769 276.741 711.825 274.079 Q709.88 271.394 706.501 271.394 Q703.121 271.394 701.177 274.079 Q699.255 276.741 699.255 281.44 Z" fill="#000000" fill-rule="nonzero" fill-opacity="1" /><path clip-path="url(#clip520)" d="M758.399 269.218 L758.399 273.246 Q756.593 272.32 754.649 271.857 Q752.704 271.394 750.621 271.394 Q747.449 271.394 745.852 272.366 Q744.278 273.338 744.278 275.283 Q744.278 276.764 745.412 277.621 Q746.547 278.454 749.973 279.218 L751.431 279.542 Q755.968 280.514 757.866 282.296 Q759.787 284.056 759.787 287.227 Q759.787 290.838 756.917 292.945 Q754.07 295.051 749.07 295.051 Q746.987 295.051 744.718 294.634 Q742.473 294.241 739.973 293.431 L739.973 289.033 Q742.334 290.259 744.625 290.884 Q746.917 291.486 749.162 291.486 Q752.172 291.486 753.792 290.468 Q755.412 289.426 755.412 287.551 Q755.412 285.815 754.232 284.889 Q753.074 283.963 749.116 283.107 L747.635 282.759 Q743.676 281.926 741.917 280.213 Q740.158 278.477 740.158 275.468 Q740.158 271.81 742.75 269.82 Q745.343 267.829 750.112 267.829 Q752.473 267.829 754.556 268.176 Q756.639 268.523 758.399 269.218 Z" fill="#000000" fill-rule="nonzero" fill-opacity="1" /><path clip-path="url(#clip520)" d="M776.616 271.44 Q773.19 271.44 771.199 274.125 Q769.209 276.787 769.209 281.44 Q769.209 286.093 771.176 288.778 Q773.167 291.44 776.616 291.44 Q780.019 291.44 782.009 288.755 Q784 286.07 784 281.44 Q784 276.834 782.009 274.148 Q780.019 271.44 776.616 271.44 M776.616 267.829 Q782.172 267.829 785.343 271.44 Q788.514 275.051 788.514 281.44 Q788.514 287.806 785.343 291.44 Q782.172 295.051 776.616 295.051 Q771.037 295.051 767.866 291.44 Q764.718 287.806 764.718 281.44 Q764.718 275.051 767.866 271.44 Q771.037 267.829 776.616 267.829 Z" fill="#000000" fill-rule="nonzero" fill-opacity="1" /><path clip-path="url(#clip520)" d="M795.574 258.361 L799.833 258.361 L799.833 294.38 L795.574 294.38 L795.574 258.361 Z" fill="#000000" fill-rule="nonzero" fill-opacity="1" /><path clip-path="url(#clip520)" d="M808.306 284.148 L808.306 268.454 L812.565 268.454 L812.565 283.986 Q812.565 287.667 814 289.519 Q815.435 291.347 818.306 291.347 Q821.755 291.347 823.745 289.148 Q825.759 286.949 825.759 283.153 L825.759 268.454 L830.018 268.454 L830.018 294.38 L825.759 294.38 L825.759 290.398 Q824.208 292.759 822.148 293.917 Q820.111 295.051 817.403 295.051 Q812.935 295.051 810.62 292.273 Q808.306 289.495 808.306 284.148 M819.023 267.829 L819.023 267.829 Z" fill="#000000" fill-rule="nonzero" fill-opacity="1" /><path clip-path="url(#clip520)" d="M843.005 261.093 L843.005 268.454 L851.778 268.454 L851.778 271.764 L843.005 271.764 L843.005 285.838 Q843.005 289.009 843.861 289.912 Q844.741 290.815 847.403 290.815 L851.778 290.815 L851.778 294.38 L847.403 294.38 Q842.472 294.38 840.597 292.551 Q838.722 290.699 838.722 285.838 L838.722 271.764 L835.597 271.764 L835.597 268.454 L838.722 268.454 L838.722 261.093 L843.005 261.093 Z" fill="#000000" fill-rule="nonzero" fill-opacity="1" /><path clip-path="url(#clip520)" d="M857.379 268.454 L861.639 268.454 L861.639 294.38 L857.379 294.38 L857.379 268.454 M857.379 258.361 L861.639 258.361 L861.639 263.755 L857.379 263.755 L857.379 258.361 Z" fill="#000000" fill-rule="nonzero" fill-opacity="1" /><path clip-path="url(#clip520)" d="M880.597 271.44 Q877.171 271.44 875.18 274.125 Q873.19 276.787 873.19 281.44 Q873.19 286.093 875.157 288.778 Q877.148 291.44 880.597 291.44 Q884 291.44 885.99 288.755 Q887.981 286.07 887.981 281.44 Q887.981 276.834 885.99 274.148 Q884 271.44 880.597 271.44 M880.597 267.829 Q886.152 267.829 889.324 271.44 Q892.495 275.051 892.495 281.44 Q892.495 287.806 889.324 291.44 Q886.152 295.051 880.597 295.051 Q875.018 295.051 871.847 291.44 Q868.699 287.806 868.699 281.44 Q868.699 275.051 871.847 271.44 Q875.018 267.829 880.597 267.829 Z" fill="#000000" fill-rule="nonzero" fill-opacity="1" /><path clip-path="url(#clip520)" d="M921.106 278.732 L921.106 294.38 L916.847 294.38 L916.847 278.871 Q916.847 275.19 915.412 273.361 Q913.976 271.533 911.106 271.533 Q907.657 271.533 905.666 273.732 Q903.676 275.931 903.676 279.727 L903.676 294.38 L899.393 294.38 L899.393 268.454 L903.676 268.454 L903.676 272.482 Q905.203 270.144 907.263 268.986 Q909.347 267.829 912.055 267.829 Q916.523 267.829 918.814 270.607 Q921.106 273.361 921.106 278.732 Z" fill="#000000" fill-rule="nonzero" fill-opacity="1" /><polyline clip-path="url(#clip520)" style="stroke:#e26f46; stroke-linecap:round; stroke-linejoin:round; stroke-width:20; stroke-opacity:0.4; fill:none" points="312.671,328.94 455.002,328.94 "/>
<path clip-path="url(#clip520)" d="M478.724 311.66 L500.576 311.66 L500.576 315.595 L483.4 315.595 L483.4 325.826 L499.858 325.826 L499.858 329.761 L483.4 329.761 L483.4 342.285 L500.992 342.285 L500.992 346.22 L478.724 346.22 L478.724 311.66 Z" fill="#000000" fill-rule="nonzero" fill-opacity="1" /><path clip-path="url(#clip520)" d="M530.043 320.294 L520.668 332.91 L530.529 346.22 L525.506 346.22 L517.96 336.035 L510.414 346.22 L505.391 346.22 L515.46 332.655 L506.247 320.294 L511.27 320.294 L518.145 329.53 L525.02 320.294 L530.043 320.294 Z" fill="#000000" fill-rule="nonzero" fill-opacity="1" /><path clip-path="url(#clip520)" d="M548.33 333.187 Q543.168 333.187 541.177 334.368 Q539.187 335.548 539.187 338.396 Q539.187 340.664 540.668 342.007 Q542.173 343.326 544.742 343.326 Q548.284 343.326 550.414 340.826 Q552.566 338.303 552.566 334.136 L552.566 333.187 L548.33 333.187 M556.826 331.428 L556.826 346.22 L552.566 346.22 L552.566 342.285 Q551.108 344.646 548.932 345.78 Q546.756 346.891 543.608 346.891 Q539.627 346.891 537.265 344.669 Q534.927 342.423 534.927 338.673 Q534.927 334.298 537.844 332.076 Q540.784 329.854 546.594 329.854 L552.566 329.854 L552.566 329.437 Q552.566 326.498 550.622 324.9 Q548.701 323.28 545.205 323.28 Q542.983 323.28 540.877 323.812 Q538.77 324.345 536.826 325.41 L536.826 321.474 Q539.164 320.572 541.363 320.132 Q543.562 319.669 545.645 319.669 Q551.27 319.669 554.048 322.586 Q556.826 325.502 556.826 331.428 Z" fill="#000000" fill-rule="nonzero" fill-opacity="1" /><path clip-path="url(#clip520)" d="M584.256 321.289 L584.256 325.271 Q582.45 324.275 580.622 323.789 Q578.816 323.28 576.964 323.28 Q572.821 323.28 570.529 325.919 Q568.237 328.535 568.237 333.28 Q568.237 338.025 570.529 340.664 Q572.821 343.28 576.964 343.28 Q578.816 343.28 580.622 342.794 Q582.45 342.285 584.256 341.289 L584.256 345.224 Q582.474 346.058 580.552 346.474 Q578.654 346.891 576.501 346.891 Q570.645 346.891 567.196 343.21 Q563.747 339.53 563.747 333.28 Q563.747 326.937 567.219 323.303 Q570.714 319.669 576.779 319.669 Q578.747 319.669 580.622 320.086 Q582.497 320.479 584.256 321.289 Z" fill="#000000" fill-rule="nonzero" fill-opacity="1" /><path clip-path="url(#clip520)" d="M595.876 312.933 L595.876 320.294 L604.649 320.294 L604.649 323.604 L595.876 323.604 L595.876 337.678 Q595.876 340.849 596.733 341.752 Q597.612 342.655 600.274 342.655 L604.649 342.655 L604.649 346.22 L600.274 346.22 Q595.344 346.22 593.469 344.391 Q591.594 342.539 591.594 337.678 L591.594 323.604 L588.469 323.604 L588.469 320.294 L591.594 320.294 L591.594 312.933 L595.876 312.933 Z" fill="#000000" fill-rule="nonzero" fill-opacity="1" /><path clip-path="url(#clip520)" d="M641.848 321.058 L641.848 325.086 Q640.043 324.16 638.098 323.697 Q636.154 323.234 634.07 323.234 Q630.899 323.234 629.302 324.206 Q627.728 325.178 627.728 327.123 Q627.728 328.604 628.862 329.461 Q629.996 330.294 633.422 331.058 L634.881 331.382 Q639.418 332.354 641.316 334.136 Q643.237 335.896 643.237 339.067 Q643.237 342.678 640.367 344.785 Q637.52 346.891 632.52 346.891 Q630.436 346.891 628.168 346.474 Q625.922 346.081 623.422 345.271 L623.422 340.873 Q625.783 342.099 628.075 342.724 Q630.367 343.326 632.612 343.326 Q635.621 343.326 637.242 342.308 Q638.862 341.266 638.862 339.391 Q638.862 337.655 637.682 336.729 Q636.524 335.803 632.566 334.947 L631.084 334.599 Q627.126 333.766 625.367 332.053 Q623.608 330.317 623.608 327.308 Q623.608 323.65 626.2 321.66 Q628.793 319.669 633.561 319.669 Q635.922 319.669 638.006 320.016 Q640.089 320.363 641.848 321.058 Z" fill="#000000" fill-rule="nonzero" fill-opacity="1" /><path clip-path="url(#clip520)" d="M660.066 323.28 Q656.64 323.28 654.649 325.965 Q652.658 328.627 652.658 333.28 Q652.658 337.933 654.626 340.618 Q656.617 343.28 660.066 343.28 Q663.468 343.28 665.459 340.595 Q667.45 337.91 667.45 333.28 Q667.45 328.674 665.459 325.988 Q663.468 323.28 660.066 323.28 M660.066 319.669 Q665.621 319.669 668.793 323.28 Q671.964 326.891 671.964 333.28 Q671.964 339.646 668.793 343.28 Q665.621 346.891 660.066 346.891 Q654.487 346.891 651.316 343.28 Q648.168 339.646 648.168 333.28 Q648.168 326.891 651.316 323.28 Q654.487 319.669 660.066 319.669 Z" fill="#000000" fill-rule="nonzero" fill-opacity="1" /><path clip-path="url(#clip520)" d="M679.024 310.201 L683.283 310.201 L683.283 346.22 L679.024 346.22 L679.024 310.201 Z" fill="#000000" fill-rule="nonzero" fill-opacity="1" /><path clip-path="url(#clip520)" d="M691.755 335.988 L691.755 320.294 L696.015 320.294 L696.015 335.826 Q696.015 339.507 697.45 341.359 Q698.885 343.187 701.755 343.187 Q705.204 343.187 707.195 340.988 Q709.209 338.789 709.209 334.993 L709.209 320.294 L713.468 320.294 L713.468 346.22 L709.209 346.22 L709.209 342.238 Q707.658 344.599 705.598 345.757 Q703.561 346.891 700.853 346.891 Q696.385 346.891 694.07 344.113 Q691.755 341.335 691.755 335.988 M702.473 319.669 L702.473 319.669 Z" fill="#000000" fill-rule="nonzero" fill-opacity="1" /><path clip-path="url(#clip520)" d="M726.454 312.933 L726.454 320.294 L735.227 320.294 L735.227 323.604 L726.454 323.604 L726.454 337.678 Q726.454 340.849 727.311 341.752 Q728.19 342.655 730.852 342.655 L735.227 342.655 L735.227 346.22 L730.852 346.22 Q725.922 346.22 724.047 344.391 Q722.172 342.539 722.172 337.678 L722.172 323.604 L719.047 323.604 L719.047 320.294 L722.172 320.294 L722.172 312.933 L726.454 312.933 Z" fill="#000000" fill-rule="nonzero" fill-opacity="1" /><path clip-path="url(#clip520)" d="M740.829 320.294 L745.088 320.294 L745.088 346.22 L740.829 346.22 L740.829 320.294 M740.829 310.201 L745.088 310.201 L745.088 315.595 L740.829 315.595 L740.829 310.201 Z" fill="#000000" fill-rule="nonzero" fill-opacity="1" /><path clip-path="url(#clip520)" d="M764.047 323.28 Q760.621 323.28 758.63 325.965 Q756.639 328.627 756.639 333.28 Q756.639 337.933 758.607 340.618 Q760.598 343.28 764.047 343.28 Q767.449 343.28 769.44 340.595 Q771.431 337.91 771.431 333.28 Q771.431 328.674 769.44 325.988 Q767.449 323.28 764.047 323.28 M764.047 319.669 Q769.602 319.669 772.773 323.28 Q775.945 326.891 775.945 333.28 Q775.945 339.646 772.773 343.28 Q769.602 346.891 764.047 346.891 Q758.468 346.891 755.297 343.28 Q752.149 339.646 752.149 333.28 Q752.149 326.891 755.297 323.28 Q758.468 319.669 764.047 319.669 Z" fill="#000000" fill-rule="nonzero" fill-opacity="1" /><path clip-path="url(#clip520)" d="M804.556 330.572 L804.556 346.22 L800.296 346.22 L800.296 330.711 Q800.296 327.03 798.861 325.201 Q797.426 323.373 794.556 323.373 Q791.107 323.373 789.116 325.572 Q787.125 327.771 787.125 331.567 L787.125 346.22 L782.843 346.22 L782.843 320.294 L787.125 320.294 L787.125 324.322 Q788.653 321.984 790.713 320.826 Q792.796 319.669 795.505 319.669 Q799.972 319.669 802.264 322.447 Q804.556 325.201 804.556 330.572 Z" fill="#000000" fill-rule="nonzero" fill-opacity="1" /></svg>
