<?xml version="1.0" encoding="utf-8" standalone="no"?>
<!DOCTYPE svg PUBLIC "-//W3C//DTD SVG 1.1//EN"
  "http://www.w3.org/Graphics/SVG/1.1/DTD/svg11.dtd">
<svg height="345.6pt" version="1.1" viewBox="0 0 460.8 345.6" width="460.8pt" xmlns="http://www.w3.org/2000/svg" xmlns:xlink="http://www.w3.org/1999/xlink">
 <metadata>
  <rdf:RDF xmlns:cc="http://creativecommons.org/ns#" xmlns:dc="http://purl.org/dc/elements/1.1/" xmlns:rdf="http://www.w3.org/1999/02/22-rdf-syntax-ns#">
   <cc:Work>
    <dc:type rdf:resource="http://purl.org/dc/dcmitype/StillImage"/>
    <dc:date>2022-03-03T21:41:50.405816</dc:date>
    <dc:format>image/svg+xml</dc:format>
    <dc:creator>
     <cc:Agent>
      <dc:title>Matplotlib v3.4.3, https://matplotlib.org/</dc:title>
     </cc:Agent>
    </dc:creator>
   </cc:Work>
  </rdf:RDF>
 </metadata>
 <defs>
  <style type="text/css">*{stroke-linecap:butt;stroke-linejoin:round;}</style>
 </defs>
 <g id="figure_1">
  <g id="patch_1">
   <path d="M 0 345.6 
L 460.8 345.6 
L 460.8 0 
L 0 0 
z
" style="fill:none;"/>
  </g>
  <g id="axes_1">
   <g id="patch_2">
    <path d="M 57.6 162.432 
L 414.72 162.432 
L 414.72 41.472 
L 57.6 41.472 
z
" style="fill:none;"/>
   </g>
   <g id="matplotlib.axis_1">
    <g id="xtick_1">
     <g id="line2d_1">
      <path clip-path="url(#p01f509c881)" d="M 73.832727 162.432 
L 73.832727 41.472 
" style="fill:none;stroke:#b0b0b0;stroke-linecap:square;stroke-opacity:0.25;stroke-width:0.8;"/>
     </g>
     <g id="line2d_2">
      <defs>
       <path d="M 0 0 
L 0 3.5 
" id="m53286ea4d5" style="stroke:#000000;stroke-width:0.8;"/>
      </defs>
      <g>
       <use style="stroke:#000000;stroke-width:0.8;" x="73.832727" xlink:href="#m53286ea4d5" y="162.432"/>
      </g>
     </g>
     <g id="text_1">
      <!-- 0 -->
      <g transform="translate(70.651477 177.030437)scale(0.1 -0.1)">
       <defs>
        <path d="M 2034 4250 
Q 1547 4250 1301 3770 
Q 1056 3291 1056 2328 
Q 1056 1369 1301 889 
Q 1547 409 2034 409 
Q 2525 409 2770 889 
Q 3016 1369 3016 2328 
Q 3016 3291 2770 3770 
Q 2525 4250 2034 4250 
z
M 2034 4750 
Q 2819 4750 3233 4129 
Q 3647 3509 3647 2328 
Q 3647 1150 3233 529 
Q 2819 -91 2034 -91 
Q 1250 -91 836 529 
Q 422 1150 422 2328 
Q 422 3509 836 4129 
Q 1250 4750 2034 4750 
z
" id="DejaVuSans-30" transform="scale(0.015625)"/>
       </defs>
       <use xlink:href="#DejaVuSans-30"/>
      </g>
     </g>
    </g>
    <g id="xtick_2">
     <g id="line2d_3">
      <path clip-path="url(#p01f509c881)" d="M 114.419619 162.432 
L 114.419619 41.472 
" style="fill:none;stroke:#b0b0b0;stroke-linecap:square;stroke-opacity:0.25;stroke-width:0.8;"/>
     </g>
     <g id="line2d_4">
      <g>
       <use style="stroke:#000000;stroke-width:0.8;" x="114.419619" xlink:href="#m53286ea4d5" y="162.432"/>
      </g>
     </g>
     <g id="text_2">
      <!-- 250 -->
      <g transform="translate(104.875869 177.030437)scale(0.1 -0.1)">
       <defs>
        <path d="M 1228 531 
L 3431 531 
L 3431 0 
L 469 0 
L 469 531 
Q 828 903 1448 1529 
Q 2069 2156 2228 2338 
Q 2531 2678 2651 2914 
Q 2772 3150 2772 3378 
Q 2772 3750 2511 3984 
Q 2250 4219 1831 4219 
Q 1534 4219 1204 4116 
Q 875 4013 500 3803 
L 500 4441 
Q 881 4594 1212 4672 
Q 1544 4750 1819 4750 
Q 2544 4750 2975 4387 
Q 3406 4025 3406 3419 
Q 3406 3131 3298 2873 
Q 3191 2616 2906 2266 
Q 2828 2175 2409 1742 
Q 1991 1309 1228 531 
z
" id="DejaVuSans-32" transform="scale(0.015625)"/>
        <path d="M 691 4666 
L 3169 4666 
L 3169 4134 
L 1269 4134 
L 1269 2991 
Q 1406 3038 1543 3061 
Q 1681 3084 1819 3084 
Q 2600 3084 3056 2656 
Q 3513 2228 3513 1497 
Q 3513 744 3044 326 
Q 2575 -91 1722 -91 
Q 1428 -91 1123 -41 
Q 819 9 494 109 
L 494 744 
Q 775 591 1075 516 
Q 1375 441 1709 441 
Q 2250 441 2565 725 
Q 2881 1009 2881 1497 
Q 2881 1984 2565 2268 
Q 2250 2553 1709 2553 
Q 1456 2553 1204 2497 
Q 953 2441 691 2322 
L 691 4666 
z
" id="DejaVuSans-35" transform="scale(0.015625)"/>
       </defs>
       <use xlink:href="#DejaVuSans-32"/>
       <use x="63.623047" xlink:href="#DejaVuSans-35"/>
       <use x="127.246094" xlink:href="#DejaVuSans-30"/>
      </g>
     </g>
    </g>
    <g id="xtick_3">
     <g id="line2d_5">
      <path clip-path="url(#p01f509c881)" d="M 155.00651 162.432 
L 155.00651 41.472 
" style="fill:none;stroke:#b0b0b0;stroke-linecap:square;stroke-opacity:0.25;stroke-width:0.8;"/>
     </g>
     <g id="line2d_6">
      <g>
       <use style="stroke:#000000;stroke-width:0.8;" x="155.00651" xlink:href="#m53286ea4d5" y="162.432"/>
      </g>
     </g>
     <g id="text_3">
      <!-- 500 -->
      <g transform="translate(145.46276 177.030437)scale(0.1 -0.1)">
       <use xlink:href="#DejaVuSans-35"/>
       <use x="63.623047" xlink:href="#DejaVuSans-30"/>
       <use x="127.246094" xlink:href="#DejaVuSans-30"/>
      </g>
     </g>
    </g>
    <g id="xtick_4">
     <g id="line2d_7">
      <path clip-path="url(#p01f509c881)" d="M 195.593402 162.432 
L 195.593402 41.472 
" style="fill:none;stroke:#b0b0b0;stroke-linecap:square;stroke-opacity:0.25;stroke-width:0.8;"/>
     </g>
     <g id="line2d_8">
      <g>
       <use style="stroke:#000000;stroke-width:0.8;" x="195.593402" xlink:href="#m53286ea4d5" y="162.432"/>
      </g>
     </g>
     <g id="text_4">
      <!-- 750 -->
      <g transform="translate(186.049652 177.030437)scale(0.1 -0.1)">
       <defs>
        <path d="M 525 4666 
L 3525 4666 
L 3525 4397 
L 1831 0 
L 1172 0 
L 2766 4134 
L 525 4134 
L 525 4666 
z
" id="DejaVuSans-37" transform="scale(0.015625)"/>
       </defs>
       <use xlink:href="#DejaVuSans-37"/>
       <use x="63.623047" xlink:href="#DejaVuSans-35"/>
       <use x="127.246094" xlink:href="#DejaVuSans-30"/>
      </g>
     </g>
    </g>
    <g id="xtick_5">
     <g id="line2d_9">
      <path clip-path="url(#p01f509c881)" d="M 236.180293 162.432 
L 236.180293 41.472 
" style="fill:none;stroke:#b0b0b0;stroke-linecap:square;stroke-opacity:0.25;stroke-width:0.8;"/>
     </g>
     <g id="line2d_10">
      <g>
       <use style="stroke:#000000;stroke-width:0.8;" x="236.180293" xlink:href="#m53286ea4d5" y="162.432"/>
      </g>
     </g>
     <g id="text_5">
      <!-- 1000 -->
      <g transform="translate(223.455293 177.030437)scale(0.1 -0.1)">
       <defs>
        <path d="M 794 531 
L 1825 531 
L 1825 4091 
L 703 3866 
L 703 4441 
L 1819 4666 
L 2450 4666 
L 2450 531 
L 3481 531 
L 3481 0 
L 794 0 
L 794 531 
z
" id="DejaVuSans-31" transform="scale(0.015625)"/>
       </defs>
       <use xlink:href="#DejaVuSans-31"/>
       <use x="63.623047" xlink:href="#DejaVuSans-30"/>
       <use x="127.246094" xlink:href="#DejaVuSans-30"/>
       <use x="190.869141" xlink:href="#DejaVuSans-30"/>
      </g>
     </g>
    </g>
    <g id="xtick_6">
     <g id="line2d_11">
      <path clip-path="url(#p01f509c881)" d="M 276.767185 162.432 
L 276.767185 41.472 
" style="fill:none;stroke:#b0b0b0;stroke-linecap:square;stroke-opacity:0.25;stroke-width:0.8;"/>
     </g>
     <g id="line2d_12">
      <g>
       <use style="stroke:#000000;stroke-width:0.8;" x="276.767185" xlink:href="#m53286ea4d5" y="162.432"/>
      </g>
     </g>
     <g id="text_6">
      <!-- 1250 -->
      <g transform="translate(264.042185 177.030437)scale(0.1 -0.1)">
       <use xlink:href="#DejaVuSans-31"/>
       <use x="63.623047" xlink:href="#DejaVuSans-32"/>
       <use x="127.246094" xlink:href="#DejaVuSans-35"/>
       <use x="190.869141" xlink:href="#DejaVuSans-30"/>
      </g>
     </g>
    </g>
    <g id="xtick_7">
     <g id="line2d_13">
      <path clip-path="url(#p01f509c881)" d="M 317.354077 162.432 
L 317.354077 41.472 
" style="fill:none;stroke:#b0b0b0;stroke-linecap:square;stroke-opacity:0.25;stroke-width:0.8;"/>
     </g>
     <g id="line2d_14">
      <g>
       <use style="stroke:#000000;stroke-width:0.8;" x="317.354077" xlink:href="#m53286ea4d5" y="162.432"/>
      </g>
     </g>
     <g id="text_7">
      <!-- 1500 -->
      <g transform="translate(304.629077 177.030437)scale(0.1 -0.1)">
       <use xlink:href="#DejaVuSans-31"/>
       <use x="63.623047" xlink:href="#DejaVuSans-35"/>
       <use x="127.246094" xlink:href="#DejaVuSans-30"/>
       <use x="190.869141" xlink:href="#DejaVuSans-30"/>
      </g>
     </g>
    </g>
    <g id="xtick_8">
     <g id="line2d_15">
      <path clip-path="url(#p01f509c881)" d="M 357.940968 162.432 
L 357.940968 41.472 
" style="fill:none;stroke:#b0b0b0;stroke-linecap:square;stroke-opacity:0.25;stroke-width:0.8;"/>
     </g>
     <g id="line2d_16">
      <g>
       <use style="stroke:#000000;stroke-width:0.8;" x="357.940968" xlink:href="#m53286ea4d5" y="162.432"/>
      </g>
     </g>
     <g id="text_8">
      <!-- 1750 -->
      <g transform="translate(345.215968 177.030437)scale(0.1 -0.1)">
       <use xlink:href="#DejaVuSans-31"/>
       <use x="63.623047" xlink:href="#DejaVuSans-37"/>
       <use x="127.246094" xlink:href="#DejaVuSans-35"/>
       <use x="190.869141" xlink:href="#DejaVuSans-30"/>
      </g>
     </g>
    </g>
    <g id="xtick_9">
     <g id="line2d_17">
      <path clip-path="url(#p01f509c881)" d="M 398.52786 162.432 
L 398.52786 41.472 
" style="fill:none;stroke:#b0b0b0;stroke-linecap:square;stroke-opacity:0.25;stroke-width:0.8;"/>
     </g>
     <g id="line2d_18">
      <g>
       <use style="stroke:#000000;stroke-width:0.8;" x="398.52786" xlink:href="#m53286ea4d5" y="162.432"/>
      </g>
     </g>
     <g id="text_9">
      <!-- 2000 -->
      <g transform="translate(385.80286 177.030437)scale(0.1 -0.1)">
       <use xlink:href="#DejaVuSans-32"/>
       <use x="63.623047" xlink:href="#DejaVuSans-30"/>
       <use x="127.246094" xlink:href="#DejaVuSans-30"/>
       <use x="190.869141" xlink:href="#DejaVuSans-30"/>
      </g>
     </g>
    </g>
   </g>
   <g id="matplotlib.axis_2">
    <g id="ytick_1">
     <g id="line2d_19">
      <path clip-path="url(#p01f509c881)" d="M 57.6 156.933818 
L 414.72 156.933818 
" style="fill:none;stroke:#b0b0b0;stroke-linecap:square;stroke-opacity:0.25;stroke-width:0.8;"/>
     </g>
     <g id="line2d_20">
      <defs>
       <path d="M 0 0 
L -3.5 0 
" id="m3094c7a602" style="stroke:#000000;stroke-width:0.8;"/>
      </defs>
      <g>
       <use style="stroke:#000000;stroke-width:0.8;" x="57.6" xlink:href="#m3094c7a602" y="156.933818"/>
      </g>
     </g>
     <g id="text_10">
      <!-- 0.0 -->
      <g transform="translate(34.696875 160.733037)scale(0.1 -0.1)">
       <defs>
        <path d="M 684 794 
L 1344 794 
L 1344 0 
L 684 0 
L 684 794 
z
" id="DejaVuSans-2e" transform="scale(0.015625)"/>
       </defs>
       <use xlink:href="#DejaVuSans-30"/>
       <use x="63.623047" xlink:href="#DejaVuSans-2e"/>
       <use x="95.410156" xlink:href="#DejaVuSans-30"/>
      </g>
     </g>
    </g>
    <g id="ytick_2">
     <g id="line2d_21">
      <path clip-path="url(#p01f509c881)" d="M 57.6 134.941091 
L 414.72 134.941091 
" style="fill:none;stroke:#b0b0b0;stroke-linecap:square;stroke-opacity:0.25;stroke-width:0.8;"/>
     </g>
     <g id="line2d_22">
      <g>
       <use style="stroke:#000000;stroke-width:0.8;" x="57.6" xlink:href="#m3094c7a602" y="134.941091"/>
      </g>
     </g>
     <g id="text_11">
      <!-- 0.2 -->
      <g transform="translate(34.696875 138.74031)scale(0.1 -0.1)">
       <use xlink:href="#DejaVuSans-30"/>
       <use x="63.623047" xlink:href="#DejaVuSans-2e"/>
       <use x="95.410156" xlink:href="#DejaVuSans-32"/>
      </g>
     </g>
    </g>
    <g id="ytick_3">
     <g id="line2d_23">
      <path clip-path="url(#p01f509c881)" d="M 57.6 112.948364 
L 414.72 112.948364 
" style="fill:none;stroke:#b0b0b0;stroke-linecap:square;stroke-opacity:0.25;stroke-width:0.8;"/>
     </g>
     <g id="line2d_24">
      <g>
       <use style="stroke:#000000;stroke-width:0.8;" x="57.6" xlink:href="#m3094c7a602" y="112.948364"/>
      </g>
     </g>
     <g id="text_12">
      <!-- 0.4 -->
      <g transform="translate(34.696875 116.747582)scale(0.1 -0.1)">
       <defs>
        <path d="M 2419 4116 
L 825 1625 
L 2419 1625 
L 2419 4116 
z
M 2253 4666 
L 3047 4666 
L 3047 1625 
L 3713 1625 
L 3713 1100 
L 3047 1100 
L 3047 0 
L 2419 0 
L 2419 1100 
L 313 1100 
L 313 1709 
L 2253 4666 
z
" id="DejaVuSans-34" transform="scale(0.015625)"/>
       </defs>
       <use xlink:href="#DejaVuSans-30"/>
       <use x="63.623047" xlink:href="#DejaVuSans-2e"/>
       <use x="95.410156" xlink:href="#DejaVuSans-34"/>
      </g>
     </g>
    </g>
    <g id="ytick_4">
     <g id="line2d_25">
      <path clip-path="url(#p01f509c881)" d="M 57.6 90.955636 
L 414.72 90.955636 
" style="fill:none;stroke:#b0b0b0;stroke-linecap:square;stroke-opacity:0.25;stroke-width:0.8;"/>
     </g>
     <g id="line2d_26">
      <g>
       <use style="stroke:#000000;stroke-width:0.8;" x="57.6" xlink:href="#m3094c7a602" y="90.955636"/>
      </g>
     </g>
     <g id="text_13">
      <!-- 0.6 -->
      <g transform="translate(34.696875 94.754855)scale(0.1 -0.1)">
       <defs>
        <path d="M 2113 2584 
Q 1688 2584 1439 2293 
Q 1191 2003 1191 1497 
Q 1191 994 1439 701 
Q 1688 409 2113 409 
Q 2538 409 2786 701 
Q 3034 994 3034 1497 
Q 3034 2003 2786 2293 
Q 2538 2584 2113 2584 
z
M 3366 4563 
L 3366 3988 
Q 3128 4100 2886 4159 
Q 2644 4219 2406 4219 
Q 1781 4219 1451 3797 
Q 1122 3375 1075 2522 
Q 1259 2794 1537 2939 
Q 1816 3084 2150 3084 
Q 2853 3084 3261 2657 
Q 3669 2231 3669 1497 
Q 3669 778 3244 343 
Q 2819 -91 2113 -91 
Q 1303 -91 875 529 
Q 447 1150 447 2328 
Q 447 3434 972 4092 
Q 1497 4750 2381 4750 
Q 2619 4750 2861 4703 
Q 3103 4656 3366 4563 
z
" id="DejaVuSans-36" transform="scale(0.015625)"/>
       </defs>
       <use xlink:href="#DejaVuSans-30"/>
       <use x="63.623047" xlink:href="#DejaVuSans-2e"/>
       <use x="95.410156" xlink:href="#DejaVuSans-36"/>
      </g>
     </g>
    </g>
    <g id="ytick_5">
     <g id="line2d_27">
      <path clip-path="url(#p01f509c881)" d="M 57.6 68.962909 
L 414.72 68.962909 
" style="fill:none;stroke:#b0b0b0;stroke-linecap:square;stroke-opacity:0.25;stroke-width:0.8;"/>
     </g>
     <g id="line2d_28">
      <g>
       <use style="stroke:#000000;stroke-width:0.8;" x="57.6" xlink:href="#m3094c7a602" y="68.962909"/>
      </g>
     </g>
     <g id="text_14">
      <!-- 0.8 -->
      <g transform="translate(34.696875 72.762128)scale(0.1 -0.1)">
       <defs>
        <path d="M 2034 2216 
Q 1584 2216 1326 1975 
Q 1069 1734 1069 1313 
Q 1069 891 1326 650 
Q 1584 409 2034 409 
Q 2484 409 2743 651 
Q 3003 894 3003 1313 
Q 3003 1734 2745 1975 
Q 2488 2216 2034 2216 
z
M 1403 2484 
Q 997 2584 770 2862 
Q 544 3141 544 3541 
Q 544 4100 942 4425 
Q 1341 4750 2034 4750 
Q 2731 4750 3128 4425 
Q 3525 4100 3525 3541 
Q 3525 3141 3298 2862 
Q 3072 2584 2669 2484 
Q 3125 2378 3379 2068 
Q 3634 1759 3634 1313 
Q 3634 634 3220 271 
Q 2806 -91 2034 -91 
Q 1263 -91 848 271 
Q 434 634 434 1313 
Q 434 1759 690 2068 
Q 947 2378 1403 2484 
z
M 1172 3481 
Q 1172 3119 1398 2916 
Q 1625 2713 2034 2713 
Q 2441 2713 2670 2916 
Q 2900 3119 2900 3481 
Q 2900 3844 2670 4047 
Q 2441 4250 2034 4250 
Q 1625 4250 1398 4047 
Q 1172 3844 1172 3481 
z
" id="DejaVuSans-38" transform="scale(0.015625)"/>
       </defs>
       <use xlink:href="#DejaVuSans-30"/>
       <use x="63.623047" xlink:href="#DejaVuSans-2e"/>
       <use x="95.410156" xlink:href="#DejaVuSans-38"/>
      </g>
     </g>
    </g>
    <g id="ytick_6">
     <g id="line2d_29">
      <path clip-path="url(#p01f509c881)" d="M 57.6 46.970182 
L 414.72 46.970182 
" style="fill:none;stroke:#b0b0b0;stroke-linecap:square;stroke-opacity:0.25;stroke-width:0.8;"/>
     </g>
     <g id="line2d_30">
      <g>
       <use style="stroke:#000000;stroke-width:0.8;" x="57.6" xlink:href="#m3094c7a602" y="46.970182"/>
      </g>
     </g>
     <g id="text_15">
      <!-- 1.0 -->
      <g transform="translate(34.696875 50.769401)scale(0.1 -0.1)">
       <use xlink:href="#DejaVuSans-31"/>
       <use x="63.623047" xlink:href="#DejaVuSans-2e"/>
       <use x="95.410156" xlink:href="#DejaVuSans-30"/>
      </g>
     </g>
    </g>
    <g id="text_16">
     <!-- |H(f)| -->
     <g transform="translate(28.339062 114.742625)rotate(-90)scale(0.1 -0.1)">
      <defs>
       <path d="M 1344 4891 
L 1344 -1509 
L 813 -1509 
L 813 4891 
L 1344 4891 
z
" id="DejaVuSans-7c" transform="scale(0.015625)"/>
       <path d="M 628 4666 
L 1259 4666 
L 1259 2753 
L 3553 2753 
L 3553 4666 
L 4184 4666 
L 4184 0 
L 3553 0 
L 3553 2222 
L 1259 2222 
L 1259 0 
L 628 0 
L 628 4666 
z
" id="DejaVuSans-48" transform="scale(0.015625)"/>
       <path d="M 1984 4856 
Q 1566 4138 1362 3434 
Q 1159 2731 1159 2009 
Q 1159 1288 1364 580 
Q 1569 -128 1984 -844 
L 1484 -844 
Q 1016 -109 783 600 
Q 550 1309 550 2009 
Q 550 2706 781 3412 
Q 1013 4119 1484 4856 
L 1984 4856 
z
" id="DejaVuSans-28" transform="scale(0.015625)"/>
       <path d="M 2375 4863 
L 2375 4384 
L 1825 4384 
Q 1516 4384 1395 4259 
Q 1275 4134 1275 3809 
L 1275 3500 
L 2222 3500 
L 2222 3053 
L 1275 3053 
L 1275 0 
L 697 0 
L 697 3053 
L 147 3053 
L 147 3500 
L 697 3500 
L 697 3744 
Q 697 4328 969 4595 
Q 1241 4863 1831 4863 
L 2375 4863 
z
" id="DejaVuSans-66" transform="scale(0.015625)"/>
       <path d="M 513 4856 
L 1013 4856 
Q 1481 4119 1714 3412 
Q 1947 2706 1947 2009 
Q 1947 1309 1714 600 
Q 1481 -109 1013 -844 
L 513 -844 
Q 928 -128 1133 580 
Q 1338 1288 1338 2009 
Q 1338 2731 1133 3434 
Q 928 4138 513 4856 
z
" id="DejaVuSans-29" transform="scale(0.015625)"/>
      </defs>
      <use xlink:href="#DejaVuSans-7c"/>
      <use x="33.691406" xlink:href="#DejaVuSans-48"/>
      <use x="108.886719" xlink:href="#DejaVuSans-28"/>
      <use x="147.900391" xlink:href="#DejaVuSans-66"/>
      <use x="183.105469" xlink:href="#DejaVuSans-29"/>
      <use x="222.119141" xlink:href="#DejaVuSans-7c"/>
     </g>
    </g>
   </g>
   <g id="line2d_31">
    <path clip-path="url(#p01f509c881)" d="M 73.832727 46.970182 
L 88.565769 47.081378 
L 95.100258 47.323828 
L 98.46897 47.653501 
L 100.538902 48.065763 
L 101.959443 48.563963 
L 103.014702 49.159829 
L 103.867027 49.895451 
L 104.597591 50.836654 
L 105.206394 51.984416 
L 105.774611 53.543761 
L 106.302241 55.680978 
L 106.789283 58.626249 
L 107.235739 62.683797 
L 107.682195 68.908524 
L 108.128651 78.762878 
L 108.575106 94.528254 
L 109.062149 121.304797 
L 109.549192 156.933818 
L 109.589779 153.8187 
L 110.36093 103.157677 
L 110.888559 82.581571 
L 111.375602 71.288458 
L 111.903232 63.911353 
L 112.430861 59.368119 
L 112.999078 56.247496 
L 113.607881 54.07214 
L 114.257271 52.529404 
L 114.987835 51.36296 
L 115.799573 50.491005 
L 116.733072 49.819745 
L 117.869505 49.287755 
L 119.290046 48.879775 
L 121.157043 48.590244 
L 123.551669 48.454507 
L 126.352165 48.519249 
L 129.0309 48.795523 
L 131.222592 49.233749 
L 132.967828 49.799673 
L 134.388369 50.489111 
L 135.565389 51.304385 
L 136.580062 52.277701 
L 137.472973 53.442479 
L 138.284711 54.868436 
L 139.055862 56.695348 
L 139.786426 59.046319 
L 140.476403 62.079316 
L 141.125793 65.989737 
L 141.775184 71.397684 
L 142.383987 78.429805 
L 142.99279 88.1317 
L 143.642181 102.393772 
L 144.332158 122.729329 
L 145.265656 156.933818 
L 145.34683 153.823242 
L 146.52385 113.035938 
L 147.295001 93.961465 
L 147.984978 81.989112 
L 148.674955 73.602336 
L 149.364932 67.700194 
L 150.095496 63.269375 
L 150.866647 59.939499 
L 151.678385 57.421886 
L 152.53071 55.50176 
L 153.423622 54.022744 
L 154.397707 52.828864 
L 155.493553 51.839227 
L 156.751747 51.011686 
L 158.212875 50.323344 
L 159.998698 49.737733 
L 162.230977 49.251707 
L 165.112646 48.865473 
L 168.887227 48.59678 
L 173.757654 48.482856 
L 179.358645 48.576325 
L 184.594354 48.880041 
L 188.855978 49.341627 
L 192.22469 49.921562 
L 194.944012 50.609192 
L 197.176291 51.398475 
L 199.043288 52.288949 
L 200.666763 53.307985 
L 202.087305 54.460856 
L 203.386085 55.808318 
L 204.563105 57.357716 
L 205.658951 59.177163 
L 206.673623 61.292919 
L 207.647709 63.83962 
L 208.581207 66.903144 
L 209.514706 70.766542 
L 210.407617 75.437115 
L 211.300529 81.337554 
L 212.193441 88.792191 
L 213.086352 98.145407 
L 214.060438 110.843181 
L 215.156284 128.305729 
L 216.698586 156.933818 
L 216.779759 155.375639 
L 218.646756 121.57877 
L 219.783189 104.905194 
L 220.797862 93.090231 
L 221.771947 84.206727 
L 222.746032 77.298658 
L 223.720118 71.93591 
L 224.694203 67.753282 
L 225.708875 64.342865 
L 226.764135 61.563336 
L 227.859981 59.293903 
L 228.996414 57.434751 
L 230.21402 55.858207 
L 231.553388 54.491438 
L 233.014516 53.322764 
L 234.637992 52.310892 
L 236.504989 51.414564 
L 238.696681 50.618462 
L 241.294242 49.919569 
L 244.460019 49.304767 
L 248.478122 48.761529 
L 253.673244 48.294353 
L 260.735363 47.895861 
L 270.800912 47.566489 
L 286.223931 47.304046 
L 312.240128 47.108796 
L 362.202592 46.987975 
L 398.487273 46.970182 
L 398.487273 46.970182 
" style="fill:none;stroke:#1f77b4;stroke-dasharray:5.55,2.4;stroke-dashoffset:0;stroke-opacity:0.75;stroke-width:1.5;"/>
   </g>
   <g id="line2d_32">
    <path clip-path="url(#p01f509c881)" d="M 73.832727 46.970182 
L 92.46211 47.080929 
L 98.631318 47.306333 
L 101.4724 47.613277 
L 103.136463 48.002492 
L 104.232309 48.469282 
L 105.084634 49.07278 
L 105.734024 49.79462 
L 106.302241 50.751117 
L 106.82987 52.097274 
L 107.316913 53.990447 
L 107.803955 56.903504 
L 108.290998 61.361131 
L 109.021562 70.769876 
L 109.386844 74.169202 
L 109.549192 74.579845 
L 109.630366 74.477916 
L 109.792713 73.688785 
L 110.076821 70.872861 
L 111.253841 57.840314 
L 111.822058 54.495387 
L 112.390274 52.42805 
L 112.999078 51.03146 
L 113.648468 50.076684 
L 114.379032 49.381369 
L 115.271944 48.841381 
L 116.408377 48.42548 
L 117.950678 48.113496 
L 120.142371 47.91301 
L 123.267561 47.863008 
L 126.920381 48.02348 
L 130.004985 48.367789 
L 132.318438 48.838696 
L 134.063674 49.411118 
L 135.443629 50.090345 
L 136.580062 50.893354 
L 137.554147 51.854052 
L 138.406472 53.005817 
L 139.177623 54.417553 
L 139.908187 56.228041 
L 140.598164 58.550945 
L 141.247554 61.518849 
L 141.896944 65.559486 
L 142.546335 71.067325 
L 143.236312 78.933425 
L 145.062722 101.671661 
L 145.265656 102.084393 
L 145.387417 101.936104 
L 145.590352 101.050678 
L 145.915047 98.213038 
L 146.52385 90.185425 
L 147.70087 74.821726 
L 148.472021 67.74483 
L 149.202585 62.992405 
L 149.933149 59.598585 
L 150.7043 57.02601 
L 151.516038 55.073789 
L 152.368362 53.583698 
L 153.301861 52.392619 
L 154.316533 51.44826 
L 155.493553 50.656025 
L 156.873507 49.997953 
L 158.578157 49.440446 
L 160.729262 48.982154 
L 163.529758 48.623267 
L 167.304338 48.375267 
L 172.337113 48.277563 
L 178.262799 48.385515 
L 183.823203 48.701364 
L 188.287761 49.167684 
L 191.778234 49.745227 
L 194.57873 50.425731 
L 196.851596 51.197729 
L 198.759179 52.071586 
L 200.423242 53.076397 
L 201.88437 54.220572 
L 203.183151 55.521105 
L 204.36017 57.01227 
L 205.456017 58.75857 
L 206.511276 60.874876 
L 207.485361 63.329778 
L 208.41886 66.277395 
L 209.352358 69.988533 
L 210.24527 74.469423 
L 211.138181 80.126722 
L 212.031093 87.276789 
L 212.924005 96.264697 
L 213.857503 107.95422 
L 214.912762 124.143034 
L 216.292717 149.155438 
L 216.698586 156.933818 
L 216.739172 156.15436 
L 218.646756 121.566604 
L 219.783189 104.887822 
L 220.797862 93.069474 
L 221.771947 84.183674 
L 222.746032 77.274044 
L 223.720118 71.910288 
L 224.694203 67.727059 
L 225.708875 64.31633 
L 226.764135 61.536721 
L 227.859981 59.267391 
L 228.996414 57.408486 
L 230.21402 55.832316 
L 231.553388 54.466043 
L 233.014516 53.297975 
L 234.637992 52.286823 
L 236.504989 51.39135 
L 238.696681 50.596258 
L 241.294242 49.898543 
L 244.460019 49.285123 
L 248.478122 48.743531 
L 253.713831 48.275385 
L 260.77595 47.880367 
L 270.882086 47.553576 
L 286.386278 47.294463 
L 312.686584 47.102763 
L 363.704307 46.98588 
L 398.487273 46.970182 
L 398.487273 46.970182 
" style="fill:none;stroke:#ff7f0e;stroke-linecap:square;stroke-opacity:0.8;stroke-width:1.5;"/>
   </g>
   <g id="line2d_33">
    <path clip-path="url(#p01f509c881)" d="M 57.6 74.461091 
L 414.72 74.461091 
" style="fill:none;stroke:#000000;stroke-dasharray:1.5,2.475;stroke-dashoffset:0;stroke-opacity:0.4;stroke-width:1.5;"/>
   </g>
   <g id="line2d_34">
    <path clip-path="url(#p01f509c881)" d="M 57.6 101.952 
L 414.72 101.952 
" style="fill:none;stroke:#000000;stroke-dasharray:1.5,2.475;stroke-dashoffset:0;stroke-opacity:0.4;stroke-width:1.5;"/>
   </g>
   <g id="line2d_35">
    <path clip-path="url(#p01f509c881)" d="M 57.6 156.933818 
L 414.72 156.933818 
" style="fill:none;stroke:#000000;stroke-dasharray:1.5,2.475;stroke-dashoffset:0;stroke-opacity:0.4;stroke-width:1.5;"/>
   </g>
   <g id="patch_3">
    <path d="M 57.6 162.432 
L 57.6 41.472 
" style="fill:none;stroke:#000000;stroke-linecap:square;stroke-linejoin:miter;stroke-width:0.8;"/>
   </g>
   <g id="patch_4">
    <path d="M 414.72 162.432 
L 414.72 41.472 
" style="fill:none;stroke:#000000;stroke-linecap:square;stroke-linejoin:miter;stroke-width:0.8;"/>
   </g>
   <g id="patch_5">
    <path d="M 57.6 162.432 
L 414.72 162.432 
" style="fill:none;stroke:#000000;stroke-linecap:square;stroke-linejoin:miter;stroke-width:0.8;"/>
   </g>
   <g id="patch_6">
    <path d="M 57.6 41.472 
L 414.72 41.472 
" style="fill:none;stroke:#000000;stroke-linecap:square;stroke-linejoin:miter;stroke-width:0.8;"/>
   </g>
   <g id="text_17">
    <!-- Frequency response of cascaded notch filters -->
    <g transform="translate(100.2 35.472)scale(0.12 -0.12)">
     <defs>
      <path d="M 628 4666 
L 3309 4666 
L 3309 4134 
L 1259 4134 
L 1259 2759 
L 3109 2759 
L 3109 2228 
L 1259 2228 
L 1259 0 
L 628 0 
L 628 4666 
z
" id="DejaVuSans-46" transform="scale(0.015625)"/>
      <path d="M 2631 2963 
Q 2534 3019 2420 3045 
Q 2306 3072 2169 3072 
Q 1681 3072 1420 2755 
Q 1159 2438 1159 1844 
L 1159 0 
L 581 0 
L 581 3500 
L 1159 3500 
L 1159 2956 
Q 1341 3275 1631 3429 
Q 1922 3584 2338 3584 
Q 2397 3584 2469 3576 
Q 2541 3569 2628 3553 
L 2631 2963 
z
" id="DejaVuSans-72" transform="scale(0.015625)"/>
      <path d="M 3597 1894 
L 3597 1613 
L 953 1613 
Q 991 1019 1311 708 
Q 1631 397 2203 397 
Q 2534 397 2845 478 
Q 3156 559 3463 722 
L 3463 178 
Q 3153 47 2828 -22 
Q 2503 -91 2169 -91 
Q 1331 -91 842 396 
Q 353 884 353 1716 
Q 353 2575 817 3079 
Q 1281 3584 2069 3584 
Q 2775 3584 3186 3129 
Q 3597 2675 3597 1894 
z
M 3022 2063 
Q 3016 2534 2758 2815 
Q 2500 3097 2075 3097 
Q 1594 3097 1305 2825 
Q 1016 2553 972 2059 
L 3022 2063 
z
" id="DejaVuSans-65" transform="scale(0.015625)"/>
      <path d="M 947 1747 
Q 947 1113 1208 752 
Q 1469 391 1925 391 
Q 2381 391 2643 752 
Q 2906 1113 2906 1747 
Q 2906 2381 2643 2742 
Q 2381 3103 1925 3103 
Q 1469 3103 1208 2742 
Q 947 2381 947 1747 
z
M 2906 525 
Q 2725 213 2448 61 
Q 2172 -91 1784 -91 
Q 1150 -91 751 415 
Q 353 922 353 1747 
Q 353 2572 751 3078 
Q 1150 3584 1784 3584 
Q 2172 3584 2448 3432 
Q 2725 3281 2906 2969 
L 2906 3500 
L 3481 3500 
L 3481 -1331 
L 2906 -1331 
L 2906 525 
z
" id="DejaVuSans-71" transform="scale(0.015625)"/>
      <path d="M 544 1381 
L 544 3500 
L 1119 3500 
L 1119 1403 
Q 1119 906 1312 657 
Q 1506 409 1894 409 
Q 2359 409 2629 706 
Q 2900 1003 2900 1516 
L 2900 3500 
L 3475 3500 
L 3475 0 
L 2900 0 
L 2900 538 
Q 2691 219 2414 64 
Q 2138 -91 1772 -91 
Q 1169 -91 856 284 
Q 544 659 544 1381 
z
M 1991 3584 
L 1991 3584 
z
" id="DejaVuSans-75" transform="scale(0.015625)"/>
      <path d="M 3513 2113 
L 3513 0 
L 2938 0 
L 2938 2094 
Q 2938 2591 2744 2837 
Q 2550 3084 2163 3084 
Q 1697 3084 1428 2787 
Q 1159 2491 1159 1978 
L 1159 0 
L 581 0 
L 581 3500 
L 1159 3500 
L 1159 2956 
Q 1366 3272 1645 3428 
Q 1925 3584 2291 3584 
Q 2894 3584 3203 3211 
Q 3513 2838 3513 2113 
z
" id="DejaVuSans-6e" transform="scale(0.015625)"/>
      <path d="M 3122 3366 
L 3122 2828 
Q 2878 2963 2633 3030 
Q 2388 3097 2138 3097 
Q 1578 3097 1268 2742 
Q 959 2388 959 1747 
Q 959 1106 1268 751 
Q 1578 397 2138 397 
Q 2388 397 2633 464 
Q 2878 531 3122 666 
L 3122 134 
Q 2881 22 2623 -34 
Q 2366 -91 2075 -91 
Q 1284 -91 818 406 
Q 353 903 353 1747 
Q 353 2603 823 3093 
Q 1294 3584 2113 3584 
Q 2378 3584 2631 3529 
Q 2884 3475 3122 3366 
z
" id="DejaVuSans-63" transform="scale(0.015625)"/>
      <path d="M 2059 -325 
Q 1816 -950 1584 -1140 
Q 1353 -1331 966 -1331 
L 506 -1331 
L 506 -850 
L 844 -850 
Q 1081 -850 1212 -737 
Q 1344 -625 1503 -206 
L 1606 56 
L 191 3500 
L 800 3500 
L 1894 763 
L 2988 3500 
L 3597 3500 
L 2059 -325 
z
" id="DejaVuSans-79" transform="scale(0.015625)"/>
      <path id="DejaVuSans-20" transform="scale(0.015625)"/>
      <path d="M 2834 3397 
L 2834 2853 
Q 2591 2978 2328 3040 
Q 2066 3103 1784 3103 
Q 1356 3103 1142 2972 
Q 928 2841 928 2578 
Q 928 2378 1081 2264 
Q 1234 2150 1697 2047 
L 1894 2003 
Q 2506 1872 2764 1633 
Q 3022 1394 3022 966 
Q 3022 478 2636 193 
Q 2250 -91 1575 -91 
Q 1294 -91 989 -36 
Q 684 19 347 128 
L 347 722 
Q 666 556 975 473 
Q 1284 391 1588 391 
Q 1994 391 2212 530 
Q 2431 669 2431 922 
Q 2431 1156 2273 1281 
Q 2116 1406 1581 1522 
L 1381 1569 
Q 847 1681 609 1914 
Q 372 2147 372 2553 
Q 372 3047 722 3315 
Q 1072 3584 1716 3584 
Q 2034 3584 2315 3537 
Q 2597 3491 2834 3397 
z
" id="DejaVuSans-73" transform="scale(0.015625)"/>
      <path d="M 1159 525 
L 1159 -1331 
L 581 -1331 
L 581 3500 
L 1159 3500 
L 1159 2969 
Q 1341 3281 1617 3432 
Q 1894 3584 2278 3584 
Q 2916 3584 3314 3078 
Q 3713 2572 3713 1747 
Q 3713 922 3314 415 
Q 2916 -91 2278 -91 
Q 1894 -91 1617 61 
Q 1341 213 1159 525 
z
M 3116 1747 
Q 3116 2381 2855 2742 
Q 2594 3103 2138 3103 
Q 1681 3103 1420 2742 
Q 1159 2381 1159 1747 
Q 1159 1113 1420 752 
Q 1681 391 2138 391 
Q 2594 391 2855 752 
Q 3116 1113 3116 1747 
z
" id="DejaVuSans-70" transform="scale(0.015625)"/>
      <path d="M 1959 3097 
Q 1497 3097 1228 2736 
Q 959 2375 959 1747 
Q 959 1119 1226 758 
Q 1494 397 1959 397 
Q 2419 397 2687 759 
Q 2956 1122 2956 1747 
Q 2956 2369 2687 2733 
Q 2419 3097 1959 3097 
z
M 1959 3584 
Q 2709 3584 3137 3096 
Q 3566 2609 3566 1747 
Q 3566 888 3137 398 
Q 2709 -91 1959 -91 
Q 1206 -91 779 398 
Q 353 888 353 1747 
Q 353 2609 779 3096 
Q 1206 3584 1959 3584 
z
" id="DejaVuSans-6f" transform="scale(0.015625)"/>
      <path d="M 2194 1759 
Q 1497 1759 1228 1600 
Q 959 1441 959 1056 
Q 959 750 1161 570 
Q 1363 391 1709 391 
Q 2188 391 2477 730 
Q 2766 1069 2766 1631 
L 2766 1759 
L 2194 1759 
z
M 3341 1997 
L 3341 0 
L 2766 0 
L 2766 531 
Q 2569 213 2275 61 
Q 1981 -91 1556 -91 
Q 1019 -91 701 211 
Q 384 513 384 1019 
Q 384 1609 779 1909 
Q 1175 2209 1959 2209 
L 2766 2209 
L 2766 2266 
Q 2766 2663 2505 2880 
Q 2244 3097 1772 3097 
Q 1472 3097 1187 3025 
Q 903 2953 641 2809 
L 641 3341 
Q 956 3463 1253 3523 
Q 1550 3584 1831 3584 
Q 2591 3584 2966 3190 
Q 3341 2797 3341 1997 
z
" id="DejaVuSans-61" transform="scale(0.015625)"/>
      <path d="M 2906 2969 
L 2906 4863 
L 3481 4863 
L 3481 0 
L 2906 0 
L 2906 525 
Q 2725 213 2448 61 
Q 2172 -91 1784 -91 
Q 1150 -91 751 415 
Q 353 922 353 1747 
Q 353 2572 751 3078 
Q 1150 3584 1784 3584 
Q 2172 3584 2448 3432 
Q 2725 3281 2906 2969 
z
M 947 1747 
Q 947 1113 1208 752 
Q 1469 391 1925 391 
Q 2381 391 2643 752 
Q 2906 1113 2906 1747 
Q 2906 2381 2643 2742 
Q 2381 3103 1925 3103 
Q 1469 3103 1208 2742 
Q 947 2381 947 1747 
z
" id="DejaVuSans-64" transform="scale(0.015625)"/>
      <path d="M 1172 4494 
L 1172 3500 
L 2356 3500 
L 2356 3053 
L 1172 3053 
L 1172 1153 
Q 1172 725 1289 603 
Q 1406 481 1766 481 
L 2356 481 
L 2356 0 
L 1766 0 
Q 1100 0 847 248 
Q 594 497 594 1153 
L 594 3053 
L 172 3053 
L 172 3500 
L 594 3500 
L 594 4494 
L 1172 4494 
z
" id="DejaVuSans-74" transform="scale(0.015625)"/>
      <path d="M 3513 2113 
L 3513 0 
L 2938 0 
L 2938 2094 
Q 2938 2591 2744 2837 
Q 2550 3084 2163 3084 
Q 1697 3084 1428 2787 
Q 1159 2491 1159 1978 
L 1159 0 
L 581 0 
L 581 4863 
L 1159 4863 
L 1159 2956 
Q 1366 3272 1645 3428 
Q 1925 3584 2291 3584 
Q 2894 3584 3203 3211 
Q 3513 2838 3513 2113 
z
" id="DejaVuSans-68" transform="scale(0.015625)"/>
      <path d="M 603 3500 
L 1178 3500 
L 1178 0 
L 603 0 
L 603 3500 
z
M 603 4863 
L 1178 4863 
L 1178 4134 
L 603 4134 
L 603 4863 
z
" id="DejaVuSans-69" transform="scale(0.015625)"/>
      <path d="M 603 4863 
L 1178 4863 
L 1178 0 
L 603 0 
L 603 4863 
z
" id="DejaVuSans-6c" transform="scale(0.015625)"/>
     </defs>
     <use xlink:href="#DejaVuSans-46"/>
     <use x="50.269531" xlink:href="#DejaVuSans-72"/>
     <use x="89.132812" xlink:href="#DejaVuSans-65"/>
     <use x="150.65625" xlink:href="#DejaVuSans-71"/>
     <use x="214.132812" xlink:href="#DejaVuSans-75"/>
     <use x="277.511719" xlink:href="#DejaVuSans-65"/>
     <use x="339.035156" xlink:href="#DejaVuSans-6e"/>
     <use x="402.414062" xlink:href="#DejaVuSans-63"/>
     <use x="457.394531" xlink:href="#DejaVuSans-79"/>
     <use x="516.574219" xlink:href="#DejaVuSans-20"/>
     <use x="548.361328" xlink:href="#DejaVuSans-72"/>
     <use x="587.224609" xlink:href="#DejaVuSans-65"/>
     <use x="648.748047" xlink:href="#DejaVuSans-73"/>
     <use x="700.847656" xlink:href="#DejaVuSans-70"/>
     <use x="764.324219" xlink:href="#DejaVuSans-6f"/>
     <use x="825.505859" xlink:href="#DejaVuSans-6e"/>
     <use x="888.884766" xlink:href="#DejaVuSans-73"/>
     <use x="940.984375" xlink:href="#DejaVuSans-65"/>
     <use x="1002.507812" xlink:href="#DejaVuSans-20"/>
     <use x="1034.294922" xlink:href="#DejaVuSans-6f"/>
     <use x="1095.476562" xlink:href="#DejaVuSans-66"/>
     <use x="1130.681641" xlink:href="#DejaVuSans-20"/>
     <use x="1162.46875" xlink:href="#DejaVuSans-63"/>
     <use x="1217.449219" xlink:href="#DejaVuSans-61"/>
     <use x="1278.728516" xlink:href="#DejaVuSans-73"/>
     <use x="1330.828125" xlink:href="#DejaVuSans-63"/>
     <use x="1385.808594" xlink:href="#DejaVuSans-61"/>
     <use x="1447.087891" xlink:href="#DejaVuSans-64"/>
     <use x="1510.564453" xlink:href="#DejaVuSans-65"/>
     <use x="1572.087891" xlink:href="#DejaVuSans-64"/>
     <use x="1635.564453" xlink:href="#DejaVuSans-20"/>
     <use x="1667.351562" xlink:href="#DejaVuSans-6e"/>
     <use x="1730.730469" xlink:href="#DejaVuSans-6f"/>
     <use x="1791.912109" xlink:href="#DejaVuSans-74"/>
     <use x="1831.121094" xlink:href="#DejaVuSans-63"/>
     <use x="1886.101562" xlink:href="#DejaVuSans-68"/>
     <use x="1949.480469" xlink:href="#DejaVuSans-20"/>
     <use x="1981.267578" xlink:href="#DejaVuSans-66"/>
     <use x="2016.472656" xlink:href="#DejaVuSans-69"/>
     <use x="2044.255859" xlink:href="#DejaVuSans-6c"/>
     <use x="2072.039062" xlink:href="#DejaVuSans-74"/>
     <use x="2111.248047" xlink:href="#DejaVuSans-65"/>
     <use x="2172.771484" xlink:href="#DejaVuSans-72"/>
     <use x="2213.884766" xlink:href="#DejaVuSans-73"/>
    </g>
   </g>
   <g id="legend_1">
    <g id="patch_7">
     <path d="M 275.872 146.288 
L 393.675125 146.288 
Q 395.675125 146.288 395.675125 144.288 
L 395.675125 115.93175 
Q 395.675125 113.93175 393.675125 113.93175 
L 275.872 113.93175 
Q 273.872 113.93175 273.872 115.93175 
L 273.872 144.288 
Q 273.872 146.288 275.872 146.288 
z
" style="fill:#4c4c4c;opacity:0.5;stroke:#4c4c4c;stroke-linejoin:miter;"/>
    </g>
    <g id="patch_8">
     <path d="M 273.872 144.288 
L 391.675125 144.288 
Q 393.675125 144.288 393.675125 142.288 
L 393.675125 113.93175 
Q 393.675125 111.93175 391.675125 111.93175 
L 273.872 111.93175 
Q 271.872 111.93175 271.872 113.93175 
L 271.872 142.288 
Q 271.872 144.288 273.872 144.288 
z
" style="fill:#ffffff;stroke:#cccccc;stroke-linejoin:miter;"/>
    </g>
    <g id="line2d_36">
     <path d="M 275.872 120.030187 
L 295.872 120.030187 
" style="fill:none;stroke:#1f77b4;stroke-dasharray:5.55,2.4;stroke-dashoffset:0;stroke-opacity:0.75;stroke-width:1.5;"/>
    </g>
    <g id="line2d_37"/>
    <g id="text_18">
     <!-- Simple cascade -->
     <g transform="translate(303.872 123.530187)scale(0.1 -0.1)">
      <defs>
       <path d="M 3425 4513 
L 3425 3897 
Q 3066 4069 2747 4153 
Q 2428 4238 2131 4238 
Q 1616 4238 1336 4038 
Q 1056 3838 1056 3469 
Q 1056 3159 1242 3001 
Q 1428 2844 1947 2747 
L 2328 2669 
Q 3034 2534 3370 2195 
Q 3706 1856 3706 1288 
Q 3706 609 3251 259 
Q 2797 -91 1919 -91 
Q 1588 -91 1214 -16 
Q 841 59 441 206 
L 441 856 
Q 825 641 1194 531 
Q 1563 422 1919 422 
Q 2459 422 2753 634 
Q 3047 847 3047 1241 
Q 3047 1584 2836 1778 
Q 2625 1972 2144 2069 
L 1759 2144 
Q 1053 2284 737 2584 
Q 422 2884 422 3419 
Q 422 4038 858 4394 
Q 1294 4750 2059 4750 
Q 2388 4750 2728 4690 
Q 3069 4631 3425 4513 
z
" id="DejaVuSans-53" transform="scale(0.015625)"/>
       <path d="M 3328 2828 
Q 3544 3216 3844 3400 
Q 4144 3584 4550 3584 
Q 5097 3584 5394 3201 
Q 5691 2819 5691 2113 
L 5691 0 
L 5113 0 
L 5113 2094 
Q 5113 2597 4934 2840 
Q 4756 3084 4391 3084 
Q 3944 3084 3684 2787 
Q 3425 2491 3425 1978 
L 3425 0 
L 2847 0 
L 2847 2094 
Q 2847 2600 2669 2842 
Q 2491 3084 2119 3084 
Q 1678 3084 1418 2786 
Q 1159 2488 1159 1978 
L 1159 0 
L 581 0 
L 581 3500 
L 1159 3500 
L 1159 2956 
Q 1356 3278 1631 3431 
Q 1906 3584 2284 3584 
Q 2666 3584 2933 3390 
Q 3200 3197 3328 2828 
z
" id="DejaVuSans-6d" transform="scale(0.015625)"/>
      </defs>
      <use xlink:href="#DejaVuSans-53"/>
      <use x="63.476562" xlink:href="#DejaVuSans-69"/>
      <use x="91.259766" xlink:href="#DejaVuSans-6d"/>
      <use x="188.671875" xlink:href="#DejaVuSans-70"/>
      <use x="252.148438" xlink:href="#DejaVuSans-6c"/>
      <use x="279.931641" xlink:href="#DejaVuSans-65"/>
      <use x="341.455078" xlink:href="#DejaVuSans-20"/>
      <use x="373.242188" xlink:href="#DejaVuSans-63"/>
      <use x="428.222656" xlink:href="#DejaVuSans-61"/>
      <use x="489.501953" xlink:href="#DejaVuSans-73"/>
      <use x="541.601562" xlink:href="#DejaVuSans-63"/>
      <use x="596.582031" xlink:href="#DejaVuSans-61"/>
      <use x="657.861328" xlink:href="#DejaVuSans-64"/>
      <use x="721.337891" xlink:href="#DejaVuSans-65"/>
     </g>
    </g>
    <g id="line2d_38">
     <path d="M 275.872 134.708312 
L 295.872 134.708312 
" style="fill:none;stroke:#ff7f0e;stroke-linecap:square;stroke-opacity:0.8;stroke-width:1.5;"/>
    </g>
    <g id="line2d_39"/>
    <g id="text_19">
     <!-- With "wet" factor -->
     <g transform="translate(303.872 138.208312)scale(0.1 -0.1)">
      <defs>
       <path d="M 213 4666 
L 850 4666 
L 1831 722 
L 2809 4666 
L 3519 4666 
L 4500 722 
L 5478 4666 
L 6119 4666 
L 4947 0 
L 4153 0 
L 3169 4050 
L 2175 0 
L 1381 0 
L 213 4666 
z
" id="DejaVuSans-57" transform="scale(0.015625)"/>
       <path d="M 1147 4666 
L 1147 2931 
L 616 2931 
L 616 4666 
L 1147 4666 
z
M 2328 4666 
L 2328 2931 
L 1797 2931 
L 1797 4666 
L 2328 4666 
z
" id="DejaVuSans-22" transform="scale(0.015625)"/>
       <path d="M 269 3500 
L 844 3500 
L 1563 769 
L 2278 3500 
L 2956 3500 
L 3675 769 
L 4391 3500 
L 4966 3500 
L 4050 0 
L 3372 0 
L 2619 2869 
L 1863 0 
L 1184 0 
L 269 3500 
z
" id="DejaVuSans-77" transform="scale(0.015625)"/>
      </defs>
      <use xlink:href="#DejaVuSans-57"/>
      <use x="96.626953" xlink:href="#DejaVuSans-69"/>
      <use x="124.410156" xlink:href="#DejaVuSans-74"/>
      <use x="163.619141" xlink:href="#DejaVuSans-68"/>
      <use x="226.998047" xlink:href="#DejaVuSans-20"/>
      <use x="258.785156" xlink:href="#DejaVuSans-22"/>
      <use x="304.78125" xlink:href="#DejaVuSans-77"/>
      <use x="386.568359" xlink:href="#DejaVuSans-65"/>
      <use x="448.091797" xlink:href="#DejaVuSans-74"/>
      <use x="487.300781" xlink:href="#DejaVuSans-22"/>
      <use x="533.296875" xlink:href="#DejaVuSans-20"/>
      <use x="565.083984" xlink:href="#DejaVuSans-66"/>
      <use x="600.289062" xlink:href="#DejaVuSans-61"/>
      <use x="661.568359" xlink:href="#DejaVuSans-63"/>
      <use x="716.548828" xlink:href="#DejaVuSans-74"/>
      <use x="755.757812" xlink:href="#DejaVuSans-6f"/>
      <use x="816.939453" xlink:href="#DejaVuSans-72"/>
     </g>
    </g>
   </g>
  </g>
  <g id="axes_2">
   <g id="patch_9">
    <path d="M 57.6 307.584 
L 414.72 307.584 
L 414.72 186.624 
L 57.6 186.624 
z
" style="fill:none;"/>
   </g>
   <g id="matplotlib.axis_3">
    <g id="xtick_10">
     <g id="line2d_40">
      <path clip-path="url(#pef501d245d)" d="M 73.832727 307.584 
L 73.832727 186.624 
" style="fill:none;stroke:#b0b0b0;stroke-linecap:square;stroke-opacity:0.25;stroke-width:0.8;"/>
     </g>
     <g id="line2d_41">
      <g>
       <use style="stroke:#000000;stroke-width:0.8;" x="73.832727" xlink:href="#m53286ea4d5" y="307.584"/>
      </g>
     </g>
     <g id="text_20">
      <!-- 0 -->
      <g transform="translate(70.651477 322.182437)scale(0.1 -0.1)">
       <use xlink:href="#DejaVuSans-30"/>
      </g>
     </g>
    </g>
    <g id="xtick_11">
     <g id="line2d_42">
      <path clip-path="url(#pef501d245d)" d="M 114.419619 307.584 
L 114.419619 186.624 
" style="fill:none;stroke:#b0b0b0;stroke-linecap:square;stroke-opacity:0.25;stroke-width:0.8;"/>
     </g>
     <g id="line2d_43">
      <g>
       <use style="stroke:#000000;stroke-width:0.8;" x="114.419619" xlink:href="#m53286ea4d5" y="307.584"/>
      </g>
     </g>
     <g id="text_21">
      <!-- 250 -->
      <g transform="translate(104.875869 322.182437)scale(0.1 -0.1)">
       <use xlink:href="#DejaVuSans-32"/>
       <use x="63.623047" xlink:href="#DejaVuSans-35"/>
       <use x="127.246094" xlink:href="#DejaVuSans-30"/>
      </g>
     </g>
    </g>
    <g id="xtick_12">
     <g id="line2d_44">
      <path clip-path="url(#pef501d245d)" d="M 155.00651 307.584 
L 155.00651 186.624 
" style="fill:none;stroke:#b0b0b0;stroke-linecap:square;stroke-opacity:0.25;stroke-width:0.8;"/>
     </g>
     <g id="line2d_45">
      <g>
       <use style="stroke:#000000;stroke-width:0.8;" x="155.00651" xlink:href="#m53286ea4d5" y="307.584"/>
      </g>
     </g>
     <g id="text_22">
      <!-- 500 -->
      <g transform="translate(145.46276 322.182437)scale(0.1 -0.1)">
       <use xlink:href="#DejaVuSans-35"/>
       <use x="63.623047" xlink:href="#DejaVuSans-30"/>
       <use x="127.246094" xlink:href="#DejaVuSans-30"/>
      </g>
     </g>
    </g>
    <g id="xtick_13">
     <g id="line2d_46">
      <path clip-path="url(#pef501d245d)" d="M 195.593402 307.584 
L 195.593402 186.624 
" style="fill:none;stroke:#b0b0b0;stroke-linecap:square;stroke-opacity:0.25;stroke-width:0.8;"/>
     </g>
     <g id="line2d_47">
      <g>
       <use style="stroke:#000000;stroke-width:0.8;" x="195.593402" xlink:href="#m53286ea4d5" y="307.584"/>
      </g>
     </g>
     <g id="text_23">
      <!-- 750 -->
      <g transform="translate(186.049652 322.182437)scale(0.1 -0.1)">
       <use xlink:href="#DejaVuSans-37"/>
       <use x="63.623047" xlink:href="#DejaVuSans-35"/>
       <use x="127.246094" xlink:href="#DejaVuSans-30"/>
      </g>
     </g>
    </g>
    <g id="xtick_14">
     <g id="line2d_48">
      <path clip-path="url(#pef501d245d)" d="M 236.180293 307.584 
L 236.180293 186.624 
" style="fill:none;stroke:#b0b0b0;stroke-linecap:square;stroke-opacity:0.25;stroke-width:0.8;"/>
     </g>
     <g id="line2d_49">
      <g>
       <use style="stroke:#000000;stroke-width:0.8;" x="236.180293" xlink:href="#m53286ea4d5" y="307.584"/>
      </g>
     </g>
     <g id="text_24">
      <!-- 1000 -->
      <g transform="translate(223.455293 322.182437)scale(0.1 -0.1)">
       <use xlink:href="#DejaVuSans-31"/>
       <use x="63.623047" xlink:href="#DejaVuSans-30"/>
       <use x="127.246094" xlink:href="#DejaVuSans-30"/>
       <use x="190.869141" xlink:href="#DejaVuSans-30"/>
      </g>
     </g>
    </g>
    <g id="xtick_15">
     <g id="line2d_50">
      <path clip-path="url(#pef501d245d)" d="M 276.767185 307.584 
L 276.767185 186.624 
" style="fill:none;stroke:#b0b0b0;stroke-linecap:square;stroke-opacity:0.25;stroke-width:0.8;"/>
     </g>
     <g id="line2d_51">
      <g>
       <use style="stroke:#000000;stroke-width:0.8;" x="276.767185" xlink:href="#m53286ea4d5" y="307.584"/>
      </g>
     </g>
     <g id="text_25">
      <!-- 1250 -->
      <g transform="translate(264.042185 322.182437)scale(0.1 -0.1)">
       <use xlink:href="#DejaVuSans-31"/>
       <use x="63.623047" xlink:href="#DejaVuSans-32"/>
       <use x="127.246094" xlink:href="#DejaVuSans-35"/>
       <use x="190.869141" xlink:href="#DejaVuSans-30"/>
      </g>
     </g>
    </g>
    <g id="xtick_16">
     <g id="line2d_52">
      <path clip-path="url(#pef501d245d)" d="M 317.354077 307.584 
L 317.354077 186.624 
" style="fill:none;stroke:#b0b0b0;stroke-linecap:square;stroke-opacity:0.25;stroke-width:0.8;"/>
     </g>
     <g id="line2d_53">
      <g>
       <use style="stroke:#000000;stroke-width:0.8;" x="317.354077" xlink:href="#m53286ea4d5" y="307.584"/>
      </g>
     </g>
     <g id="text_26">
      <!-- 1500 -->
      <g transform="translate(304.629077 322.182437)scale(0.1 -0.1)">
       <use xlink:href="#DejaVuSans-31"/>
       <use x="63.623047" xlink:href="#DejaVuSans-35"/>
       <use x="127.246094" xlink:href="#DejaVuSans-30"/>
       <use x="190.869141" xlink:href="#DejaVuSans-30"/>
      </g>
     </g>
    </g>
    <g id="xtick_17">
     <g id="line2d_54">
      <path clip-path="url(#pef501d245d)" d="M 357.940968 307.584 
L 357.940968 186.624 
" style="fill:none;stroke:#b0b0b0;stroke-linecap:square;stroke-opacity:0.25;stroke-width:0.8;"/>
     </g>
     <g id="line2d_55">
      <g>
       <use style="stroke:#000000;stroke-width:0.8;" x="357.940968" xlink:href="#m53286ea4d5" y="307.584"/>
      </g>
     </g>
     <g id="text_27">
      <!-- 1750 -->
      <g transform="translate(345.215968 322.182437)scale(0.1 -0.1)">
       <use xlink:href="#DejaVuSans-31"/>
       <use x="63.623047" xlink:href="#DejaVuSans-37"/>
       <use x="127.246094" xlink:href="#DejaVuSans-35"/>
       <use x="190.869141" xlink:href="#DejaVuSans-30"/>
      </g>
     </g>
    </g>
    <g id="xtick_18">
     <g id="line2d_56">
      <path clip-path="url(#pef501d245d)" d="M 398.52786 307.584 
L 398.52786 186.624 
" style="fill:none;stroke:#b0b0b0;stroke-linecap:square;stroke-opacity:0.25;stroke-width:0.8;"/>
     </g>
     <g id="line2d_57">
      <g>
       <use style="stroke:#000000;stroke-width:0.8;" x="398.52786" xlink:href="#m53286ea4d5" y="307.584"/>
      </g>
     </g>
     <g id="text_28">
      <!-- 2000 -->
      <g transform="translate(385.80286 322.182437)scale(0.1 -0.1)">
       <use xlink:href="#DejaVuSans-32"/>
       <use x="63.623047" xlink:href="#DejaVuSans-30"/>
       <use x="127.246094" xlink:href="#DejaVuSans-30"/>
       <use x="190.869141" xlink:href="#DejaVuSans-30"/>
      </g>
     </g>
    </g>
    <g id="text_29">
     <!-- frequency -->
     <g transform="translate(211.083438 335.860562)scale(0.1 -0.1)">
      <use xlink:href="#DejaVuSans-66"/>
      <use x="35.205078" xlink:href="#DejaVuSans-72"/>
      <use x="74.068359" xlink:href="#DejaVuSans-65"/>
      <use x="135.591797" xlink:href="#DejaVuSans-71"/>
      <use x="199.068359" xlink:href="#DejaVuSans-75"/>
      <use x="262.447266" xlink:href="#DejaVuSans-65"/>
      <use x="323.970703" xlink:href="#DejaVuSans-6e"/>
      <use x="387.349609" xlink:href="#DejaVuSans-63"/>
      <use x="442.330078" xlink:href="#DejaVuSans-79"/>
     </g>
    </g>
   </g>
   <g id="matplotlib.axis_4">
    <g id="ytick_7">
     <g id="line2d_58">
      <path clip-path="url(#pef501d245d)" d="M 57.6 305.025929 
L 414.72 305.025929 
" style="fill:none;stroke:#b0b0b0;stroke-linecap:square;stroke-opacity:0.25;stroke-width:0.8;"/>
     </g>
     <g id="line2d_59">
      <g>
       <use style="stroke:#000000;stroke-width:0.8;" x="57.6" xlink:href="#m3094c7a602" y="305.025929"/>
      </g>
     </g>
     <g id="text_30">
      <!-- −3 -->
      <g transform="translate(35.857813 308.825148)scale(0.1 -0.1)">
       <defs>
        <path d="M 678 2272 
L 4684 2272 
L 4684 1741 
L 678 1741 
L 678 2272 
z
" id="DejaVuSans-2212" transform="scale(0.015625)"/>
        <path d="M 2597 2516 
Q 3050 2419 3304 2112 
Q 3559 1806 3559 1356 
Q 3559 666 3084 287 
Q 2609 -91 1734 -91 
Q 1441 -91 1130 -33 
Q 819 25 488 141 
L 488 750 
Q 750 597 1062 519 
Q 1375 441 1716 441 
Q 2309 441 2620 675 
Q 2931 909 2931 1356 
Q 2931 1769 2642 2001 
Q 2353 2234 1838 2234 
L 1294 2234 
L 1294 2753 
L 1863 2753 
Q 2328 2753 2575 2939 
Q 2822 3125 2822 3475 
Q 2822 3834 2567 4026 
Q 2313 4219 1838 4219 
Q 1578 4219 1281 4162 
Q 984 4106 628 3988 
L 628 4550 
Q 988 4650 1302 4700 
Q 1616 4750 1894 4750 
Q 2613 4750 3031 4423 
Q 3450 4097 3450 3541 
Q 3450 3153 3228 2886 
Q 3006 2619 2597 2516 
z
" id="DejaVuSans-33" transform="scale(0.015625)"/>
       </defs>
       <use xlink:href="#DejaVuSans-2212"/>
       <use x="83.789062" xlink:href="#DejaVuSans-33"/>
      </g>
     </g>
    </g>
    <g id="ytick_8">
     <g id="line2d_60">
      <path clip-path="url(#pef501d245d)" d="M 57.6 281.349524 
L 414.72 281.349524 
" style="fill:none;stroke:#b0b0b0;stroke-linecap:square;stroke-opacity:0.25;stroke-width:0.8;"/>
     </g>
     <g id="line2d_61">
      <g>
       <use style="stroke:#000000;stroke-width:0.8;" x="57.6" xlink:href="#m3094c7a602" y="281.349524"/>
      </g>
     </g>
     <g id="text_31">
      <!-- −2 -->
      <g transform="translate(35.857813 285.148743)scale(0.1 -0.1)">
       <use xlink:href="#DejaVuSans-2212"/>
       <use x="83.789062" xlink:href="#DejaVuSans-32"/>
      </g>
     </g>
    </g>
    <g id="ytick_9">
     <g id="line2d_62">
      <path clip-path="url(#pef501d245d)" d="M 57.6 257.673119 
L 414.72 257.673119 
" style="fill:none;stroke:#b0b0b0;stroke-linecap:square;stroke-opacity:0.25;stroke-width:0.8;"/>
     </g>
     <g id="line2d_63">
      <g>
       <use style="stroke:#000000;stroke-width:0.8;" x="57.6" xlink:href="#m3094c7a602" y="257.673119"/>
      </g>
     </g>
     <g id="text_32">
      <!-- −1 -->
      <g transform="translate(35.857813 261.472338)scale(0.1 -0.1)">
       <use xlink:href="#DejaVuSans-2212"/>
       <use x="83.789062" xlink:href="#DejaVuSans-31"/>
      </g>
     </g>
    </g>
    <g id="ytick_10">
     <g id="line2d_64">
      <path clip-path="url(#pef501d245d)" d="M 57.6 233.996714 
L 414.72 233.996714 
" style="fill:none;stroke:#b0b0b0;stroke-linecap:square;stroke-opacity:0.25;stroke-width:0.8;"/>
     </g>
     <g id="line2d_65">
      <g>
       <use style="stroke:#000000;stroke-width:0.8;" x="57.6" xlink:href="#m3094c7a602" y="233.996714"/>
      </g>
     </g>
     <g id="text_33">
      <!-- 0 -->
      <g transform="translate(44.2375 237.795933)scale(0.1 -0.1)">
       <use xlink:href="#DejaVuSans-30"/>
      </g>
     </g>
    </g>
    <g id="ytick_11">
     <g id="line2d_66">
      <path clip-path="url(#pef501d245d)" d="M 57.6 210.320309 
L 414.72 210.320309 
" style="fill:none;stroke:#b0b0b0;stroke-linecap:square;stroke-opacity:0.25;stroke-width:0.8;"/>
     </g>
     <g id="line2d_67">
      <g>
       <use style="stroke:#000000;stroke-width:0.8;" x="57.6" xlink:href="#m3094c7a602" y="210.320309"/>
      </g>
     </g>
     <g id="text_34">
      <!-- 1 -->
      <g transform="translate(44.2375 214.119527)scale(0.1 -0.1)">
       <use xlink:href="#DejaVuSans-31"/>
      </g>
     </g>
    </g>
    <g id="ytick_12">
     <g id="line2d_68">
      <path clip-path="url(#pef501d245d)" d="M 57.6 186.643904 
L 414.72 186.643904 
" style="fill:none;stroke:#b0b0b0;stroke-linecap:square;stroke-opacity:0.25;stroke-width:0.8;"/>
     </g>
     <g id="line2d_69">
      <g>
       <use style="stroke:#000000;stroke-width:0.8;" x="57.6" xlink:href="#m3094c7a602" y="186.643904"/>
      </g>
     </g>
     <g id="text_35">
      <!-- 2 -->
      <g transform="translate(44.2375 190.443122)scale(0.1 -0.1)">
       <use xlink:href="#DejaVuSans-32"/>
      </g>
     </g>
    </g>
    <g id="text_36">
     <!-- ∠H(f) (radians) -->
     <g transform="translate(29.778125 285.019625)rotate(-90)scale(0.1 -0.1)">
      <defs>
       <path d="M 5028 631 
L 5028 0 
L 547 0 
L 3525 4666 
L 4281 4666 
L 1716 631 
L 5028 631 
z
" id="DejaVuSans-2220" transform="scale(0.015625)"/>
      </defs>
      <use xlink:href="#DejaVuSans-2220"/>
      <use x="89.648438" xlink:href="#DejaVuSans-48"/>
      <use x="164.84375" xlink:href="#DejaVuSans-28"/>
      <use x="203.857422" xlink:href="#DejaVuSans-66"/>
      <use x="239.0625" xlink:href="#DejaVuSans-29"/>
      <use x="278.076172" xlink:href="#DejaVuSans-20"/>
      <use x="309.863281" xlink:href="#DejaVuSans-28"/>
      <use x="348.876953" xlink:href="#DejaVuSans-72"/>
      <use x="389.990234" xlink:href="#DejaVuSans-61"/>
      <use x="451.269531" xlink:href="#DejaVuSans-64"/>
      <use x="514.746094" xlink:href="#DejaVuSans-69"/>
      <use x="542.529297" xlink:href="#DejaVuSans-61"/>
      <use x="603.808594" xlink:href="#DejaVuSans-6e"/>
      <use x="667.1875" xlink:href="#DejaVuSans-73"/>
      <use x="719.287109" xlink:href="#DejaVuSans-29"/>
     </g>
    </g>
   </g>
   <g id="line2d_70">
    <path clip-path="url(#pef501d245d)" d="M 73.832727 233.996714 
L 86.577011 235.340801 
L 92.096828 236.143655 
L 95.790236 236.892894 
L 98.428384 237.6418 
L 100.417141 238.427687 
L 101.959443 239.269853 
L 103.17705 240.179314 
L 104.191722 241.209745 
L 105.044047 242.385136 
L 105.815198 243.841596 
L 106.505175 245.656883 
L 107.113978 247.911753 
L 107.682195 250.912382 
L 108.209824 254.924321 
L 108.737454 260.668316 
L 109.427431 271.05131 
L 109.508605 272.401045 
L 109.549192 302.085818 
L 109.589779 199.370579 
L 109.670953 200.714531 
L 110.48269 212.339334 
L 111.091494 218.083051 
L 111.700297 221.878266 
L 112.349687 224.605834 
L 113.080251 226.712536 
L 113.851402 228.281861 
L 114.744314 229.597434 
L 115.758986 230.696888 
L 116.976593 231.682332 
L 118.478308 232.601762 
L 120.426479 233.521717 
L 123.267561 234.59411 
L 131.384939 237.528645 
L 133.576632 238.620386 
L 135.321868 239.732889 
L 136.742409 240.895223 
L 137.960016 242.173579 
L 139.015275 243.595724 
L 139.98936 245.289348 
L 140.882272 247.30922 
L 141.69401 249.70218 
L 142.465161 252.661747 
L 143.236312 256.512129 
L 144.04805 261.721491 
L 145.143896 270.37844 
L 145.225069 271.055961 
L 145.306243 197.351758 
L 145.34683 197.690091 
L 146.686198 207.944624 
L 147.579109 213.113869 
L 148.431434 216.800314 
L 149.283759 219.559273 
L 150.17667 221.743375 
L 151.150756 223.555865 
L 152.206015 225.060094 
L 153.383035 226.354963 
L 154.722402 227.496337 
L 156.264704 228.517111 
L 158.091114 229.457239 
L 160.323393 230.350336 
L 163.123889 231.222037 
L 166.776709 232.113699 
L 171.931244 233.124663 
L 190.804149 236.628377 
L 194.70049 237.679773 
L 197.785094 238.736494 
L 200.301481 239.82656 
L 202.412 240.974145 
L 204.23841 242.212558 
L 205.861885 243.579668 
L 207.323014 245.103107 
L 208.662381 246.827377 
L 209.920575 248.824036 
L 211.097594 251.117505 
L 212.274614 253.923531 
L 213.451634 257.332683 
L 214.709828 261.680906 
L 216.414477 268.47772 
L 216.657999 269.489981 
L 216.698586 192.122182 
L 216.779759 195.614766 
L 218.971451 204.261287 
L 220.310819 208.652587 
L 221.569012 212.027622 
L 222.786619 214.674153 
L 224.044813 216.884976 
L 225.343593 218.72899 
L 226.764135 220.356729 
L 228.306436 221.778567 
L 230.011086 223.040932 
L 231.91867 224.172552 
L 234.110362 225.208697 
L 236.667336 226.164451 
L 239.670766 227.044596 
L 243.282999 227.866354 
L 247.706971 228.638012 
L 253.226788 229.366077 
L 260.207733 230.052773 
L 269.218023 230.705199 
L 281.109982 231.331782 
L 297.182391 231.943629 
L 319.708116 232.56422 
L 353.232889 233.246957 
L 398.487273 233.996069 
L 398.487273 233.996069 
" style="fill:none;stroke:#1f77b4;stroke-dasharray:5.55,2.4;stroke-dashoffset:0;stroke-opacity:0.75;stroke-width:1.5;"/>
   </g>
   <g id="line2d_71">
    <path clip-path="url(#pef501d245d)" d="M 73.832727 233.996714 
L 92.34035 234.899802 
L 98.671905 235.417892 
L 102.162378 235.90893 
L 104.313483 236.423844 
L 105.774611 236.993033 
L 106.911044 237.66738 
L 108.372172 238.571787 
L 108.615693 238.467424 
L 108.859215 238.109447 
L 109.143323 237.244162 
L 109.630366 234.793441 
L 110.117408 232.693923 
L 110.442103 232.06793 
L 110.726212 231.90655 
L 111.091494 231.983928 
L 111.862645 232.47721 
L 113.242599 233.296854 
L 114.66314 233.859305 
L 116.611311 234.371877 
L 119.655328 234.917339 
L 132.68372 237.030795 
L 135.240694 237.762308 
L 137.188865 238.539392 
L 138.771754 239.403374 
L 140.151708 240.411899 
L 141.531662 241.708887 
L 142.911617 242.973947 
L 143.317486 243.08981 
L 143.601594 242.978249 
L 143.885702 242.620704 
L 144.210397 241.788803 
L 144.575679 240.152235 
L 145.062722 236.77751 
L 146.077394 229.49351 
L 146.52385 227.919734 
L 146.889132 227.330268 
L 147.213827 227.161432 
L 147.579109 227.222746 
L 148.106739 227.566563 
L 149.567867 228.913904 
L 151.069582 230.117204 
L 152.571297 231.026538 
L 154.316533 231.814427 
L 156.467638 232.531083 
L 159.268134 233.216083 
L 163.123889 233.91338 
L 169.090162 234.741717 
L 185.6902 236.951465 
L 190.641801 237.88141 
L 194.456969 238.814797 
L 197.541573 239.791939 
L 200.098547 240.831728 
L 202.249652 241.943374 
L 204.116649 243.158819 
L 205.740125 244.479672 
L 207.201253 245.955381 
L 208.54062 247.628504 
L 209.798814 249.56835 
L 210.975834 251.799095 
L 212.112267 254.42873 
L 213.289287 257.73602 
L 214.54748 261.977508 
L 216.130369 268.179593 
L 216.657999 270.361778 
L 216.698586 192.993515 
L 216.779759 196.485174 
L 218.971451 205.10729 
L 220.310819 209.484205 
L 221.528426 212.748358 
L 222.746032 215.401026 
L 224.004226 217.614619 
L 225.303007 219.458213 
L 226.682961 221.040888 
L 228.184676 222.431242 
L 229.848738 223.671314 
L 231.715735 224.786471 
L 233.866841 225.809442 
L 236.383228 226.753108 
L 239.346071 227.620366 
L 242.917717 228.42677 
L 247.301102 229.178977 
L 252.739745 229.877367 
L 259.639517 230.529563 
L 268.568633 231.140087 
L 280.420005 231.716381 
L 296.614175 232.268593 
L 319.626942 232.815924 
L 354.65343 233.407131 
L 398.487273 233.996191 
L 398.487273 233.996191 
" style="fill:none;stroke:#ff7f0e;stroke-linecap:square;stroke-opacity:0.8;stroke-width:1.5;"/>
   </g>
   <g id="patch_10">
    <path d="M 57.6 307.584 
L 57.6 186.624 
" style="fill:none;stroke:#000000;stroke-linecap:square;stroke-linejoin:miter;stroke-width:0.8;"/>
   </g>
   <g id="patch_11">
    <path d="M 414.72 307.584 
L 414.72 186.624 
" style="fill:none;stroke:#000000;stroke-linecap:square;stroke-linejoin:miter;stroke-width:0.8;"/>
   </g>
   <g id="patch_12">
    <path d="M 57.6 307.584 
L 414.72 307.584 
" style="fill:none;stroke:#000000;stroke-linecap:square;stroke-linejoin:miter;stroke-width:0.8;"/>
   </g>
   <g id="patch_13">
    <path d="M 57.6 186.624 
L 414.72 186.624 
" style="fill:none;stroke:#000000;stroke-linecap:square;stroke-linejoin:miter;stroke-width:0.8;"/>
   </g>
   <g id="legend_2">
    <g id="patch_14">
     <path d="M 275.872 291.44 
L 393.675125 291.44 
Q 395.675125 291.44 395.675125 289.44 
L 395.675125 261.08375 
Q 395.675125 259.08375 393.675125 259.08375 
L 275.872 259.08375 
Q 273.872 259.08375 273.872 261.08375 
L 273.872 289.44 
Q 273.872 291.44 275.872 291.44 
z
" style="fill:#4c4c4c;opacity:0.5;stroke:#4c4c4c;stroke-linejoin:miter;"/>
    </g>
    <g id="patch_15">
     <path d="M 273.872 289.44 
L 391.675125 289.44 
Q 393.675125 289.44 393.675125 287.44 
L 393.675125 259.08375 
Q 393.675125 257.08375 391.675125 257.08375 
L 273.872 257.08375 
Q 271.872 257.08375 271.872 259.08375 
L 271.872 287.44 
Q 271.872 289.44 273.872 289.44 
z
" style="fill:#ffffff;stroke:#cccccc;stroke-linejoin:miter;"/>
    </g>
    <g id="line2d_72">
     <path d="M 275.872 265.182187 
L 295.872 265.182187 
" style="fill:none;stroke:#1f77b4;stroke-dasharray:5.55,2.4;stroke-dashoffset:0;stroke-opacity:0.75;stroke-width:1.5;"/>
    </g>
    <g id="line2d_73"/>
    <g id="text_37">
     <!-- Simple cascade -->
     <g transform="translate(303.872 268.682187)scale(0.1 -0.1)">
      <use xlink:href="#DejaVuSans-53"/>
      <use x="63.476562" xlink:href="#DejaVuSans-69"/>
      <use x="91.259766" xlink:href="#DejaVuSans-6d"/>
      <use x="188.671875" xlink:href="#DejaVuSans-70"/>
      <use x="252.148438" xlink:href="#DejaVuSans-6c"/>
      <use x="279.931641" xlink:href="#DejaVuSans-65"/>
      <use x="341.455078" xlink:href="#DejaVuSans-20"/>
      <use x="373.242188" xlink:href="#DejaVuSans-63"/>
      <use x="428.222656" xlink:href="#DejaVuSans-61"/>
      <use x="489.501953" xlink:href="#DejaVuSans-73"/>
      <use x="541.601562" xlink:href="#DejaVuSans-63"/>
      <use x="596.582031" xlink:href="#DejaVuSans-61"/>
      <use x="657.861328" xlink:href="#DejaVuSans-64"/>
      <use x="721.337891" xlink:href="#DejaVuSans-65"/>
     </g>
    </g>
    <g id="line2d_74">
     <path d="M 275.872 279.860312 
L 295.872 279.860312 
" style="fill:none;stroke:#ff7f0e;stroke-linecap:square;stroke-opacity:0.8;stroke-width:1.5;"/>
    </g>
    <g id="line2d_75"/>
    <g id="text_38">
     <!-- With "wet" factor -->
     <g transform="translate(303.872 283.360312)scale(0.1 -0.1)">
      <use xlink:href="#DejaVuSans-57"/>
      <use x="96.626953" xlink:href="#DejaVuSans-69"/>
      <use x="124.410156" xlink:href="#DejaVuSans-74"/>
      <use x="163.619141" xlink:href="#DejaVuSans-68"/>
      <use x="226.998047" xlink:href="#DejaVuSans-20"/>
      <use x="258.785156" xlink:href="#DejaVuSans-22"/>
      <use x="304.78125" xlink:href="#DejaVuSans-77"/>
      <use x="386.568359" xlink:href="#DejaVuSans-65"/>
      <use x="448.091797" xlink:href="#DejaVuSans-74"/>
      <use x="487.300781" xlink:href="#DejaVuSans-22"/>
      <use x="533.296875" xlink:href="#DejaVuSans-20"/>
      <use x="565.083984" xlink:href="#DejaVuSans-66"/>
      <use x="600.289062" xlink:href="#DejaVuSans-61"/>
      <use x="661.568359" xlink:href="#DejaVuSans-63"/>
      <use x="716.548828" xlink:href="#DejaVuSans-74"/>
      <use x="755.757812" xlink:href="#DejaVuSans-6f"/>
      <use x="816.939453" xlink:href="#DejaVuSans-72"/>
     </g>
    </g>
   </g>
  </g>
 </g>
 <defs>
  <clipPath id="p01f509c881">
   <rect height="120.96" width="357.12" x="57.6" y="41.472"/>
  </clipPath>
  <clipPath id="pef501d245d">
   <rect height="120.96" width="357.12" x="57.6" y="186.624"/>
  </clipPath>
 </defs>
</svg>
