<?xml version="1.0" encoding="utf-8" standalone="no"?>
<!DOCTYPE svg PUBLIC "-//W3C//DTD SVG 1.1//EN"
  "http://www.w3.org/Graphics/SVG/1.1/DTD/svg11.dtd">
<svg xmlns:xlink="http://www.w3.org/1999/xlink" width="460.8pt" height="345.6pt" viewBox="0 0 460.8 345.6" xmlns="http://www.w3.org/2000/svg" version="1.1">
 <metadata>
  <rdf:RDF xmlns:dc="http://purl.org/dc/elements/1.1/" xmlns:cc="http://creativecommons.org/ns#" xmlns:rdf="http://www.w3.org/1999/02/22-rdf-syntax-ns#">
   <cc:Work>
    <dc:type rdf:resource="http://purl.org/dc/dcmitype/StillImage"/>
    <dc:date>2022-10-23T12:26:26.964937</dc:date>
    <dc:format>image/svg+xml</dc:format>
    <dc:creator>
     <cc:Agent>
      <dc:title>Matplotlib v3.6.1, https://matplotlib.org/</dc:title>
     </cc:Agent>
    </dc:creator>
   </cc:Work>
  </rdf:RDF>
 </metadata>
 <defs>
  <style type="text/css">*{stroke-linejoin: round; stroke-linecap: butt}</style>
 </defs>
 <g id="figure_1">
  <g id="patch_1">
   <path d="M 0 345.6 
L 460.8 345.6 
L 460.8 0 
L 0 0 
z
" style="fill: #ffffff"/>
  </g>
  <g id="axes_1">
   <g id="patch_2">
    <path d="M 33.64 143.28 
L 450 143.28 
L 450 26.88 
L 33.64 26.88 
z
" style="fill: #ffffff"/>
   </g>
   <g id="matplotlib.axis_1">
    <g id="xtick_1">
     <g id="line2d_1">
      <path d="M 33.64 143.28 
L 33.64 26.88 
" clip-path="url(#p795761f36a)" style="fill: none; stroke: #b0b0b0; stroke-width: 0.8; stroke-linecap: square"/>
     </g>
     <g id="line2d_2">
      <defs>
       <path id="m135d38e8e5" d="M 0 0 
L 0 3.5 
" style="stroke: #000000; stroke-width: 0.8"/>
      </defs>
      <g>
       <use xlink:href="#m135d38e8e5" x="33.64" y="143.28" style="stroke: #000000; stroke-width: 0.8"/>
      </g>
     </g>
     <g id="text_1">
      <!-- 0 -->
      <g transform="translate(30.45875 157.878437) scale(0.1 -0.1)">
       <defs>
        <path id="DejaVuSans-30" d="M 2034 4250 
Q 1547 4250 1301 3770 
Q 1056 3291 1056 2328 
Q 1056 1369 1301 889 
Q 1547 409 2034 409 
Q 2525 409 2770 889 
Q 3016 1369 3016 2328 
Q 3016 3291 2770 3770 
Q 2525 4250 2034 4250 
z
M 2034 4750 
Q 2819 4750 3233 4129 
Q 3647 3509 3647 2328 
Q 3647 1150 3233 529 
Q 2819 -91 2034 -91 
Q 1250 -91 836 529 
Q 422 1150 422 2328 
Q 422 3509 836 4129 
Q 1250 4750 2034 4750 
z
" transform="scale(0.015625)"/>
       </defs>
       <use xlink:href="#DejaVuSans-30"/>
      </g>
     </g>
    </g>
    <g id="xtick_2">
     <g id="line2d_3">
      <path d="M 89.154667 143.28 
L 89.154667 26.88 
" clip-path="url(#p795761f36a)" style="fill: none; stroke: #b0b0b0; stroke-width: 0.8; stroke-linecap: square"/>
     </g>
     <g id="line2d_4">
      <g>
       <use xlink:href="#m135d38e8e5" x="89.154667" y="143.28" style="stroke: #000000; stroke-width: 0.8"/>
      </g>
     </g>
     <g id="text_2">
      <!-- 2 -->
      <g transform="translate(85.973417 157.878437) scale(0.1 -0.1)">
       <defs>
        <path id="DejaVuSans-32" d="M 1228 531 
L 3431 531 
L 3431 0 
L 469 0 
L 469 531 
Q 828 903 1448 1529 
Q 2069 2156 2228 2338 
Q 2531 2678 2651 2914 
Q 2772 3150 2772 3378 
Q 2772 3750 2511 3984 
Q 2250 4219 1831 4219 
Q 1534 4219 1204 4116 
Q 875 4013 500 3803 
L 500 4441 
Q 881 4594 1212 4672 
Q 1544 4750 1819 4750 
Q 2544 4750 2975 4387 
Q 3406 4025 3406 3419 
Q 3406 3131 3298 2873 
Q 3191 2616 2906 2266 
Q 2828 2175 2409 1742 
Q 1991 1309 1228 531 
z
" transform="scale(0.015625)"/>
       </defs>
       <use xlink:href="#DejaVuSans-32"/>
      </g>
     </g>
    </g>
    <g id="xtick_3">
     <g id="line2d_5">
      <path d="M 144.669333 143.28 
L 144.669333 26.88 
" clip-path="url(#p795761f36a)" style="fill: none; stroke: #b0b0b0; stroke-width: 0.8; stroke-linecap: square"/>
     </g>
     <g id="line2d_6">
      <g>
       <use xlink:href="#m135d38e8e5" x="144.669333" y="143.28" style="stroke: #000000; stroke-width: 0.8"/>
      </g>
     </g>
     <g id="text_3">
      <!-- 4 -->
      <g transform="translate(141.488083 157.878437) scale(0.1 -0.1)">
       <defs>
        <path id="DejaVuSans-34" d="M 2419 4116 
L 825 1625 
L 2419 1625 
L 2419 4116 
z
M 2253 4666 
L 3047 4666 
L 3047 1625 
L 3713 1625 
L 3713 1100 
L 3047 1100 
L 3047 0 
L 2419 0 
L 2419 1100 
L 313 1100 
L 313 1709 
L 2253 4666 
z
" transform="scale(0.015625)"/>
       </defs>
       <use xlink:href="#DejaVuSans-34"/>
      </g>
     </g>
    </g>
    <g id="xtick_4">
     <g id="line2d_7">
      <path d="M 200.184 143.28 
L 200.184 26.88 
" clip-path="url(#p795761f36a)" style="fill: none; stroke: #b0b0b0; stroke-width: 0.8; stroke-linecap: square"/>
     </g>
     <g id="line2d_8">
      <g>
       <use xlink:href="#m135d38e8e5" x="200.184" y="143.28" style="stroke: #000000; stroke-width: 0.8"/>
      </g>
     </g>
     <g id="text_4">
      <!-- 6 -->
      <g transform="translate(197.00275 157.878437) scale(0.1 -0.1)">
       <defs>
        <path id="DejaVuSans-36" d="M 2113 2584 
Q 1688 2584 1439 2293 
Q 1191 2003 1191 1497 
Q 1191 994 1439 701 
Q 1688 409 2113 409 
Q 2538 409 2786 701 
Q 3034 994 3034 1497 
Q 3034 2003 2786 2293 
Q 2538 2584 2113 2584 
z
M 3366 4563 
L 3366 3988 
Q 3128 4100 2886 4159 
Q 2644 4219 2406 4219 
Q 1781 4219 1451 3797 
Q 1122 3375 1075 2522 
Q 1259 2794 1537 2939 
Q 1816 3084 2150 3084 
Q 2853 3084 3261 2657 
Q 3669 2231 3669 1497 
Q 3669 778 3244 343 
Q 2819 -91 2113 -91 
Q 1303 -91 875 529 
Q 447 1150 447 2328 
Q 447 3434 972 4092 
Q 1497 4750 2381 4750 
Q 2619 4750 2861 4703 
Q 3103 4656 3366 4563 
z
" transform="scale(0.015625)"/>
       </defs>
       <use xlink:href="#DejaVuSans-36"/>
      </g>
     </g>
    </g>
    <g id="xtick_5">
     <g id="line2d_9">
      <path d="M 255.698667 143.28 
L 255.698667 26.88 
" clip-path="url(#p795761f36a)" style="fill: none; stroke: #b0b0b0; stroke-width: 0.8; stroke-linecap: square"/>
     </g>
     <g id="line2d_10">
      <g>
       <use xlink:href="#m135d38e8e5" x="255.698667" y="143.28" style="stroke: #000000; stroke-width: 0.8"/>
      </g>
     </g>
     <g id="text_5">
      <!-- 8 -->
      <g transform="translate(252.517417 157.878437) scale(0.1 -0.1)">
       <defs>
        <path id="DejaVuSans-38" d="M 2034 2216 
Q 1584 2216 1326 1975 
Q 1069 1734 1069 1313 
Q 1069 891 1326 650 
Q 1584 409 2034 409 
Q 2484 409 2743 651 
Q 3003 894 3003 1313 
Q 3003 1734 2745 1975 
Q 2488 2216 2034 2216 
z
M 1403 2484 
Q 997 2584 770 2862 
Q 544 3141 544 3541 
Q 544 4100 942 4425 
Q 1341 4750 2034 4750 
Q 2731 4750 3128 4425 
Q 3525 4100 3525 3541 
Q 3525 3141 3298 2862 
Q 3072 2584 2669 2484 
Q 3125 2378 3379 2068 
Q 3634 1759 3634 1313 
Q 3634 634 3220 271 
Q 2806 -91 2034 -91 
Q 1263 -91 848 271 
Q 434 634 434 1313 
Q 434 1759 690 2068 
Q 947 2378 1403 2484 
z
M 1172 3481 
Q 1172 3119 1398 2916 
Q 1625 2713 2034 2713 
Q 2441 2713 2670 2916 
Q 2900 3119 2900 3481 
Q 2900 3844 2670 4047 
Q 2441 4250 2034 4250 
Q 1625 4250 1398 4047 
Q 1172 3844 1172 3481 
z
" transform="scale(0.015625)"/>
       </defs>
       <use xlink:href="#DejaVuSans-38"/>
      </g>
     </g>
    </g>
    <g id="xtick_6">
     <g id="line2d_11">
      <path d="M 311.213333 143.28 
L 311.213333 26.88 
" clip-path="url(#p795761f36a)" style="fill: none; stroke: #b0b0b0; stroke-width: 0.8; stroke-linecap: square"/>
     </g>
     <g id="line2d_12">
      <g>
       <use xlink:href="#m135d38e8e5" x="311.213333" y="143.28" style="stroke: #000000; stroke-width: 0.8"/>
      </g>
     </g>
     <g id="text_6">
      <!-- 10 -->
      <g transform="translate(304.850833 157.878437) scale(0.1 -0.1)">
       <defs>
        <path id="DejaVuSans-31" d="M 794 531 
L 1825 531 
L 1825 4091 
L 703 3866 
L 703 4441 
L 1819 4666 
L 2450 4666 
L 2450 531 
L 3481 531 
L 3481 0 
L 794 0 
L 794 531 
z
" transform="scale(0.015625)"/>
       </defs>
       <use xlink:href="#DejaVuSans-31"/>
       <use xlink:href="#DejaVuSans-30" x="63.623047"/>
      </g>
     </g>
    </g>
    <g id="xtick_7">
     <g id="line2d_13">
      <path d="M 366.728 143.28 
L 366.728 26.88 
" clip-path="url(#p795761f36a)" style="fill: none; stroke: #b0b0b0; stroke-width: 0.8; stroke-linecap: square"/>
     </g>
     <g id="line2d_14">
      <g>
       <use xlink:href="#m135d38e8e5" x="366.728" y="143.28" style="stroke: #000000; stroke-width: 0.8"/>
      </g>
     </g>
     <g id="text_7">
      <!-- 12 -->
      <g transform="translate(360.3655 157.878437) scale(0.1 -0.1)">
       <use xlink:href="#DejaVuSans-31"/>
       <use xlink:href="#DejaVuSans-32" x="63.623047"/>
      </g>
     </g>
    </g>
    <g id="xtick_8">
     <g id="line2d_15">
      <path d="M 422.242667 143.28 
L 422.242667 26.88 
" clip-path="url(#p795761f36a)" style="fill: none; stroke: #b0b0b0; stroke-width: 0.8; stroke-linecap: square"/>
     </g>
     <g id="line2d_16">
      <g>
       <use xlink:href="#m135d38e8e5" x="422.242667" y="143.28" style="stroke: #000000; stroke-width: 0.8"/>
      </g>
     </g>
     <g id="text_8">
      <!-- 14 -->
      <g transform="translate(415.880167 157.878437) scale(0.1 -0.1)">
       <use xlink:href="#DejaVuSans-31"/>
       <use xlink:href="#DejaVuSans-34" x="63.623047"/>
      </g>
     </g>
    </g>
   </g>
   <g id="matplotlib.axis_2">
    <g id="ytick_1">
     <g id="line2d_17">
      <path d="M 33.64 143.28 
L 450 143.28 
" clip-path="url(#p795761f36a)" style="fill: none; stroke: #b0b0b0; stroke-width: 0.8; stroke-linecap: square"/>
     </g>
     <g id="line2d_18">
      <defs>
       <path id="m6f615f5a94" d="M 0 0 
L -3.5 0 
" style="stroke: #000000; stroke-width: 0.8"/>
      </defs>
      <g>
       <use xlink:href="#m6f615f5a94" x="33.64" y="143.28" style="stroke: #000000; stroke-width: 0.8"/>
      </g>
     </g>
     <g id="text_9">
      <!-- 0.0 -->
      <g transform="translate(10.736875 147.079219) scale(0.1 -0.1)">
       <defs>
        <path id="DejaVuSans-2e" d="M 684 794 
L 1344 794 
L 1344 0 
L 684 0 
L 684 794 
z
" transform="scale(0.015625)"/>
       </defs>
       <use xlink:href="#DejaVuSans-30"/>
       <use xlink:href="#DejaVuSans-2e" x="63.623047"/>
       <use xlink:href="#DejaVuSans-30" x="95.410156"/>
      </g>
     </g>
    </g>
    <g id="ytick_2">
     <g id="line2d_19">
      <path d="M 33.64 120 
L 450 120 
" clip-path="url(#p795761f36a)" style="fill: none; stroke: #b0b0b0; stroke-width: 0.8; stroke-linecap: square"/>
     </g>
     <g id="line2d_20">
      <g>
       <use xlink:href="#m6f615f5a94" x="33.64" y="120" style="stroke: #000000; stroke-width: 0.8"/>
      </g>
     </g>
     <g id="text_10">
      <!-- 0.2 -->
      <g transform="translate(10.736875 123.799219) scale(0.1 -0.1)">
       <use xlink:href="#DejaVuSans-30"/>
       <use xlink:href="#DejaVuSans-2e" x="63.623047"/>
       <use xlink:href="#DejaVuSans-32" x="95.410156"/>
      </g>
     </g>
    </g>
    <g id="ytick_3">
     <g id="line2d_21">
      <path d="M 33.64 96.72 
L 450 96.72 
" clip-path="url(#p795761f36a)" style="fill: none; stroke: #b0b0b0; stroke-width: 0.8; stroke-linecap: square"/>
     </g>
     <g id="line2d_22">
      <g>
       <use xlink:href="#m6f615f5a94" x="33.64" y="96.72" style="stroke: #000000; stroke-width: 0.8"/>
      </g>
     </g>
     <g id="text_11">
      <!-- 0.4 -->
      <g transform="translate(10.736875 100.519219) scale(0.1 -0.1)">
       <use xlink:href="#DejaVuSans-30"/>
       <use xlink:href="#DejaVuSans-2e" x="63.623047"/>
       <use xlink:href="#DejaVuSans-34" x="95.410156"/>
      </g>
     </g>
    </g>
    <g id="ytick_4">
     <g id="line2d_23">
      <path d="M 33.64 73.44 
L 450 73.44 
" clip-path="url(#p795761f36a)" style="fill: none; stroke: #b0b0b0; stroke-width: 0.8; stroke-linecap: square"/>
     </g>
     <g id="line2d_24">
      <g>
       <use xlink:href="#m6f615f5a94" x="33.64" y="73.44" style="stroke: #000000; stroke-width: 0.8"/>
      </g>
     </g>
     <g id="text_12">
      <!-- 0.6 -->
      <g transform="translate(10.736875 77.239219) scale(0.1 -0.1)">
       <use xlink:href="#DejaVuSans-30"/>
       <use xlink:href="#DejaVuSans-2e" x="63.623047"/>
       <use xlink:href="#DejaVuSans-36" x="95.410156"/>
      </g>
     </g>
    </g>
    <g id="ytick_5">
     <g id="line2d_25">
      <path d="M 33.64 50.16 
L 450 50.16 
" clip-path="url(#p795761f36a)" style="fill: none; stroke: #b0b0b0; stroke-width: 0.8; stroke-linecap: square"/>
     </g>
     <g id="line2d_26">
      <g>
       <use xlink:href="#m6f615f5a94" x="33.64" y="50.16" style="stroke: #000000; stroke-width: 0.8"/>
      </g>
     </g>
     <g id="text_13">
      <!-- 0.8 -->
      <g transform="translate(10.736875 53.959219) scale(0.1 -0.1)">
       <use xlink:href="#DejaVuSans-30"/>
       <use xlink:href="#DejaVuSans-2e" x="63.623047"/>
       <use xlink:href="#DejaVuSans-38" x="95.410156"/>
      </g>
     </g>
    </g>
    <g id="ytick_6">
     <g id="line2d_27">
      <path d="M 33.64 26.88 
L 450 26.88 
" clip-path="url(#p795761f36a)" style="fill: none; stroke: #b0b0b0; stroke-width: 0.8; stroke-linecap: square"/>
     </g>
     <g id="line2d_28">
      <g>
       <use xlink:href="#m6f615f5a94" x="33.64" y="26.88" style="stroke: #000000; stroke-width: 0.8"/>
      </g>
     </g>
     <g id="text_14">
      <!-- 1.0 -->
      <g transform="translate(10.736875 30.679219) scale(0.1 -0.1)">
       <use xlink:href="#DejaVuSans-31"/>
       <use xlink:href="#DejaVuSans-2e" x="63.623047"/>
       <use xlink:href="#DejaVuSans-30" x="95.410156"/>
      </g>
     </g>
    </g>
   </g>
   <g id="line2d_29">
    <path d="M 33.64 42.548303 
L 37.845657 43.821099 
L 42.051313 47.497245 
L 46.25697 53.181416 
L 50.462626 60.30876 
L 54.668283 68.253565 
L 58.873939 76.431452 
L 63.079596 84.371279 
L 67.285253 91.74737 
L 71.490909 98.376507 
L 75.696566 104.192173 
L 79.902222 109.20985 
L 84.107879 113.493842 
L 88.313535 117.131182 
L 92.519192 120.214041 
L 96.724848 122.829546 
L 100.930505 125.054953 
L 105.136162 126.956198 
L 109.341818 128.588289 
L 113.547475 129.99652 
L 117.753131 131.217955 
L 121.958788 132.282854 
L 126.164444 133.215945 
L 130.370101 134.037487 
L 134.575758 134.76414 
L 138.781414 135.409664 
L 142.987071 135.985479 
L 147.192727 136.501111 
L 151.398384 136.964543 
L 155.60404 137.382501 
L 159.809697 137.760677 
L 164.015354 138.103914 
L 168.22101 138.416345 
L 172.426667 138.701519 
L 176.632323 138.962491 
L 180.83798 139.201905 
L 185.043636 139.422055 
L 189.249293 139.624943 
L 193.454949 139.812316 
L 197.660606 139.985708 
L 201.866263 140.146469 
L 206.071919 140.295792 
L 210.277576 140.434732 
L 214.483232 140.564225 
L 218.688889 140.685106 
L 222.894545 140.798119 
L 227.100202 140.903929 
L 231.305859 141.003135 
L 235.511515 141.096272 
L 239.717172 141.183825 
L 243.922828 141.26623 
L 248.128485 141.343881 
L 252.334141 141.417137 
L 256.539798 141.486322 
L 260.745455 141.551731 
L 264.951111 141.613634 
L 269.156768 141.672277 
L 273.362424 141.727884 
L 277.568081 141.78066 
L 281.773737 141.830794 
L 285.979394 141.87846 
L 290.185051 141.923816 
L 294.390707 141.967008 
L 298.596364 142.008173 
L 302.80202 142.047435 
L 307.007677 142.08491 
L 311.213333 142.120703 
L 315.41899 142.154914 
L 319.624646 142.187635 
L 323.830303 142.21895 
L 328.03596 142.24894 
L 332.241616 142.277678 
L 336.447273 142.305232 
L 340.652929 142.331666 
L 344.858586 142.357041 
L 349.064242 142.381412 
L 353.269899 142.404832 
L 357.475556 142.427348 
L 361.681212 142.449007 
L 365.886869 142.469853 
L 370.092525 142.489924 
L 374.298182 142.509259 
L 378.503838 142.527894 
L 382.709495 142.545862 
L 386.915152 142.563194 
L 391.120808 142.579919 
L 395.326465 142.596067 
L 399.532121 142.611663 
L 403.737778 142.626731 
L 407.943434 142.641297 
L 412.149091 142.65538 
L 416.354747 142.669004 
L 420.560404 142.682187 
L 424.766061 142.694948 
L 428.971717 142.707305 
L 433.177374 142.719275 
L 437.38303 142.730873 
L 441.588687 142.742116 
L 445.794343 142.753017 
L 450 142.76359 
" clip-path="url(#p795761f36a)" style="fill: none; stroke: #008000; stroke-width: 1.5; stroke-linecap: square"/>
   </g>
   <g id="line2d_30">
    <path d="M 33.64 96.072225 
L 37.845657 96.148761 
L 42.051313 96.377538 
L 46.25697 96.756078 
L 50.462626 97.280303 
L 54.668283 97.944613 
L 58.873939 98.741989 
L 63.079596 99.664119 
L 67.285253 100.701556 
L 71.490909 101.843879 
L 75.696566 103.079881 
L 79.902222 104.397752 
L 84.107879 105.785281 
L 88.313535 107.230045 
L 92.519192 108.719601 
L 96.724848 110.241665 
L 100.930505 111.784282 
L 105.136162 113.335976 
L 109.341818 114.88589 
L 113.547475 116.423894 
L 117.753131 117.940686 
L 121.958788 119.42786 
L 126.164444 120.877955 
L 130.370101 122.284493 
L 134.575758 123.641976 
L 138.781414 124.94589 
L 142.987071 126.192668 
L 147.192727 127.37966 
L 151.398384 128.50507 
L 155.60404 129.567905 
L 159.809697 130.567893 
L 164.015354 131.50542 
L 168.22101 132.381441 
L 172.426667 133.197408 
L 176.632323 133.95519 
L 180.83798 134.656993 
L 185.043636 135.305294 
L 189.249293 135.90277 
L 193.454949 136.452233 
L 197.660606 136.95658 
L 201.866263 137.41874 
L 206.071919 137.841631 
L 210.277576 138.228124 
L 214.483232 138.581012 
L 218.688889 138.902986 
L 222.894545 139.196618 
L 227.100202 139.464341 
L 231.305859 139.708448 
L 235.511515 139.931079 
L 239.717172 140.134224 
L 243.922828 140.319721 
L 248.128485 140.489259 
L 252.334141 140.644385 
L 256.539798 140.786509 
L 260.745455 140.916909 
L 264.951111 141.036744 
L 269.156768 141.147057 
L 273.362424 141.24879 
L 277.568081 141.342785 
L 281.773737 141.429799 
L 285.979394 141.510508 
L 290.185051 141.585517 
L 294.390707 141.655364 
L 298.596364 141.720531 
L 302.80202 141.781447 
L 307.007677 141.838496 
L 311.213333 141.892018 
L 315.41899 141.942321 
L 319.624646 141.989675 
L 323.830303 142.034325 
L 328.03596 142.07649 
L 332.241616 142.116366 
L 336.447273 142.15413 
L 340.652929 142.189941 
L 344.858586 142.223942 
L 349.064242 142.256263 
L 353.269899 142.287021 
L 357.475556 142.316323 
L 361.681212 142.344267 
L 365.886869 142.370941 
L 370.092525 142.396426 
L 374.298182 142.420796 
L 378.503838 142.44412 
L 382.709495 142.466461 
L 386.915152 142.487875 
L 391.120808 142.508416 
L 395.326465 142.528134 
L 399.532121 142.547074 
L 403.737778 142.565278 
L 407.943434 142.582786 
L 412.149091 142.599635 
L 416.354747 142.615858 
L 420.560404 142.631487 
L 424.766061 142.646553 
L 428.971717 142.661082 
L 433.177374 142.675102 
L 437.38303 142.688636 
L 441.588687 142.701707 
L 445.794343 142.714337 
L 450 142.726547 
" clip-path="url(#p795761f36a)" style="fill: none; stroke-dasharray: 5.55,2.4; stroke-dashoffset: 0; stroke: #ff0000; stroke-width: 1.5"/>
   </g>
   <g id="line2d_31">
    <path d="M 33.64 106.817446 
L 37.845657 106.850108 
L 42.051313 106.947903 
L 46.25697 107.110264 
L 50.462626 107.336249 
L 54.668283 107.624553 
L 58.873939 107.973523 
L 63.079596 108.381169 
L 67.285253 108.845189 
L 71.490909 109.362988 
L 75.696566 109.931704 
L 79.902222 110.548234 
L 84.107879 111.209266 
L 88.313535 111.911306 
L 92.519192 112.650711 
L 96.724848 113.423724 
L 100.930505 114.226502 
L 105.136162 115.05515 
L 109.341818 115.905754 
L 113.547475 116.774411 
L 117.753131 117.657261 
L 121.958788 118.550511 
L 126.164444 119.450464 
L 130.370101 120.353545 
L 134.575758 121.25632 
L 138.781414 122.155519 
L 142.987071 123.048049 
L 147.192727 123.931014 
L 151.398384 124.801721 
L 155.60404 125.657696 
L 159.809697 126.496685 
L 164.015354 127.316662 
L 168.22101 128.115827 
L 172.426667 128.892611 
L 176.632323 129.645667 
L 180.83798 130.373871 
L 185.043636 131.07631 
L 189.249293 131.752279 
L 193.454949 132.401269 
L 197.660606 133.022957 
L 201.866263 133.617191 
L 206.071919 134.183985 
L 210.277576 134.7235 
L 214.483232 135.236031 
L 218.688889 135.721997 
L 222.894545 136.181924 
L 227.100202 136.616434 
L 231.305859 137.026231 
L 235.511515 137.412089 
L 239.717172 137.774838 
L 243.922828 138.115355 
L 248.128485 138.434551 
L 252.334141 138.733363 
L 256.539798 139.012744 
L 260.745455 139.273652 
L 264.951111 139.517046 
L 269.156768 139.743877 
L 273.362424 139.955084 
L 277.568081 140.151584 
L 281.773737 140.334274 
L 285.979394 140.504021 
L 290.185051 140.661664 
L 294.390707 140.808008 
L 298.596364 140.943824 
L 302.80202 141.069846 
L 307.007677 141.186773 
L 311.213333 141.295265 
L 315.41899 141.395944 
L 319.624646 141.489399 
L 323.830303 141.576178 
L 328.03596 141.656796 
L 332.241616 141.731734 
L 336.447273 141.801437 
L 340.652929 141.866321 
L 344.858586 141.92677 
L 349.064242 141.98314 
L 353.269899 142.035759 
L 357.475556 142.084928 
L 361.681212 142.130928 
L 365.886869 142.174011 
L 370.092525 142.214415 
L 374.298182 142.252351 
L 378.503838 142.288019 
L 382.709495 142.321596 
L 386.915152 142.353248 
L 391.120808 142.383124 
L 395.326465 142.411361 
L 399.532121 142.438084 
L 403.737778 142.463407 
L 407.943434 142.487433 
L 412.149091 142.510258 
L 416.354747 142.531968 
L 420.560404 142.552641 
L 424.766061 142.57235 
L 428.971717 142.59116 
L 433.177374 142.609131 
L 437.38303 142.62632 
L 441.588687 142.642775 
L 445.794343 142.658542 
L 450 142.673666 
" clip-path="url(#p795761f36a)" style="fill: none; stroke-dasharray: 9.6,2.4,1.5,2.4; stroke-dashoffset: 0; stroke: #0000ff; stroke-width: 1.5"/>
   </g>
   <g id="line2d_32">
    <path d="M 33.64 115.751122 
L 37.845657 115.764368 
L 42.051313 115.804065 
L 46.25697 115.870092 
L 50.462626 115.962246 
L 54.668283 116.080249 
L 58.873939 116.223742 
L 63.079596 116.39229 
L 67.285253 116.585387 
L 71.490909 116.802453 
L 75.696566 117.042843 
L 79.902222 117.305845 
L 84.107879 117.590687 
L 88.313535 117.896539 
L 92.519192 118.222519 
L 96.724848 118.567696 
L 100.930505 118.931093 
L 105.136162 119.311695 
L 109.341818 119.708453 
L 113.547475 120.120286 
L 117.753131 120.546088 
L 121.958788 120.984736 
L 126.164444 121.43509 
L 130.370101 121.896001 
L 134.575758 122.366312 
L 138.781414 122.844871 
L 142.987071 123.330527 
L 147.192727 123.822139 
L 151.398384 124.318579 
L 155.60404 124.818737 
L 159.809697 125.321526 
L 164.015354 125.825883 
L 168.22101 126.330774 
L 172.426667 126.835197 
L 176.632323 127.338186 
L 180.83798 127.838813 
L 185.043636 128.336189 
L 189.249293 128.829468 
L 193.454949 129.31785 
L 197.660606 129.800578 
L 201.866263 130.276942 
L 206.071919 130.746283 
L 210.277576 131.207988 
L 214.483232 131.661492 
L 218.688889 132.106282 
L 222.894545 132.541892 
L 227.100202 132.967905 
L 231.305859 133.383952 
L 235.511515 133.78971 
L 239.717172 134.184905 
L 243.922828 134.569304 
L 248.128485 134.942721 
L 252.334141 135.305009 
L 256.539798 135.656065 
L 260.745455 135.99582 
L 264.951111 136.324247 
L 269.156768 136.641349 
L 273.362424 136.947164 
L 277.568081 137.241762 
L 281.773737 137.525238 
L 285.979394 137.797718 
L 290.185051 138.059349 
L 294.390707 138.310302 
L 298.596364 138.550768 
L 302.80202 138.780955 
L 307.007677 139.00109 
L 311.213333 139.211411 
L 315.41899 139.412171 
L 319.624646 139.603632 
L 323.830303 139.786065 
L 328.03596 139.959748 
L 332.241616 140.124966 
L 336.447273 140.282006 
L 340.652929 140.431158 
L 344.858586 140.572714 
L 349.064242 140.706967 
L 353.269899 140.834206 
L 357.475556 140.954721 
L 361.681212 141.068796 
L 365.886869 141.176713 
L 370.092525 141.278748 
L 374.298182 141.375174 
L 378.503838 141.466256 
L 382.709495 141.552251 
L 386.915152 141.633413 
L 391.120808 141.709984 
L 395.326465 141.782203 
L 399.532121 141.850298 
L 403.737778 141.914489 
L 407.943434 141.974989 
L 412.149091 142.032002 
L 416.354747 142.085724 
L 420.560404 142.136342 
L 424.766061 142.184036 
L 428.971717 142.228975 
L 433.177374 142.271324 
L 437.38303 142.311236 
L 441.588687 142.34886 
L 445.794343 142.384334 
L 450 142.417791 
" clip-path="url(#p795761f36a)" style="fill: none; stroke-dasharray: 1.5,2.475; stroke-dashoffset: 0; stroke: #bfbf00; stroke-width: 1.5"/>
   </g>
   <g id="patch_3">
    <path d="M 33.64 143.28 
L 33.64 26.88 
" style="fill: none; stroke: #000000; stroke-width: 0.8; stroke-linejoin: miter; stroke-linecap: square"/>
   </g>
   <g id="patch_4">
    <path d="M 450 143.28 
L 450 26.88 
" style="fill: none; stroke: #000000; stroke-width: 0.8; stroke-linejoin: miter; stroke-linecap: square"/>
   </g>
   <g id="patch_5">
    <path d="M 33.64 143.28 
L 450 143.28 
" style="fill: none; stroke: #000000; stroke-width: 0.8; stroke-linejoin: miter; stroke-linecap: square"/>
   </g>
   <g id="patch_6">
    <path d="M 33.64 26.88 
L 450 26.88 
" style="fill: none; stroke: #000000; stroke-width: 0.8; stroke-linejoin: miter; stroke-linecap: square"/>
   </g>
   <g id="text_15">
    <!-- Voight U(x,t) -->
    <g transform="translate(204.088437 20.88) scale(0.12 -0.12)">
     <defs>
      <path id="DejaVuSans-56" d="M 1831 0 
L 50 4666 
L 709 4666 
L 2188 738 
L 3669 4666 
L 4325 4666 
L 2547 0 
L 1831 0 
z
" transform="scale(0.015625)"/>
      <path id="DejaVuSans-6f" d="M 1959 3097 
Q 1497 3097 1228 2736 
Q 959 2375 959 1747 
Q 959 1119 1226 758 
Q 1494 397 1959 397 
Q 2419 397 2687 759 
Q 2956 1122 2956 1747 
Q 2956 2369 2687 2733 
Q 2419 3097 1959 3097 
z
M 1959 3584 
Q 2709 3584 3137 3096 
Q 3566 2609 3566 1747 
Q 3566 888 3137 398 
Q 2709 -91 1959 -91 
Q 1206 -91 779 398 
Q 353 888 353 1747 
Q 353 2609 779 3096 
Q 1206 3584 1959 3584 
z
" transform="scale(0.015625)"/>
      <path id="DejaVuSans-69" d="M 603 3500 
L 1178 3500 
L 1178 0 
L 603 0 
L 603 3500 
z
M 603 4863 
L 1178 4863 
L 1178 4134 
L 603 4134 
L 603 4863 
z
" transform="scale(0.015625)"/>
      <path id="DejaVuSans-67" d="M 2906 1791 
Q 2906 2416 2648 2759 
Q 2391 3103 1925 3103 
Q 1463 3103 1205 2759 
Q 947 2416 947 1791 
Q 947 1169 1205 825 
Q 1463 481 1925 481 
Q 2391 481 2648 825 
Q 2906 1169 2906 1791 
z
M 3481 434 
Q 3481 -459 3084 -895 
Q 2688 -1331 1869 -1331 
Q 1566 -1331 1297 -1286 
Q 1028 -1241 775 -1147 
L 775 -588 
Q 1028 -725 1275 -790 
Q 1522 -856 1778 -856 
Q 2344 -856 2625 -561 
Q 2906 -266 2906 331 
L 2906 616 
Q 2728 306 2450 153 
Q 2172 0 1784 0 
Q 1141 0 747 490 
Q 353 981 353 1791 
Q 353 2603 747 3093 
Q 1141 3584 1784 3584 
Q 2172 3584 2450 3431 
Q 2728 3278 2906 2969 
L 2906 3500 
L 3481 3500 
L 3481 434 
z
" transform="scale(0.015625)"/>
      <path id="DejaVuSans-68" d="M 3513 2113 
L 3513 0 
L 2938 0 
L 2938 2094 
Q 2938 2591 2744 2837 
Q 2550 3084 2163 3084 
Q 1697 3084 1428 2787 
Q 1159 2491 1159 1978 
L 1159 0 
L 581 0 
L 581 4863 
L 1159 4863 
L 1159 2956 
Q 1366 3272 1645 3428 
Q 1925 3584 2291 3584 
Q 2894 3584 3203 3211 
Q 3513 2838 3513 2113 
z
" transform="scale(0.015625)"/>
      <path id="DejaVuSans-74" d="M 1172 4494 
L 1172 3500 
L 2356 3500 
L 2356 3053 
L 1172 3053 
L 1172 1153 
Q 1172 725 1289 603 
Q 1406 481 1766 481 
L 2356 481 
L 2356 0 
L 1766 0 
Q 1100 0 847 248 
Q 594 497 594 1153 
L 594 3053 
L 172 3053 
L 172 3500 
L 594 3500 
L 594 4494 
L 1172 4494 
z
" transform="scale(0.015625)"/>
      <path id="DejaVuSans-20" transform="scale(0.015625)"/>
      <path id="DejaVuSans-55" d="M 556 4666 
L 1191 4666 
L 1191 1831 
Q 1191 1081 1462 751 
Q 1734 422 2344 422 
Q 2950 422 3222 751 
Q 3494 1081 3494 1831 
L 3494 4666 
L 4128 4666 
L 4128 1753 
Q 4128 841 3676 375 
Q 3225 -91 2344 -91 
Q 1459 -91 1007 375 
Q 556 841 556 1753 
L 556 4666 
z
" transform="scale(0.015625)"/>
      <path id="DejaVuSans-28" d="M 1984 4856 
Q 1566 4138 1362 3434 
Q 1159 2731 1159 2009 
Q 1159 1288 1364 580 
Q 1569 -128 1984 -844 
L 1484 -844 
Q 1016 -109 783 600 
Q 550 1309 550 2009 
Q 550 2706 781 3412 
Q 1013 4119 1484 4856 
L 1984 4856 
z
" transform="scale(0.015625)"/>
      <path id="DejaVuSans-78" d="M 3513 3500 
L 2247 1797 
L 3578 0 
L 2900 0 
L 1881 1375 
L 863 0 
L 184 0 
L 1544 1831 
L 300 3500 
L 978 3500 
L 1906 2253 
L 2834 3500 
L 3513 3500 
z
" transform="scale(0.015625)"/>
      <path id="DejaVuSans-2c" d="M 750 794 
L 1409 794 
L 1409 256 
L 897 -744 
L 494 -744 
L 750 256 
L 750 794 
z
" transform="scale(0.015625)"/>
      <path id="DejaVuSans-29" d="M 513 4856 
L 1013 4856 
Q 1481 4119 1714 3412 
Q 1947 2706 1947 2009 
Q 1947 1309 1714 600 
Q 1481 -109 1013 -844 
L 513 -844 
Q 928 -128 1133 580 
Q 1338 1288 1338 2009 
Q 1338 2731 1133 3434 
Q 928 4138 513 4856 
z
" transform="scale(0.015625)"/>
     </defs>
     <use xlink:href="#DejaVuSans-56"/>
     <use xlink:href="#DejaVuSans-6f" x="60.658203"/>
     <use xlink:href="#DejaVuSans-69" x="121.839844"/>
     <use xlink:href="#DejaVuSans-67" x="149.623047"/>
     <use xlink:href="#DejaVuSans-68" x="213.099609"/>
     <use xlink:href="#DejaVuSans-74" x="276.478516"/>
     <use xlink:href="#DejaVuSans-20" x="315.6875"/>
     <use xlink:href="#DejaVuSans-55" x="347.474609"/>
     <use xlink:href="#DejaVuSans-28" x="420.667969"/>
     <use xlink:href="#DejaVuSans-78" x="459.681641"/>
     <use xlink:href="#DejaVuSans-2c" x="518.861328"/>
     <use xlink:href="#DejaVuSans-74" x="550.648438"/>
     <use xlink:href="#DejaVuSans-29" x="589.857422"/>
    </g>
   </g>
   <g id="legend_1">
    <g id="patch_7">
     <path d="M 376.434375 93.5925 
L 443 93.5925 
Q 445 93.5925 445 91.5925 
L 445 33.88 
Q 445 31.88 443 31.88 
L 376.434375 31.88 
Q 374.434375 31.88 374.434375 33.88 
L 374.434375 91.5925 
Q 374.434375 93.5925 376.434375 93.5925 
z
" style="fill: #ffffff; opacity: 0.8; stroke: #cccccc; stroke-linejoin: miter"/>
    </g>
    <g id="line2d_33">
     <path d="M 378.434375 39.978437 
L 388.434375 39.978437 
L 398.434375 39.978437 
" style="fill: none; stroke: #008000; stroke-width: 1.5; stroke-linecap: square"/>
    </g>
    <g id="text_16">
     <!-- t= 0.1 -->
     <g transform="translate(406.434375 43.478437) scale(0.1 -0.1)">
      <defs>
       <path id="DejaVuSans-3d" d="M 678 2906 
L 4684 2906 
L 4684 2381 
L 678 2381 
L 678 2906 
z
M 678 1631 
L 4684 1631 
L 4684 1100 
L 678 1100 
L 678 1631 
z
" transform="scale(0.015625)"/>
      </defs>
      <use xlink:href="#DejaVuSans-74"/>
      <use xlink:href="#DejaVuSans-3d" x="39.208984"/>
      <use xlink:href="#DejaVuSans-20" x="122.998047"/>
      <use xlink:href="#DejaVuSans-30" x="154.785156"/>
      <use xlink:href="#DejaVuSans-2e" x="218.408203"/>
      <use xlink:href="#DejaVuSans-31" x="250.195312"/>
     </g>
    </g>
    <g id="line2d_34">
     <path d="M 378.434375 54.656563 
L 388.434375 54.656563 
L 398.434375 54.656563 
" style="fill: none; stroke-dasharray: 5.55,2.4; stroke-dashoffset: 0; stroke: #ff0000; stroke-width: 1.5"/>
    </g>
    <g id="text_17">
     <!-- t= 2.5 -->
     <g transform="translate(406.434375 58.156563) scale(0.1 -0.1)">
      <defs>
       <path id="DejaVuSans-35" d="M 691 4666 
L 3169 4666 
L 3169 4134 
L 1269 4134 
L 1269 2991 
Q 1406 3038 1543 3061 
Q 1681 3084 1819 3084 
Q 2600 3084 3056 2656 
Q 3513 2228 3513 1497 
Q 3513 744 3044 326 
Q 2575 -91 1722 -91 
Q 1428 -91 1123 -41 
Q 819 9 494 109 
L 494 744 
Q 775 591 1075 516 
Q 1375 441 1709 441 
Q 2250 441 2565 725 
Q 2881 1009 2881 1497 
Q 2881 1984 2565 2268 
Q 2250 2553 1709 2553 
Q 1456 2553 1204 2497 
Q 953 2441 691 2322 
L 691 4666 
z
" transform="scale(0.015625)"/>
      </defs>
      <use xlink:href="#DejaVuSans-74"/>
      <use xlink:href="#DejaVuSans-3d" x="39.208984"/>
      <use xlink:href="#DejaVuSans-20" x="122.998047"/>
      <use xlink:href="#DejaVuSans-32" x="154.785156"/>
      <use xlink:href="#DejaVuSans-2e" x="218.408203"/>
      <use xlink:href="#DejaVuSans-35" x="250.195312"/>
     </g>
    </g>
    <g id="line2d_35">
     <path d="M 378.434375 69.334687 
L 388.434375 69.334687 
L 398.434375 69.334687 
" style="fill: none; stroke-dasharray: 9.6,2.4,1.5,2.4; stroke-dashoffset: 0; stroke: #0000ff; stroke-width: 1.5"/>
    </g>
    <g id="text_18">
     <!-- t= 5.0 -->
     <g transform="translate(406.434375 72.834687) scale(0.1 -0.1)">
      <use xlink:href="#DejaVuSans-74"/>
      <use xlink:href="#DejaVuSans-3d" x="39.208984"/>
      <use xlink:href="#DejaVuSans-20" x="122.998047"/>
      <use xlink:href="#DejaVuSans-35" x="154.785156"/>
      <use xlink:href="#DejaVuSans-2e" x="218.408203"/>
      <use xlink:href="#DejaVuSans-30" x="250.195312"/>
     </g>
    </g>
    <g id="line2d_36">
     <path d="M 378.434375 84.012812 
L 388.434375 84.012812 
L 398.434375 84.012812 
" style="fill: none; stroke-dasharray: 1.5,2.475; stroke-dashoffset: 0; stroke: #bfbf00; stroke-width: 1.5"/>
    </g>
    <g id="text_19">
     <!-- t=10.0 -->
     <g transform="translate(406.434375 87.512812) scale(0.1 -0.1)">
      <use xlink:href="#DejaVuSans-74"/>
      <use xlink:href="#DejaVuSans-3d" x="39.208984"/>
      <use xlink:href="#DejaVuSans-31" x="122.998047"/>
      <use xlink:href="#DejaVuSans-30" x="186.621094"/>
      <use xlink:href="#DejaVuSans-2e" x="250.244141"/>
      <use xlink:href="#DejaVuSans-30" x="282.03125"/>
     </g>
    </g>
   </g>
  </g>
  <g id="axes_2">
   <g id="patch_8">
    <path d="M 33.64 303.64 
L 450 303.64 
L 450 187.24 
L 33.64 187.24 
z
" style="fill: #ffffff"/>
   </g>
   <g id="matplotlib.axis_3">
    <g id="xtick_9">
     <g id="line2d_37">
      <path d="M 33.64 303.64 
L 33.64 187.24 
" clip-path="url(#pdb134fd579)" style="fill: none; stroke: #b0b0b0; stroke-width: 0.8; stroke-linecap: square"/>
     </g>
     <g id="line2d_38">
      <g>
       <use xlink:href="#m135d38e8e5" x="33.64" y="303.64" style="stroke: #000000; stroke-width: 0.8"/>
      </g>
     </g>
     <g id="text_20">
      <!-- 0 -->
      <g transform="translate(30.45875 318.238438) scale(0.1 -0.1)">
       <use xlink:href="#DejaVuSans-30"/>
      </g>
     </g>
    </g>
    <g id="xtick_10">
     <g id="line2d_39">
      <path d="M 89.154667 303.64 
L 89.154667 187.24 
" clip-path="url(#pdb134fd579)" style="fill: none; stroke: #b0b0b0; stroke-width: 0.8; stroke-linecap: square"/>
     </g>
     <g id="line2d_40">
      <g>
       <use xlink:href="#m135d38e8e5" x="89.154667" y="303.64" style="stroke: #000000; stroke-width: 0.8"/>
      </g>
     </g>
     <g id="text_21">
      <!-- 2 -->
      <g transform="translate(85.973417 318.238438) scale(0.1 -0.1)">
       <use xlink:href="#DejaVuSans-32"/>
      </g>
     </g>
    </g>
    <g id="xtick_11">
     <g id="line2d_41">
      <path d="M 144.669333 303.64 
L 144.669333 187.24 
" clip-path="url(#pdb134fd579)" style="fill: none; stroke: #b0b0b0; stroke-width: 0.8; stroke-linecap: square"/>
     </g>
     <g id="line2d_42">
      <g>
       <use xlink:href="#m135d38e8e5" x="144.669333" y="303.64" style="stroke: #000000; stroke-width: 0.8"/>
      </g>
     </g>
     <g id="text_22">
      <!-- 4 -->
      <g transform="translate(141.488083 318.238438) scale(0.1 -0.1)">
       <use xlink:href="#DejaVuSans-34"/>
      </g>
     </g>
    </g>
    <g id="xtick_12">
     <g id="line2d_43">
      <path d="M 200.184 303.64 
L 200.184 187.24 
" clip-path="url(#pdb134fd579)" style="fill: none; stroke: #b0b0b0; stroke-width: 0.8; stroke-linecap: square"/>
     </g>
     <g id="line2d_44">
      <g>
       <use xlink:href="#m135d38e8e5" x="200.184" y="303.64" style="stroke: #000000; stroke-width: 0.8"/>
      </g>
     </g>
     <g id="text_23">
      <!-- 6 -->
      <g transform="translate(197.00275 318.238438) scale(0.1 -0.1)">
       <use xlink:href="#DejaVuSans-36"/>
      </g>
     </g>
    </g>
    <g id="xtick_13">
     <g id="line2d_45">
      <path d="M 255.698667 303.64 
L 255.698667 187.24 
" clip-path="url(#pdb134fd579)" style="fill: none; stroke: #b0b0b0; stroke-width: 0.8; stroke-linecap: square"/>
     </g>
     <g id="line2d_46">
      <g>
       <use xlink:href="#m135d38e8e5" x="255.698667" y="303.64" style="stroke: #000000; stroke-width: 0.8"/>
      </g>
     </g>
     <g id="text_24">
      <!-- 8 -->
      <g transform="translate(252.517417 318.238438) scale(0.1 -0.1)">
       <use xlink:href="#DejaVuSans-38"/>
      </g>
     </g>
    </g>
    <g id="xtick_14">
     <g id="line2d_47">
      <path d="M 311.213333 303.64 
L 311.213333 187.24 
" clip-path="url(#pdb134fd579)" style="fill: none; stroke: #b0b0b0; stroke-width: 0.8; stroke-linecap: square"/>
     </g>
     <g id="line2d_48">
      <g>
       <use xlink:href="#m135d38e8e5" x="311.213333" y="303.64" style="stroke: #000000; stroke-width: 0.8"/>
      </g>
     </g>
     <g id="text_25">
      <!-- 10 -->
      <g transform="translate(304.850833 318.238438) scale(0.1 -0.1)">
       <use xlink:href="#DejaVuSans-31"/>
       <use xlink:href="#DejaVuSans-30" x="63.623047"/>
      </g>
     </g>
    </g>
    <g id="xtick_15">
     <g id="line2d_49">
      <path d="M 366.728 303.64 
L 366.728 187.24 
" clip-path="url(#pdb134fd579)" style="fill: none; stroke: #b0b0b0; stroke-width: 0.8; stroke-linecap: square"/>
     </g>
     <g id="line2d_50">
      <g>
       <use xlink:href="#m135d38e8e5" x="366.728" y="303.64" style="stroke: #000000; stroke-width: 0.8"/>
      </g>
     </g>
     <g id="text_26">
      <!-- 12 -->
      <g transform="translate(360.3655 318.238438) scale(0.1 -0.1)">
       <use xlink:href="#DejaVuSans-31"/>
       <use xlink:href="#DejaVuSans-32" x="63.623047"/>
      </g>
     </g>
    </g>
    <g id="xtick_16">
     <g id="line2d_51">
      <path d="M 422.242667 303.64 
L 422.242667 187.24 
" clip-path="url(#pdb134fd579)" style="fill: none; stroke: #b0b0b0; stroke-width: 0.8; stroke-linecap: square"/>
     </g>
     <g id="line2d_52">
      <g>
       <use xlink:href="#m135d38e8e5" x="422.242667" y="303.64" style="stroke: #000000; stroke-width: 0.8"/>
      </g>
     </g>
     <g id="text_27">
      <!-- 14 -->
      <g transform="translate(415.880167 318.238438) scale(0.1 -0.1)">
       <use xlink:href="#DejaVuSans-31"/>
       <use xlink:href="#DejaVuSans-34" x="63.623047"/>
      </g>
     </g>
    </g>
    <g id="text_28">
     <!-- x -->
     <g transform="translate(238.860625 331.916562) scale(0.1 -0.1)">
      <use xlink:href="#DejaVuSans-78"/>
     </g>
    </g>
   </g>
   <g id="matplotlib.axis_4">
    <g id="ytick_7">
     <g id="line2d_53">
      <path d="M 33.64 303.64 
L 450 303.64 
" clip-path="url(#pdb134fd579)" style="fill: none; stroke: #b0b0b0; stroke-width: 0.8; stroke-linecap: square"/>
     </g>
     <g id="line2d_54">
      <g>
       <use xlink:href="#m6f615f5a94" x="33.64" y="303.64" style="stroke: #000000; stroke-width: 0.8"/>
      </g>
     </g>
     <g id="text_29">
      <!-- 0.0 -->
      <g transform="translate(10.736875 307.439219) scale(0.1 -0.1)">
       <use xlink:href="#DejaVuSans-30"/>
       <use xlink:href="#DejaVuSans-2e" x="63.623047"/>
       <use xlink:href="#DejaVuSans-30" x="95.410156"/>
      </g>
     </g>
    </g>
    <g id="ytick_8">
     <g id="line2d_55">
      <path d="M 33.64 280.36 
L 450 280.36 
" clip-path="url(#pdb134fd579)" style="fill: none; stroke: #b0b0b0; stroke-width: 0.8; stroke-linecap: square"/>
     </g>
     <g id="line2d_56">
      <g>
       <use xlink:href="#m6f615f5a94" x="33.64" y="280.36" style="stroke: #000000; stroke-width: 0.8"/>
      </g>
     </g>
     <g id="text_30">
      <!-- 0.1 -->
      <g transform="translate(10.736875 284.159219) scale(0.1 -0.1)">
       <use xlink:href="#DejaVuSans-30"/>
       <use xlink:href="#DejaVuSans-2e" x="63.623047"/>
       <use xlink:href="#DejaVuSans-31" x="95.410156"/>
      </g>
     </g>
    </g>
    <g id="ytick_9">
     <g id="line2d_57">
      <path d="M 33.64 257.08 
L 450 257.08 
" clip-path="url(#pdb134fd579)" style="fill: none; stroke: #b0b0b0; stroke-width: 0.8; stroke-linecap: square"/>
     </g>
     <g id="line2d_58">
      <g>
       <use xlink:href="#m6f615f5a94" x="33.64" y="257.08" style="stroke: #000000; stroke-width: 0.8"/>
      </g>
     </g>
     <g id="text_31">
      <!-- 0.2 -->
      <g transform="translate(10.736875 260.879219) scale(0.1 -0.1)">
       <use xlink:href="#DejaVuSans-30"/>
       <use xlink:href="#DejaVuSans-2e" x="63.623047"/>
       <use xlink:href="#DejaVuSans-32" x="95.410156"/>
      </g>
     </g>
    </g>
    <g id="ytick_10">
     <g id="line2d_59">
      <path d="M 33.64 233.8 
L 450 233.8 
" clip-path="url(#pdb134fd579)" style="fill: none; stroke: #b0b0b0; stroke-width: 0.8; stroke-linecap: square"/>
     </g>
     <g id="line2d_60">
      <g>
       <use xlink:href="#m6f615f5a94" x="33.64" y="233.8" style="stroke: #000000; stroke-width: 0.8"/>
      </g>
     </g>
     <g id="text_32">
      <!-- 0.3 -->
      <g transform="translate(10.736875 237.599219) scale(0.1 -0.1)">
       <defs>
        <path id="DejaVuSans-33" d="M 2597 2516 
Q 3050 2419 3304 2112 
Q 3559 1806 3559 1356 
Q 3559 666 3084 287 
Q 2609 -91 1734 -91 
Q 1441 -91 1130 -33 
Q 819 25 488 141 
L 488 750 
Q 750 597 1062 519 
Q 1375 441 1716 441 
Q 2309 441 2620 675 
Q 2931 909 2931 1356 
Q 2931 1769 2642 2001 
Q 2353 2234 1838 2234 
L 1294 2234 
L 1294 2753 
L 1863 2753 
Q 2328 2753 2575 2939 
Q 2822 3125 2822 3475 
Q 2822 3834 2567 4026 
Q 2313 4219 1838 4219 
Q 1578 4219 1281 4162 
Q 984 4106 628 3988 
L 628 4550 
Q 988 4650 1302 4700 
Q 1616 4750 1894 4750 
Q 2613 4750 3031 4423 
Q 3450 4097 3450 3541 
Q 3450 3153 3228 2886 
Q 3006 2619 2597 2516 
z
" transform="scale(0.015625)"/>
       </defs>
       <use xlink:href="#DejaVuSans-30"/>
       <use xlink:href="#DejaVuSans-2e" x="63.623047"/>
       <use xlink:href="#DejaVuSans-33" x="95.410156"/>
      </g>
     </g>
    </g>
    <g id="ytick_11">
     <g id="line2d_61">
      <path d="M 33.64 210.52 
L 450 210.52 
" clip-path="url(#pdb134fd579)" style="fill: none; stroke: #b0b0b0; stroke-width: 0.8; stroke-linecap: square"/>
     </g>
     <g id="line2d_62">
      <g>
       <use xlink:href="#m6f615f5a94" x="33.64" y="210.52" style="stroke: #000000; stroke-width: 0.8"/>
      </g>
     </g>
     <g id="text_33">
      <!-- 0.4 -->
      <g transform="translate(10.736875 214.319219) scale(0.1 -0.1)">
       <use xlink:href="#DejaVuSans-30"/>
       <use xlink:href="#DejaVuSans-2e" x="63.623047"/>
       <use xlink:href="#DejaVuSans-34" x="95.410156"/>
      </g>
     </g>
    </g>
    <g id="ytick_12">
     <g id="line2d_63">
      <path d="M 33.64 187.24 
L 450 187.24 
" clip-path="url(#pdb134fd579)" style="fill: none; stroke: #b0b0b0; stroke-width: 0.8; stroke-linecap: square"/>
     </g>
     <g id="line2d_64">
      <g>
       <use xlink:href="#m6f615f5a94" x="33.64" y="187.24" style="stroke: #000000; stroke-width: 0.8"/>
      </g>
     </g>
     <g id="text_34">
      <!-- 0.5 -->
      <g transform="translate(10.736875 191.039219) scale(0.1 -0.1)">
       <use xlink:href="#DejaVuSans-30"/>
       <use xlink:href="#DejaVuSans-2e" x="63.623047"/>
       <use xlink:href="#DejaVuSans-35" x="95.410156"/>
      </g>
     </g>
    </g>
   </g>
   <g id="line2d_65">
    <path d="M 33.64 303.64 
L 37.845657 280.157263 
L 42.051313 258.16577 
L 46.25697 238.915165 
L 50.462626 223.238243 
L 54.668283 211.482361 
L 58.873939 203.548963 
L 63.079596 199.009537 
L 67.285253 197.251355 
L 71.490909 197.611157 
L 75.696566 199.471831 
L 79.902222 202.315826 
L 84.107879 205.742243 
L 88.313535 209.460102 
L 92.519192 213.269854 
L 96.724848 217.041869 
L 100.930505 220.696792 
L 105.136162 224.189751 
L 109.341818 227.49863 
L 113.547475 230.615827 
L 117.753131 233.54266 
L 121.958788 236.285695 
L 126.164444 238.854363 
L 130.370101 241.259468 
L 134.575758 243.512252 
L 138.781414 245.623838 
L 142.987071 247.604903 
L 147.192727 249.465509 
L 151.398384 251.215021 
L 155.60404 252.862085 
L 159.809697 254.414642 
L 164.015354 255.879961 
L 168.22101 257.264678 
L 172.426667 258.57485 
L 176.632323 259.815999 
L 180.83798 260.993158 
L 185.043636 262.110922 
L 189.249293 263.173482 
L 193.454949 264.184668 
L 197.660606 265.147982 
L 201.866263 266.06663 
L 206.071919 266.943551 
L 210.277576 267.781441 
L 214.483232 268.582778 
L 218.688889 269.349841 
L 222.894545 270.084731 
L 227.100202 270.789383 
L 231.305859 271.465587 
L 235.511515 272.114995 
L 239.717172 272.739139 
L 243.922828 273.339439 
L 248.128485 273.91721 
L 252.334141 274.473678 
L 256.539798 275.009981 
L 260.745455 275.527178 
L 264.951111 276.026259 
L 269.156768 276.508145 
L 273.362424 276.973698 
L 277.568081 277.423725 
L 281.773737 277.85898 
L 285.979394 278.280171 
L 290.185051 278.687959 
L 294.390707 279.082969 
L 298.596364 279.465786 
L 302.80202 279.836959 
L 307.007677 280.197007 
L 311.213333 280.546419 
L 315.41899 280.885653 
L 319.624646 281.215146 
L 323.830303 281.535306 
L 328.03596 281.846522 
L 332.241616 282.149161 
L 336.447273 282.443569 
L 340.652929 282.730075 
L 344.858586 283.008991 
L 349.064242 283.280613 
L 353.269899 283.54522 
L 357.475556 283.80308 
L 361.681212 284.054446 
L 365.886869 284.299558 
L 370.092525 284.538646 
L 374.298182 284.771927 
L 378.503838 284.99961 
L 382.709495 285.221892 
L 386.915152 285.438963 
L 391.120808 285.651002 
L 395.326465 285.858182 
L 399.532121 286.060667 
L 403.737778 286.258613 
L 407.943434 286.452172 
L 412.149091 286.641486 
L 416.354747 286.826694 
L 420.560404 287.007926 
L 424.766061 287.185309 
L 428.971717 287.358964 
L 433.177374 287.529006 
L 437.38303 287.695547 
L 441.588687 287.858693 
L 445.794343 288.018547 
L 450 288.175206 
" clip-path="url(#pdb134fd579)" style="fill: none; stroke: #008000; stroke-width: 1.5; stroke-linecap: square"/>
   </g>
   <g id="line2d_66">
    <path d="M 33.64 303.64 
L 37.845657 299.451399 
L 42.051313 295.29191 
L 46.25697 291.190217 
L 50.462626 287.174144 
L 54.668283 283.270261 
L 58.873939 279.503507 
L 63.079596 275.896849 
L 67.285253 272.470995 
L 71.490909 269.244144 
L 75.696566 266.231799 
L 79.902222 263.446634 
L 84.107879 260.89841 
L 88.313535 258.593967 
L 92.519192 256.537247 
L 96.724848 254.729389 
L 100.930505 253.168861 
L 105.136162 251.851633 
L 109.341818 250.771387 
L 113.547475 249.919762 
L 117.753131 249.286604 
L 121.958788 248.860248 
L 126.164444 248.627793 
L 130.370101 248.575384 
L 134.575758 248.688489 
L 138.781414 248.952158 
L 142.987071 249.351271 
L 147.192727 249.870765 
L 151.398384 250.495837 
L 155.60404 251.212123 
L 159.809697 252.005849 
L 164.015354 252.863955 
L 168.22101 253.774196 
L 172.426667 254.725214 
L 176.632323 255.706585 
L 180.83798 256.708848 
L 185.043636 257.723511 
L 189.249293 258.743039 
L 193.454949 259.760828 
L 197.660606 260.77117 
L 201.866263 261.7692 
L 206.071919 262.750843 
L 210.277576 263.712753 
L 214.483232 264.652249 
L 218.688889 265.567248 
L 222.894545 266.456202 
L 227.100202 267.318031 
L 231.305859 268.152067 
L 235.511515 268.95799 
L 239.717172 269.735779 
L 243.922828 270.48566 
L 248.128485 271.208061 
L 252.334141 271.903572 
L 256.539798 272.572912 
L 260.745455 273.216894 
L 264.951111 273.836398 
L 269.156768 274.432352 
L 273.362424 275.005709 
L 277.568081 275.557435 
L 281.773737 276.088489 
L 285.979394 276.599821 
L 290.185051 277.092357 
L 294.390707 277.566997 
L 298.596364 278.024609 
L 302.80202 278.466026 
L 307.007677 278.892042 
L 311.213333 279.303417 
L 315.41899 279.700869 
L 319.624646 280.085081 
L 323.830303 280.456696 
L 328.03596 280.816324 
L 332.241616 281.164537 
L 336.447273 281.501878 
L 340.652929 281.828855 
L 344.858586 282.145948 
L 349.064242 282.453609 
L 353.269899 282.752263 
L 357.475556 283.042309 
L 361.681212 283.324127 
L 365.886869 283.59807 
L 370.092525 283.864474 
L 374.298182 284.123656 
L 378.503838 284.375915 
L 382.709495 284.621531 
L 386.915152 284.860773 
L 391.120808 285.093892 
L 395.326465 285.321127 
L 399.532121 285.542705 
L 403.737778 285.75884 
L 407.943434 285.969735 
L 412.149091 286.175585 
L 416.354747 286.376573 
L 420.560404 286.572874 
L 424.766061 286.764653 
L 428.971717 286.952069 
L 433.177374 287.135273 
L 437.38303 287.314409 
L 441.588687 287.489613 
L 445.794343 287.661017 
L 450 287.828746 
" clip-path="url(#pdb134fd579)" style="fill: none; stroke-dasharray: 5.55,2.4; stroke-dashoffset: 0; stroke: #ff0000; stroke-width: 1.5"/>
   </g>
   <g id="line2d_67">
    <path d="M 33.64 303.64 
L 37.845657 301.219176 
L 42.051313 298.807476 
L 46.25697 296.41395 
L 50.462626 294.047506 
L 54.668283 291.71684 
L 58.873939 289.430367 
L 63.079596 287.196158 
L 67.285253 285.021884 
L 71.490909 282.914755 
L 75.696566 280.881476 
L 79.902222 278.928202 
L 84.107879 277.060499 
L 88.313535 275.283316 
L 92.519192 273.600961 
L 96.724848 272.01708 
L 100.930505 270.534655 
L 105.136162 269.155992 
L 109.341818 267.882732 
L 113.547475 266.715857 
L 117.753131 265.655709 
L 121.958788 264.702009 
L 126.164444 263.853886 
L 130.370101 263.10991 
L 134.575758 262.468124 
L 138.781414 261.926088 
L 142.987071 261.480918 
L 147.192727 261.12933 
L 151.398384 260.86769 
L 155.60404 260.692057 
L 159.809697 260.59823 
L 164.015354 260.581799 
L 168.22101 260.638189 
L 172.426667 260.762702 
L 176.632323 260.950567 
L 180.83798 261.196974 
L 185.043636 261.497118 
L 189.249293 261.846233 
L 193.454949 262.239624 
L 197.660606 262.6727 
L 201.866263 263.140996 
L 206.071919 263.640203 
L 210.277576 264.166181 
L 214.483232 264.714981 
L 218.688889 265.282856 
L 222.894545 265.866273 
L 227.100202 266.461919 
L 231.305859 267.066709 
L 235.511515 267.677784 
L 239.717172 268.292513 
L 243.922828 268.908493 
L 248.128485 269.523542 
L 252.334141 270.135694 
L 256.539798 270.74319 
L 260.745455 271.344476 
L 264.951111 271.938184 
L 269.156768 272.523131 
L 273.362424 273.098303 
L 277.568081 273.662842 
L 281.773737 274.216043 
L 285.979394 274.757334 
L 290.185051 275.286267 
L 294.390707 275.80251 
L 298.596364 276.305833 
L 302.80202 276.796097 
L 307.007677 277.273246 
L 311.213333 277.737296 
L 315.41899 278.188328 
L 319.624646 278.626475 
L 323.830303 279.05192 
L 328.03596 279.464884 
L 332.241616 279.86562 
L 336.447273 280.254412 
L 340.652929 280.631562 
L 344.858586 280.997389 
L 349.064242 281.352224 
L 353.269899 281.696409 
L 357.475556 282.030287 
L 361.681212 282.354205 
L 365.886869 282.668509 
L 370.092525 282.973542 
L 374.298182 283.269642 
L 378.503838 283.557141 
L 382.709495 283.836363 
L 386.915152 284.107625 
L 391.120808 284.371233 
L 395.326465 284.627483 
L 399.532121 284.876664 
L 403.737778 285.11905 
L 407.943434 285.354908 
L 412.149091 285.584492 
L 416.354747 285.808047 
L 420.560404 286.025807 
L 424.766061 286.237995 
L 428.971717 286.444827 
L 433.177374 286.646505 
L 437.38303 286.843226 
L 441.588687 287.035174 
L 445.794343 287.222528 
L 450 287.405456 
" clip-path="url(#pdb134fd579)" style="fill: none; stroke-dasharray: 9.6,2.4,1.5,2.4; stroke-dashoffset: 0; stroke: #0000ff; stroke-width: 1.5"/>
   </g>
   <g id="line2d_68">
    <path d="M 33.64 303.64 
L 37.845657 302.293916 
L 42.051313 300.950519 
L 46.25697 299.612485 
L 50.462626 298.282467 
L 54.668283 296.963087 
L 58.873939 295.65692 
L 63.079596 294.366491 
L 67.285253 293.094258 
L 71.490909 291.842605 
L 75.696566 290.613835 
L 79.902222 289.410158 
L 84.107879 288.233684 
L 88.313535 287.086415 
L 92.519192 285.97024 
L 96.724848 284.886927 
L 100.930505 283.838118 
L 105.136162 282.825323 
L 109.341818 281.84992 
L 113.547475 280.913146 
L 117.753131 280.016099 
L 121.958788 279.159735 
L 126.164444 278.344865 
L 130.370101 277.57216 
L 134.575758 276.842145 
L 138.781414 276.155206 
L 142.987071 275.511588 
L 147.192727 274.911399 
L 151.398384 274.354616 
L 155.60404 273.841082 
L 159.809697 273.37052 
L 164.015354 272.942528 
L 168.22101 272.556592 
L 172.426667 272.212088 
L 176.632323 271.90829 
L 180.83798 271.644375 
L 185.043636 271.419429 
L 189.249293 271.232457 
L 193.454949 271.082389 
L 197.660606 270.968085 
L 201.866263 270.888345 
L 206.071919 270.841916 
L 210.277576 270.827497 
L 214.483232 270.84375 
L 218.688889 270.889302 
L 222.894545 270.962757 
L 227.100202 271.0627 
L 231.305859 271.187706 
L 235.511515 271.33634 
L 239.717172 271.507173 
L 243.922828 271.698777 
L 248.128485 271.90974 
L 252.334141 272.138662 
L 256.539798 272.384169 
L 260.745455 272.644908 
L 264.951111 272.91956 
L 269.156768 273.206836 
L 273.362424 273.505484 
L 277.568081 273.814292 
L 281.773737 274.132089 
L 285.979394 274.457747 
L 290.185051 274.790187 
L 294.390707 275.128373 
L 298.596364 275.471319 
L 302.80202 275.818089 
L 307.007677 276.167794 
L 311.213333 276.519597 
L 315.41899 276.872709 
L 319.624646 277.226392 
L 323.830303 277.579956 
L 328.03596 277.932759 
L 332.241616 278.284206 
L 336.447273 278.63375 
L 340.652929 278.980886 
L 344.858586 279.325155 
L 349.064242 279.666141 
L 353.269899 280.003465 
L 357.475556 280.33679 
L 361.681212 280.665815 
L 365.886869 280.990276 
L 370.092525 281.309939 
L 374.298182 281.624607 
L 378.503838 281.934108 
L 382.709495 282.238303 
L 386.915152 282.537075 
L 391.120808 282.830335 
L 395.326465 283.118015 
L 399.532121 283.40007 
L 403.737778 283.676471 
L 407.943434 283.947212 
L 412.149091 284.212299 
L 416.354747 284.471755 
L 420.560404 284.725616 
L 424.766061 284.97393 
L 428.971717 285.216756 
L 433.177374 285.454162 
L 437.38303 285.686225 
L 441.588687 285.91303 
L 445.794343 286.134666 
L 450 286.351229 
" clip-path="url(#pdb134fd579)" style="fill: none; stroke-dasharray: 1.5,2.475; stroke-dashoffset: 0; stroke: #bfbf00; stroke-width: 1.5"/>
   </g>
   <g id="patch_9">
    <path d="M 33.64 303.64 
L 33.64 187.24 
" style="fill: none; stroke: #000000; stroke-width: 0.8; stroke-linejoin: miter; stroke-linecap: square"/>
   </g>
   <g id="patch_10">
    <path d="M 450 303.64 
L 450 187.24 
" style="fill: none; stroke: #000000; stroke-width: 0.8; stroke-linejoin: miter; stroke-linecap: square"/>
   </g>
   <g id="patch_11">
    <path d="M 33.64 303.64 
L 450 303.64 
" style="fill: none; stroke: #000000; stroke-width: 0.8; stroke-linejoin: miter; stroke-linecap: square"/>
   </g>
   <g id="patch_12">
    <path d="M 33.64 187.24 
L 450 187.24 
" style="fill: none; stroke: #000000; stroke-width: 0.8; stroke-linejoin: miter; stroke-linecap: square"/>
   </g>
   <g id="text_35">
    <!-- Voight V(x,t) -->
    <g transform="translate(204.375313 181.24) scale(0.12 -0.12)">
     <use xlink:href="#DejaVuSans-56"/>
     <use xlink:href="#DejaVuSans-6f" x="60.658203"/>
     <use xlink:href="#DejaVuSans-69" x="121.839844"/>
     <use xlink:href="#DejaVuSans-67" x="149.623047"/>
     <use xlink:href="#DejaVuSans-68" x="213.099609"/>
     <use xlink:href="#DejaVuSans-74" x="276.478516"/>
     <use xlink:href="#DejaVuSans-20" x="315.6875"/>
     <use xlink:href="#DejaVuSans-56" x="347.474609"/>
     <use xlink:href="#DejaVuSans-28" x="415.882812"/>
     <use xlink:href="#DejaVuSans-78" x="454.896484"/>
     <use xlink:href="#DejaVuSans-2c" x="514.076172"/>
     <use xlink:href="#DejaVuSans-74" x="545.863281"/>
     <use xlink:href="#DejaVuSans-29" x="585.072266"/>
    </g>
   </g>
   <g id="legend_2">
    <g id="patch_13">
     <path d="M 376.434375 253.9525 
L 443 253.9525 
Q 445 253.9525 445 251.9525 
L 445 194.24 
Q 445 192.24 443 192.24 
L 376.434375 192.24 
Q 374.434375 192.24 374.434375 194.24 
L 374.434375 251.9525 
Q 374.434375 253.9525 376.434375 253.9525 
z
" style="fill: #ffffff; opacity: 0.8; stroke: #cccccc; stroke-linejoin: miter"/>
    </g>
    <g id="line2d_69">
     <path d="M 378.434375 200.338437 
L 388.434375 200.338437 
L 398.434375 200.338437 
" style="fill: none; stroke: #008000; stroke-width: 1.5; stroke-linecap: square"/>
    </g>
    <g id="text_36">
     <!-- t= 0.1 -->
     <g transform="translate(406.434375 203.838437) scale(0.1 -0.1)">
      <use xlink:href="#DejaVuSans-74"/>
      <use xlink:href="#DejaVuSans-3d" x="39.208984"/>
      <use xlink:href="#DejaVuSans-20" x="122.998047"/>
      <use xlink:href="#DejaVuSans-30" x="154.785156"/>
      <use xlink:href="#DejaVuSans-2e" x="218.408203"/>
      <use xlink:href="#DejaVuSans-31" x="250.195312"/>
     </g>
    </g>
    <g id="line2d_70">
     <path d="M 378.434375 215.016562 
L 388.434375 215.016562 
L 398.434375 215.016562 
" style="fill: none; stroke-dasharray: 5.55,2.4; stroke-dashoffset: 0; stroke: #ff0000; stroke-width: 1.5"/>
    </g>
    <g id="text_37">
     <!-- t= 2.5 -->
     <g transform="translate(406.434375 218.516562) scale(0.1 -0.1)">
      <use xlink:href="#DejaVuSans-74"/>
      <use xlink:href="#DejaVuSans-3d" x="39.208984"/>
      <use xlink:href="#DejaVuSans-20" x="122.998047"/>
      <use xlink:href="#DejaVuSans-32" x="154.785156"/>
      <use xlink:href="#DejaVuSans-2e" x="218.408203"/>
      <use xlink:href="#DejaVuSans-35" x="250.195312"/>
     </g>
    </g>
    <g id="line2d_71">
     <path d="M 378.434375 229.694687 
L 388.434375 229.694687 
L 398.434375 229.694687 
" style="fill: none; stroke-dasharray: 9.6,2.4,1.5,2.4; stroke-dashoffset: 0; stroke: #0000ff; stroke-width: 1.5"/>
    </g>
    <g id="text_38">
     <!-- t= 5.0 -->
     <g transform="translate(406.434375 233.194687) scale(0.1 -0.1)">
      <use xlink:href="#DejaVuSans-74"/>
      <use xlink:href="#DejaVuSans-3d" x="39.208984"/>
      <use xlink:href="#DejaVuSans-20" x="122.998047"/>
      <use xlink:href="#DejaVuSans-35" x="154.785156"/>
      <use xlink:href="#DejaVuSans-2e" x="218.408203"/>
      <use xlink:href="#DejaVuSans-30" x="250.195312"/>
     </g>
    </g>
    <g id="line2d_72">
     <path d="M 378.434375 244.372813 
L 388.434375 244.372813 
L 398.434375 244.372813 
" style="fill: none; stroke-dasharray: 1.5,2.475; stroke-dashoffset: 0; stroke: #bfbf00; stroke-width: 1.5"/>
    </g>
    <g id="text_39">
     <!-- t=10.0 -->
     <g transform="translate(406.434375 247.872813) scale(0.1 -0.1)">
      <use xlink:href="#DejaVuSans-74"/>
      <use xlink:href="#DejaVuSans-3d" x="39.208984"/>
      <use xlink:href="#DejaVuSans-31" x="122.998047"/>
      <use xlink:href="#DejaVuSans-30" x="186.621094"/>
      <use xlink:href="#DejaVuSans-2e" x="250.244141"/>
      <use xlink:href="#DejaVuSans-30" x="282.03125"/>
     </g>
    </g>
   </g>
  </g>
 </g>
 <defs>
  <clipPath id="p795761f36a">
   <rect x="33.64" y="26.88" width="416.36" height="116.4"/>
  </clipPath>
  <clipPath id="pdb134fd579">
   <rect x="33.64" y="187.24" width="416.36" height="116.4"/>
  </clipPath>
 </defs>
</svg>
