<?xml version="1.0" encoding="utf-8" standalone="no"?>
<!DOCTYPE svg PUBLIC "-//W3C//DTD SVG 1.1//EN"
  "http://www.w3.org/Graphics/SVG/1.1/DTD/svg11.dtd">
<svg xmlns:xlink="http://www.w3.org/1999/xlink" width="460.8pt" height="345.6pt" viewBox="0 0 460.8 345.6" xmlns="http://www.w3.org/2000/svg" version="1.1">
 <metadata>
  <rdf:RDF xmlns:dc="http://purl.org/dc/elements/1.1/" xmlns:cc="http://creativecommons.org/ns#" xmlns:rdf="http://www.w3.org/1999/02/22-rdf-syntax-ns#">
   <cc:Work>
    <dc:type rdf:resource="http://purl.org/dc/dcmitype/StillImage"/>
    <dc:date>2025-11-12T11:10:51.898491</dc:date>
    <dc:format>image/svg+xml</dc:format>
    <dc:creator>
     <cc:Agent>
      <dc:title>Matplotlib v3.10.6, https://matplotlib.org/</dc:title>
     </cc:Agent>
    </dc:creator>
   </cc:Work>
  </rdf:RDF>
 </metadata>
 <defs>
  <style type="text/css">*{stroke-linejoin: round; stroke-linecap: butt}</style>
 </defs>
 <g id="figure_1">
  <g id="patch_1">
   <path d="M 0 345.6 
L 460.8 345.6 
L 460.8 0 
L 0 0 
z
" style="fill: #ffffff"/>
  </g>
  <g id="patch_2">
   <path d="M 103.104 307.584 
L 369.216 307.584 
L 369.216 41.472 
L 103.104 41.472 
z
" style="fill: #ffffff"/>
  </g>
  <g id="pane3d_1">
   <g id="patch_3">
    <path d="M 124.251806 215.822488 
L 169.191514 179.209758 
L 166.129684 71.463476 
L 119.011327 104.820739 
" style="fill: #f2f2f2; opacity: 0.5; stroke: #f2f2f2; stroke-linejoin: miter"/>
   </g>
  </g>
  <g id="pane3d_2">
   <g id="patch_4">
    <path d="M 169.191514 179.209758 
L 357.870382 235.602769 
L 363.355992 122.894958 
L 166.129684 71.463476 
" style="fill: #e6e6e6; opacity: 0.5; stroke: #e6e6e6; stroke-linejoin: miter"/>
   </g>
  </g>
  <g id="pane3d_3">
   <g id="patch_5">
    <path d="M 124.251806 215.822488 
L 318.583647 277.426951 
L 357.870382 235.602769 
L 169.191514 179.209758 
" style="fill: #ececec; opacity: 0.5; stroke: #ececec; stroke-linejoin: miter"/>
   </g>
  </g>
  <g id="grid3d_1">
   <g id="Line3DCollection_1">
    <path d="M 135.853845 219.50041 
L 180.48723 182.585862 
L 177.904723 74.534099 
" style="fill: none; stroke: #b0b0b0; stroke-width: 0.8"/>
    <path d="M 165.922863 229.032486 
L 209.743883 191.330194 
L 208.421992 82.492208 
" style="fill: none; stroke: #b0b0b0; stroke-width: 0.8"/>
    <path d="M 196.651141 238.77355 
L 239.614483 200.258025 
L 239.608177 90.624752 
" style="fill: none; stroke: #b0b0b0; stroke-width: 0.8"/>
    <path d="M 228.060599 248.730554 
L 270.11856 209.375192 
L 271.485514 98.937531 
" style="fill: none; stroke: #b0b0b0; stroke-width: 0.8"/>
    <path d="M 260.174142 258.910757 
L 301.27648 218.687782 
L 304.077237 107.436603 
" style="fill: none; stroke: #b0b0b0; stroke-width: 0.8"/>
    <path d="M 293.015713 269.321749 
L 333.109494 228.202147 
L 337.407634 116.128302 
" style="fill: none; stroke: #b0b0b0; stroke-width: 0.8"/>
   </g>
  </g>
  <g id="grid3d_2">
   <g id="Line3DCollection_2">
    <path d="M 121.493604 103.06342 
L 126.61506 213.897127 
L 320.655387 275.221402 
" style="fill: none; stroke: #b0b0b0; stroke-width: 0.8"/>
    <path d="M 131.78808 95.775484 
L 136.42096 205.908184 
L 329.244857 266.077156 
" style="fill: none; stroke: #b0b0b0; stroke-width: 0.8"/>
    <path d="M 141.887661 88.625524 
L 146.049108 198.064057 
L 337.667905 257.110081 
" style="fill: none; stroke: #b0b0b0; stroke-width: 0.8"/>
    <path d="M 151.797829 81.609658 
L 155.504294 190.360843 
L 345.929323 248.315076 
" style="fill: none; stroke: #b0b0b0; stroke-width: 0.8"/>
    <path d="M 161.523864 74.724149 
L 164.791138 182.794779 
L 354.033717 239.687236 
" style="fill: none; stroke: #b0b0b0; stroke-width: 0.8"/>
   </g>
  </g>
  <g id="grid3d_3">
   <g id="Line3DCollection_3">
    <path d="M 358.108244 230.715633 
L 169.058378 174.524685 
L 124.02435 211.004604 
" style="fill: none; stroke: #b0b0b0; stroke-width: 0.8"/>
    <path d="M 358.936726 213.693588 
L 168.594926 158.215705 
L 123.232271 194.227111 
" style="fill: none; stroke: #b0b0b0; stroke-width: 0.8"/>
    <path d="M 359.776888 196.43155 
L 168.125356 141.691489 
L 122.429276 177.218383 
" style="fill: none; stroke: #b0b0b0; stroke-width: 0.8"/>
    <path d="M 360.628979 178.924407 
L 167.649549 124.94775 
L 121.615137 159.973605 
" style="fill: none; stroke: #b0b0b0; stroke-width: 0.8"/>
    <path d="M 361.493256 161.166901 
L 167.167378 107.980082 
L 120.789619 142.487829 
" style="fill: none; stroke: #b0b0b0; stroke-width: 0.8"/>
    <path d="M 362.369981 143.153624 
L 166.678715 90.783964 
L 119.952484 124.755967 
" style="fill: none; stroke: #b0b0b0; stroke-width: 0.8"/>
    <path d="M 363.259427 124.879009 
L 166.183428 73.35475 
L 119.103485 106.772789 
" style="fill: none; stroke: #b0b0b0; stroke-width: 0.8"/>
   </g>
  </g>
  <g id="axis3d_1">
   <g id="line2d_1">
    <path d="M 124.251806 215.822488 
L 318.583647 277.426951 
" style="fill: none; stroke: #000000; stroke-width: 0.8; stroke-linecap: square"/>
   </g>
   <g id="xtick_1">
    <g id="line2d_2">
     <path d="M 136.226433 219.192257 
L 135.107884 220.117366 
" style="fill: none; stroke: #000000; stroke-width: 0.8; stroke-linecap: square"/>
    </g>
    <g id="text_1">
     <!-- 0 -->
     <g transform="translate(129.182578 239.130342) scale(0.1 -0.1)">
      <defs>
       <path id="DejaVuSans-30" d="M 2034 4250 
Q 1547 4250 1301 3770 
Q 1056 3291 1056 2328 
Q 1056 1369 1301 889 
Q 1547 409 2034 409 
Q 2525 409 2770 889 
Q 3016 1369 3016 2328 
Q 3016 3291 2770 3770 
Q 2525 4250 2034 4250 
z
M 2034 4750 
Q 2819 4750 3233 4129 
Q 3647 3509 3647 2328 
Q 3647 1150 3233 529 
Q 2819 -91 2034 -91 
Q 1250 -91 836 529 
Q 422 1150 422 2328 
Q 422 3509 836 4129 
Q 1250 4750 2034 4750 
z
" transform="scale(0.015625)"/>
      </defs>
      <use xlink:href="#DejaVuSans-30"/>
     </g>
    </g>
   </g>
   <g id="xtick_2">
    <g id="line2d_3">
     <path d="M 166.288835 228.717614 
L 165.19014 229.662898 
" style="fill: none; stroke: #000000; stroke-width: 0.8; stroke-linecap: square"/>
    </g>
    <g id="text_2">
     <!-- 2 -->
     <g transform="translate(159.214383 248.793084) scale(0.1 -0.1)">
      <defs>
       <path id="DejaVuSans-32" d="M 1228 531 
L 3431 531 
L 3431 0 
L 469 0 
L 469 531 
Q 828 903 1448 1529 
Q 2069 2156 2228 2338 
Q 2531 2678 2651 2914 
Q 2772 3150 2772 3378 
Q 2772 3750 2511 3984 
Q 2250 4219 1831 4219 
Q 1534 4219 1204 4116 
Q 875 4013 500 3803 
L 500 4441 
Q 881 4594 1212 4672 
Q 1544 4750 1819 4750 
Q 2544 4750 2975 4387 
Q 3406 4025 3406 3419 
Q 3406 3131 3298 2873 
Q 3191 2616 2906 2266 
Q 2828 2175 2409 1742 
Q 1991 1309 1228 531 
z
" transform="scale(0.015625)"/>
      </defs>
      <use xlink:href="#DejaVuSans-32"/>
     </g>
    </g>
   </g>
   <g id="xtick_3">
    <g id="line2d_4">
     <path d="M 197.010115 238.451739 
L 195.932419 239.417866 
" style="fill: none; stroke: #000000; stroke-width: 0.8; stroke-linecap: square"/>
    </g>
    <g id="text_3">
     <!-- 4 -->
     <g transform="translate(189.904646 258.667685) scale(0.1 -0.1)">
      <defs>
       <path id="DejaVuSans-34" d="M 2419 4116 
L 825 1625 
L 2419 1625 
L 2419 4116 
z
M 2253 4666 
L 3047 4666 
L 3047 1625 
L 3713 1625 
L 3713 1100 
L 3047 1100 
L 3047 0 
L 2419 0 
L 2419 1100 
L 313 1100 
L 313 1709 
L 2253 4666 
z
" transform="scale(0.015625)"/>
      </defs>
      <use xlink:href="#DejaVuSans-34"/>
     </g>
    </g>
   </g>
   <g id="xtick_4">
    <g id="line2d_5">
     <path d="M 228.412174 248.40157 
L 227.356683 249.389236 
" style="fill: none; stroke: #000000; stroke-width: 0.8; stroke-linecap: square"/>
    </g>
    <g id="text_4">
     <!-- 6 -->
     <g transform="translate(221.275261 268.76119) scale(0.1 -0.1)">
      <defs>
       <path id="DejaVuSans-36" d="M 2113 2584 
Q 1688 2584 1439 2293 
Q 1191 2003 1191 1497 
Q 1191 994 1439 701 
Q 1688 409 2113 409 
Q 2538 409 2786 701 
Q 3034 994 3034 1497 
Q 3034 2003 2786 2293 
Q 2538 2584 2113 2584 
z
M 3366 4563 
L 3366 3988 
Q 3128 4100 2886 4159 
Q 2644 4219 2406 4219 
Q 1781 4219 1451 3797 
Q 1122 3375 1075 2522 
Q 1259 2794 1537 2939 
Q 1816 3084 2150 3084 
Q 2853 3084 3261 2657 
Q 3669 2231 3669 1497 
Q 3669 778 3244 343 
Q 2819 -91 2113 -91 
Q 1303 -91 875 529 
Q 447 1150 447 2328 
Q 447 3434 972 4092 
Q 1497 4750 2381 4750 
Q 2619 4750 2861 4703 
Q 3103 4656 3366 4563 
z
" transform="scale(0.015625)"/>
      </defs>
      <use xlink:href="#DejaVuSans-36"/>
     </g>
    </g>
   </g>
   <g id="xtick_5">
    <g id="line2d_6">
     <path d="M 260.517894 258.574359 
L 259.485881 259.584293 
" style="fill: none; stroke: #000000; stroke-width: 0.8; stroke-linecap: square"/>
    </g>
    <g id="text_5">
     <!-- 8 -->
     <g transform="translate(253.349106 279.08096) scale(0.1 -0.1)">
      <defs>
       <path id="DejaVuSans-38" d="M 2034 2216 
Q 1584 2216 1326 1975 
Q 1069 1734 1069 1313 
Q 1069 891 1326 650 
Q 1584 409 2034 409 
Q 2484 409 2743 651 
Q 3003 894 3003 1313 
Q 3003 1734 2745 1975 
Q 2488 2216 2034 2216 
z
M 1403 2484 
Q 997 2584 770 2862 
Q 544 3141 544 3541 
Q 544 4100 942 4425 
Q 1341 4750 2034 4750 
Q 2731 4750 3128 4425 
Q 3525 4100 3525 3541 
Q 3525 3141 3298 2862 
Q 3072 2584 2669 2484 
Q 3125 2378 3379 2068 
Q 3634 1759 3634 1313 
Q 3634 634 3220 271 
Q 2806 -91 2034 -91 
Q 1263 -91 848 271 
Q 434 634 434 1313 
Q 434 1759 690 2068 
Q 947 2378 1403 2484 
z
M 1172 3481 
Q 1172 3119 1398 2916 
Q 1625 2713 2034 2713 
Q 2441 2713 2670 2916 
Q 2900 3119 2900 3481 
Q 2900 3844 2670 4047 
Q 2441 4250 2034 4250 
Q 1625 4250 1398 4047 
Q 1172 3844 1172 3481 
z
" transform="scale(0.015625)"/>
      </defs>
      <use xlink:href="#DejaVuSans-38"/>
     </g>
    </g>
   </g>
   <g id="xtick_6">
    <g id="line2d_7">
     <path d="M 293.351196 268.977683 
L 292.344001 270.010647 
" style="fill: none; stroke: #000000; stroke-width: 0.8; stroke-linecap: square"/>
    </g>
    <g id="text_6">
     <!-- 10 -->
     <g transform="translate(282.968844 289.634688) scale(0.1 -0.1)">
      <defs>
       <path id="DejaVuSans-31" d="M 794 531 
L 1825 531 
L 1825 4091 
L 703 3866 
L 703 4441 
L 1819 4666 
L 2450 4666 
L 2450 531 
L 3481 531 
L 3481 0 
L 794 0 
L 794 531 
z
" transform="scale(0.015625)"/>
      </defs>
      <use xlink:href="#DejaVuSans-31"/>
      <use xlink:href="#DejaVuSans-30" transform="translate(63.623047 0)"/>
     </g>
    </g>
   </g>
  </g>
  <g id="axis3d_2">
   <g id="line2d_8">
    <path d="M 357.870382 235.602769 
L 318.583647 277.426951 
" style="fill: none; stroke: #000000; stroke-width: 0.8; stroke-linecap: square"/>
   </g>
   <g id="xtick_7">
    <g id="line2d_9">
     <path d="M 318.995009 274.696658 
L 323.981743 276.27266 
" style="fill: none; stroke: #000000; stroke-width: 0.8; stroke-linecap: square"/>
    </g>
    <g id="text_7">
     <!-- −1 -->
     <g transform="translate(330.23716 297.474114) scale(0.1 -0.1)">
      <defs>
       <path id="DejaVuSans-2212" d="M 678 2272 
L 4684 2272 
L 4684 1741 
L 678 1741 
L 678 2272 
z
" transform="scale(0.015625)"/>
      </defs>
      <use xlink:href="#DejaVuSans-2212"/>
      <use xlink:href="#DejaVuSans-31" transform="translate(83.789062 0)"/>
     </g>
    </g>
   </g>
   <g id="xtick_8">
    <g id="line2d_10">
     <path d="M 327.595938 265.562626 
L 332.548203 267.107936 
" style="fill: none; stroke: #000000; stroke-width: 0.8; stroke-linecap: square"/>
    </g>
    <g id="text_8">
     <!-- 0 -->
     <g transform="translate(342.867184 288.168271) scale(0.1 -0.1)">
      <use xlink:href="#DejaVuSans-30"/>
     </g>
    </g>
   </g>
   <g id="xtick_9">
    <g id="line2d_11">
     <path d="M 336.030315 256.605469 
L 340.948504 258.120975 
" style="fill: none; stroke: #000000; stroke-width: 0.8; stroke-linecap: square"/>
    </g>
    <g id="text_9">
     <!-- 1 -->
     <g transform="translate(351.143517 279.04308) scale(0.1 -0.1)">
      <use xlink:href="#DejaVuSans-31"/>
     </g>
    </g>
   </g>
   <g id="xtick_10">
    <g id="line2d_12">
     <path d="M 344.302932 247.820098 
L 349.187434 249.306655 
" style="fill: none; stroke: #000000; stroke-width: 0.8; stroke-linecap: square"/>
    </g>
    <g id="text_10">
     <!-- 2 -->
     <g transform="translate(359.260727 270.093331) scale(0.1 -0.1)">
      <use xlink:href="#DejaVuSans-32"/>
     </g>
    </g>
   </g>
   <g id="xtick_11">
    <g id="line2d_13">
     <path d="M 352.418397 239.201619 
L 357.269599 240.660047 
" style="fill: none; stroke: #000000; stroke-width: 0.8; stroke-linecap: square"/>
    </g>
    <g id="text_11">
     <!-- 3 -->
     <g transform="translate(367.223362 261.314012) scale(0.1 -0.1)">
      <defs>
       <path id="DejaVuSans-33" d="M 2597 2516 
Q 3050 2419 3304 2112 
Q 3559 1806 3559 1356 
Q 3559 666 3084 287 
Q 2609 -91 1734 -91 
Q 1441 -91 1130 -33 
Q 819 25 488 141 
L 488 750 
Q 750 597 1062 519 
Q 1375 441 1716 441 
Q 2309 441 2620 675 
Q 2931 909 2931 1356 
Q 2931 1769 2642 2001 
Q 2353 2234 1838 2234 
L 1294 2234 
L 1294 2753 
L 1863 2753 
Q 2328 2753 2575 2939 
Q 2822 3125 2822 3475 
Q 2822 3834 2567 4026 
Q 2313 4219 1838 4219 
Q 1578 4219 1281 4162 
Q 984 4106 628 3988 
L 628 4550 
Q 988 4650 1302 4700 
Q 1616 4750 1894 4750 
Q 2613 4750 3031 4423 
Q 3450 4097 3450 3541 
Q 3450 3153 3228 2886 
Q 3006 2619 2597 2516 
z
" transform="scale(0.015625)"/>
      </defs>
      <use xlink:href="#DejaVuSans-33"/>
     </g>
    </g>
   </g>
  </g>
  <g id="axis3d_3">
   <g id="line2d_14">
    <path d="M 357.870382 235.602769 
L 363.355992 122.894958 
" style="fill: none; stroke: #000000; stroke-width: 0.8; stroke-linecap: square"/>
   </g>
   <g id="xtick_12">
    <g id="line2d_15">
     <path d="M 356.494826 230.23608 
L 361.340303 231.676292 
" style="fill: none; stroke: #000000; stroke-width: 0.8; stroke-linecap: square"/>
    </g>
    <g id="text_12">
     <!-- −4 -->
     <g transform="translate(370.636842 239.989723) scale(0.1 -0.1)">
      <use xlink:href="#DejaVuSans-2212"/>
      <use xlink:href="#DejaVuSans-34" transform="translate(83.789062 0)"/>
     </g>
    </g>
   </g>
   <g id="xtick_13">
    <g id="line2d_16">
     <path d="M 357.31157 213.219913 
L 362.192334 214.642482 
" style="fill: none; stroke: #000000; stroke-width: 0.8; stroke-linecap: square"/>
    </g>
    <g id="text_13">
     <!-- −3 -->
     <g transform="translate(371.606459 222.947167) scale(0.1 -0.1)">
      <use xlink:href="#DejaVuSans-2212"/>
      <use xlink:href="#DejaVuSans-33" transform="translate(83.789062 0)"/>
     </g>
    </g>
   </g>
   <g id="xtick_14">
    <g id="line2d_17">
     <path d="M 358.139823 195.963967 
L 363.056391 197.368251 
" style="fill: none; stroke: #000000; stroke-width: 0.8; stroke-linecap: square"/>
    </g>
    <g id="text_14">
     <!-- −2 -->
     <g transform="translate(372.589771 205.66387) scale(0.1 -0.1)">
      <use xlink:href="#DejaVuSans-2212"/>
      <use xlink:href="#DejaVuSans-32" transform="translate(83.789062 0)"/>
     </g>
    </g>
   </g>
   <g id="xtick_15">
    <g id="line2d_18">
     <path d="M 358.97983 178.463137 
L 363.93273 179.848471 
" style="fill: none; stroke: #000000; stroke-width: 0.8; stroke-linecap: square"/>
    </g>
    <g id="text_15">
     <!-- −1 -->
     <g transform="translate(373.587073 188.134694) scale(0.1 -0.1)">
      <use xlink:href="#DejaVuSans-2212"/>
      <use xlink:href="#DejaVuSans-31" transform="translate(83.789062 0)"/>
     </g>
    </g>
   </g>
   <g id="xtick_16">
    <g id="line2d_19">
     <path d="M 359.831842 160.712174 
L 364.821615 162.07787 
" style="fill: none; stroke: #000000; stroke-width: 0.8; stroke-linecap: square"/>
    </g>
    <g id="text_16">
     <!-- 0 -->
     <g transform="translate(378.788508 170.354355) scale(0.1 -0.1)">
      <use xlink:href="#DejaVuSans-30"/>
     </g>
    </g>
   </g>
   <g id="xtick_17">
    <g id="line2d_20">
     <path d="M 360.69612 142.705676 
L 365.723318 144.051023 
" style="fill: none; stroke: #000000; stroke-width: 0.8; stroke-linecap: square"/>
    </g>
    <g id="text_17">
     <!-- 1 -->
     <g transform="translate(379.814698 152.317416) scale(0.1 -0.1)">
      <use xlink:href="#DejaVuSans-31"/>
     </g>
    </g>
   </g>
   <g id="xtick_18">
    <g id="line2d_21">
     <path d="M 361.57293 124.438085 
L 366.638117 125.762346 
" style="fill: none; stroke: #000000; stroke-width: 0.8; stroke-linecap: square"/>
    </g>
    <g id="text_18">
     <!-- 2 -->
     <g transform="translate(380.855806 134.018282) scale(0.1 -0.1)">
      <use xlink:href="#DejaVuSans-32"/>
     </g>
    </g>
   </g>
  </g>
  <g id="axes_1">
   <g id="line2d_22">
    <path d="M 145.209961 136.525582 
L 146.69117 135.205003 
L 148.126157 133.525771 
L 149.488883 131.527388 
L 150.755032 129.255908 
L 151.902472 126.762951 
L 152.911679 124.10465 
L 153.766095 121.340504 
L 154.452428 118.532214 
L 154.960926 115.742489 
L 155.285576 113.033812 
L 155.424234 110.467211 
L 155.378715 108.101031 
L 155.154811 105.989694 
L 154.762219 104.182544 
L 154.214409 102.722708 
L 153.528423 101.646021 
L 153.004229 101.155108 
L 152.434322 100.852949 
L 151.825953 100.743666 
L 151.186813 100.829446 
L 150.524961 101.110483 
L 149.848748 101.584953 
L 148.826242 102.650361 
L 147.819939 104.120378 
L 146.858942 105.963713 
L 145.971486 108.139892 
L 145.184208 110.600133 
L 144.521442 113.288513 
L 144.004587 116.143365 
L 143.651529 119.098832 
L 143.476167 122.086575 
L 143.48807 125.037548 
L 143.692247 127.883787 
L 144.089037 130.560156 
L 144.674169 133.005975 
L 145.438926 135.16648 
L 146.370414 136.994132 
L 147.451966 138.449633 
L 148.246631 139.197874 
L 149.092549 139.760448 
L 149.982627 140.132675 
L 150.909378 140.311836 
L 151.865005 140.297167 
L 152.841486 140.089841 
L 153.830649 139.692928 
L 154.824258 139.111342 
L 156.305037 137.907793 
L 157.75004 136.333742 
L 159.132978 134.426526 
L 160.429088 132.230349 
L 161.615604 129.795323 
L 162.672192 127.176422 
L 163.581316 124.432349 
L 164.328568 121.624395 
L 165.054628 117.889457 
L 165.457836 114.300844 
L 165.545584 111.792215 
L 165.452244 109.504209 
L 165.184687 107.489722 
L 164.753621 105.796152 
L 164.173439 104.464289 
L 163.461992 103.527267 
L 162.925005 103.134481 
L 162.345847 102.933347 
L 161.731897 102.926983 
L 161.090942 103.116534 
L 160.431103 103.501132 
L 159.424285 104.436845 
L 158.422676 105.786075 
L 157.455234 107.520509 
L 156.550329 109.602392 
L 155.735009 111.985313 
L 155.034298 114.615323 
L 154.470539 117.432246 
L 154.062792 120.371186 
L 153.826331 123.364212 
L 153.77226 126.342119 
L 153.90723 129.236223 
L 154.233293 131.980139 
L 154.747909 134.511442 
L 155.444057 136.773208 
L 156.310467 138.715376 
L 157.331987 140.295842 
L 158.090114 141.131728 
L 158.902709 141.784342 
L 159.763001 142.248077 
L 160.663791 142.519281 
L 161.597526 142.596266 
L 162.556381 142.479302 
L 163.532342 142.170578 
L 164.517287 141.674161 
L 165.503061 140.995927 
L 166.965571 139.654773 
L 168.384957 137.954535 
L 169.735597 135.935186 
L 170.993514 133.643252 
L 172.136835 131.130811 
L 173.146206 128.454431 
L 174.005139 125.674007 
L 174.893862 121.912373 
L 175.46996 118.225443 
L 175.723174 114.760266 
L 175.701866 112.391357 
L 175.505091 110.280532 
L 175.142028 108.477175 
L 174.625583 107.024363 
L 173.972175 105.957832 
L 173.470058 105.475346 
L 172.922282 105.182859 
L 172.335901 105.084412 
L 171.718408 105.18209 
L 171.077666 105.475981 
L 170.421834 105.964139 
L 169.428132 107.051364 
L 168.447994 108.544298 
L 167.509996 110.411144 
L 166.64192 112.61089 
L 165.870027 115.094198 
L 165.218378 117.804608 
L 164.708196 120.679933 
L 164.357293 123.653827 
L 164.179607 126.657516 
L 164.184857 129.621586 
L 164.378291 132.477773 
L 164.760598 135.160727 
L 165.32794 137.609636 
L 166.072103 139.769701 
L 166.980763 141.593434 
L 168.037877 143.041667 
L 168.815674 143.783309 
L 169.644496 144.337967 
L 170.517447 144.701063 
L 171.427241 144.86998 
L 172.366277 144.844071 
L 173.326724 144.624636 
L 174.300595 144.214879 
L 175.279831 143.61985 
L 176.74114 142.395318 
L 178.169633 140.799753 
L 179.539471 138.87098 
L 180.826263 136.653689 
L 182.007537 134.19848 
L 183.063161 131.560771 
L 183.975705 128.799688 
L 184.945478 125.033148 
L 185.610863 121.306414 
L 185.958377 117.767882 
L 186.009014 115.323424 
L 185.883552 113.121103 
L 185.589653 111.212169 
L 185.138729 109.641893 
L 184.54575 108.448522 
L 184.080411 107.877624 
L 183.56617 107.494656 
L 183.009732 107.304565 
L 182.418276 107.310374 
L 181.799392 107.513115 
L 181.161003 107.911799 
L 180.184784 108.870026 
L 179.211342 110.242996 
L 178.269084 112.001871 
L 177.385889 114.10833 
L 176.588397 116.515395 
L 175.901317 119.168555 
L 175.346775 122.007082 
L 174.943714 124.965566 
L 174.707408 127.975617 
L 174.649068 130.967629 
L 174.775548 133.872598 
L 175.089213 136.623897 
L 175.58793 139.158948 
L 176.265152 141.420784 
L 177.110166 143.359377 
L 178.108428 144.932745 
L 178.850328 145.762052 
L 179.646353 146.4067 
L 180.489932 146.861175 
L 181.374066 147.121937 
L 182.291401 147.187419 
L 183.234309 147.058018 
L 184.194968 146.736066 
L 185.165438 146.225771 
L 186.137738 145.533161 
L 187.582275 144.169831 
L 188.986814 142.447161 
L 190.326166 140.405637 
L 191.576708 138.092289 
L 192.716843 135.559698 
L 193.727393 132.864883 
L 194.591957 130.068166 
L 195.495098 126.288791 
L 196.09323 122.589365 
L 196.375535 119.117518 
L 196.380186 116.747663 
L 196.212428 114.639469 
L 195.88093 112.842321 
L 195.39803 111.39922 
L 194.779528 110.345759 
L 194.301115 109.873744 
L 193.777161 109.593035 
L 193.214517 109.507571 
L 192.620476 109.619325 
L 192.002703 109.928253 
L 191.369163 110.43227 
L 190.407216 111.544487 
L 189.456287 113.063375 
L 188.544411 114.956555 
L 187.698896 117.182402 
L 186.945617 119.690971 
L 186.308338 122.425213 
L 185.808089 125.322369 
L 185.462589 128.315575 
L 185.285801 131.335603 
L 185.287572 134.312653 
L 185.473381 137.178175 
L 185.844249 139.866617 
L 186.396764 142.317064 
L 187.123205 144.474734 
L 188.011819 146.292235 
L 189.047182 147.73059 
L 189.80985 148.463768 
L 190.623274 149.008576 
L 191.480761 149.360546 
L 192.375225 149.5172 
L 193.299266 149.478029 
L 194.245246 149.244483 
L 195.20537 148.819925 
L 196.17176 148.209569 
L 197.615867 146.961421 
L 199.030107 145.341999 
L 200.389113 143.389694 
L 201.66889 141.149761 
L 202.847282 138.673336 
L 203.904382 136.016341 
L 204.822898 133.238371 
L 205.807689 129.453763 
L 206.495991 125.714804 
L 206.87387 122.170528 
L 206.939041 118.963568 
L 206.788043 116.859116 
L 206.474748 115.067798 
L 206.011213 113.632568 
L 205.412946 112.588891 
L 204.948353 112.124375 
L 204.438372 111.851881 
L 203.889753 111.775279 
L 203.309691 111.896468 
L 202.705754 112.215322 
L 201.772355 113.058899 
L 200.830374 114.325827 
L 199.907648 115.989904 
L 199.031782 118.015217 
L 198.229452 120.356876 
L 197.525709 122.962054 
L 196.943326 125.771281 
L 196.389483 129.722076 
L 196.161636 132.750269 
L 196.10743 135.756527 
L 196.233889 138.671524 
L 196.543658 141.428416 
L 197.034963 143.964529 
L 197.701709 146.222922 
L 198.533708 148.153699 
L 199.517003 149.715125 
L 200.248148 150.534355 
L 201.033022 151.167378 
L 201.865257 151.608824 
L 202.738052 151.855304 
L 203.644255 151.90543 
L 204.576438 151.759779 
L 205.526973 151.42087 
L 206.48811 150.893114 
L 207.932643 149.761491 
L 209.357371 148.247639 
L 210.736845 146.387837 
L 212.0468 144.225552 
L 213.264622 141.810435 
L 214.369775 139.197268 
L 215.344184 136.44487 
L 216.414062 132.665279 
L 217.197163 128.898182 
L 217.676658 125.293792 
L 217.847124 121.997067 
L 217.775538 119.807851 
L 217.540463 117.918836 
L 217.152561 116.37511 
L 216.62599 115.214547 
L 215.978151 114.466866 
L 215.488819 114.208409 
L 214.961245 114.146617 
L 214.402541 114.283263 
L 213.820189 114.618088 
L 212.919408 115.486268 
L 212.010087 116.778134 
L 211.119794 118.466951 
L 210.275885 120.51623 
L 209.50481 122.880538 
L 208.83143 125.506521 
L 208.124233 129.310437 
L 207.676057 133.316805 
L 207.531055 136.355615 
L 207.561234 139.345566 
L 207.772218 142.21782 
L 208.16527 144.906703 
L 208.737307 147.351356 
L 209.481027 149.497228 
L 210.385178 151.297321 
L 211.434903 152.713213 
L 212.206796 153.428955 
L 213.029396 153.954638 
L 213.896211 154.286056 
L 214.800368 154.421009 
L 215.734677 154.359301 
L 216.691718 154.102695 
L 217.663911 153.654885 
L 218.643596 153.021427 
L 220.110409 151.739671 
L 221.551304 150.088939 
L 222.941597 148.108797 
L 224.257952 145.845675 
L 225.478835 143.351818 
L 226.584919 140.684207 
L 227.852603 136.962173 
L 228.855261 133.188847 
L 229.571681 129.516226 
L 229.991803 126.093348 
L 230.117254 123.060952 
L 229.961564 120.546189 
L 229.675071 119.065906 
L 229.259227 117.975656 
L 228.732159 117.304383 
L 228.329305 117.099768 
L 227.893269 117.093738 
L 227.431426 117.287667 
L 226.951541 117.680853 
L 226.215629 118.637521 
L 225.485555 120.017337 
L 224.790081 121.791534 
L 224.157877 123.921449 
L 223.616838 126.359316 
L 223.193421 129.049402 
L 222.912018 131.929362 
L 222.794374 134.931817 
L 222.859108 137.986148 
L 223.121335 141.020394 
L 223.592389 143.963229 
L 224.279685 146.745985 
L 225.18672 149.304627 
L 226.313176 151.58171 
L 227.184249 152.918776 
L 228.149173 154.096729 
L 229.205345 155.105842 
L 230.349585 155.93894 
L 231.578177 156.591644 
L 232.886895 157.062625 
L 234.271015 157.353846 
L 235.725304 157.470781 
L 237.244004 157.422562 
L 239.628808 157.069688 
L 242.12013 156.43325 
L 245.559735 155.272129 
L 255.10906 151.790195 
L 257.567562 151.136063 
L 259.894025 150.727591 
L 262.053551 150.608344 
L 263.384357 150.705586 
L 264.617675 150.95204 
L 265.745444 151.351836 
L 266.760458 151.906868 
L 267.656459 152.616856 
L 268.428222 153.479415 
L 269.071631 154.490128 
L 269.583743 155.642635 
L 269.962847 156.928737 
L 270.208496 158.33851 
L 270.32896 160.659455 
L 270.159754 163.18758 
L 269.715774 165.872004 
L 269.018198 168.657164 
L 268.094006 171.48436 
L 266.975382 174.293352 
L 265.698904 177.024009 
L 263.821005 180.442567 
L 261.835232 183.489881 
L 259.845963 186.053756 
L 257.956017 188.04336 
L 256.662305 189.118138 
L 255.51639 189.814701 
L 254.551521 190.124406 
L 254.023153 190.115774 
L 253.595201 189.937499 
L 253.273727 189.593587 
L 253.063651 189.089676 
L 252.965262 188.049944 
L 253.133237 186.697053 
L 253.569093 185.067881 
L 254.268385 183.204957 
L 255.592127 180.439556 
L 257.326331 177.464307 
L 259.416413 174.407523 
L 261.794421 171.399846 
L 264.381493 168.569684 
L 266.406875 166.63714 
L 268.462265 164.920608 
L 270.50804 163.463097 
L 272.504489 162.302257 
L 274.412636 161.469508 
L 276.195055 160.989317 
L 277.296058 160.873699 
L 278.315915 160.925424 
L 279.245731 161.145833 
L 280.077447 161.534569 
L 280.803928 162.089559 
L 281.419057 162.807008 
L 281.917805 163.681418 
L 282.296308 164.705619 
L 282.551916 165.870826 
L 282.70223 167.860028 
L 282.574024 170.102076 
L 282.174743 172.549706 
L 281.518364 175.150358 
L 280.62515 177.847436 
L 279.521171 180.581746 
L 278.237685 183.293004 
L 276.30927 186.769063 
L 274.219139 189.962659 
L 272.067526 192.751019 
L 269.956641 195.0295 
L 268.460331 196.353442 
L 267.082703 197.318697 
L 265.860212 197.908752 
L 264.825339 198.116015 
L 264.253598 198.041825 
L 263.784679 197.800478 
L 263.424463 197.396205 
L 263.177697 196.834844 
L 263.047965 196.123757 
L 263.077734 194.79599 
L 263.379053 193.186575 
L 263.949057 191.336485 
L 264.779108 189.291546 
L 266.265118 186.348148 
L 268.140011 183.271963 
L 270.341773 180.192246 
L 272.796288 177.237995 
L 274.753018 175.179694 
L 276.767154 173.311314 
L 278.799452 171.678239 
L 280.810064 170.321057 
L 282.759331 169.274642 
L 284.608596 168.567395 
L 286.321042 168.220491 
L 287.369654 168.196365 
L 288.332896 168.340462 
L 289.202252 168.653054 
L 289.970084 169.132712 
L 290.629727 169.776298 
L 291.17557 170.578968 
L 291.603133 171.534206 
L 291.909122 172.633862 
L 292.136029 174.532479 
L 292.083613 176.694928 
L 291.757016 179.075676 
L 291.167986 181.623595 
L 290.334655 184.283206 
L 289.281158 186.996048 
L 288.037047 189.702175 
L 286.141461 193.196599 
L 284.059523 196.436049 
L 281.890214 199.295145 
L 280.267371 201.123898 
L 278.695666 202.639424 
L 277.216353 203.811597 
L 275.868155 204.618685 
L 274.68637 205.047717 
L 274.006509 205.121347 
L 273.42256 205.025966 
L 272.941526 204.764279 
L 272.569324 204.340656 
L 272.310738 203.761056 
L 272.169391 203.032954 
L 272.182202 201.682169 
L 272.467241 200.052978 
L 273.021769 198.186555 
L 273.837267 196.12885 
L 274.899672 193.929596 
L 276.666373 190.86797 
L 278.778856 187.7765 
L 281.165912 184.784227 
L 283.087697 182.680717 
L 285.081006 180.753609 
L 287.106938 179.049321 
L 289.125703 177.609709 
L 291.097407 176.471207 
L 292.98287 175.663967 
L 294.744444 175.211163 
L 295.832457 175.114207 
L 296.839961 175.184475 
L 297.757986 175.422936 
L 298.578393 175.828873 
L 299.293968 176.399868 
L 299.898512 177.131799 
L 300.386916 178.018861 
L 300.755233 179.053605 
L 301.000732 180.22699 
L 301.135852 182.223552 
L 300.992189 184.46653 
L 300.576933 186.908238 
L 299.903841 189.495875 
L 298.992964 192.172807 
L 297.870199 194.879995 
L 296.566656 197.557501 
L 294.609342 200.979173 
L 292.487723 204.10921 
L 290.302028 206.82691 
L 288.68233 208.532235 
L 287.126684 209.912693 
L 285.67571 210.941382 
L 284.367222 211.59992 
L 283.235344 211.878778 
L 282.593749 211.853061 
L 282.051538 211.6601 
L 281.615234 211.303552 
L 281.290251 210.788693 
L 281.080856 210.122345 
L 280.989934 208.857259 
L 281.17119 207.303807 
L 281.624071 205.50151 
L 282.342132 203.494968 
L 283.313301 201.332819 
L 284.97112 198.297495 
L 286.992799 195.204945 
L 289.310306 192.184134 
L 291.195372 190.041688 
L 293.16603 188.061387 
L 295.183831 186.290635 
L 297.209153 184.772572 
L 299.201976 183.545153 
L 301.122692 182.640315 
L 302.932926 182.083212 
L 304.06033 181.914072 
L 305.112357 181.910828 
L 306.079606 182.075154 
L 306.953454 182.407059 
L 307.726157 182.904857 
L 308.390937 183.565166 
L 308.942069 184.382915 
L 309.374954 185.351371 
L 309.686184 186.462195 
L 309.920545 188.373345 
L 309.874749 190.542864 
L 309.553576 192.924874 
L 308.968426 195.468068 
L 308.137129 198.116925 
L 307.083544 200.81311 
L 305.83701 203.496946 
L 304.431593 206.108966 
L 302.376551 209.380629 
L 300.204198 212.295203 
L 298.55923 214.179146 
L 296.948801 215.759806 
L 295.414976 217.005294 
L 293.997676 217.891909 
L 292.733728 218.404634 
L 291.656049 218.537285 
L 291.055255 218.41553 
L 290.557049 218.128787 
L 290.16747 217.681628 
L 289.891428 217.080198 
L 289.732672 216.332139 
L 289.719737 214.955247 
L 289.979842 213.304895 
L 290.51065 211.422556 
L 291.304017 209.354366 
L 292.346225 207.150126 
L 293.618348 204.862239 
L 295.63054 201.774927 
L 297.94102 198.763505 
L 299.822517 196.630549 
L 301.791092 194.661561 
L 303.808288 192.903663 
L 305.834441 191.399668 
L 307.82946 190.187185 
L 309.753636 189.297776 
L 311.568468 188.756211 
L 312.699494 188.597295 
L 313.755532 188.604031 
L 314.727124 188.777979 
L 315.605592 189.119034 
L 316.383129 189.625405 
L 317.052896 190.293604 
L 317.609102 191.118464 
L 318.047083 192.093164 
L 318.363366 193.209283 
L 318.605078 195.126449 
L 318.566164 197.299503 
L 318.251198 199.682437 
L 317.671378 202.223877 
L 316.844362 204.868303 
L 315.793852 207.557447 
L 314.549059 210.231768 
L 313.143952 212.831992 
L 311.616403 215.300659 
L 310.00719 217.583593 
L 308.358943 219.631314 
L 306.715035 221.400236 
L 305.118474 222.853751 
L 303.610837 223.963023 
L 302.231253 224.707623 
L 301.015508 225.075838 
L 300.311845 225.110451 
L 299.703369 224.977669 
L 299.197266 224.680514 
L 298.799642 224.223645 
L 298.515475 223.613291 
L 298.348584 222.857165 
L 298.323576 221.469918 
L 298.571961 219.811464 
L 299.091627 217.923397 
L 299.874627 215.851934 
L 300.907432 213.646898 
L 302.171275 211.360668 
L 304.17441 208.279242 
L 305.878282 206.013599 
L 307.718818 203.846081 
L 309.660356 201.827824 
L 311.665011 200.006902 
L 313.693408 198.427375 
L 315.705451 197.12835 
L 317.661119 196.143147 
L 319.521299 195.498505 
L 321.248611 195.21393 
L 322.309018 195.230361 
L 323.285323 195.41364 
L 324.168787 195.763556 
L 324.951543 196.278215 
L 325.626688 196.954031 
L 326.188366 197.785746 
L 326.631845 198.766454 
L 326.953584 199.887659 
L 327.203257 201.810582 
L 327.171837 203.986995 
L 326.863683 206.370766 
L 326.289793 208.910465 
L 325.467643 211.550577 
L 324.420776 214.232906 
L 323.178274 216.898043 
L 321.774004 219.486909 
L 320.245774 221.942289 
L 318.634331 224.210301 
L 316.982313 226.241793 
L 315.333136 227.99354 
L 313.729888 229.429308 
L 312.214261 230.520651 
L 310.825531 231.247516 
L 309.599652 231.598572 
L 308.888781 231.622238 
L 308.272808 231.47902 
L 307.758985 231.17203 
L 307.353484 230.706014 
L 307.061353 230.08728 
L 306.886479 229.323609 
L 306.849615 227.926741 
L 307.086488 226.260849 
L 307.595205 224.367646 
L 308.368026 222.293418 
L 309.391609 220.08801 
L 310.647349 217.803775 
L 312.11181 215.4945 
L 313.757212 213.21434 
L 315.552 211.016757 
L 317.461455 208.953466 
L 319.44837 207.07343 
L 321.473767 205.421863 
L 323.497651 204.039319 
L 325.479809 202.960794 
L 327.38062 202.21496 
L 329.161901 201.823428 
L 330.26516 201.766482 
L 331.289356 201.875552 
L 332.225295 202.151157 
L 333.064602 202.592144 
L 333.799817 203.195675 
L 334.424487 203.957233 
L 334.933241 204.870648 
L 335.32187 205.928135 
L 335.58738 207.120356 
L 335.751371 209.137298 
L 335.634449 211.390619 
L 335.242974 213.83221 
L 334.589946 216.409093 
L 333.69473 219.064739 
L 332.582645 221.740468 
L 331.284325 224.376964 
L 329.834972 226.91581 
L 328.273426 229.300999 
L 326.641171 231.480382 
L 324.981243 233.406983 
L 323.337129 235.040166 
L 321.75166 236.346579 
L 320.265952 237.300899 
L 318.918426 237.886323 
L 317.743925 238.094825 
L 317.072311 238.024451 
L 316.499092 237.789093 
L 316.031053 237.392773 
L 315.673877 236.841108 
L 315.432105 236.141224 
L 315.292867 234.832551 
L 315.42693 233.244221 
L 315.834608 231.416337 
L 316.510302 229.393849 
L 317.442693 227.225571 
L 318.615066 224.963118 
L 320.005683 222.65986 
L 321.588281 220.36984 
L 322.735196 218.877059 
L 322.735196 218.877059 
" clip-path="url(#p454a1b1327)" style="fill: none; stroke: #1f77b4; stroke-width: 1.5; stroke-linecap: square"/>
   </g>
  </g>
 </g>
 <defs>
  <clipPath id="p454a1b1327">
   <rect x="103.104" y="41.472" width="266.112" height="266.112"/>
  </clipPath>
 </defs>
</svg>
